<?xml version="1.0" standalone="no"?><!DOCTYPE svg PUBLIC "-//W3C//DTD SVG 1.1//EN" "http://www.w3.org/Graphics/SVG/1.1/DTD/svg11.dtd"><svg class="icon" width="200px" height="200.00px" viewBox="0 0 1024 1024" version="1.1" xmlns="http://www.w3.org/2000/svg"><path d="M829.932 746.654l-0.196 53.168c-0.04 4.806-3.19 9.61-9.512 13.294l-284.26 165.178c-12.7 7.386-33.376 7.386-46.14 0.02l-286.126-165.22c-6.42-3.68-9.63-8.564-9.63-13.41l0.196-53.168c0 4.884 3.21 9.728 9.63 13.45l286.13 165.18c12.76 7.384 33.438 7.384 46.138 0l284.278-165.22c6.3-3.662 9.454-8.448 9.492-13.272z" fill="#6DCB60" /><path d="M820.44 759.926l-284.276 165.22c-12.702 7.384-33.38 7.384-46.12 0l-169.748-97.97v53.248l169.55 97.89c12.74 7.366 33.418 7.366 46.12-0.02l284.258-165.18c6.32-3.68 9.472-8.486 9.492-13.292l0.198-53.168c0 4.824-3.152 9.61-9.472 13.292v-0.02z" fill="#3DB542" /><path d="M820.44 759.926l-184.852 107.44V920.4l184.636-107.282c6.32-3.684 9.472-8.488 9.492-13.294l0.196-53.168c0 4.824-3.15 9.61-9.472 13.292v-0.02z" fill="#2C9A2C" /><path d="M820.304 733.224c12.76 7.384 12.838 19.338 0.118 26.72l-284.26 165.22c-12.72 7.364-33.36 7.364-46.14 0l-286.128-165.22c-12.76-7.364-12.84-19.316-0.118-26.7l284.26-165.22c12.72-7.364 33.358-7.364 46.138 0l286.13 165.2z" fill="#81D672" /><path d="M751.636 201.256l-0.946 542.64L512 882.612l0.946-542.622 238.69-138.732z" fill="#006CB5" /><path d="M512.946 339.988L512 882.608 271.754 743.9l0.926-542.622 240.266 138.712z" fill="#0074D1" /><path d="M751.636 201.256l-238.69 138.732-240.246-138.712L511.37 62.56l240.266 138.694z" fill="#3F9AE0" /><path d="M677.22 135.876l0.116 69.26-164.686 95.704-0.1-69.278 164.668-95.686z" fill="#C4C2C0" /><path d="M552.114 277.898l125.222-72.764-0.118-69.258-125.104 72.704v69.318z" fill="#B2B0AF" /><path d="M627.338 234.2l50-29.066-0.12-69.258-49.88 28.988V234.2z" fill="#C4C2C0" /><path d="M512.552 231.56l0.098 69.28-165.75-95.706-0.1-69.276 165.752 95.704z" fill="#D6D4D2" /><path d="M413.854 243.79l98.796 57.05-0.1-69.278-98.696-56.99v69.22z" fill="#C4C2C0" /><path d="M475.214 279.218l37.436 21.62-0.1-69.276-37.336-21.564v69.22z" fill="#D6D4D2" /><path d="M677.22 135.876l-164.668 95.686L346.8 135.858l164.666-95.706 165.752 95.724z" fill="#E9E8E6" /><path d="M511.488 57.344v21.032l117.938 68.076 18.136-10.556-136.074-78.552z" fill="#D6D4D2" /><path d="M376.458 135.818l18.156 10.476 116.874-67.94V57.366l-135.03 78.454z" fill="#C4C2C0" /><path d="M629.406 146.452l-117.918-68.076-116.854 67.938 117.918 68.076 116.854-67.94z" fill="#FFFFFF" /><path d="M301.036 335.202l0.1-57.304-8.232-4.766-0.12 66.66 8.252-4.59z" fill="#006CB5" /><path d="M492.544 445.774l-191.508-110.572-8.27 4.588 199.76 115.32 0.018-9.336z" fill="#3F9AE0" /><path d="M301.134 277.88l-0.098 57.322 191.508 110.572 0.1-57.304-191.51-110.592z" fill="#B5E5F4" /><path d="M301.036 454.538l0.1-57.304-8.232-4.766-0.12 66.658 8.252-4.588z" fill="#006CB5" /><path d="M492.544 565.11l-191.508-110.572-8.27 4.588 199.76 115.32 0.018-9.336z" fill="#3F9AE0" /><path d="M301.134 397.214l-0.098 57.324 191.508 110.572 0.1-57.304-191.51-110.592z" fill="#B5E5F4" /><path d="M301.036 573.874l0.1-57.306-8.232-4.764-0.12 66.658 8.252-4.588z" fill="#006CB5" /><path d="M492.544 684.446l-191.508-110.572-8.27 4.588 199.76 115.318 0.018-9.334z" fill="#3F9AE0" /><path d="M301.134 516.548l-0.098 57.326 191.508 110.572 0.1-57.306-191.51-110.592z" fill="#B5E5F4" /><path d="M301.036 693.208l0.1-57.304-8.232-4.766-0.12 66.66 8.252-4.59z" fill="#006CB5" /><path d="M492.544 803.78l-191.508-110.572-8.27 4.588 199.76 115.32 0.018-9.336z" fill="#3F9AE0" /><path d="M301.134 635.884l-0.098 57.324 191.508 110.572 0.1-57.304-191.51-110.592z" fill="#B5E5F4" /><path d="M723.496 335.202l-0.1-57.304 8.232-4.766 0.12 66.66-8.252-4.59z" fill="#0074D1" /><path d="M531.988 445.774l191.508-110.572 8.25 4.588-199.76 115.32v-9.336z" fill="#3F9AE0" /><path d="M723.396 277.88l0.1 57.322-191.508 110.572-0.1-57.304 191.508-110.592z" fill="#B5E5F4" /><path d="M723.496 454.538l-0.1-57.304 8.232-4.766 0.12 66.658-8.252-4.588z" fill="#0074D1" /><path d="M531.988 565.11l191.508-110.572 8.25 4.588-199.76 115.32v-9.336z" fill="#3F9AE0" /><path d="M723.396 397.214l0.1 57.324-191.508 110.572-0.1-57.304 191.508-110.592z" fill="#B5E5F4" /><path d="M723.496 573.874l-0.1-57.306 8.232-4.764 0.12 66.658-8.252-4.588z" fill="#0074D1" /><path d="M531.988 684.446l191.508-110.572 8.25 4.588-199.76 115.318v-9.334z" fill="#3F9AE0" /><path d="M723.396 516.548l0.1 57.326-191.508 110.572-0.1-57.306 191.508-110.592z" fill="#B5E5F4" /><path d="M681.06 794.684l-8.568-4.984-0.374-121.992 8.566 4.98 0.374 121.996z m-76.584 44.208l-8.568-4.982-0.392-133 8.546 4.98 0.414 133.002z" fill="#D6D4D2" /><path d="M604.06 705.89l-8.564-4.98 86.172-49.764 8.586 4.982-86.192 49.762z" fill="#FFFFFF" /><path d="M690.254 656.148l0.394 133-9.59 5.516-0.374-121.974-66.992 38.674 0.374 121.994-9.59 5.534-0.394-133 86.172-49.744z" fill="#E9E8E6" /><path d="M672.492 789.7l-0.374-112.048-58.426 33.712v44.426l58.76 33.93 0.04-0.02z" fill="#CEA03A" /><path d="M672.452 789.72l-58.76-33.93v67.722l58.76-33.792z" fill="#FFD651" /><path d="M460.21 294.066a45.972 45.972 0 0 0-18.748 11.716c-5.316 5.474-9.374 11.874-11.716 18.904-0.946 2.364-3.92 2.364-4.846 0a47.3 47.3 0 0 0-30.482-30.62c-2.344-0.63-2.344-3.742 0-4.53 7.186-2.52 13.586-6.42 19.06-11.736 5.004-5.16 9.06-11.718 11.422-18.748 0.926-2.66 3.9-2.66 4.846 0 2.342 7.03 6.4 13.588 11.716 18.748 5.16 5.316 11.56 9.216 18.748 11.716 2.362 0.788 2.362 3.92 0 4.53v0.02z" fill="#FFFFFF" /></svg>