<?xml version="1.0" standalone="no"?><!DOCTYPE svg PUBLIC "-//W3C//DTD SVG 1.1//EN" "http://www.w3.org/Graphics/SVG/1.1/DTD/svg11.dtd"><svg class="icon" width="200px" height="200.00px" viewBox="0 0 1024 1024" version="1.1" xmlns="http://www.w3.org/2000/svg"><path d="M267.342 689.78l388.786-225.928 0.334-117.956L267.68 571.866l-0.336 117.916z" fill="#515963" /><path d="M39.72 440.4l227.958 131.348 388.668-225.754-227.96-131.662L39.72 440.4z" fill="#E9E8E6" /><path d="M624.858 346.034l-196.45-113.448L71.228 440.32l196.41 113.172 357.22-207.46z" fill="#B2B0AF" /><path d="M87.374 449.654l-16.146-9.314 357.18-207.754 196.45 113.448-16.148 9.372-180.302-104.132-341.034 198.38z" fill="#D6D4D2" /><path d="M39.72 440.24l-0.336 164.116 227.96 131.606 0.332-164.078L39.72 440.242z" fill="#C4C2C0" /><path d="M544.946 896.216l388.804-225.95 0.788-324.174-388.806 225.93-0.786 324.194z" fill="#D6D4D2" /><path d="M343.12 320.12c-33.616 19.396-33.794 50.646-0.276 70.102 33.26 19.34 87.334 19.418 120.93 0 33.476-19.298 33.792-50.786 0.532-70.104-33.518-19.476-87.71-19.338-121.188 0z" fill="#909293" /><path d="M327.286 171.52l0.316 181.564c0 10.436 6.576 21.07 19.594 29.32 0.904 0.728 1.83 1.28 2.756 1.832 0.532 0.354 1.084 0.552 1.634 0.906 28.752 15.95 73.826 16.128 103.484 0.926 1.102-0.73 2.204-1.28 3.308-1.832 0.354-0.198 0.728-0.374 1.102-0.728 14.278-8.43 21.426-19.792 21.426-30.956l-1.064-181.584c0 10.988-6.46 21.978-20.36 30.406-0.634 0.492-1.314 0.92-2.03 1.28-0.728 0.354-1.458 0.906-2.362 1.28-29.322 15.754-74.556 15.754-103.504 0-0.906-0.374-1.654-0.926-2.362-1.28-0.748-0.374-1.478-0.73-2.028-1.28-13.746-8.428-19.89-19.24-19.89-29.854h-0.02z" fill="#DD4A4A" /><path d="M400.226 179.634l0.354 36.686c-17.722-0.354-35.13-4.274-49.032-11.716l44.66-26.054c1.28 0.728 2.56 1.084 4.02 1.084z m6.42-15.006l-0.354-36.824c17.722 0.334 35.15 4.232 49.132 11.696l-44.74 26.034a9.986 9.986 0 0 0-4.038-0.906z m3.486 14.276l44.958 25.68c-13.806 7.364-30.996 11.244-48.464 11.696l-0.354-36.45a9.846 9.846 0 0 0 3.86-0.926z m6.596-4.942h63.036c-0.808 10.16-7.582 20.126-20.304 28.1L414.88 176.344c0.816-0.612 1.45-1.436 1.83-2.382h0.02z m-1.85-6.222l44.642-25.916c12.938 8.034 19.692 18.176 20.284 28.476h-63.076c-0.38-1.002-1.02-1.886-1.85-2.56z m-22.882 8.604l-44.682 25.798c-12.8-8.034-19.496-18.02-20.224-28.18h63.25c0.198 0.926 0.926 1.654 1.656 2.362v0.02z m-1.832-5.67h-63.154c0.592-10.24 7.366-20.304 20.166-28.398l44.444 25.994a4.726 4.726 0 0 0-1.456 2.404z m6.046-5.14l-44.624-25.876c13.786-7.404 31.056-11.342 48.64-11.816v36.786a9.986 9.986 0 0 0-4.016 0.906z" fill="#F25A5A" /><path d="M327.01 170.674h63.154c0.234-0.924 0.742-1.754 1.458-2.384l-44.446-26.014c0.806-0.512 1.378-1.1 2.244-1.594 0.67-0.394 1.478-0.65 2.166-1.024l44.624 25.876a9.984 9.984 0 0 1 4.016-0.906V127.84c2.028-0.04 4.038-0.08 6.066-0.04l0.354 36.826c1.458 0 2.758 0.354 4.038 0.906l44.74-26.034c0.788 0.414 1.714 0.728 2.5 1.18 0.612 0.356 1.026 0.79 1.596 1.144L414.878 167.74c0.83 0.676 1.47 1.56 1.85 2.56h63.094c0.08 1.22 0.06 2.44-0.06 3.66h-63.034c-0.39 0.944-1.03 1.76-1.85 2.364l44.582 25.74c-0.728 0.452-1.24 0.964-1.988 1.396-0.748 0.434-1.614 0.71-2.362 1.124l-44.98-25.68a9.846 9.846 0 0 1-3.858 0.926l0.354 36.43a129.624 129.624 0 0 1-6.044 0.06l-0.356-36.686a7.836 7.836 0 0 1-4.016-1.084l-44.644 26.054c-0.768-0.414-1.634-0.71-2.382-1.144-0.708-0.392-1.18-0.886-1.87-1.32l44.68-25.796c-0.728-0.728-1.476-1.456-1.652-2.382h-63.252a25.496 25.496 0 0 1-0.08-3.288z" fill="#CC4848" /><path d="M406.626 399.124h-6.046V216.26h6.046v182.864z m-59.45-197.16v180.44c0.924 0.73 1.85 1.28 2.756 1.832 0.552 0.354 1.104 0.552 1.654 0.906v-180.618l-4.41-2.56z m107.914 2.56v181.544c1.082-0.728 2.186-1.28 3.288-1.832 0.354-0.196 0.728-0.374 1.102-0.728v-181.544l-4.39 2.56z" fill="#CC4848" /><path d="M183.374 412.08c-33.614 19.398-33.792 50.65-0.274 70.106 33.26 19.338 87.334 19.416 120.93 0 33.476-19.3 33.792-50.786 0.532-70.104-33.518-19.476-87.71-19.34-121.188 0z" fill="#909293" /><path d="M167.246 263.58l0.572 181.446c0 10.516 6.538 21.032 19.594 29.282 0.866 0.848 1.988 1.42 2.854 1.97l1.694 0.866c13.648 7.68 31.252 11.64 48.876 11.934 1.97 0.276 3.98 0.276 5.968 0.276 17.328-0.276 34.382-3.978 48.58-11.364 1.076-0.51 2.12-1.08 3.132-1.712 0.57-0.276 0.846-0.552 1.122-0.848 14.494-8.526 21.602-19.888 21.602-30.954l-1.556-182.234c0 10.792-6.104 22.646-20.046 31.174-0.552 0.534-1.228 0.92-1.97 1.12-0.648 0.636-1.428 1.12-2.284 1.42-13.646 7.384-30.976 11.086-48.58 11.658h-5.968c-17.624-0.296-34.954-3.98-48.876-11.66-1.12-0.274-1.694-0.846-2.56-1.416-0.55-0.276-1.418-0.572-1.968-1.122-13.648-8.528-20.186-19.34-20.186-29.834z" fill="#DD4A4A" /><path d="M240.482 271.596l0.354 36.688c-17.722-0.356-35.13-4.274-49.032-11.718l44.66-26.072c1.28 0.748 2.56 1.102 4.02 1.102z m6.42-15.006l-0.354-36.824c17.722 0.334 35.15 4.234 49.132 11.698l-44.74 26.032a9.988 9.988 0 0 0-4.038-0.906z m3.486 14.278l44.958 25.68c-13.806 7.364-30.996 11.242-48.464 11.696l-0.354-36.45a9.846 9.846 0 0 0 3.86-0.926z m6.596-4.944h63.056c-0.828 10.162-7.6 20.126-20.324 28.102l-44.582-25.72c0.824-0.608 1.464-1.432 1.85-2.38z m-1.85-6.22l44.642-25.916c12.938 8.034 19.692 18.176 20.284 28.474h-63.076c-0.38-1-1.02-1.884-1.85-2.56z m-22.882 8.604l-44.682 25.796c-12.8-8.034-19.496-18.018-20.224-28.18h63.25c0.198 0.906 0.926 1.656 1.656 2.364v0.02z m-1.852-5.672H167.286c0.59-10.24 7.366-20.302 20.166-28.396l44.444 25.994a4.726 4.726 0 0 0-1.456 2.402h-0.04z m6.066-5.14L191.84 231.62c13.786-7.404 31.056-11.34 48.64-11.814v36.784a9.986 9.986 0 0 0-4.016 0.906z" fill="#F25A5A" /><path d="M167.266 262.636h63.154c0.234-0.922 0.742-1.754 1.456-2.382L187.432 234.24c0.806-0.512 1.378-1.102 2.244-1.596 0.67-0.392 1.478-0.648 2.166-1.024l44.624 25.876a9.984 9.984 0 0 1 4.016-0.906v-36.784c2.028-0.04 4.038-0.08 6.066-0.04l0.354 36.824c1.458 0 2.758 0.356 4.038 0.906l44.74-26.032c0.788 0.412 1.714 0.728 2.5 1.18 0.612 0.356 1.024 0.788 1.596 1.144l-44.642 25.914c0.83 0.676 1.468 1.56 1.85 2.56h63.094c0.08 1.22 0.06 2.442-0.04 3.662h-63.054c-0.39 0.942-1.03 1.76-1.85 2.364l44.582 25.738c-0.728 0.452-1.24 0.964-1.988 1.398-0.748 0.434-1.614 0.71-2.364 1.122l-44.976-25.68a9.844 9.844 0 0 1-3.86 0.928l0.354 36.43a129.632 129.632 0 0 1-6.046 0.06l-0.354-36.688c-1.414 0-2.8-0.38-4.016-1.102l-44.662 26.072c-0.768-0.414-1.636-0.708-2.384-1.142-0.708-0.394-1.18-0.906-1.87-1.32l44.68-25.796c-0.728-0.728-1.476-1.478-1.652-2.384H167.346a25.564 25.564 0 0 1-0.08-3.288z" fill="#DD4A4A" /><path d="M240.836 308.38v180.7c1.97 0.274 3.98 0.274 5.968 0.274V308.38h-5.968z m-53.384-14.452v180.44c0.904 0.728 1.83 1.28 2.756 1.832 0.532 0.354 1.084 0.55 1.634 0.906v-180.62l-4.39-2.56z m107.874 2.56v181.542c1.102-0.748 2.206-1.28 3.308-1.83 0.354-0.198 0.728-0.374 1.102-0.75v-181.522l-4.41 2.56z" fill="#CC4848" /><path d="M268.21 411.45l277.58 160.532 388.966-226.146-277.86-160.256-388.686 225.87z" fill="#E9E8E6" /><path d="M313.344 411.412l20.56 11.894 323.032-187.728v-23.826l-343.592 199.66z" fill="#D6D4D2" /><path d="M656.936 211.752v23.826L869 357.868l20.578-11.952-232.644-134.164z" fill="#C4C2C0" /><path d="M869.002 357.868L656.914 235.58l-323.012 187.726 211.87 122.506 323.23-187.944z" fill="#B2B0AF" /><path d="M268.13 411.766l-0.788 324.174 277.602 160.276 0.788-324.194-277.6-160.256z" fill="#C4C2C0" /><path d="M545.93 572.06l50.02 53.13L984.614 399.32l-50.02-53.13L545.932 572.06z" fill="#F25A5A" /><path d="M545.654 620.366l50.294 4.826-50.02-53.13-0.274 48.304z" fill="#DD4A4A" /><path d="M306.254 474.584l-8.782-5.04v243.08l8.782-3.464V474.584z" fill="#D6D4D2" /><path d="M306.254 474.584V709.16l40.31 23.28 0.198-234.576-40.508-23.278z m168.842 97.478v234.574l40.506 23.276V595.34l-40.506-23.276z" fill="#3F9AE0" /><path d="M346.564 732.436l-40.31-23.276-8.782 3.466 49.014 28.316 0.08-8.506z" fill="#FFFFFF" /><path d="M390.676 523.324v234.574l40.506 23.278V546.6l-40.506-23.276z" fill="#3F9AE0" /><path d="M390.676 523.324l-8.784-5.042v243.08l8.784-3.464V523.324z" fill="#D6D4D2" /><path d="M390.676 757.898l-8.784 3.466 49.29 28.318v-8.508l-40.506-23.276z" fill="#FFFFFF" /><path d="M475.096 572.06l-8.782-5.04v243.082l8.782-3.466V572.062z" fill="#D6D4D2" /><path d="M475.096 806.636l-8.782 3.466 49.29 28.338v-8.528l-40.508-23.276z" fill="#FFFFFF" /><path d="M885.21 699.038l-97.4 56.202V558l96.828-55.866 0.572 196.904z m-161.32 93.52l-100.432 57.952-2.224-199.068 102.064-57.896 0.592 199.01z" fill="#434240" /><path d="M889.778 701.696l-4.57-2.66-0.452-164.33 4.568 2.658 0.454 164.332z m-0.474-173.154l-4.588-2.64-0.08-29.084 4.57 2.658 0.1 29.066z m-54.054 204.64l-4.59-2.656-0.452-164.332 4.568 2.658 0.474 164.332z" fill="#D6D4D2" /><path d="M842.436 555.62l-4.568-2.66 46.868-27.058 4.568 2.66-46.868 27.056z" fill="#FFFFFF" /><path d="M834.756 560.05l-4.588-2.66-0.08-29.084 4.59 2.658 0.08 29.086z" fill="#D6D4D2" /><path d="M787.89 587.106l-4.57-2.658 46.868-27.058 4.568 2.66-46.866 27.056z" fill="#FFFFFF" /><path d="M780.7 764.69l-4.568-2.658-0.59-211.04 4.568 2.658 0.592 211.04z" fill="#C4C2C0" /><path d="M780.11 553.65l-4.588-2.66 116.776-67.426 4.568 2.66-116.756 67.426z" fill="#FFFFFF" /><path d="M780.11 553.65l116.776-67.428 0.59 211.042-7.68 4.432-0.472-164.332-46.868 27.056 0.474 164.332-7.68 4.432-0.474-164.332-46.868 27.056 0.474 164.332-7.68 4.45-0.592-211.04z m54.646 6.4l-0.078-29.086-46.868 27.056 0.08 29.086 46.866-27.056z m54.548-31.508l-0.098-29.066-46.868 27.056 0.1 29.086 46.866-27.076z" fill="#B2B0AF" /><path d="M727.71 795.766l-4.57-2.66-0.472-164.35 4.588 2.66 0.454 164.35z m-0.474-173.154l-4.588-2.66-0.08-29.084 4.57 2.66 0.1 29.084z m-54.074 204.64l-4.568-2.656-0.474-164.332 4.588 2.658 0.454 164.332z" fill="#D6D4D2" /><path d="M680.37 649.65l-4.59-2.64 46.868-27.056 4.57 2.658-46.848 27.038z" fill="#FFFFFF" /><path d="M672.69 654.1l-4.59-2.66-0.078-29.084 4.568 2.66 0.1 29.084z" fill="#D6D4D2" /><path d="M625.82 681.156l-4.586-2.658 46.866-27.056 4.57 2.658-46.848 27.056z" fill="#FFFFFF" /><path d="M618.634 858.74l-4.588-2.656-0.592-211.042 4.57 2.658 0.61 211.04z" fill="#C4C2C0" /><path d="M618.024 647.7l-4.57-2.66 116.776-67.426 4.568 2.66-116.774 67.426z" fill="#FFFFFF" /><path d="M618.024 647.7l116.774-67.426 0.592 211.06-7.68 4.432-0.454-164.352-46.868 27.058 0.454 164.352-7.68 4.43-0.454-164.332-46.866 27.038 0.472 164.352-7.68 4.43-0.61-211.042z m54.646 6.4l-0.08-29.086-46.866 27.058 0.098 29.086 46.848-27.06z m54.548-31.488l-0.08-29.086-46.868 27.058 0.1 29.086 46.848-27.06z" fill="#C4C2C0" /><path d="M238.474 603.49l-0.158 62.17-4.214 2.44-65.714-37.926 0.198-62.17 4.194-2.44 65.694 37.926z m-164.51-93.734l63.548 36.706-0.16 60.14-4.074 2.324-63.568-36.668 0.198-60.14 4.056-2.362z" fill="#3F9AE0" /><path d="M170.556 628.48l4.488-2.6 0.16-55.964-4.492 2.6-0.156 55.964z" fill="#C4C2C0" /><path d="M231.66 663.748l4.49-2.6-61.106-35.268-4.488 2.6 61.104 35.268z" fill="#FFFFFF" /><path d="M236.15 671.548l4.49-2.62 0.196-66.324-4.488 2.6-0.198 66.344z" fill="#C4C2C0" /><path d="M236.348 605.204l4.47-2.6-70.106-40.468-4.49 2.6 70.126 40.468z" fill="#FFFFFF" /><path d="M236.15 671.548L166.046 631.06l0.196-66.324 70.106 40.468-0.198 66.344zM170.574 628.48l61.086 35.268 0.158-55.964-61.106-35.25-0.138 55.946z" fill="#D6D4D2" /><path d="M70.734 570.998l4.49-2.6 0.16-55.964-4.492 2.6-0.158 55.964z" fill="#C4C2C0" /><path d="M131.84 606.286l4.49-2.62L75.224 568.4l-4.49 2.6 61.106 35.288z" fill="#FFFFFF" /><path d="M136.33 614.066l4.49-2.62 0.196-66.324-4.49 2.62-0.196 66.324z" fill="#C4C2C0" /><path d="M136.526 547.74l4.47-2.618-70.104-40.468-4.49 2.6 70.124 40.488z" fill="#FFFFFF" /><path d="M136.33 614.064L66.226 573.58l0.196-66.324 70.104 40.488-0.196 66.322zM70.754 571l61.086 35.288 0.158-55.964-61.106-35.29-0.138 55.966z m561.84-162.44l-0.076 26.642-103.248 60.002 0.08-26.604 103.246-60.04z" fill="#D6D4D2" /><path d="M529.33 468.58l-0.06 26.584-103.936-59.984 0.08-26.624 103.916 60.022z" fill="#E9E8E6" /><path d="M632.594 408.556l-103.246 60.022-103.936-60.02 103.248-60.004 103.934 60.002z" fill="#FFFFFF" /><path d="M555.4 393.374c14.476 8.368 14.772 22.174 0.376 30.542-14.592 8.468-38.46 8.37-52.932 0-14.888-8.586-14.968-22.292-0.394-30.78 14.414-8.348 38.064-8.348 52.952 0.238z" fill="#434240" /><path d="M783.32 322.402l-0.08 26.586-103.264 60.02 0.08-26.604 103.264-60z" fill="#D6D4D2" /><path d="M680.054 382.404l-0.08 26.606-103.916-60.004 0.06-26.604 103.936 60.002z" fill="#E9E8E6" /><path d="M783.32 322.402l-103.266 60.002-103.936-60 103.266-60.004 103.936 60.002z" fill="#FFFFFF" /><path d="M706.106 307.2c14.494 8.37 14.77 22.194 0.394 30.542-14.61 8.468-38.46 8.37-52.952 0-14.888-8.586-14.966-22.29-0.374-30.78 14.396-8.348 38.046-8.348 52.932 0.238z" fill="#434240" /></svg>