<?xml version="1.0" standalone="no"?><!DOCTYPE svg PUBLIC "-//W3C//DTD SVG 1.1//EN" "http://www.w3.org/Graphics/SVG/1.1/DTD/svg11.dtd"><svg class="icon" width="200px" height="200.00px" viewBox="0 0 1024 1024" version="1.1" xmlns="http://www.w3.org/2000/svg"><path d="M62.78 626.294l0.078 52.48 152.044 88.36-0.08-52.48-152.042-88.36z m152.064 88.36l0.058 52.48 372.914 217.482-0.08-52.48-372.892-217.482z" fill="#3DB542" /><path d="M457.65 856.26v52.44L214.9 767.136l-0.08-52.48 242.828 141.606z" fill="#6DCB60" /><path d="M331.834 782.888v52.44l-116.932-68.194-0.08-52.48 117.012 68.234z" fill="#2C9A2C" /><path d="M587.736 932.136l0.08 52.48L961.28 769.004l-0.08-52.46-373.464 215.592z" fill="#6DCB60" /><path d="M854.428 778.16v52.52l-266.612 153.936-0.08-52.48 266.692-153.974z" fill="#3DB542" /><path d="M759.256 833.122v52.52l-171.44 98.974-0.08-52.48 171.52-99.014z" fill="#2C9A2C" /><path d="M62.72 626.236l152.124 88.418 220.75 129.064 152.162 88.438L961.22 716.604l-525.036-305.92L62.72 626.236z" fill="#81D672" /><path d="M884.678 436.814l-0.69 273.486-311.18 180.854 0.672-273.504 311.198-180.836z" fill="#8D9799" /><path d="M573.48 617.65l-0.67 273.506-445.44-257.182 0.69-273.486 445.42 257.16z" fill="#A0A8AA" /><path d="M277.582 446.82v273.88l295.228 170.456 0.668-273.506-295.896-170.832z" fill="#8D9799" /><path d="M465.212 555.126v273.92l107.598 62.13 0.67-273.508-108.268-62.54z" fill="#7E8A8C" /><path d="M884.678 436.816l-311.2 180.834L128.06 360.468l311.18-180.834 445.44 257.18z" fill="#E9E8E6" /><path d="M884.678 296.566l-0.69 343.966-311.18 180.834 0.672-343.966 311.198-180.834z" fill="#C4C2C0" /><path d="M573.48 477.4l-0.67 343.968-445.44-257.182 0.69-343.966L573.48 477.4z" fill="#D6D4D2" /><path d="M884.678 296.566l-311.2 180.834L128.06 220.22l311.18-180.836 445.44 257.182z" fill="#E9E8E6" /><path d="M180.54 220.16l25.934 14.966 232.82-135.286V69.77L180.54 220.16z" fill="#C4C2C0" /><path d="M439.296 69.79V99.82l366.966 211.89 25.916-15.084L439.296 69.79z" fill="#D6D4D2" /><path d="M806.26 311.69L439.298 99.84l-232.822 135.286L573.44 447.016l232.82-135.326z" fill="#909293" /><path d="M155.648 343l0.196-69.73L545.24 498.02l-0.196 69.77L155.648 343z" fill="#C4C2C0" /><path d="M170.34 291.76l-5.752-3.346-0.158 49.526 5.79-3.052 0.12-43.126z" fill="#C4C2C0" /><path d="M170.22 334.888l-5.79 3.052L536.28 552.646l0.02-6.38-366.08-211.38z" fill="#E9E8E6" /><path d="M170.34 291.76l-0.12 43.128 366.08 211.378 0.14-43.166L170.34 291.76z" fill="#3F9AE0" /><path d="M155.648 443.076l0.196-69.75L545.22 598.114l-0.196 69.77L155.648 443.076z" fill="#C4C2C0" /><path d="M170.34 391.818l-5.752-3.328-0.158 49.526 5.79-3.052 0.12-43.146z" fill="#C4C2C0" /><path d="M170.22 434.964l-5.79 3.052L536.28 652.722l0.02-6.4L170.22 434.96z" fill="#E9E8E6" /><path d="M170.34 391.818l-0.12 43.126 366.08 211.378 0.14-43.146-366.1-211.36z" fill="#3F9AE0" /><path d="M155.648 543.114l0.196-69.71L545.22 698.172l-0.196 69.77L155.648 543.114z" fill="#C4C2C0" /><path d="M170.34 491.894l-5.752-3.348-0.158 49.526 5.79-3.052 0.12-43.126z" fill="#C4C2C0" /><path d="M170.22 535.04l-5.79 3.032L536.28 752.78l0.02-6.38L170.22 535.04z" fill="#E9E8E6" /><path d="M170.34 491.894l-0.12 43.126L536.3 746.4l0.14-43.168L170.34 491.894z" fill="#3F9AE0" /><path d="M848.994 467.614l-0.196-87.258-240.306 138.714 0.198 87.314 240.304-138.77z" fill="#B2B0AF" /><path d="M834.304 398.848l5.77-3.348 0.138 67.072-5.79-3.052-0.118-60.672z" fill="#C4C2C0" /><path d="M834.422 459.52l5.788 3.052-222.798 128.65v-6.38l217.01-125.322z" fill="#E9E8E6" /><path d="M834.304 398.848l0.12 60.652-217.012 125.34-0.136-60.71 217.028-125.282z" fill="#3F9AE0" /><path d="M848.994 606.11l-0.196-87.276-240.306 138.732 0.198 87.296 240.304-138.752z" fill="#B2B0AF" /><path d="M834.304 537.324l5.77-3.328 0.138 67.052-5.79-3.052-0.118-60.672z" fill="#C4C2C0" /><path d="M834.422 597.996l5.788 3.052-222.798 128.65v-6.38L834.422 598z" fill="#E9E8E6" /><path d="M834.304 537.324l0.12 60.672-217.012 125.322-0.136-60.692 217.028-125.3z" fill="#3F9AE0" /><path d="M797.814 680.014l-0.256 89.64-25.028 14.534 0.256-89.64 25.028-14.534z" fill="#D6D4D2" /><path d="M772.786 694.548l-0.256 89.64-8.192-4.728 0.256-89.64 8.192 4.728z" fill="#C4C2C0" /><path d="M797.814 680.014l-25.028 14.534-8.192-4.726 25.028-14.534 8.192 4.726z" fill="#A9A7A5" /><path d="M735.154 800.946l-3.506-2.03-0.138-77.292 3.506 2.028 0.138 77.294z" fill="#C4C2C0" /><path d="M768.06 704.276l0.138 77.292-33.044 19.378-0.14-77.294 33.046-19.376z" fill="#E9E8E6" /><path d="M761.108 777.728l-0.178-66.226 4.432-2.54 0.098 71.03-4.352-2.264z" fill="#C4C2C0" /><path d="M761.108 777.728l4.332 2.264-27.608 16.286v-4.864l23.276-13.686z" fill="#FFFFFF" /><path d="M760.93 711.484l0.198 66.244-23.296 13.686-0.08-66.226 23.18-13.704z" fill="#434240" /><path d="M702.148 820.244l-3.504-2.048-0.14-77.292 3.508 2.048 0.136 77.292z" fill="#C4C2C0" /><path d="M698.564 740.982l3.526 1.89 33.004-19.2 33.004-19.494-3.524-1.872-33.004 19.2-33.006 19.476z" fill="#FFFFFF" /><path d="M735.036 723.574l0.136 77.292-33.024 19.378-0.136-77.292 33.024-19.378z" fill="#E9E8E6" /><path d="M728.104 797.006l-0.178-66.224 4.43-2.52 0.08 71.01-4.332-2.266z" fill="#C4C2C0" /><path d="M728.104 797.006l4.332 2.266-27.608 16.304v-4.884l23.276-13.686z" fill="#FFFFFF" /><path d="M727.926 730.78l0.196 66.226-23.296 13.686-0.098-66.224 23.2-13.686z" fill="#434240" /><path d="M705.516 733.912l-0.256 89.64-25.028 14.552 0.256-89.66 25.028-14.532z" fill="#D6D4D2" /><path d="M680.488 748.446l-0.256 89.66-8.192-4.728 0.256-89.66 8.192 4.728z" fill="#C4C2C0" /><path d="M705.516 733.912l-25.028 14.534-8.192-4.726 25.028-14.534 8.192 4.726z" fill="#A9A7A5" /><path d="M631.808 747.324l0.04 9.372 47.556 27.628-0.04-9.352-47.556-27.648z" fill="#DD4A4A" /><path d="M679.364 774.97l0.04 9.354 143.754-83.002-0.04-9.354-143.754 83.002z" fill="#CC4848" /><path d="M631.808 747.324l47.558 27.648 143.752-83.004-47.556-27.628-143.754 82.984z" fill="#F25A5A" /><path d="M513.95 209.27l-0.08 26.428-85.11 49.466 0.08-26.426 85.11-49.468z" fill="#D6D4D2" /><path d="M428.84 258.738l-0.08 26.426-85.66-49.448 0.06-26.446 85.68 49.468z" fill="#E9E8E6" /><path d="M513.95 209.27l-85.11 49.448-85.662-49.448 85.09-49.466 85.68 49.466z" fill="#FFFFFF" /><path d="M429.305982 177.9981a4.076 2.364 0.17 1 0 0.014028-4.72798 4.076 2.364 0.17 1 0-0.014028 4.72798Z" fill="#434240" /><path d="M486.729976 211.1421a4.076 2.364 0.17 1 0 0.014028-4.72798 4.076 2.364 0.17 1 0-0.014028 4.72798Z" fill="#434240" /><path d="M428.55583 231.698694a38.656 22.39 0.17 1 0 0.132865-44.779802 38.656 22.39 0.17 1 0-0.132865 44.779802Z" fill="#434240" /><path d="M373.366 208.108c1.614 0.926 1.576 2.422-0.02 3.348-1.594 0.926-4.134 0.906-5.71 0-1.576-0.906-1.674-2.402-0.08-3.348a6.4 6.4 0 0 1 5.81 0z m57.384 33.122c1.594 0.926 1.574 2.442-0.02 3.348-1.596 0.946-4.136 0.926-5.73 0-1.596-0.924-1.654-2.402-0.06-3.328a6.4 6.4 0 0 1 5.81-0.02z" fill="#434240" /><path d="M441.52 195.486c2.916 1.674 2.03 4.608-1.85 5.514-2 0.388-3.896 1.186-5.572 2.342a8.94 8.94 0 0 0-2.856 2.798c1.024 0.294 2.028 0.786 2.756 1.574 3.23-0.276 7.13-0.236 10.3 0.61a17.508 17.508 0 0 1 8.9 4.314c1.832 1.752 0.67 4.036-2.52 4.864a9.196 9.196 0 0 1-6.538-0.67 3.92 3.92 0 0 1-1.28-1.102 9.452 9.452 0 0 0-4.056-3.23 18.116 18.116 0 0 0-4.824-1.654 5.496 5.496 0 0 1-2.758 1.574 6.596 6.596 0 0 1-0.984 5.968c-1.2 2.324-4.392 4.076-7.424 5.14a9.294 9.294 0 0 1-7.228-0.474c-2.954-1.712-2.008-4.626 1.852-5.514 2-0.394 3.898-1.2 5.572-2.362a8.764 8.764 0 0 0 2.856-2.796 5.338 5.338 0 0 1-2.718-1.576c-3.454 0.38-6.95 0.18-10.34-0.59a17.368 17.368 0 0 1-8.9-4.332c-1.83-1.734-0.708-4 2.52-4.864a9.196 9.196 0 0 1 6.54 0.668c0.504 0.276 0.94 0.66 1.28 1.124a9.472 9.472 0 0 0 4.056 3.228c1.528 0.78 3.16 1.336 4.844 1.654a5.868 5.868 0 0 1 2.718-1.574 6.558 6.558 0 0 1 1.024-5.968c1.2-2.324 4.372-4.076 7.404-5.16a9.334 9.334 0 0 1 7.228 0.494z" fill="#FFFFFF" /><path d="M672.216 300.642l-0.08 26.448-85.108 49.466 0.08-26.446 85.108-49.468z" fill="#D6D4D2" /><path d="M587.106 350.11l-0.08 26.446-85.66-49.466 0.08-26.448 85.66 49.468z" fill="#E9E8E6" /><path d="M672.216 300.642l-85.11 49.468-85.66-49.468 85.11-49.446 85.66 49.446z" fill="#FFFFFF" /><path d="M587.647982 269.412088a4.076 2.364 0.17 1 0 0.014028-4.727979 4.076 2.364 0.17 1 0-0.014028 4.727979Z" fill="#434240" /><path d="M644.995976 302.554094a4.076 2.364 0.17 1 0 0.014028-4.727979 4.076 2.364 0.17 1 0-0.014028 4.727979Z" fill="#434240" /><path d="M586.86183 323.090694a38.656 22.39 0.17 1 0 0.132865-44.779802 38.656 22.39 0.17 1 0-0.132865 44.779802Z" fill="#434240" /><path d="M531.652 299.48c1.596 0.926 1.576 2.442-0.02 3.368-1.594 0.926-4.134 0.906-5.73-0.02-1.594-0.926-1.654-2.402-0.06-3.328a6.4 6.4 0 0 1 5.81 0v-0.02z m57.364 33.124c1.616 0.924 1.576 2.44 0 3.366-1.574 0.926-4.134 0.906-5.73-0.02-1.594-0.924-1.674-2.382-0.06-3.308a6.4 6.4 0 0 1 5.79-0.04z" fill="#434240" /><path d="M599.808 286.878c0.472 0.276 0.886 0.59 1.18 0.984 1.38 1.734 0.02 3.8-3.05 4.53a14.808 14.808 0 0 0-5.554 2.324 8.94 8.94 0 0 0-2.856 2.816c1.004 0.294 2.01 0.786 2.738 1.574 3.23-0.276 7.148-0.256 10.3 0.592a18.374 18.374 0 0 1 5.986 2.166c1.18 0.668 2.166 1.418 2.914 2.166 1.85 1.752 0.69 4.016-2.5 4.864a9.196 9.196 0 0 1-6.56-0.67 3.918 3.918 0 0 1-1.26-1.122 9.454 9.454 0 0 0-4.076-3.23 18.12 18.12 0 0 0-4.824-1.654 5.494 5.494 0 0 1-2.756 1.576 6.596 6.596 0 0 1-0.986 5.966c-1.18 2.344-4.372 4.076-7.424 5.14a9.296 9.296 0 0 1-7.206-0.472c-2.954-1.694-2.01-4.608 1.85-5.514a14.81 14.81 0 0 0 5.554-2.344 8.764 8.764 0 0 0 2.874-2.796 5.338 5.338 0 0 1-2.718-1.576 31.172 31.172 0 0 1-10.338-0.61 17.368 17.368 0 0 1-8.9-4.332c-1.832-1.734-0.71-4 2.5-4.844a9.196 9.196 0 0 1 6.56 0.668c0.492 0.274 0.922 0.65 1.26 1.104a9.492 9.492 0 0 0 4.074 3.228c1.528 0.786 3.16 1.35 4.844 1.674 0.74-0.76 1.674-1.302 2.7-1.574a6.558 6.558 0 0 1 1.022-5.986c1.22-2.324 4.392-4.078 7.424-5.14a9.334 9.334 0 0 1 7.228 0.492z m23.454 219.02a73.216 73.216 0 0 0-29.854 18.686c-8.468 8.704-14.946 18.904-18.668 30.108-1.496 3.742-6.224 3.742-7.72 0a75.342 75.342 0 0 0-48.52-48.778c-3.744-0.984-3.744-5.986 0-7.226a81.668 81.668 0 0 0 30.344-18.668c7.976-8.212 14.434-18.648 18.176-29.854 1.496-4.234 6.224-4.234 7.72 0 3.74 11.206 10.2 21.66 18.668 29.854 8.212 8.468 18.412 14.69 29.854 18.668 3.74 1.24 3.74 6.222 0 7.226v-0.018z" fill="#FFFFFF" /></svg>