<?xml version="1.0" standalone="no"?><!DOCTYPE svg PUBLIC "-//W3C//DTD SVG 1.1//EN" "http://www.w3.org/Graphics/SVG/1.1/DTD/svg11.dtd"><svg class="icon" width="200px" height="200.00px" viewBox="0 0 1024 1024" version="1.1" xmlns="http://www.w3.org/2000/svg"><path d="M741.414 713.806l-278.84-162.028-0.908-320.394 278.804 162.028 0.944 320.394z" fill="#888888" /><path d="M740.49 393.412l-278.804-162.028L687.36 101.1l278.824 162.008-225.694 130.304z" fill="#E9E8E6" /><path d="M966.184 263.108l0.906 320.394-225.674 130.304-0.926-320.394 225.694-130.304z" fill="#B2B0AF" /><path d="M749.784 409.56L459.62 240.936v-33.044l290.166 168.624v33.044z" fill="#DD4A4A" /><path d="M749.784 376.516L459.62 207.892l234.83-135.58 290.166 168.624-234.83 135.58z" fill="#F25A5A" /><path d="M494.454 207.95l16.05 9.316 183.926-106.18 239.32 139.066 16.05-9.256-255.37-148.42-199.976 115.474z" fill="#CC4848" /><path d="M933.75 250.152l-239.32-139.068-183.926 106.18 239.32 139.088 183.926-106.2z" fill="#434240" /><path d="M984.614 240.936v33.042L749.784 409.56v-33.044l234.83-135.58z" fill="#CC4848" /><path d="M640.06 870.834L276.222 659.378l-1.18-416.374L638.876 454.46l1.18 416.374z" fill="#D6D4D2" /><path d="M553.846 405.032l-278.804-162.028 186.388-107.6 278.804 162.028-186.388 107.6z" fill="#E9E8E6" /><path d="M938.674 378.408l-6.5 3.76 0.08 45.962 6.538 4.254-0.12-53.976z" fill="#D6D4D2" /><path d="M932.254 428.11l-172.9 99.84v8.036l179.438-103.602-6.54-4.274z" fill="#FFFFFF" /><path d="M932.292 428.13l-5.828 3.388-33.732 19.494-15.716 9-48.916 28.28-68.764 39.68-0.12-45.964 82.434-47.596 48.934-28.2 15.696-9.078 25.894-14.966 0.06 26.486 0.06 19.476z" fill="#0074D1" /><path d="M938.674 483.132l-6.5 3.74 0.08 45.962 6.538 4.274-0.12-53.976z" fill="#D6D4D2" /><path d="M932.254 532.834l-172.9 99.84v8.016l179.438-103.582-6.54-4.274z" fill="#FFFFFF" /><path d="M932.292 532.854l-36.646 21.17-33.754 19.436-15.634 9.058-48.996 28.28-37.926 21.876-0.12-45.96 51.594-29.776 48.936-28.28 15.714-9.018 33.734-19.494 22.98-13.254 0.12 45.962z" fill="#0074D1" /><path d="M825.266 346.84l0.274 95.98 0.906 320.394-186.386 107.62-1.182-416.374 186.388-107.62z" fill="#C4C2C0" /><path d="M329.394 951.69L50.59 789.66l-0.906-320.394 278.804 162.028 0.906 320.394z" fill="#D6D4D2" /><path d="M328.468 631.296L49.704 469.268l225.634-130.264 278.804 162.008-225.674 130.284z" fill="#E9E8E6" /><path d="M554.12 501.012l0.908 320.394-225.634 130.284-0.906-320.394 225.634-130.284z" fill="#C4C2C0" /><path d="M329.55 652.188L39.384 483.564V450.52l290.166 168.626v33.042z" fill="#DD4A4A" /><path d="M329.55 619.126L39.384 450.54l234.83-135.58 290.166 168.624-234.83 135.542z" fill="#F25A5A" /><path d="M274.176 335.104v20.56l237.628 138.1 17.742-10.24-255.37-148.42z" fill="#DD4A4A" /><path d="M74.2 450.56l17.744 10.32 182.232-105.218v-20.558L74.2 450.56z" fill="#CC4848" /><path d="M511.804 493.764l-237.628-138.1-182.232 105.214 237.628 138.102 182.232-105.216z" fill="#434240" /><path d="M564.38 483.564v33.044l-234.83 135.6v-33.08l234.83-135.564z" fill="#CC4848" /><path d="M639.488 481.16L264.27 263.092v-33.044l375.2 218.052 0.02 33.064z" fill="#DD4A4A" /><path d="M639.488 448.12L264.27 230.064l193.498-111.716 375.216 218.052-193.496 111.716z" fill="#F25A5A" /><path d="M299.106 230.124l17.724 10.32 140.938-81.37 322.64 187.51 17.72-10.24-340.36-197.828-158.66 91.608z" fill="#CC4848" /><path d="M780.406 346.584l-322.62-187.51-140.936 81.37 322.658 187.508 140.898-81.368z" fill="#434240" /><path d="M832.984 336.384v33.064l-193.496 111.714v-33.044l193.496-111.734z" fill="#CC4848" /><path d="M531.416 601.6l-6.518 3.74 0.1 45.964 6.536 4.252-0.118-53.956z" fill="#D6D4D2" /><path d="M524.998 651.304l-172.92 99.84 0.02 8.014 179.436-103.6-6.536-4.254z" fill="#FFFFFF" /><path d="M524.998 651.304l-47.854 27.628-23.1 13.312-72.132 41.648-29.852 17.232-0.06-45.962 49.388-28.494 72.134-41.67 23.158-13.37 28.22-16.286 0.098 45.96z" fill="#0074D1" /><path d="M531.416 706.304l-6.518 3.74 0.1 45.964 6.536 4.254-0.118-53.958z" fill="#D6D4D2" /><path d="M524.998 756.008l-172.92 99.84 0.02 8.014 179.436-103.58-6.536-4.274z" fill="#FFFFFF" /><path d="M524.998 756.008l-42.458 24.556-49.742 28.672-23.14 13.332-57.6 33.28L352 821.62v-11.736l5-2.914 72.134-41.65 23.16-13.332 49.74-28.75 22.844-13.194 0.12 45.96z" fill="#0074D1" /><path d="M68.824 580.076l6.5 3.74-0.08 45.964-6.538 4.254 0.12-53.958z" fill="#C4C2C0" /><path d="M75.224 629.78l221.6 127.94v8.016L68.684 634.034l6.54-4.254z" fill="#FFFFFF" /><path d="M296.9 711.798l-0.038 45.884-50.216-28.948-72.132-41.67-23.16-13.39-49.8-28.712-26.29-15.182 0.06-45.962 6.754 3.9 49.8 28.79 23.14 13.312 72.132 41.728 69.75 40.25z" fill="#0074D1" /><path d="M68.824 684.78l6.5 3.76-0.08 45.964-6.538 4.252 0.12-53.976z" fill="#C4C2C0" /><path d="M75.224 734.504l221.6 127.92v8.034L68.684 738.76l6.54-4.254z" fill="#FFFFFF" /><path d="M296.9 816.502l-0.038 45.902-5.888-3.366-72.134-41.65L195.74 804l-49.8-28.672-70.676-40.842 0.06-45.962 51.14 29.558 49.8 28.75 23.08 13.372 72.194 41.65 25.362 14.65z" fill="#0074D1" /><path d="M797.972 430.67l-14.18 8.174 0.276 148.144 14.22 8.152-0.316-164.47z" fill="#D6D4D2" /><path d="M784.068 586.988l-116.696 67.388 0.06 16.384 130.874-75.62v-0.02l-14.238-8.132z" fill="#FFFFFF" /><path d="M784.068 586.948l-11.814 6.874-49.744 28.672-23.1 13.39-32.038 18.512-0.196-94.268-0.1-53.918 22.98-13.272 72.194-41.65 21.582-12.444v3.602l0.178 116.698 0.06 27.804z" fill="#0074D1" /><path d="M792.654 786.354l-36.746 21.208-5.512 3.19-36.728 21.208-4.096-2.382-0.256-113.92 36.728-21.208 5.512-3.19 36.746-21.21 4.096 2.402 0.256 113.9z" fill="#434240" /><path d="M756.028 802.46l-4.216-2.42 32-18.492 4.216 2.46-32 18.454z m-37.652 21.742l-4.196-2.44 32-18.474 4.196 2.442-32 18.472z" fill="#FFFFFF" /><path d="M788.028 784.01l-4.216-2.46-0.216-103.76 4.194 2.46 0.238 103.76z m-37.652 21.72l-4.196-2.44-0.236-103.76 4.214 2.44 0.218 103.76z" fill="#C4C2C0" /><path d="M755.79 692.224l-4.214-2.442 37.652-21.74 4.194 2.44-37.632 21.742z m-5.65 3.268l-4.216-2.46 5.652-3.25 4.196 2.442-5.632 3.268z" fill="#FFFFFF" /><path d="M712.744 833.97l-4.196-2.462-0.274-116.736 4.214 2.44 0.256 116.758z" fill="#D6D4D2" /><path d="M755.79 692.224l37.632-21.74 0.276 116.756-37.652 21.72-5.65 3.268-37.652 21.74-0.256-116.734 37.652-21.74 5.65-3.27z m-5.414 113.506l-0.218-103.76-32 18.474 0.218 103.778 32-18.492z m37.652-21.72l-0.238-103.78-32 18.492 0.238 103.76 32-18.472z" fill="#E9E8E6" /><path d="M712.488 717.234l-4.214-2.462 37.65-21.74 4.214 2.46-37.65 21.74z" fill="#FFFFFF" /><path d="M762.25 451.288l-62.82 184.596-32.058 18.51-0.196-94.266 22.88-67.19 72.194-41.65z m21.76 107.856l-11.756 34.658-49.744 28.692 61.322-180.048 0.178 116.698zM890.584 406.214l-13.568 53.8-48.916 28.276 13.55-53.858 48.934-28.22z m41.65 2.44l-5.77 22.844-33.732 19.496 13.548-53.86 25.894-14.966 0.06 26.486zM859.746 528.66l-13.488 53.878-48.996 28.278 13.568-53.88 48.916-28.276z m49.448-28.496l-13.548 53.86-33.754 19.436 13.568-53.82 33.734-19.476zM473.52 635l-19.494 57.244-72.114 41.648 19.496-57.224 72.114-41.67z m51.478 16.304l-47.854 27.628 19.536-57.304 28.22-16.286 0.098 45.96zM429.134 765.32l-19.494 57.248-57.58 33.28-0.06-34.226 5-14.65 72.134-41.65z m72.9-42.06l-19.494 57.304-49.742 28.672 19.496-57.246 49.74-28.73z" fill="#FFFFFF" opacity=".25" /><path d="M246.646 728.734l-72.132-41.67-19.496-57.226 72.132 41.71 19.496 57.186z m-95.29-55.06l-49.802-28.712-19.496-57.246 49.82 28.792 19.478 57.166zM290.974 859.038l-72.134-41.65-19.494-57.186 72.192 41.65 19.436 57.186z m-95.232-55.04L145.94 775.326l-19.496-57.246 49.82 28.75L195.744 804z" fill="#FFFFFF" opacity=".2" /><path d="M829.874 663.71l-0.12 144.344-11.42 6.656 0.138-144.364 11.4-6.636z" fill="#B2B0AF" /><path d="M818.472 670.326l-0.14 144.384-11.48-6.636 0.12-144.364 11.5 6.616z" fill="#D6D4D2" /><path d="M829.874 663.71l-11.422 6.636-11.48-6.636 11.42-6.636 11.48 6.636z" fill="#E9E8E6" /><path d="M698.23 740.214l-0.118 144.344-11.42 6.656 0.116-144.364 11.422-6.636z" fill="#B2B0AF" /><path d="M686.808 746.85l-0.118 144.346-11.48-6.618 0.118-144.364 11.48 6.636z" fill="#D6D4D2" /><path d="M698.23 740.214l-11.42 6.636-11.482-6.636 11.42-6.636 11.482 6.636z" fill="#E9E8E6" /><path d="M639.41 735.468v8.252l36.214 21.03-0.04-8.25-36.174-21.032z" fill="#DD4A4A" /><path d="M675.584 756.5l0.04 8.27 189.222-109.272-0.02-8.252-189.242 109.254z" fill="#CC4848" /><path d="M828.318 676.588l36.528-21.07-0.02-8.272-36.508 21.072v8.27z" fill="#CC4848" /><path d="M639.41 735.468l36.174 21.032 189.244-109.254-36.216-21.03-189.202 109.252z" fill="#F25A5A" /><path d="M373.64 451.662l-0.038 18.432-71.522 41.552 0.06-18.412 71.5-41.572z" fill="#D6D4D2" /><path d="M302.14 493.234l-0.06 18.412-71.976-41.552 0.06-18.432 71.976 41.572z" fill="#E9E8E6" /><path d="M373.64 451.662l-71.5 41.552-71.976-41.552 71.502-41.55 71.976 41.55z" fill="#FFFFFF" /><path d="M320.196 441.148c10.024 5.788 10.2 15.36 0.238 21.148-10.102 5.868-26.624 5.79-36.648 0-10.32-5.946-10.36-15.44-0.256-21.306 9.964-5.79 26.348-5.79 36.648 0.158h0.02z" fill="#434240" /><path d="M813.174 196.43l-0.06 18.432-71.482 41.552 0.04-18.432 71.502-41.552z" fill="#D6D4D2" /><path d="M741.672 237.98l-0.06 18.434-71.976-41.552 0.06-18.432 71.976 41.552z" fill="#E9E8E6" /><path d="M813.174 196.43l-71.502 41.552-71.976-41.552 71.502-41.55 71.976 41.55z" fill="#FFFFFF" /><path d="M759.73 185.896c10.002 5.808 10.2 15.36 0.236 21.168-10.102 5.868-26.624 5.79-36.648 0-10.32-5.946-10.358-15.44-0.256-21.306 9.964-5.79 26.348-5.79 36.648 0.158l0.02-0.02z" fill="#434240" /><path d="M528.206 221.006l-0.04 18.138-70.42 40.92 0.06-18.156 70.4-40.9z" fill="#D6D4D2" /><path d="M457.806 261.908l-0.06 18.156-70.852-40.92 0.06-18.138 70.852 40.9z" fill="#E9E8E6" /><path d="M528.206 221.006l-70.4 40.9-70.852-40.9 70.4-40.92 70.852 40.92z" fill="#FFFFFF" /><path d="M475.57 210.648c9.884 5.712 10.062 15.124 0.256 20.816-9.946 5.788-26.212 5.71-36.096 0-10.142-5.85-10.2-15.204-0.256-20.972 9.826-5.712 25.954-5.712 36.096 0.156z" fill="#434240" /><path d="M664.674 299.008l-0.04 18.136-70.4 40.92 0.04-18.156 70.4-40.9z" fill="#D6D4D2" /><path d="M594.274 339.908l-0.04 18.158-70.872-40.92 0.06-18.138 70.852 40.9z" fill="#E9E8E6" /><path d="M664.674 299.008l-70.4 40.9-70.852-40.9 70.4-40.92 70.852 40.92z" fill="#FFFFFF" /><path d="M612.036 288.65c9.886 5.71 10.064 15.124 0.256 20.814-9.944 5.79-26.21 5.712-36.096 0-10.14-5.848-10.2-15.2-0.236-20.972 9.808-5.71 25.936-5.71 36.076 0.158z" fill="#434240" /><path d="M675.682 586.398c-16.738 5.454-29.144 19.416-34.086 34.264-1.044 2.6-4.372 2.6-5.416 0a52.914 52.914 0 0 0-34.088-34.264c-2.62-0.71-2.62-4.194 0-5.08 16.148-5.614 28.514-17.39 34.068-34.068 1.064-2.974 4.392-2.974 5.434 0a54.548 54.548 0 0 0 34.068 34.066c2.64 0.888 2.64 4.372 0 5.08h0.02z" fill="#FFFFFF" /></svg>