<?xml version="1.0" standalone="no"?><!DOCTYPE svg PUBLIC "-//W3C//DTD SVG 1.1//EN" "http://www.w3.org/Graphics/SVG/1.1/DTD/svg11.dtd"><svg class="icon" width="200px" height="200.00px" viewBox="0 0 1024 1024" version="1.1" xmlns="http://www.w3.org/2000/svg"><path d="M209.8 555.658l1.538 182.468 300.13 174.416-1.536-182.47L209.8 555.66z" fill="#434240" /><path d="M509.932 730.072l1.536 182.47 302.08-174.396-1.556-182.468-302.06 174.394z" fill="#383736" /><path d="M688.462 603.648l0.69 207.42 62.326 36.232-0.69-207.438-62.326-36.214z" fill="#C4C2C0" /><path d="M750.788 639.862l0.69 207.438 62.72-36.232-0.69-207.42-62.72 36.214z" fill="#D6D4D2" /><path d="M688.462 603.648l62.326 36.214 62.72-36.214-62.326-36.234-62.72 36.234z" fill="#A9A7A5" /><path d="M449.122 740.962l0.69 207.44 62.326 36.212-0.69-207.438-62.326-36.214z" fill="#C4C2C0" /><path d="M511.448 777.176l0.69 207.44 62.72-36.216-0.69-207.438-62.72 36.214z" fill="#D6D4D2" /><path d="M449.122 740.962l62.326 36.234 62.72-36.234-62.326-36.214-62.72 36.214z" fill="#A9A7A5" /><path d="M211.358 603.49l0.688 207.42 62.326 36.232-0.688-207.438-62.326-36.214z" fill="#C4C2C0" /><path d="M273.684 639.704l0.688 207.42 62.72-36.214-0.688-207.42-62.72 36.214z" fill="#D6D4D2" /><path d="M211.358 603.49l62.326 36.214 62.72-36.214-62.306-36.234-62.74 36.234z" fill="#A9A7A5" /><path d="M209.8 504.556l1.538 99.17 300.13 174.416-1.536-99.17L209.8 504.556z" fill="#C4C2C0" /><path d="M357.494 688.64l153.994 89.5-1.576-99.168-152.418-88.576v98.244z" fill="#B2B0AF" /><path d="M509.932 678.99l1.536 99.152 302.08-174.396-1.556-99.17-302.06 174.414z" fill="#D6D4D2" /><path d="M660.44 692.126l153.108-88.38-1.556-99.17-151.552 87.492v100.058z" fill="#B2B0AF" /><path d="M209.8 504.556l300.112 174.416 302.08-174.396-300.11-174.434-302.08 174.414z" fill="#E9E8E6" /><path d="M270.494 253.48l1.044 253.578 239.104 138.948-1.044-253.578-239.104-138.948z" fill="#C4C2C0" /><path d="M509.598 392.428l1.044 253.578 240.64-138.928-1.024-253.6-240.66 138.95z" fill="#D6D4D2" /><path d="M270.494 253.48l239.104 138.948 240.68-138.948-239.124-138.95-240.66 138.95z" fill="#B2B0AF" /><path d="M246.706 248.792v44.21l263.346 153.028v-44.208l-263.346-153.03z" fill="#6D797A" /><path d="M372.776 322.048v44.21L246.706 293v-44.21l126.07 73.256z" fill="#7E8A8C" /><path d="M510.05 401.82v44.21l265.04-153.008v-44.21l-265.04 153.01z" fill="#8D9799" /><path d="M674.776 306.728v44.208l-164.746 95.094v-44.208l164.746-95.094z" fill="#7E8A8C" /><path d="M561.192 372.302v44.19l-51.14 29.54V401.82l51.14-29.52z" fill="#8D9799" /><path d="M246.706 248.792l263.346 153.03 265.038-153.01-263.346-153.048-265.04 153.028z" fill="#A0A8AA" /><path d="M447.704 75.874l0.16 58.368 23.648 13.746-0.156-58.368-23.652-13.746z" fill="#D6D4D2" /><path d="M471.356 89.6l0.156 58.388 39.386-22.744-0.178-58.368L471.356 89.6z" fill="#C4C2C0" /><path d="M510.72 66.876l0.178 58.368 39.148 22.764-0.178-58.368-39.148-22.764z" fill="#D6D4D2" /><path d="M549.868 89.64l0.178 58.368 23.828-13.766-0.198-58.368-23.808 13.766z" fill="#C4C2C0" /><path d="M447.704 75.874l23.652 13.746 39.384-22.744 39.128 22.764 23.828-13.766-62.82-36.49-63.172 36.49z" fill="#E9E8E6" /><path d="M582.99 108.88l0.16 58.366 69.808 40.566-0.158-58.368-69.81-40.566z" fill="#D6D4D2" /><path d="M652.8 149.444l0.158 58.368 23.828-13.744-0.198-58.368-23.788 13.744z" fill="#C4C2C0" /><path d="M582.99 108.88L652.8 149.442l23.808-13.744-69.81-40.566-23.808 13.744z" fill="#E9E8E6" /><path d="M685.902 168.684l0.178 58.368 39.128 22.744-0.156-58.368-39.15-22.744z" fill="#D6D4D2" /><path d="M685.686 214.174l0.158 58.368 23.63 13.726-0.158-58.368-23.63-13.726z" fill="#D6D4D2" /><path d="M709.316 227.9l0.18 58.368 63.19-36.472-0.176-58.368-63.194 36.472z" fill="#C4C2C0" /><path d="M685.902 168.684l39.15 22.744-39.386 22.746 23.65 13.726 63.214-36.472-62.82-36.488-23.808 13.744z" fill="#E9E8E6" /><path d="M344.084 135.68l0.176 58.368 23.652 13.746-0.16-58.368-23.668-13.746z" fill="#D6D4D2" /><path d="M367.754 149.426l0.158 58.368 70.26-40.566-0.156-58.368-70.262 40.566z" fill="#C4C2C0" /><path d="M344.084 135.68l23.67 13.746 70.262-40.566-23.67-13.746-70.262 40.566z" fill="#E9E8E6" /><path d="M582.066 273.98l0.176 58.368 23.632 13.744-0.16-58.368-23.648-13.744z" fill="#D6D4D2" /><path d="M605.736 287.724l0.156 58.368 70.244-40.566-0.16-58.368-70.24 40.566z" fill="#C4C2C0" /><path d="M582.066 273.98l23.65 13.744 70.26-40.566-23.628-13.746-70.282 40.568z" fill="#E9E8E6" /><path d="M295.03 191.41l0.158 58.386 39.384-22.744-0.158-58.368-39.384 22.726z" fill="#C4C2C0" /><path d="M310.35 227.92l0.198 58.366 23.788-13.744-0.178-58.368-23.808 13.744z" fill="#C4C2C0" /><path d="M247.552 191.41l0.178 58.368 62.818 36.508-0.198-58.368-62.798-36.508z" fill="#D6D4D2" /><path d="M247.552 191.41l62.82 36.508 23.786-13.744-39.128-22.746 39.384-22.744-23.65-13.764-63.212 36.49z" fill="#E9E8E6" /><path d="M343.474 247.16l0.176 58.366 69.79 40.566-0.158-58.368-69.808-40.566z" fill="#D6D4D2" /><path d="M413.282 287.704l0.158 58.388 23.808-13.744-0.158-58.368-23.808 13.724z" fill="#C4C2C0" /><path d="M343.474 247.16l69.808 40.564 23.808-13.744-69.808-40.568-23.808 13.746z" fill="#E9E8E6" /><path d="M446.404 306.964l0.16 58.368 62.798 36.49-0.178-58.368-62.78-36.49z" fill="#D6D4D2" /><path d="M509.184 343.454l0.178 58.368 63.212-36.49-0.198-58.368-63.192 36.49z" fill="#C4C2C0" /><path d="M446.404 306.964l62.78 36.49 63.212-36.49-23.65-13.746-39.404 22.764-39.148-22.764-23.79 13.746z" fill="#E9E8E6" /><path d="M661.66 507.274l-86.054 49.684 0.08 28.966 109.804-63.388-23.828-15.262z" fill="#FFFFFF" /><path d="M685.49 522.536l-0.276-98.028c-0.06-17.428-6.242-29.678-16.188-35.368a28.08 28.08 0 0 0-12.898-3.544c3.308 6.202 5.24 14.12 5.258 23.63l0.276 98.048 23.828 15.26z" fill="#C4C2C0" /><path d="M661.386 409.226c-0.02-9.512-1.95-17.428-5.258-23.63-7.74-0.316-16.58 2.066-25.994 7.482-30.326 17.526-54.824 59.944-54.724 94.82l0.196 69.06 86.056-49.684-0.276-98.048z" fill="#434240" /><path d="M359.364 507.274l86.056 49.684-0.1 28.966-109.782-63.388 23.826-15.262z" fill="#FFFFFF" /><path d="M335.538 522.536l0.274-98.028c0.04-17.428 6.244-29.678 16.188-35.368 3.8-2.166 8.134-3.348 12.9-3.544-3.33 6.202-5.24 14.12-5.26 23.63l-0.276 98.048-23.826 15.26z" fill="#D6D4D2" /><path d="M359.64 409.226c0.02-9.512 1.93-17.428 5.26-23.63 7.738-0.316 16.58 2.066 25.972 7.482 30.326 17.526 54.844 59.944 54.746 94.82l-0.198 69.06-86.056-49.684 0.276-98.048z" fill="#434240" /><path d="M670.03 746.594l-1.554 27.098-11.954 55.236-49.82 28.652-6.992-38.124 5.592-29.676 11.736-38.52 11.068-13.508 12.012-3.662h18.314l11.6 12.504z" fill="#FFD651" /><path d="M664.182 759.276l-7.876-4.588 0.196 74.24 7.896 4.588-0.216-74.24z" fill="#A2A4A5" /><path d="M655.754 740.824l-7.878-4.608c5.18 3.014 8.39 9.414 8.43 18.472l7.876 4.588c0-9.06-3.23-15.46-8.408-18.472l-0.02 0.02z m-56.044 55.69l-7.898-4.588 0.198 74.24 7.896 4.588-0.196-74.24z m60.888-64.02l-7.896-4.568c-6.5-3.78-15.46-3.25-25.344 2.46l7.876 4.59c9.906-5.71 18.886-6.242 25.364-2.48z" fill="#CFD2D3" /><path d="M635.234 734.976l-7.876-4.588c-19.674 11.342-35.624 38.952-35.546 61.538l7.878 4.588c-0.06-22.586 15.892-50.196 35.544-61.538z" fill="#A2A4A5" /><path d="M635.234 734.976c-19.652 11.342-35.604 38.952-35.524 61.54l0.196 74.24 6.814-3.94-0.196-74.24c-0.06-18.254 12.82-40.586 28.73-49.782 15.912-9.176 28.888-1.772 28.948 16.482l0.196 74.24 6.814-3.94-0.196-74.24c-0.08-22.566-16.108-31.702-35.78-20.36z" fill="#B6B9BA" /><path d="M622.454 799.172l3.052 1.872c-0.984-0.592-2.402-0.492-3.938 0.394l-3.052-1.89c1.536-0.888 2.934-0.986 3.94-0.394v0.02z" fill="#383736" /><path d="M617.668 814.532l-3.052-1.89c-0.984-0.57-1.614-1.792-1.614-3.544 0-3.506 2.46-7.8 5.514-9.55l3.052 1.89a12.17 12.17 0 0 0-5.514 9.55c0 1.734 0.63 2.954 1.614 3.544z" fill="#D6D4D2" /><path d="M621.568 801.438l-3.052-1.89a11.618 11.618 0 0 0-4.274 4.804l3.052 1.89a11.62 11.62 0 0 1 4.274-4.804z" fill="#21201F" /><path d="M614.242 804.352a10.792 10.792 0 0 0-1.24 4.746c0 1.752 0.63 2.974 1.614 3.544l3.052 1.89c-0.984-0.59-1.594-1.81-1.614-3.544 0-1.536 0.472-3.21 1.24-4.746l-3.052-1.89z" fill="#383736" /><path d="M621.568 801.438c3.052-1.772 5.554-0.354 5.554 3.15 0 3.526-2.462 7.8-5.514 9.57-3.052 1.772-5.534 0.336-5.554-3.17 0-3.506 2.46-7.798 5.514-9.55z" fill="#434240" /><path d="M355.644 345.934a49.368 49.368 0 0 0-19.3 11.816 56.064 56.064 0 0 0-11.914 19.022c-0.472 2.6-3.74 2.6-4.508 0a48.64 48.64 0 0 0-31.036-30.838c-2.402-1.042-2.402-4.214 0-4.882 7.404-2.226 14.04-6.834 19.22-11.816 5.376-5.396 9.412-11.816 11.816-19.32 0.786-2.302 4.036-2.302 4.528 0 2.758 7.484 6.814 13.924 11.894 19.3 5.574 5 12.21 9.61 19.3 11.816 2.618 0.688 2.618 3.86 0 4.922v-0.02z" fill="#FFFFFF" /></svg>