<?xml version="1.0" standalone="no"?><!DOCTYPE svg PUBLIC "-//W3C//DTD SVG 1.1//EN" "http://www.w3.org/Graphics/SVG/1.1/DTD/svg11.dtd"><svg class="icon" width="200px" height="200.00px" viewBox="0 0 1024 1024" version="1.1" xmlns="http://www.w3.org/2000/svg"><path d="M963.92 470.214L530.588 218.388l-63.194-128.492L900.726 341.72l63.192 128.492z" fill="#7E3F3F" /><path d="M494.16 984.616L60.828 732.79l-0.69-242.786 433.348 251.826 0.67 242.786z" fill="#E9E8E6" /><path d="M727.888 321.91L294.558 70.104l172.84 19.812L900.724 341.72l-172.84-19.81z" fill="#BBBBBB" /><path d="M727.788 291.21L294.48 39.384l190.938 21.88 433.308 251.844-190.936-21.898z" fill="#DD4A4A" /><path d="M572.732 201.08L428.74 117.404l190.938 21.898 143.988 83.672-190.934-21.898z" fill="#E9E8E6" /><path d="M555.718 540.908L122.408 289.102l172.15-218.998 433.33 251.806-172.17 219z" fill="#CCCCCC" /><path d="M493.47 741.808L60.14 490.022l62.268-200.9 433.308 251.786-62.246 200.9z" fill="#A3A3A3" /><path d="M727.888 321.91l172.838 19.81 63.194 128.492 0.688 242.788-470.45 271.616-0.688-242.806 62.246-200.9 172.172-219z" fill="#D6D4D2" /><path d="M472.46 743.384L39.126 491.56l65.182-210.254L537.6 533.11l-65.14 210.274z" fill="#DD4A4A" /><path d="M317.38 653.274L173.39 569.58l65.182-210.254 143.97 83.692-65.16 210.256z" fill="#C4C2C0" /><path d="M727.788 291.21l190.938 21.86 66.146 134.478-20.954 22.646-63.212-128.474-172.82-19.81-172.17 218.978-62.246 200.94-21.012 1.556L537.6 533.11l190.188-241.9z" fill="#CC4848" /><path d="M537.6 533.11L104.31 281.304l190.168-241.92 433.31 251.826-190.188 241.9z" fill="#F25A5A" /><path d="M382.542 442.998l-143.97-83.672 190.168-241.92 143.99 83.692-190.188 241.9z" fill="#D6D4D2" /><path d="M794.466 514.994l-117.07 67.584 0.08 25.244 136.486-78.788-19.496-14.04z" fill="#FFFFFF" /><path d="M813.96 529.034l-0.432-156.85-19.436 11.226 0.374 131.584 19.496 14.04z" fill="#E9E8E6" /><path d="M794.092 383.41l-117.07 67.584 0.394 131.584 117.05-67.584-0.374-131.584z" fill="#434240" /><path d="M653.252 679.03l219.47-126.72 0.454 163.544-219.47 126.72-0.454-163.544z m10.97 11.342l0.354 128.24 88.42-115.26-88.774-12.98z m198.004 14.14l-0.374-128.256-88.398 115.28 88.772 12.976z m-184.18 111.46l170.732-98.6-85.544-12.526-85.188 111.124z m170.338-237.038l-170.732 98.58 85.544 12.504 85.188-111.084z" fill="#B2B0AF" /><path d="M445.34 426.36c-30.954 9.924-56.416 33.948-67.84 67.542-1.514 5.12-8.466 5.12-10.278 0a105.02 105.02 0 0 0-67.544-67.544c-5.436-1.812-5.436-8.782 0-10.594a106.08 106.08 0 0 0 67.544-67.526c1.812-5.14 8.764-5.14 10.28 0 11.5 33.852 37.18 57.7 67.84 67.526a5.574 5.574 0 0 1 0 10.594z" fill="#FFFFFF" /><path d="M440.872 769.004l-0.374 127.508-8.626 5.02-134.774-77.782 0.354-127.528 8.626-5.002 134.794 77.784zM111.656 581.436l130.028 75.106-0.354 122.998-8.33 4.786-130.028-75.028 0.354-123.02 8.33-4.842z" fill="#0074D1" /><path d="M299.6 820.972l9.452-5.514 0.334-118.114-9.452 5.494-0.336 118.134z" fill="#C4C2C0" /><path d="M428.544 895.41l9.452-5.514-128.944-74.438-9.454 5.514 128.946 74.438z" fill="#FFFFFF" /><path d="M438.016 911.832l9.472-5.494 0.394-139.992-9.452 5.514-0.414 139.972z" fill="#C4C2C0" /><path d="M438.43 771.84l9.452-5.514-147.988-85.426-9.452 5.514 147.988 85.426z" fill="#FFFFFF" /><path d="M438.016 911.834l-147.968-85.426 0.394-140.012 147.988 85.464-0.414 139.974z m-138.436-90.88l128.964 74.456 0.334-118.116-128.944-74.456-0.354 118.114z" fill="#D6D4D2" /><path d="M102.932 707.486l9.452-5.514 0.354-118.114-9.472 5.514-0.334 118.114z" fill="#C4C2C0" /><path d="M231.876 781.942l9.454-5.514-128.926-74.436-9.472 5.514 128.944 74.436z" fill="#FFFFFF" /><path d="M241.368 798.366l9.452-5.514 0.394-139.974-9.452 5.494-0.394 139.994z" fill="#C4C2C0" /><path d="M241.762 658.372l9.452-5.512-147.968-85.426-9.452 5.514 147.968 85.424z" fill="#FFFFFF" /><path d="M241.368 798.366L93.38 712.92l0.394-139.992 147.988 85.444-0.394 139.994z m-138.436-90.88l128.944 74.436 0.336-118.114-128.946-74.436-0.334 118.114z" fill="#D6D4D2" /></svg>