<?xml version="1.0" standalone="no"?><!DOCTYPE svg PUBLIC "-//W3C//DTD SVG 1.1//EN" "http://www.w3.org/Graphics/SVG/1.1/DTD/svg11.dtd"><svg class="icon" width="200px" height="200.00px" viewBox="0 0 1024 1024" version="1.1" xmlns="http://www.w3.org/2000/svg"><path d="M984.614 659.1l-0.138 43.424-442.446 257.12 0.14-43.5 442.444-257.042z" fill="#6DCB60" /><path d="M714.752 815.892v43.38l269.726-156.748 0.138-43.422-269.864 156.79z" fill="#3DB542" /><path d="M813.666 758.41v43.382l170.812-99.25 0.138-43.44-170.95 99.308z" fill="#2C9A2C" /><path d="M542.168 916.186l-0.118 43.44-502.666-290.48 0.12-43.442 502.664 290.48z" fill="#6DCB60" /><path d="M162.756 696.892v43.52l379.294 219.196 0.12-43.442L162.754 696.892z" fill="#3DB542" /><path d="M396.84 832.02v43.52l145.21 84.086 0.12-43.44-145.33-84.166z" fill="#2C9A2C" /><path d="M984.614 659.062L542.168 916.184 39.502 625.724 481.948 368.6l502.666 290.462z" fill="#81D672" /><path d="M533.604 886.292L103.58 636.396l-0.886-316.12 430 249.896 0.908 316.12z" fill="#DD4A4A" /><path d="M914.056 334.296L484.036 84.4l29.264-1.182 430.02 249.896-29.264 1.18z" fill="#EF4E77" /><path d="M737.694 341.564l-430-249.896 176.342-7.286L914.06 334.278l-176.364 7.286zM609.792 484.176L179.772 234.28l127.92-142.612 430 249.896-127.9 142.612z" fill="#EF4E77" /><path d="M944.186 649.176L533.602 886.35l-0.906-316.16 77.116-86.016 127.92-142.63 176.344-7.208 29.204-1.2 0.906 316.04z" fill="#F25A5A" /><path d="M532.698 570.172L102.696 320.276l77.074-85.996 430.02 249.896-77.092 85.996z" fill="#EF4E77" /><path d="M737.654 323.506l225.634-9.216-5.966 18.214-43.264 1.772-176.364 7.288-127.902 142.61-91.116 101.594-6.046-11.284 225.024-250.98z" fill="#B2B0AF" /><path d="M518.696 585.768L88.636 335.872l-6.046-11.284 430.02 249.896 6.086 11.284z" fill="#C4C2C0" /><path d="M963.288 314.308l-225.674 9.216-429.96-249.874 225.652-9.316 429.982 249.974z" fill="#E9E8E6" /><path d="M592.01 98.48L366.356 107.7l-20.678-11.914 225.654-9.316 20.68 12.014z m52.322 30.406L418.7 138.102l-20.678-11.914 225.634-9.314 20.68 12.012z m52.342 30.424L471 168.508l-20.676-11.914 225.672-9.316 20.68 12.032z m52.322 30.386l-225.654 9.216-20.676-11.914 225.634-9.314 20.696 12.012z m52.322 30.404l-225.654 9.216-20.676-11.912 225.654-9.316 20.676 12.012z m52.342 30.406l-225.674 9.216-20.676-11.914 225.654-9.314 20.696 12.012z m52.304 30.404l-225.634 9.216-20.678-11.914 225.634-9.314 20.68 12.012z" fill="#D6D4D2" /><path d="M737.636 323.504l-225.044 250.96L82.61 324.608l225.044-250.94 429.98 249.836z" fill="#D6D4D2" /><path d="M366.374 107.698L141.332 358.636l-20.678-11.912L345.7 95.784l20.676 11.914zM418.7 138.1L193.654 389.042l-20.676-11.914L398.02 126.188l20.68 11.914z m52.342 30.404l-225.084 250.94-20.676-11.914 225.062-250.94 20.7 11.914z m52.302 30.386L298.3 449.872l-20.678-11.914 225.044-250.96 20.676 11.894z m52.342 30.424L350.64 480.256l-20.676-11.914L554.968 217.4l20.716 11.914z m52.302 30.406L402.982 510.66l-20.676-11.914 225.004-250.94 20.676 11.914z m52.344 30.404l-225.044 250.94-20.678-11.914 225.044-250.94 20.68 11.914z" fill="#C4C2C0" /><path d="M487.838 346.152a91.53 91.53 0 0 0-37.278 23.296 99.25 99.25 0 0 0-23.316 37.612c-1.87 4.648-7.76 4.648-9.63 0a94.07 94.07 0 0 0-60.592-60.908c-4.668-1.24-4.668-7.464 0-9.02a101.966 101.966 0 0 0 37.908-23.296 99.642 99.642 0 0 0 22.684-37.296c1.872-5.28 7.76-5.28 9.65 0 4.648 13.98 12.72 27.036 23.296 37.296a94.916 94.916 0 0 0 37.278 23.296c4.666 1.576 4.666 7.78 0 9.02z m175.696 132.292l-9.1 37.532-6.95 4.02-6.242-18.236-6.302 25.462-6.952 4.016-9.314-26.9 6.734-3.878 6.42 18.964 6.538-26.448 6.006-3.486 6.48 19.142 6.458-26.584 6.224-3.604z m17.938-0.512c1.832 0.748 2.738 3.012 2.758 6.694l0.02 14.14-5.85 3.348v-3.052a14.492 14.492 0 0 1-6.556 7.206 10.226 10.226 0 0 1-4.334 1.576c-1.22 0-2.166-0.316-2.796-1.084a5.16 5.16 0 0 1-0.984-3.328 11.622 11.622 0 0 1 2.264-6.714c1.516-2.206 3.86-4.234 6.992-6.026l4.96-2.876c0-1.554-0.432-2.52-1.24-2.894-0.846-0.394-2.086-0.058-3.74 0.886a20.74 20.74 0 0 0-6.224 5.888l-2.244-3.72a26.824 26.824 0 0 1 4.214-4.63 30.014 30.014 0 0 1 5.08-3.72c3.348-1.93 5.908-2.52 7.68-1.694z m-3.504 16.6v-2.52l-4.294 2.46c-2.58 1.5-3.86 3.21-3.84 5.16 0 0.926 0.336 1.46 0.926 1.654 0.65 0.16 1.536-0.118 2.6-0.728a9.71 9.71 0 0 0 4.608-6.026z m25.246-31.88v6.616a11.644 11.644 0 0 0-1.38 0.728 11.652 11.652 0 0 0-4.252 4.134 12.066 12.066 0 0 0-1.46 6.066l0.04 11.7-6.28 3.6-0.06-24.772 5.968-3.446v3.27a17.356 17.356 0 0 1 7.404-7.878l0.02-0.02z m24.634-1.4l-0.08 1.99-16.304 9.412c0.296 1.38 0.984 2.226 2.088 2.462 1.1 0.236 2.46-0.1 4.076-1.044a13.952 13.952 0 0 0 2.994-2.304 16.106 16.106 0 0 0 2.42-3.21l3.31 2.226c-1.97 3.84-4.944 6.872-8.862 9.116a13.482 13.482 0 0 1-6.46 2.128 5.346 5.346 0 0 1-4.332-2.028 9.408 9.408 0 0 1-1.556-5.732c0-2.4 0.494-4.882 1.518-7.402a24.454 24.454 0 0 1 4.096-6.952 21.866 21.866 0 0 1 5.868-5.002 10.726 10.726 0 0 1 5.73-1.772c1.694 0.06 3.052 0.788 4.036 2.166 0.986 1.38 1.458 3.348 1.458 5.946z m-16.482 7.288l10.594-6.126c-0.216-1.436-0.788-2.382-1.752-2.756-0.986-0.354-2.166-0.158-3.526 0.63a10.974 10.974 0 0 0-5.316 8.252z m26.84-35.172l0.04 11.974a19.102 19.102 0 0 1 6.852-6.892c2.678-1.518 4.826-1.892 6.5-0.986 1.654 0.886 2.46 3.152 2.48 6.794l0.04 14.18-6.282 3.602-0.04-13.094c0-1.95-0.334-3.21-1.102-3.742-0.788-0.532-1.832-0.394-3.27 0.432a10.102 10.102 0 0 0-3.76 3.88 11.534 11.534 0 0 0-1.38 5.77l0.02 12.268-6.222 3.584-0.1-34.166 6.224-3.604z m42.28-9.196c1.024 1.38 1.536 3.27 1.556 5.712 0 2.46-0.492 4.942-1.516 7.482a26.56 26.56 0 0 1-4.176 6.952 23.284 23.284 0 0 1-6.104 5.12 11.954 11.954 0 0 1-6.104 1.93 5.354 5.354 0 0 1-4.234-2.088 9.402 9.402 0 0 1-1.556-5.73c0-2.442 0.492-4.924 1.516-7.464a25.44 25.44 0 0 1 4.214-6.97 23.048 23.048 0 0 1 6.104-5.12 12.074 12.074 0 0 1 6.106-1.93c1.772 0.04 3.17 0.786 4.194 2.106z m-6.302 15.262c1.014-1.804 1.54-3.84 1.536-5.908 0-2.068-0.552-3.446-1.576-4.076-1.024-0.67-2.342-0.512-3.94 0.434a11.932 11.932 0 0 0-5.512 10.022c-0.02 2.088 0.532 3.466 1.556 4.096 1.064 0.65 2.364 0.474 3.998-0.452a10.394 10.394 0 0 0 3.938-4.116z m33.694-36.884l0.078 24.792-5.926 3.428v-2.974a22.618 22.618 0 0 1-2.954 4.194 15.68 15.68 0 0 1-3.742 2.974c-2.836 1.634-5.08 2.008-6.754 1.122-1.654-0.946-2.502-3.23-2.522-6.892l-0.04-14.02 6.284-3.624 0.038 12.958c0 3.996 1.458 5.16 4.372 3.464a9.58 9.58 0 0 0 3.604-3.78 11.442 11.442 0 0 0 1.34-5.75l-0.04-12.268 6.26-3.624z m14.198-8.526c1.516-0.886 3.052-1.616 4.568-2.108a9.358 9.358 0 0 1 3.74-0.552l-2.066 6.302a11.162 11.162 0 0 0-6.222 1.772 11.278 11.278 0 0 0-2.954 2.344c-0.69 0.828-1.024 1.596-1.024 2.226 0 0.788 0.334 1.12 1.064 1.044a19.028 19.028 0 0 0 3.464-1.182c1.754-0.65 3.19-1.104 4.334-1.38a3.74 3.74 0 0 1 2.934 0.414c0.846 0.532 1.24 1.734 1.24 3.546a10.944 10.944 0 0 1-1.182 4.764 18.16 18.16 0 0 1-3.504 4.806c-1.52 1.576-3.348 2.894-5.456 4.136-1.772 1.024-3.524 1.772-5.26 2.284-1.316 0.406-2.7 0.56-4.074 0.452l2.068-6.36c0.984 0.118 2.106 0.04 3.466-0.296a15.854 15.854 0 0 0 4.036-1.634c2.62-1.516 3.94-3.072 3.94-4.53 0-0.728-0.356-1.024-1.084-0.944a18.074 18.074 0 0 0-3.348 1.16 25.18 25.18 0 0 1-4.352 1.44c-1 0.294-2.08 0.16-2.974-0.376-0.846-0.532-1.28-1.694-1.28-3.604a11.256 11.256 0 0 1 1.18-4.864 19.14 19.14 0 0 1 3.41-4.804c1.516-1.576 3.308-2.876 5.336-4.056z m34.008-6.814l-0.08 1.988-16.304 9.434c0.296 1.378 0.986 2.204 2.088 2.44 1.1 0.238 2.46-0.098 4.076-1.022a13.884 13.884 0 0 0 2.994-2.324 16.144 16.144 0 0 0 2.42-3.19l3.31 2.224c-1.97 3.82-4.942 6.854-8.842 9.1-1.946 1.26-4.184 2-6.5 2.144a5.334 5.334 0 0 1-4.33-2.048 9.396 9.396 0 0 1-1.536-5.73c0-2.382 0.492-4.864 1.516-7.404a24.458 24.458 0 0 1 4.096-6.952 22.6 22.6 0 0 1 5.868-5 10.728 10.728 0 0 1 5.73-1.754c1.694 0.04 3.052 0.788 4.038 2.166 0.984 1.38 1.456 3.348 1.456 5.928z m-16.482 7.286l10.594-6.124c-0.216-1.438-0.788-2.384-1.752-2.758-0.984-0.354-2.166-0.156-3.526 0.63a10.972 10.972 0 0 0-5.316 8.252z" fill="#FFFFFF" /><path d="M856.084 700.06l-13.056-6.024-0.61-223.508 13.056-7.502 0.61 237.036z" fill="#DD4A4A" /><path d="M634.014 828.298l208.994-120.674-208.994 120.674z" fill="#343331" /><path d="M843.028 697.324L634.014 817.98l-0.67-226.74 209.074-120.712 0.61 226.796z" fill="#D6D4D2" /><path d="M843.028 637.36l-209.014 120.656-0.67-166.774 209.074-120.714 0.61 166.834z" fill="#B2B0AF" /><path d="M843.028 607.31l-209.014 120.656-0.14-22.646v-6.42l-0.058-16.206-0.08-6.5-0.058-16.206v-6.5l-0.138-16.146v-6.5l-0.196-39.58 209.074-120.714 0.196 39.522v6.5l0.078 16.206 0.06 6.498 0.06 16.206v6.5l0.078 16.206 0.058 6.5 0.08 22.624z" fill="#E9E8E6" /><path d="M626.02 615.03l-12.348-7.168-0.08-29.774 12.328 7.168 0.1 29.774z" fill="#C4C2C0" /><path d="M625.92 585.256l-12.328-7.168 237.726-137.256 12.326 7.168-237.724 137.256z" fill="#D6D4D2" /><path d="M863.646 448l0.078 29.774-237.726 137.256-0.078-29.774L863.646 448z" fill="#FFFFFF" /><path d="M856.084 700.06L634.014 828.3V814l209.014-119.926 13.056 5.986z" fill="#E9E8E6" /><path d="M843.028 637.34v56.716l-1.634-0.986-47.616-27.274 49.25-28.454z" fill="#B2B0AF" /><path d="M842.632 510.07v6.5L633.54 637.34v-6.5l209.092-120.772z m0.2 45.41v6.5l-209.016 120.712-0.08-6.498 209.094-120.714z m0.116 29.204L633.896 705.32v-6.42l209.012-120.714 0.04 6.5z m-0.196-45.41L633.68 659.988v-6.5l209.014-120.712 0.06 6.498z" fill="#D6D4D2" /><path d="M501.248 644.666l-0.394 140.13-9.472 5.514-148.146-85.504 0.394-140.13 9.492-5.514 148.126 85.504zM142.218 437.7l148.146 85.564-0.394 140.13-9.492 5.454-148.126-85.502 0.394-140.132 9.472-5.514z" fill="#434240" /><path d="M352.788 699.352l9.472-5.514 0.334-118.232-9.472 5.514-0.334 118.232z" fill="#C4C2C0" /><path d="M481.87 773.868l9.454-5.514-129.064-74.516-9.472 5.514 129.082 74.516z" fill="#FFFFFF" /><path d="M491.362 790.312l9.472-5.514 0.394-140.112-9.452 5.514-0.414 140.112z" fill="#C4C2C0" /><path d="M491.756 650.18l9.472-5.512-148.126-85.504-9.472 5.512 148.126 85.504z" fill="#FFFFFF" /><path d="M491.362 790.312l-148.126-85.524 0.394-140.13 148.126 85.522-0.394 140.132z m-138.574-90.98l129.082 74.538 0.336-118.234-129.084-74.536-0.334 118.234z" fill="#D6D4D2" /><path d="M141.884 577.91l9.472-5.514 0.354-118.232-9.492 5.514-0.334 118.232z" fill="#C4C2C0" /><path d="M270.966 652.426l9.472-5.514-129.064-74.516-9.49 5.514 129.082 74.516z" fill="#FFFFFF" /><path d="M280.458 668.888l9.472-5.514 0.394-140.13-9.452 5.514-0.414 140.13z" fill="#C4C2C0" /><path d="M280.852 528.74l9.492-5.516-148.146-85.504-9.452 5.514 148.106 85.504z" fill="#FFFFFF" /><path d="M280.458 668.888l-148.126-85.524 0.394-140.15 148.126 85.524-0.394 140.15z m-138.574-90.978l129.082 74.516 0.334-118.232-129.082-74.516-0.334 118.232z" fill="#D6D4D2" /></svg>