<?xml version="1.0" standalone="no"?><!DOCTYPE svg PUBLIC "-//W3C//DTD SVG 1.1//EN" "http://www.w3.org/Graphics/SVG/1.1/DTD/svg11.dtd"><svg class="icon" width="200px" height="200.00px" viewBox="0 0 1024 1024" version="1.1" xmlns="http://www.w3.org/2000/svg"><path d="M984.616 589.43l-0.394 45.272L445.44 947.81l0.354-45.252 538.822-313.128z" fill="#C4C2C0" /><path d="M603.432 810.968v45.036l380.79-221.32 0.394-45.254-381.184 221.54z" fill="#D6D4D2" /><path d="M754.334 723.26v45.056l229.888-133.632 0.394-45.254-230.282 133.83z" fill="#C4C2C0" /><path d="M445.794 902.56l-0.374 45.27L39.384 713.394l0.394-45.254 406.016 234.42z" fill="#D6D4D2" /><path d="M161.34 738.324v45.488l284.08 164.018 0.396-45.272L161.34 738.324z" fill="#C4C2C0" /><path d="M309.88 824.084v45.488l135.54 78.26 0.394-45.274-135.936-78.474z" fill="#D6D4D2" /><path d="M984.614 589.43l-538.82 313.126L39.78 668.16 578.6 355.032l406.016 234.4z" fill="#E9E8E6" /><path d="M904.94 560.306l-0.906 43.814-325.77 189.324 0.926-43.816 325.75-189.322z" fill="#B2B0AF" /><path d="M579.19 749.628l-0.926 43.814H333.292l0.926-43.834 244.972 0.02z" fill="#C4C2C0" /><path d="M334.218 749.608l-0.926 43.834-199.66-115.28 0.926-43.814 199.66 115.26z" fill="#D6D4D2" /><path d="M904.94 560.306l-325.75 189.32H334.218l-199.68-115.276L582.4 374.076l322.54 186.23z" fill="#E9E8E6" /><path d="M885.268 253.696l-0.866 308.382-310.548 180.46 0.866-308.362 310.548-180.48z" fill="#0074D1" /><path d="M574.72 434.176l-0.868 308.382-233.55-0.02 0.886-308.38 233.532 0.018z" fill="#006CB5" /><path d="M341.188 434.176l-0.886 308.36-190.326-109.88 0.868-308.382 190.344 109.902z" fill="#00649B" /><path d="M885.268 253.696l-310.548 180.48H341.17l-190.326-109.882L577.774 76.17l307.494 177.526z" fill="#3F9AE0" /><path d="M577.812 100.47v30.386l239.3 138.16 26.232-15.26-265.532-153.286z" fill="#006CB5" /><path d="M192.788 324.214l26.23 15.164L577.812 130.856V100.47L192.788 324.214z" fill="#0074D1" /><path d="M569.048 413.146l248.064-144.148-239.3-138.142-358.794 208.52 127.802 73.77h222.228z" fill="#B5E5F4" /><path d="M840.526 407.828l-1.654 0.944v-1.89l1.654 0.946z" fill="#D6D4D2" /><path d="M646.184 647.188l-1.576-0.906 1.556-0.906 0.02 1.812z" fill="#FFFFFF" /><path d="M646.184 647.188l-1.576-0.906 1.556-0.906 0.02 1.812z" fill="#D6D4D2" /><path d="M840.526 407.828l-1.654 0.944v-1.89l1.654 0.946z" fill="#FFFFFF" /><path d="M856.634 398.514l-9.648-5.614-210.846 121.72 0.414 145.662 9.688 5.632 210.806-121.718-0.414-145.682z m-17.76 8.368l1.652 0.966-1.654 0.924v-1.89z m-194.246 239.42l1.536-0.908 0.02 1.812-1.556-0.906z" fill="#434240" /><path d="M857.048 540.356l-10.436-6.084-0.394-137.098 10.436 6.066 0.394 137.116z" fill="#D6D4D2" /><path d="M646.99 661.622l-10.436-6.066 210.058-121.284 10.436 6.084-210.058 121.266z" fill="#FFFFFF" /><path d="M638.268 676.746l-10.438-6.066-0.452-157.222 10.436 6.064 0.454 157.224z" fill="#D6D4D2" /><path d="M637.814 519.522l-10.436-6.084 227.564-131.368 10.438 6.066-227.566 131.386z" fill="#FFFFFF" /><path d="M637.814 519.522l227.564-131.386 0.454 157.222-227.564 131.388-0.454-157.224z m219.234 20.834l-0.394-137.116-210.058 121.284 0.394 137.098 210.06-121.266z" fill="#E9E8E6" /><path d="M190.898 448.866l1.634 0.926v-1.87l-1.634 0.944z" fill="#D6D4D2" /><path d="M296.488 636.968l1.574-0.906-1.574-0.886v1.792z" fill="#FFFFFF" /><path d="M296.488 636.968l1.574-0.906-1.574-0.886v1.792z" fill="#D6D4D2" /><path d="M190.898 448.866l1.634 0.926v-1.87l-1.634 0.944z" fill="#FFFFFF" /><path d="M174.376 585.216l122.052 70.498 9.688-5.632 0.414-145.664L184.44 433.92l-9.65 5.632-0.412 145.664z m18.156-135.424l-1.634-0.926 1.634-0.944v1.87z m103.956 187.176v-1.792l1.574 0.886-1.574 0.906z" fill="#434240" /><path d="M174.376 581.376l10.436-6.066 0.394-137.116-10.436 6.064-0.394 137.118z" fill="#D6D4D2" /><path d="M295.68 651.42l10.436-6.064-121.304-70.046-10.436 6.066 121.304 70.046z" fill="#FFFFFF" /><path d="M304.404 666.546l10.436-6.066 0.454-157.244-10.438 6.066-0.452 157.244z" fill="#D6D4D2" /><path d="M304.836 509.302l10.458-6.064-138.832-80.148-10.436 6.064 138.81 80.148z" fill="#FFFFFF" /><path d="M304.404 666.544L165.572 586.4l0.474-157.244 138.81 80.148-0.452 157.242z m-130.028-85.168l121.304 70.046 0.394-137.118-121.304-70.046-0.394 137.118z" fill="#E9E8E6" /><path d="M853.208 326.204l0.02 11.026-250.388 144.542v-11.028l250.368-144.54z" fill="#005E87" /><path d="M728.97 514.008c0.04 10.634-7.444 23.592-16.7 28.928-9.254 5.338-16.778 1.064-16.816-9.57l33.516-19.358z" fill="#C4C2C0" /><path d="M695.454 533.366c0.04 10.634-7.444 23.572-16.7 28.928-9.254 5.336-16.798 1.064-16.836-9.57l33.536-19.358z m67.032-38.714c0.04 10.634-7.444 23.59-16.68 28.928-9.274 5.356-16.796 1.062-16.836-9.572l33.516-19.356z m134.106-77.412c0.038 10.634-7.444 23.572-16.7 28.928-9.256 5.338-16.78 1.044-16.82-9.59l33.52-19.338z" fill="#3DB542" /><path d="M863.074 436.58c0.04 10.632-7.444 23.59-16.7 28.946-9.254 5.336-16.796 1.044-16.816-9.59l33.516-19.358z" fill="#C4C2C0" /><path d="M829.56 455.936c0.018 10.634-7.466 23.592-16.72 28.948-9.256 5.336-16.78 1.044-16.818-9.59l33.536-19.358z" fill="#3DB542" /><path d="M796.022 475.294c0.04 10.634-7.444 23.59-16.7 28.948-9.254 5.316-16.796 1.042-16.816-9.59l33.516-19.36z" fill="#C4C2C0" /><path d="M606.84 473.186l34.814-20.262 55.08 80.738-34.816 20.224-55.08-80.7z" fill="#81D672" /><path d="M640.178 453.81l34.834-20.244 55.08 80.738-34.856 20.224-55.06-80.72z" fill="#FFFFFF" /><path d="M673.516 434.412l34.836-20.224 55.08 80.74-34.836 20.222-55.08-80.738z" fill="#81D672" /><path d="M706.856 415.054l34.854-20.242 55.06 80.738-34.816 20.224-55.1-80.72z" fill="#FFFFFF" /><path d="M740.214 395.678l34.816-20.244 55.08 80.74-34.816 20.222-55.08-80.72z" fill="#81D672" /><path d="M773.554 376.3l34.834-20.244 55.08 80.74-34.836 20.224-55.08-80.72z" fill="#FFFFFF" /><path d="M806.892 356.922l34.836-20.242 55.08 80.738-34.836 20.224-55.08-80.72z" fill="#81D672" /><path d="M545.418 513.438l-0.67 280.004h-180.144l0.648-280.004h180.166z" fill="#F25A5A" /><path d="M550.006 793.444l-10.496-0.02 0.63-274.708h-169.648l-0.632 274.728-10.514-0.02 0.668-285.224h190.66l-0.668 285.244z" fill="#FFFFFF" /><path d="M666.82 225.93l-0.06 22.764-88.358 51.358 0.06-22.784 88.36-51.34z" fill="#D6D4D2" /><path d="M578.46 277.268l-0.058 22.784-88.95-51.358 0.08-22.764 88.93 51.338z" fill="#E9E8E6" /><path d="M666.82 225.93l-88.36 51.338-88.928-51.338 88.36-51.358 88.928 51.358z" fill="#FFFFFF" /><path d="M600.754 212.932c12.406 7.15 12.64 18.964 0.334 26.132-12.484 7.248-32.906 7.148-45.292 0-12.76-7.364-12.8-19.1-0.336-26.348 12.308-7.148 32.552-7.148 45.294 0.198v0.02z" fill="#434240" /><path d="M602.328 417.38l-11.066-6.42-0.218-79.32 11.048 6.438 0.236 79.3z" fill="#DDB040" /><path d="M602.092 338.078l-11.048-6.44 257.93-148.894 11.066 6.42-257.948 148.914z" fill="#FFD651" /><path d="M859.57 189.144l0.236 79.3-257.95 148.934-0.216-79.3 257.93-148.934z" fill="#EFC348" /><path d="M642.66 358.3l4.566 4.866-5.02 2.914-3.96-4.234-0.196 0.138-4.096 2.364v6.498l-4.726 2.718-0.04-23.356 8.802-5.1a10.328 10.328 0 0 1 4.668-1.614 3.428 3.428 0 0 1 3.072 1.16c0.728 0.828 1.102 2.108 1.102 3.9a12.63 12.63 0 0 1-1.08 5.08 16.18 16.18 0 0 1-3.094 4.668z m-1.676-3.386a6.63 6.63 0 0 0 1.084-3.604c0-1.378-0.394-2.126-1.104-2.42-0.708-0.296-1.812-0.02-3.21 0.786l-3.84 2.206v8.172l3.86-2.224a9.164 9.164 0 0 0 3.21-2.916z m24.892-25.894l0.02 4.332-10.674 6.182v5.06l9.452-5.454v4.234l-9.432 5.456v5.356l11.066-6.38v4.332l-15.694 9.078-0.08-23.336 15.342-8.86z m11.52-7.012a17.014 17.014 0 0 1 3.78-1.654 8.314 8.314 0 0 1 3.27-0.394l-1.438 4.964a10.142 10.142 0 0 0-5.652 1.398c-1.132 0.6-2.12 1.44-2.894 2.46a4.13 4.13 0 0 0-0.946 2.442c0 0.828 0.374 1.22 1.102 1.162a11.878 11.878 0 0 0 3.328-0.788 42.796 42.796 0 0 1 3.782-0.866c0.884-0.17 1.802 0.006 2.56 0.492 0.708 0.532 1.024 1.556 1.024 3.152a10.762 10.762 0 0 1-0.906 4.174 16.778 16.778 0 0 1-2.954 4.332 19.674 19.674 0 0 1-4.726 3.684 16.634 16.634 0 0 1-4.668 1.91 6.812 6.812 0 0 1-3.584 0.156l1.556-5c1.02 0.268 2.092 0.268 3.112 0a13.168 13.168 0 0 0 6.576-3.82c0.566-0.666 0.896-1.494 0.946-2.364l-0.59-1.064a2.56 2.56 0 0 0-1.438-0.04 14.724 14.724 0 0 0-2.4 0.65c-1.238 0.406-2.5 0.72-3.784 0.946-0.984 0.08-1.87-0.06-2.56-0.63-0.708-0.474-1.08-1.516-1.08-3.052a10.808 10.808 0 0 1 0.982-4.274c0.7-1.588 1.672-3.04 2.876-4.292a19.346 19.346 0 0 1 4.726-3.684z m38.774-22.034l9.136 18.116-4.92 2.856-1.774-4-9.454 5.456-1.772 6.046-4.844 2.776 9.02-28.572 4.608-2.68z m-5.514 17.446l6.44-3.7-3.25-7.09-3.19 10.79z m-7.03-10.2v4.41l-6.46 3.742 0.04 18.944-4.726 2.718-0.04-18.944-6.498 3.74v-4.39l17.684-10.22z m41.57-24.006l0.04 13.116a18.366 18.366 0 0 1-2.404 9.334 18.064 18.064 0 0 1-6.794 6.656c-2.894 1.674-5.178 2.088-6.792 1.18-1.616-0.924-2.404-3.15-2.404-6.556l-0.038-13.096 4.666-2.698 0.04 12.86c0 4.234 1.516 5.454 4.568 3.682a8.706 8.706 0 0 0 3.368-3.486c0.82-1.69 1.206-3.558 1.122-5.434l-0.04-12.86 4.668-2.698z m18.08 5.436l4.606 4.864-5.04 2.914-3.94-4.214-0.216 0.12-4.098 2.36v6.5l-4.706 2.718-0.058-23.356 8.802-5.08a10.318 10.318 0 0 1 4.666-1.634c1.36-0.12 2.404 0.294 3.072 1.16 0.73 0.828 1.104 2.108 1.104 3.9a12.622 12.622 0 0 1-1.084 5.1 16.13 16.13 0 0 1-3.09 4.648h-0.02z m-1.656-3.388a6.612 6.612 0 0 0 1.082-3.602c0-1.38-0.374-2.128-1.1-2.422-0.732-0.296-1.814-0.02-3.212 0.786l-3.84 2.206 0.02 8.172 3.84-2.224a9.164 9.164 0 0 0 3.21-2.916z m20.56-23.394l9.174 18.098-4.92 2.836-1.834-3.94-9.432 5.436-1.792 6.046-4.826 2.796 9-28.594 4.628-2.678z m-5.516 17.448l6.42-3.702-3.23-7.09-3.19 10.792z m35.368-34.68l0.06 23.356-3.84 2.206-10.2-8.31 0.04 14.18-4.61 2.676-0.06-23.354 3.88-2.246 10.102 8.37-0.04-14.18 4.668-2.696z m20.224-11.676v4.412l-6.48 3.74 0.06 18.944-4.726 2.72-0.04-18.946-6.498 3.74v-4.39l17.684-10.22zM370.748 454.066a38.586 38.586 0 0 0-15.696 9.806 41.77 41.77 0 0 0-9.806 15.812c-0.788 1.97-3.27 1.97-4.058 0a39.58 39.58 0 0 0-25.5-25.618c-1.97-0.532-1.97-3.152 0-3.802a42.92 42.92 0 0 0 15.95-9.806 41.948 41.948 0 0 0 9.55-15.694c0.788-2.226 3.27-2.226 4.058 0a39.384 39.384 0 0 0 9.806 15.694c4.332 4.45 9.688 7.72 15.696 9.806 1.968 0.65 1.968 3.27 0 3.802z" fill="#FFFFFF" /></svg>