<?xml version="1.0" standalone="no"?><!DOCTYPE svg PUBLIC "-//W3C//DTD SVG 1.1//EN" "http://www.w3.org/Graphics/SVG/1.1/DTD/svg11.dtd"><svg class="icon" width="200px" height="200.00px" viewBox="0 0 1024 1024" version="1.1" xmlns="http://www.w3.org/2000/svg"><path d="M403.594 655.656l-337.23-195.94 0.846 299.126 336.68 195.762-0.296-298.948z" fill="#D6D4D2" /><path d="M905.176 365.49L568.46 169.826 66.382 459.696l337.212 195.96 501.582-290.166z" fill="#E9E8E6" /><path d="M568.44 191.9v53.446l252.474 146.728 46.14-26.624-298.616-173.548z" fill="#D6D4D2" /><path d="M104.508 459.756l46.12 26.8L568.44 245.368V191.902L104.508 459.756z" fill="#C4C2C0" /><path d="M820.912 392.074L568.44 245.346 150.626 486.576l252.494 146.708 417.792-241.21z" fill="#B2B0AF" /><path d="M403.594 655.654l0.334 298.85 502.096-289.87-0.848-299.126-501.582 290.146z" fill="#898989" /><path d="M920.714 380.2l-51.634-29.992-38.97 22.488 51.632 29.992 38.972-22.488z m35.9-87.808L904.98 262.4l-36.096 20.834 51.632 29.992 36.096-20.834z" fill="#E9E8E6" /><path d="M920.516 313.226l-51.632-29.992 0.196 66.954 51.634 30.012-0.198-66.974z" fill="#D6D4D2" /><path d="M791.986 454.518l-51.634-30.01-41.354 23.886 51.634 30.01 41.354-23.886z" fill="#E9E8E6" /><path d="M791.808 387.544l-51.634-29.99 0.198 66.954 51.614 30.01-0.178-66.974z" fill="#D6D4D2" /><path d="M881.564 335.734l-51.632-30.01-89.758 51.83 51.634 29.99 89.756-51.81z m-220.69 194.48l-51.634-29.99-41.354 23.868 51.614 30.012 41.374-23.888z m89.56-118.782l-51.632-30.012-89.76 51.83 51.634 30.012 89.76-51.83z" fill="#E9E8E6" /><path d="M660.676 463.26l-51.632-30.03 0.196 66.954 51.634 30.012-0.198-66.934z" fill="#D6D4D2" /><path d="M529.782 605.912l-51.634-30.01-38.99 22.508 51.634 30.01 38.99-22.508z m89.54-118.784l-51.632-29.99-89.738 51.79 51.634 30.01 89.738-51.81z" fill="#E9E8E6" /><path d="M529.586 538.94l-51.634-29.992 0.196 66.954 51.634 30.01-0.196-66.972z" fill="#D6D4D2" /><path d="M957.638 694.726l-159.844 92.258-8.9 5.16-165.474 95.546-9 5.2-158.878 91.726-1.004-402.354 36.076-20.794 0.198 66.954 38.99-22.49-0.198-66.992 89.72-51.812 0.196 66.974 41.354-23.886-0.196-66.974 89.756-51.83 0.198 66.992 41.374-23.886-0.2-66.954 89.76-51.85 0.196 66.974 38.952-22.488-0.196-66.954 36.096-20.854 1.024 402.334z" fill="#C4C2C0" /><path d="M454.52 582.28l-51.616-30.01 0.356 401.96 52.282 30.384-1.024-402.332z" fill="#D6D4D2" /><path d="M490.594 561.448l-51.612-30.012-36.078 20.834 51.614 30.012 36.076-20.834z" fill="#E9E8E6" /><path d="M209.762 651.954l7.838-4.57-0.196 133.634-7.8 4.508-98.126-56.634 0.198-133.614c0.098-31.074 22.172-43.638 49.23-28.06 13.096 7.58 25.364 20.56 34.64 36.548 4.646 8.074 8.25 16.444 10.692 24.654a113.15 113.15 0 0 0-10.694-24.832c-9.254-15.99-21.542-28.986-34.658-36.528-13.608-7.838-25.954-8.586-34.894-3.408l7.818-4.508c8.96-5.22 21.266-4.51 34.894 3.348 13.096 7.58 25.364 20.558 34.66 36.548 9.214 16.03 14.236 33.084 14.236 48.188l-7.838 4.508v0.218z" fill="#434240" /><path d="M117.406 598.114l8.172-4.766-0.158 127.214-8.192 4.764 0.178-127.212z" fill="#C4C2C0" /><path d="M117.228 725.326l8.192-4.764 86.312 49.82-8.192 4.766-86.312-49.82z" fill="#FFFFFF" /><path d="M130.008 570.446l8.172-4.746c-7.74 4.51-12.562 14.06-12.602 27.648l-8.172 4.766c0.04-13.588 4.844-23.158 12.602-27.668z" fill="#C4C2C0" /><path d="M211.948 652.7l8.192-4.764-0.196 136.664-8.192 4.766 0.196-136.664z" fill="#E9E8E6" /><path d="M197 602.034l8.194-4.766c9.668 16.778 14.966 34.698 14.946 50.472l-8.192 4.744c0.04-15.752-5.258-33.672-14.946-50.45z" fill="#FFFFFF" /><path d="M124.16 560.206l8.192-4.746c9.354-5.434 22.292-4.686 36.548 3.546 13.726 7.916 26.624 21.524 36.294 38.26l-8.192 4.768c-9.67-16.74-22.568-30.346-36.274-38.262-14.276-8.232-27.214-9-36.568-3.546v-0.02z" fill="#FFFFFF" /><path d="M197.002 602.23c9.688 16.778 14.986 34.68 14.946 50.472l-0.196 136.664-102.794-59.352 0.196-136.664c0.1-32.552 23.238-45.746 51.574-29.382 13.706 7.916 26.604 21.524 36.274 38.262z m6.538 172.9l0.158-127.214c0.04-13.232-4.412-28.26-12.544-42.338-8.134-14.08-18.944-25.5-30.464-32.138-23.79-13.746-43.206-2.68-43.284 24.674l-0.178 127.212 86.312 49.804z" fill="#C4C2C0" /><path d="M358.164 737.87l7.838-4.588-0.198 133.634-7.798 4.508-98.126-56.636 0.196-133.612c0.1-31.074 22.174-43.638 49.232-28.06 13.094 7.58 25.362 20.558 34.638 36.548 4.648 8.074 8.27 16.444 10.692 24.654a113.15 113.15 0 0 0-10.692-24.832c-9.256-15.99-21.544-28.986-34.66-36.528-13.606-7.838-25.954-8.586-34.894-3.408l7.82-4.508c8.96-5.22 21.266-4.51 34.894 3.346 13.094 7.582 25.362 20.56 34.658 36.55 9.216 16.03 14.238 33.082 14.238 48.186l-7.84 4.51v0.238z" fill="#434240" /><path d="M265.806 684.012l8.174-4.766-0.16 127.214-8.17 4.764 0.156-127.212z" fill="#C4C2C0" /><path d="M265.65 811.224l8.172-4.764 86.312 49.82-8.192 4.766-86.292-49.82z" fill="#FFFFFF" /><path d="M278.41 656.344l8.172-4.746c-7.74 4.51-12.564 14.06-12.602 27.648l-8.174 4.766c0.04-13.588 4.846-23.158 12.604-27.668z" fill="#C4C2C0" /><path d="M360.35 738.6l8.192-4.766-0.198 136.664-8.192 4.766 0.198-136.664z" fill="#E9E8E6" /><path d="M345.404 687.932l8.192-4.766c9.668 16.778 14.966 34.698 14.946 50.47l-8.192 4.746c0.04-15.754-5.26-33.674-14.946-50.45z" fill="#FFFFFF" /><path d="M272.56 646.104l8.194-4.746c9.354-5.434 22.29-4.686 36.548 3.546 13.726 7.916 26.624 21.524 36.294 38.26l-8.192 4.768c-9.67-16.74-22.568-30.346-36.274-38.264-14.258-8.23-27.214-9-36.568-3.544v-0.02z" fill="#FFFFFF" /><path d="M345.404 688.128c9.688 16.778 14.984 34.678 14.946 50.472l-0.198 136.664-102.794-59.352 0.198-136.666c0.1-32.55 23.236-45.744 51.574-29.38 13.706 7.916 26.604 21.524 36.274 38.262z m6.536 172.9l0.16-127.214c0.038-13.232-4.412-28.26-12.526-42.34-8.114-14.08-18.964-25.5-30.484-32.136-23.788-13.746-43.204-2.68-43.284 24.674l-0.156 127.212 86.29 49.804z" fill="#C4C2C0" /><path d="M775.64 774.104l-8.92 5.16-152.32 87.986 0.04 25.64 9-5.2 165.454-95.548 8.92-5.16-22.174-12.878z" fill="#FFFFFF" /><path d="M797.618 639.646c-0.12-35.348-15.46-57.856-38.834-63.508 10.436 11.066 16.6 28.278 16.66 50.628l0.196 147.34 22.154 12.878-0.176-147.34z" fill="#D6D4D2" /><path d="M490.398 763.51l-7.404-4.312 0.196 126.03 7.346 4.254 92.554-53.406-0.178-126.01c-0.1-29.302-20.914-41.158-46.434-26.468-12.348 7.15-23.926 19.398-32.67 34.462a108.92 108.92 0 0 0-10.082 23.276c2.264-7.836 5.672-15.754 10.082-23.434 8.744-15.084 20.322-27.332 32.69-34.46 12.84-7.386 24.476-8.074 32.886-3.21l-7.346-4.234c-8.468-4.924-20.086-4.254-32.926 3.15-12.346 7.148-23.926 19.398-32.668 34.46-8.704 15.126-13.45 31.214-13.45 45.452l7.404 4.254v0.196z" fill="#434240" /><path d="M577.496 712.744l-7.72-4.49 0.16 119.966 7.72 4.488-0.16-119.964z" fill="#C4C2C0" /><path d="M577.654 832.708l-7.72-4.488-81.388 46.984 7.72 4.49 81.388-46.986z" fill="#FFFFFF" /><path d="M565.622 686.67l-7.72-4.508c7.306 4.252 11.856 13.272 11.876 26.092l7.72 4.49c-0.02-12.82-4.57-21.86-11.876-26.092v0.02z" fill="#C4C2C0" /><path d="M488.33 764.22l-7.7-4.49 0.178 128.886 7.72 4.49-0.2-128.886z" fill="#E9E8E6" /><path d="M502.43 716.446l-7.72-4.49c-9.118 15.812-14.14 32.688-14.08 47.576l7.72 4.49c-0.06-14.868 4.962-31.764 14.08-47.576zM571.116 677l-7.72-4.488c-8.82-5.12-21.01-4.412-34.46 3.348-12.94 7.482-25.108 20.282-34.226 36.096l7.72 4.49c9.118-15.794 21.268-28.634 34.224-36.096 13.45-7.76 25.64-8.468 34.462-3.348z" fill="#FFFFFF" /><path d="M536.654 680.526c26.724-15.42 48.542-2.992 48.64 27.728l0.16 128.886-96.928 55.964-0.196-128.886c-0.04-14.886 4.982-31.782 14.1-47.596 9.118-15.792 21.268-28.612 34.224-36.096z m-40.368 199.168l81.368-46.986-0.158-119.964c-0.06-25.798-18.392-36.234-40.82-23.276-10.852 6.26-21.072 17.032-28.752 30.326-7.64 13.272-11.856 27.43-11.816 39.936l0.178 119.964z" fill="#D6D4D2" /><path d="M835.8 564.106l-7.384-4.332 0.178 126.03 7.344 4.254 92.554-53.406-0.178-125.992c-0.098-29.32-20.912-41.156-46.434-26.486-12.346 7.15-23.926 19.398-32.67 34.462a108.92 108.92 0 0 0-10.08 23.276c2.264-7.836 5.67-15.754 10.08-23.434 8.744-15.084 20.324-27.332 32.69-34.44 12.84-7.406 24.478-8.114 32.886-3.23l-7.344-4.234c-8.468-4.924-20.088-4.254-32.906 3.15-12.368 7.148-23.926 19.398-32.69 34.46-8.704 15.126-13.43 31.234-13.43 45.452l7.384 4.254v0.216z" fill="#434240" /><path d="M922.92 513.32l-7.72-4.49 0.138 119.966 7.72 4.488-0.14-119.964z" fill="#C4C2C0" /><path d="M923.058 633.284l-7.72-4.488-81.388 47.004 7.72 4.47 81.388-46.986z" fill="#FFFFFF" /><path d="M911.026 487.228l-7.72-4.472c7.306 4.234 11.854 13.254 11.894 26.074l7.72 4.49c-0.04-12.8-4.588-21.84-11.894-26.092z" fill="#C4C2C0" /><path d="M833.752 564.776l-7.72-4.47 0.18 128.886 7.718 4.49-0.178-128.906z" fill="#E9E8E6" /><path d="M847.832 517.02l-7.72-4.488c-9.116 15.812-14.12 32.688-14.08 47.576l7.72 4.49c-0.04-14.868 4.964-31.764 14.08-47.576z" fill="#FFFFFF" /><path d="M916.52 477.578l-7.72-4.49c-8.802-5.12-21.012-4.412-34.46 3.348-12.94 7.482-25.11 20.282-34.226 36.096l7.72 4.49c9.116-15.794 21.286-28.634 34.224-36.096 13.45-7.76 25.66-8.468 34.46-3.348z" fill="#FFFFFF" /><path d="M882.058 481.122c26.722-15.44 48.54-2.992 48.64 27.708l0.158 128.886-96.926 55.964-0.198-128.884c-0.02-14.888 4.984-31.784 14.1-47.598 9.118-15.792 21.288-28.612 34.226-36.076z m-40.37 199.148l81.37-46.986-0.14-119.964c-0.078-25.798-18.41-36.234-40.84-23.276-10.85 6.28-21.072 17.032-28.732 30.326-7.68 13.272-11.854 27.45-11.814 39.936l0.156 119.964z" fill="#D6D4D2" /><path d="M775.444 626.766c-0.06-22.35-6.242-39.56-16.66-50.628-15.046-3.644-33.4-0.334-53.17 11.086-24.438 14.14-47.458 38.4-64.768 68.294a218.924 218.924 0 0 0-14.966 31.468l149.76 87.04-0.196-147.26z" fill="#FF9C00" /><path d="M625.88 686.986c-7.64 20.046-11.676 40.114-11.658 58.546l0.16 121.698 152.338-87.966 8.92-5.16v-0.098l-149.76-87.02z" fill="#FFD651" /><path d="M574.66 428.564l-127.526 74.12-128.296-74.06 127.528-74.124 128.294 74.064z" fill="#A3A1A0" /><path d="M547.84 273.014l-0.334 154.644L446.74 486.2l0.354-154.642 100.746-58.546z" fill="#EFC348" /><path d="M447.094 331.56l-0.354 154.644-101.376-58.526 0.354-154.644 101.376 58.526z" fill="#FFD651" /><path d="M547.84 273.014l-100.746 58.546-101.376-58.526 100.746-58.566 101.376 58.546z" fill="#BE9837" /><path d="M564.58 266.418l-0.278 25.52-117.346 68.194 0.276-25.52 117.346-68.194z" fill="#DDB040" /><path d="M447.232 334.612l-0.276 25.52L328.92 292l0.276-25.54 118.036 68.154z" fill="#EFC348" /><path d="M564.58 266.418l-117.348 68.194-118.036-68.156 117.346-68.194 118.036 68.156z" fill="#FFD651" /><path d="M447.016 112.148c28.356 59.688 60.474 113.368 100.154 155.096l-100.234 58.25 0.08-155.096V112.148z" fill="#DDB040" /><path d="M447.016 170.398l-0.08 155.098-100.824-58.212c40.546-40.528 72.704-94.622 100.904-155.096v58.21z" fill="#EFC348" /><path d="M456.546 59.688l-8.428-4.884 55.946-2.028 8.428 4.922-55.946 1.99z" fill="#F25A5A" /><path d="M456.744 120.2l-8.428-4.9-0.198-60.496 8.428 4.884 0.198 60.514z" fill="#813030" /><path d="M456.546 59.688l55.946-2.01-55.748 62.524-0.198-60.514z" fill="#DD4A4A" /><path d="M457.138 45.116l-0.434 105.274c0 2.088-1.988 4.174-5.966 5.278a14.71 14.71 0 0 1-7.366 0.118c-4.312-1.044-6.48-3.25-6.46-5.436l0.414-105.274c0 2.206 2.166 4.41 6.46 5.454a14.58 14.58 0 0 0 7.364-0.118c3.98-1.102 5.968-3.19 5.988-5.296z" fill="#E9E8E6" /><path d="M454.222 41.08c4.708 2.696 3.702 7.422-2.992 9.312a14.828 14.828 0 0 1-7.68 0.08c-6.932-1.772-8.094-6.656-3.348-9.394a15.44 15.44 0 0 1 14.02 0z" fill="#C4C2C0" /><path d="M494 663.886a55.324 55.324 0 0 0-22.508 14.06 59.884 59.884 0 0 0-14.06 22.706c-1.12 2.796-4.686 2.796-5.808 0a56.772 56.772 0 0 0-36.57-36.766c-2.816-0.748-2.816-4.49 0-5.434 8.626-2.994 16.306-7.68 22.884-14.06 5.986-6.204 10.87-14.06 13.686-22.508 1.122-3.192 4.686-3.192 5.808 0 2.816 8.428 7.68 16.304 14.06 22.508a57.304 57.304 0 0 0 22.51 14.06c2.816 0.944 2.816 4.686 0 5.434z" fill="#FFFFFF" /></svg>