<?xml version="1.0" standalone="no"?><!DOCTYPE svg PUBLIC "-//W3C//DTD SVG 1.1//EN" "http://www.w3.org/Graphics/SVG/1.1/DTD/svg11.dtd"><svg class="icon" width="200px" height="200.00px" viewBox="0 0 1024 1024" version="1.1" xmlns="http://www.w3.org/2000/svg"><path d="M625.37 957.5c-62.208 36.154-163.35 36.154-226.01-0.04-41.138-23.75-55.394-57.226-42.654-87.632l0.04-0.058 14.906-37.494c-5.808 24.616 7.72 50.51 40.508 69.494 55.532 32.04 145.172 32.04 200.33 0.02 32.492-18.906 45.766-44.7 39.818-69.26l13.628 34.858c1.988 4.154 3.484 8.348 4.45 12.602 6.36 27.53-8.626 56.34-45.016 77.51z" fill="#D6D4D2" /><path d="M611.84 785.724c55.534 32.058 55.81 83.986 0.632 116.066-55.12 32.02-144.78 32.02-200.312-0.04-55.474-32.02-55.808-83.968-0.67-116.008 55.18-32.06 144.858-32.06 200.332 0l0.02-0.02z" fill="#E9E8E6" /><path d="M628.382 445.54l3.74 389.964c0.18 18.668-11.32 37.376-34.618 51.732-47.064 28.988-124.1 29.008-171.52 0-23.73-14.512-35.406-33.516-35.132-52.42l5.77-389.928c-0.256 17.448 10.97 34.974 33.774 48.366 45.528 26.74 119.492 26.72 164.706 0 22.39-13.234 33.436-30.504 33.28-47.716z" fill="#D6D4D2" /><path d="M628.38 445.54c0.16 17.21-10.888 34.46-33.28 47.712-36.134 21.368-90.66 25.66-134.32 12.86v396.012c44.9 12.722 99.96 7.76 136.724-14.888 23.296-14.356 34.796-33.06 34.62-51.732L628.38 445.54z" fill="#C4C2C0" /><path d="M628.38 445.54c0.16 17.21-10.888 34.46-33.28 47.712a124.236 124.236 0 0 1-17.88 8.666V897.26a128.422 128.422 0 0 0 20.284-10.044c23.296-14.336 34.796-33.04 34.62-51.712L628.38 445.54z" fill="#B2B0AF" /><path d="M629.228 527.754l0.788 85.602c0.198 17.84-11.66 36.038-34.442 49.724-46.02 27.706-121.304 27.726-167.64 0-23.198-13.864-34.64-32.02-34.364-50.078l1.89-85.918c-0.274 17.762 11.226 35.584 34.226 49.232 45.922 27.194 120.536 27.174 166.144 0 22.568-13.47 33.556-31.036 33.398-48.562z" fill="#F25A5A" /><path d="M630.744 687.892l0.67 88.89c0.178 18.452-11.264 36.944-34.422 51.102-46.788 28.652-123.352 28.672-170.476 0-23.612-14.336-35.23-33.122-34.934-51.79l1.476-88.892c-0.276 18.354 11.856 36.864 35.25 50.944 46.69 28.14 122.564 28.12 168.94 0 22.942-13.922 33.654-32.138 33.476-50.254h0.02z" fill="#F25A5A" /><path d="M629.228 527.754c0.158 17.526-10.83 35.092-33.398 48.54-37.08 22.116-93.34 26.27-137.768 12.408v87.472c44.584 13.55 100.51 9.178 137.512-13.094 22.784-13.706 34.62-31.902 34.46-49.724l-0.806-85.602z m1.516 160.138c0.16 18.116-10.554 36.332-33.496 50.254-37.454 22.726-94.168 27.098-139.186 13.116v90.446c45.194 13.666 101.554 9.058 138.93-13.824 23.16-14.18 34.6-32.65 34.422-51.102l-0.67-88.89z" fill="#DD4A4A" /><path d="M629.228 527.754c0.158 17.526-10.83 35.092-33.398 48.54-6.026 3.606-12.564 6.696-19.476 9.356v86.802c6.814-2.658 13.274-5.788 19.22-9.372 22.784-13.706 34.62-31.902 34.46-49.724l-0.806-85.602z m1.516 160.138c0.158 18.116-10.554 36.332-33.496 50.254a128.054 128.054 0 0 1-20.874 10.084v89.756a128.174 128.174 0 0 0 20.618-10.102c23.158-14.18 34.6-32.65 34.422-51.102l-0.67-88.89z" fill="#CC4848" /><path d="M593.762 397.646c45.53 26.192 46.318 69.002 1.34 95.606-45.214 26.724-119.18 26.744-164.708 0-45.252-26.584-44.918-69.394 0.296-95.606 44.978-26.052 117.8-26.052 163.052 0h0.02z" fill="#E9E8E6" /><path d="M639.92 424.86l-0.06 24.872c-0.056 18.748-12.384 37.476-37.02 51.792-49.506 28.75-130.086 28.77-179.968 0-25.088-14.494-37.612-33.496-37.552-52.48l0.08-24.872c-0.06 18.984 12.464 38.006 37.552 52.48 49.86 28.79 130.46 28.77 179.988 0 24.616-14.316 36.92-33.024 36.98-51.79z" fill="#C4C2C0" /><path d="M639.92 424.86l-0.06 24.872c-0.056 18.748-12.384 37.476-37.02 51.792-49.506 28.75-130.086 28.77-179.968 0-25.088-14.494-37.612-33.496-37.552-52.48l0.08-24.872c-0.06 18.984 12.464 38.006 37.552 52.48 49.86 28.79 130.46 28.77 179.988 0 24.616-14.316 36.92-33.024 36.98-51.79z" fill="#C4C2C0" /><path d="M602.94 476.652c-47.912 27.826-124.85 28.752-174.968 2.738v24.91c50.118 25.974 127.016 25.03 174.868-2.796 24.636-14.296 36.962-33.024 37.022-51.772l0.06-24.87c-0.06 18.766-12.368 37.474-36.982 51.79z" fill="#B2B0AF" /><path d="M602.94 476.652c-15.558 9.04-34.168 15.222-53.958 18.59v24.852c19.752-3.348 38.34-9.552 53.88-18.59 24.614-14.296 36.94-33.024 37-51.772l0.06-24.87c-0.06 18.766-12.368 37.474-36.982 51.79z" fill="#C4C2C0" /><path d="M602.348 372.38c49.88 28.792 50.136 75.482 0.59 104.272-49.524 28.77-130.126 28.79-179.986 0-49.86-28.79-50.098-75.46-0.592-104.25 49.566-28.79 130.148-28.81 179.988-0.02z" fill="#E9E8E6" /><path d="M591.852 263.74c44.032 25.42 44.248 66.638 0.512 92.06-43.716 25.404-114.884 25.424-158.916 0-44.012-25.402-44.23-66.62-0.512-92.04 43.756-25.404 114.904-25.424 158.916 0v-0.02z" fill="#E9E8E6" /><path d="M625.034 310.094l-0.08 111.262c0 9.138-3.346 18.294-10 26.782-5.398 6.852-12.94 13.272-22.648 18.904-43.718 25.424-114.886 25.424-158.918 0-9.924-5.71-17.624-12.248-23.08-19.2-6.754-8.606-10.12-17.86-10.08-27.116l0.058-111.144c0 9.198 3.348 18.394 10.022 26.92 5.476 6.99 13.194 13.548 23.12 19.3 44.052 25.42 115.2 25.4 158.916 0 9.69-5.614 17.232-12.014 22.608-18.848 6.694-8.506 10.042-17.682 10.082-26.86z" fill="#D6D4D2" /><path d="M614.95 336.956v111.162c-5.394 6.872-12.936 13.292-22.644 18.944a129.38 129.38 0 0 1-27.51 11.718 164.154 164.154 0 0 1-16.838 4.114 191.43 191.43 0 0 1-70.676-0.138 162.5 162.5 0 0 1-16.816-4.134 130.37 130.37 0 0 1-27.098-11.56c-9.904-5.73-17.604-12.268-23.06-19.22v-111.34c5.476 6.99 13.194 13.548 23.12 19.3 8.192 4.724 17.328 8.564 27.038 11.54a163.932 163.932 0 0 0 16.816 4.174 191.428 191.428 0 0 0 70.696 0.136 163.688 163.688 0 0 0 16.818-4.096c9.924-2.992 19.24-6.892 27.568-11.756 9.67-5.612 17.212-12.012 22.586-18.844z" fill="#0074D1" /><path d="M477.282 371.516v111.26a162.5 162.5 0 0 1-16.816-4.154V367.36a163.816 163.816 0 0 0 16.816 4.136v0.02z m87.494-3.96v111.222a164.054 164.054 0 0 1-16.818 4.116v-111.26a165.334 165.334 0 0 0 16.838-4.078h-0.02z" fill="#D6D4D2" /><path d="M639.92 283.944l-0.06 24.852c-0.056 18.746-12.384 37.474-37.02 51.79-49.506 28.77-130.086 28.79-179.968 0-25.088-14.494-37.612-33.496-37.552-52.48l0.08-24.872c-0.06 18.984 12.464 38.006 37.552 52.48 49.86 28.79 130.46 28.77 179.988 0 24.616-14.316 36.92-33.024 36.98-51.79v0.02z" fill="#C4C2C0" /><path d="M639.92 283.944l-0.06 24.852c-0.056 18.746-12.384 37.474-37.02 51.79-49.506 28.77-130.086 28.79-179.968 0-25.088-14.494-37.612-33.496-37.552-52.48l0.08-24.872c-0.06 18.984 12.464 38.006 37.552 52.48 49.86 28.79 130.46 28.77 179.988 0 24.616-14.316 36.92-33.024 36.98-51.79v0.02z" fill="#B2B0AF" /><path d="M602.94 335.714c-47.912 27.826-124.85 28.752-174.968 2.758v24.89c50.118 25.974 127.016 25.03 174.868-2.776 24.636-14.316 36.962-33.044 37.022-51.792l0.06-24.85c-0.06 18.746-12.368 37.454-36.982 51.77z" fill="#D6D4D2" /><path d="M602.94 335.714c-15.558 9.04-34.168 15.242-53.958 18.59v24.852c19.752-3.348 38.34-9.552 53.88-18.57 24.614-14.316 36.94-33.044 37-51.792l0.06-24.85c-0.06 18.746-12.368 37.454-36.982 51.77z" fill="#B2B0AF" /><path d="M602.348 231.444c49.88 28.79 50.136 75.48 0.59 104.27-49.524 28.77-130.126 28.79-179.986 0-49.86-28.79-50.098-75.46-0.592-104.25 49.566-28.79 130.148-28.79 179.988 0v-0.02z" fill="#E9E8E6" /><path d="M613.848 305.408c-5.316 6.48-12.602 12.544-21.838 17.92-43.776 25.444-114.984 25.444-159.054 0-32.532-18.786-41.158-46.18-25.838-69.474L512.2 50.748l21.916 42.338 83.948 162.266c10.084 16.264 8.686 34.36-4.214 50.056z" fill="#DD4A4A" /><path d="M613.848 305.408c-40.212 9-87.61 4.096-120.18-14.71-32.552-18.786-41.16-46.18-25.858-69.474l66.304-128.14 83.948 162.266c10.084 16.266 8.686 34.364-4.234 50.058h0.02z" fill="#F25A5A" /><path d="M549.12 76.308c0.032 20.406-16.518 36.956-36.924 36.922-20.392 0-36.922-16.53-36.922-36.922 0-20.392 16.53-36.924 36.922-36.924 20.394 0 36.924 16.532 36.924 36.924z" fill="#C4C2C0" /><path d="M549.12 76.308a36.784 36.784 0 0 1-6.4 20.776 36.922 36.922 0 0 1-46.514-54.056 36.796 36.796 0 0 1 15.99-3.644h1.006c19.998 0.544 35.926 16.918 35.918 36.924z" fill="#D6D4D2" /><path d="M549.12 76.308c0 2.874-0.334 5.69-0.964 8.388-23.36-0.636-40.26-22.536-34.954-45.292 19.994 0.548 35.918 16.908 35.918 36.904z" fill="#E9E8E6" /><path d="M501.76 248.792a46.22 46.22 0 0 0-18.748 11.738c-5.316 5.454-9.372 11.874-11.716 18.904-0.946 2.344-3.9 2.344-4.844 0a47.3 47.3 0 0 0-30.484-30.64c-2.344-0.612-2.344-3.742 0-4.53 7.188-2.5 13.588-6.4 19.08-11.718 5.004-5.16 9.06-11.716 11.404-18.746 0.944-2.66 3.9-2.66 4.844 0 2.344 7.03 6.4 13.588 11.716 18.746 5.16 5.318 11.56 9.216 18.748 11.718 2.364 0.788 2.364 3.92 0 4.528z" fill="#FFFFFF" /></svg>