<?xml version="1.0" standalone="no"?><!DOCTYPE svg PUBLIC "-//W3C//DTD SVG 1.1//EN" "http://www.w3.org/Graphics/SVG/1.1/DTD/svg11.dtd"><svg class="icon" width="200px" height="200.00px" viewBox="0 0 1024 1024" version="1.1" xmlns="http://www.w3.org/2000/svg"><path d="M847.794 455.384l-0.63 243.3-125.54 72.96 0.63-243.3 125.54-72.96z" fill="#CC4848" /><path d="M722.254 528.344l-0.63 243.3-66.008-38.106 0.63-243.298 66.008 38.104z" fill="#DD4A4A" /><path d="M656.246 490.24l-0.63 243.298-240.896 140.012 0.63-243.318 240.896-139.992z" fill="#C44141" /><path d="M355.78 741.316l-0.63 243.3L170.24 877.86l0.65-243.298 184.89 106.752z" fill="#DD4A4A" /><path d="M847.794 455.384l-125.54 72.96-66.008-38.104-240.896 140.012 65.988 38.084-125.558 72.98-184.91-106.752 492.032-285.932 184.892 106.752z" fill="#F25A5A" /><path d="M634.152 746.378l-58.428 33.714V661.78l58.092-33.516 0.336 118.114z m-96.768 56.084l-60.24 34.776-1.32-119.414 61.204-34.738 0.356 119.376z" fill="#434240" /><path d="M636.888 747.972l-2.756-1.594-0.256-98.58 2.738 1.596 0.274 98.58z m-0.294-103.836l-2.758-1.616-0.04-17.446 2.758 1.594 0.04 17.468z m-32.434 122.72l-2.738-1.574-0.274-98.58 2.756 1.576 0.256 98.58z" fill="#D6D4D2" /><path d="M608.492 660.342l-2.756-1.576 28.12-16.246 2.758 1.596-28.12 16.226z" fill="#E9E8E6" /><path d="M603.884 663l-2.756-1.574-0.04-17.468 2.756 1.596 0.04 17.446z" fill="#D6D4D2" /><path d="M575.784 679.228l-2.758-1.576 28.12-16.246 2.74 1.594-28.102 16.228z" fill="#E9E8E6" /><path d="M571.47 785.742l-2.756-1.574-0.354-126.602 2.756 1.594 0.354 126.582z" fill="#D6D4D2" /><path d="M571.096 659.16l-2.756-1.574 70.064-40.448 2.74 1.574-70.048 40.448z" fill="#E9E8E6" /><path d="M571.096 659.16l70.046-40.428 0.354 126.582-4.608 2.66-0.276-98.58-28.1 16.246 0.276 98.56-4.608 2.658-0.276-98.56-28.12 16.226 0.276 98.56-4.608 2.66-0.356-126.584z m32.788 3.84l-0.06-17.446-28.1 16.246 0.06 17.428 28.1-16.228z m32.71-18.884l-0.04-17.448-28.12 16.226 0.06 17.448 28.1-16.226z" fill="#C4C2C0" /><path d="M539.688 804.392l-2.758-1.596-0.276-98.58 2.758 1.596 0.276 98.58z m-0.316-103.858l-2.736-1.594-0.04-17.448 2.756 1.594 0.02 17.448z m-32.414 122.742l-2.756-1.594-0.256-98.56 2.756 1.574 0.256 98.58z" fill="#D6D4D2" /><path d="M511.272 716.76l-2.758-1.574 28.12-16.246 2.758 1.594-28.12 16.226z" fill="#E9E8E6" /><path d="M506.684 719.42l-2.758-1.576-0.06-17.468 2.758 1.596 0.06 17.448z" fill="#D6D4D2" /><path d="M478.562 735.646l-2.756-1.576 28.12-16.246 2.758 1.596-28.12 16.226z" fill="#E9E8E6" /><path d="M474.25 842.16l-2.758-1.574-0.354-126.602 2.758 1.596 0.354 126.58z" fill="#D6D4D2" /><path d="M473.896 715.58l-2.758-1.576 70.046-40.448 2.756 1.576-70.044 40.448z" fill="#E9E8E6" /><path d="M473.896 715.58l70.026-40.43 0.374 126.582-4.608 2.66-0.296-98.58-28.1 16.226 0.274 98.58-4.608 2.66-0.274-98.58-28.1 16.244 0.274 98.56-4.608 2.66-0.354-126.584z m32.768 3.84l-0.04-17.448-28.12 16.226 0.06 17.448 28.1-16.226z m32.728-18.886l-0.06-17.448-28.1 16.228 0.04 17.446 28.12-16.226z" fill="#C4C2C0" /><path d="M481.34 668.356l-0.632 243.3-125.558 72.96 0.63-243.3 125.56-72.96z" fill="#CC4848" /><path d="M384.472 913.506l-4.804-2.796 68.234-39.384 4.784 2.776-68.214 39.404z" fill="#E9E8E6" /><path d="M379.668 921.836l-4.806-2.796-0.314-111.556 4.784 2.776 0.336 111.576z" fill="#D6D4D2" /><path d="M379.332 810.26l-4.784-2.776 77.882-44.98 4.786 2.78-77.884 44.976z" fill="#E9E8E6" /><path d="M452.686 874.102l-4.784-2.776-0.256-94.956-0.02-5.534 4.786 2.776 0.274 100.49z" fill="#D6D4D2" /><path d="M379.332 810.26l77.884-44.978 0.334 111.578-77.902 44.976-0.316-111.576z m73.354 63.842l-0.274-100.49-68.234 39.384 0.294 100.51 68.214-39.404z" fill="#C4C2C0" /><path d="M452.686 874.102l-68.214 39.384-0.02-5.514 63.45-36.646 4.784 2.776z" fill="#E9E8E6" /><path d="M452.686 874.102l-68.214 39.384-0.294-100.49 68.234-39.384 0.274 100.49z" fill="#FFFFFF" /><path d="M753.132 690.058l-4.784-2.776 68.232-39.386 4.786 2.758-68.234 39.404z" fill="#E9E8E6" /><path d="M748.308 698.388l-4.786-2.776-0.314-111.578 4.804 2.796 0.296 111.558z" fill="#D6D4D2" /><path d="M748.012 586.83l-4.804-2.796 77.902-44.958 4.786 2.778-77.884 44.976z" fill="#E9E8E6" /><path d="M821.366 650.674l-4.804-2.798-0.256-94.936v-5.552l4.784 2.796 0.276 100.49z" fill="#D6D4D2" /><path d="M748.012 586.83l77.884-44.976 0.314 111.576-77.882 44.958-0.316-111.558z m73.354 63.844l-0.276-100.49-68.234 39.384 0.276 100.49 68.234-39.384z" fill="#C4C2C0" /><path d="M821.366 650.674l-68.234 39.384v-5.534l63.43-36.628 4.804 2.778z" fill="#E9E8E6" /><path d="M821.366 650.674l-68.234 39.384-0.296-100.49 68.254-39.384 0.276 100.49z" fill="#FFFFFF" /><path d="M180.264 313.5l0.55 315.276 173.332 100.726-0.57-315.274-173.312-100.726z" fill="#EFC348" /><path d="M353.576 414.226l0.57 315.274 474.78-274.116-0.548-315.274-474.802 274.116z" fill="#DDB040" /><path d="M180.264 313.5l173.312 100.728 474.78-274.118-173.272-100.726L180.264 313.5z" fill="#FFD651" /><path d="M517.376 295.896l164.47-95.566-0.59 335.912-164.47 95.586 0.59-335.932z" fill="#DD4A4A" /><path d="M359.228 204.604l164.47-95.588 158.15 91.314-164.472 95.566-158.148-91.292z" fill="#F25A5A" /><path d="M651.56 204.918l7.876-4.568-146.944-84.834-142.06 82.568h0.04l134.182-77.98 146.906 84.814z" fill="#CC4848" /><path d="M651.56 204.918l-146.906-84.794-134.182 77.98 146.904 84.836 134.184-78.022z" fill="#DD4A4A" /><path d="M517.376 295.896l-0.59 335.932-18.158-10.476 0.454-291.19-140.012-80.838 0.158-44.74 158.148 91.312z" fill="#CC4848" /><path d="M365.292 763.332l-11.224-6.498-0.316-112.246 11.206 6.5 0.334 112.244z" fill="#B2B0AF" /><path d="M364.958 651.088l-11.206-6.5L842.24 362.536l11.204 6.498L364.96 651.088z" fill="#E9E8E6" /><path d="M853.426 369.074l0.316 112.246-488.45 282.014-0.314-112.246 488.448-282.014z" fill="#D6D4D2" /><path d="M501.622 643.92l-5.672-3.29 7.64 3.662 5.654 3.29-7.62-3.664z m-6.676-27.688l5.652 3.288c0.316 0.196 0.63 0.394 0.946 0.63l-5.652-3.288a9.892 9.892 0 0 0-0.946-0.63z" fill="#3F9AE0" /><path d="M476.928 659.83l-5.652-3.288c0.984 0.57 2.108 0.886 3.348 0.984 2.5 0.158 5.336-0.69 8.508-2.52 5.12-2.954 9.392-7.74 12.82-14.376l5.67 3.288c-3.446 6.636-7.72 11.422-12.84 14.376-3.15 1.832-6.006 2.68-8.486 2.5a7.56 7.56 0 0 1-3.368-0.984v0.02z m25.148-56.38l5.65 3.29a12.88 12.88 0 0 0-7.64-1.576c-3.584 0.296-7.6 1.714-12.032 4.274l-5.652-3.29c4.432-2.56 8.428-3.976 12.012-4.252a12.88 12.88 0 0 1 7.66 1.556z" fill="#3F9AE0" /><path d="M467.79 672.828l-5.67-3.29a12.602 12.602 0 0 1-3.742-3.386c-2.422-3.23-3.644-7.76-3.662-13.588 0-5.81 1.18-11.736 3.584-17.724 2.38-6.026 5.71-11.56 9.904-16.6a52.97 52.97 0 0 1 14.18-12.092l5.67 3.29c-5.258 3.032-9.984 7.07-14.198 12.09a60.252 60.252 0 0 0-9.906 16.58 47.36 47.36 0 0 0-3.584 17.744c0.02 5.83 1.24 10.36 3.664 13.588a12.604 12.604 0 0 0 3.74 3.388h0.02z" fill="#3F9AE0" /><path d="M488.054 609.438c4.43-2.56 8.448-3.98 12.012-4.254a12.426 12.426 0 0 1 9.06 2.5l-7.582 12.466c-3.466-2.6-7.76-2.422-12.86 0.532-3.17 1.832-6.006 4.254-8.468 7.286a35.644 35.644 0 0 0-5.808 10.042c-1.38 3.644-2.068 7.288-2.048 10.93 0.02 3.644 0.708 6.5 2.106 8.528 1.38 2.066 3.348 3.17 5.83 3.346 2.48 0.16 5.316-0.688 8.486-2.52 5.12-2.954 9.394-7.74 12.84-14.376l7.62 3.664a56.184 56.184 0 0 1-9.038 13.036 51.65 51.65 0 0 1-12.052 9.65c-5.218 3.012-9.924 4.43-14.14 4.252a12.466 12.466 0 0 1-9.982-5.08c-2.422-3.23-3.644-7.76-3.664-13.588 0-5.808 1.182-11.736 3.584-17.742 2.384-6.006 5.712-11.54 9.906-16.58 4.214-5.022 8.94-9.06 14.18-12.092h0.02z" fill="#006CB5" /><path d="M511.41 590.396l0.156 58.8 5.672 3.27-0.178-58.782 11.836-6.834-5.652-3.288-11.834 6.834z" fill="#3F9AE0" /><path d="M528.896 586.85l0.178 58.782-11.836 6.834-0.178-58.782 11.836-6.834z" fill="#006CB5" /><path d="M576.354 595.22l-5.652-3.288-0.118-35.704 5.672 3.29 0.1 35.7z" fill="#3F9AE0" /><path d="M576.256 559.518l-5.672-3.29 11.698-6.754 5.652 3.29-11.678 6.754z m2.126 57.64l-5.65-3.27-25.6-20.972 5.65 3.288 25.6 20.952z m-37.356-37.3l-5.652-3.286 9.788-5.652 5.652 3.268-9.788 5.672z" fill="#3F9AE0" /><path d="M541.184 638.64l-5.652-3.288-0.158-58.78 5.652 3.288 0.158 58.78z" fill="#3F9AE0" /><path d="M587.934 552.764l0.176 58.78-9.728 5.632-25.6-20.972 0.1 35.682-11.698 6.756-0.158-58.782 9.788-5.672 25.54 21.032-0.1-35.702 11.68-6.754z" fill="#006CB5" /><path d="M611.96 586.83l-5.654-3.268 27.846-16.088 5.65 3.288-27.844 16.068z m-0.06-24.18l-5.652-3.29 23.748-13.706 5.652 3.288-23.748 13.706z m-11.68 41.904l-5.65-3.288-0.158-58.782 5.652 3.288 0.158 58.78z" fill="#3F9AE0" /><path d="M600.064 545.772l-5.652-3.288 38.656-22.332 5.652 3.29-38.656 22.33z" fill="#3F9AE0" /><path d="M638.72 523.44l0.04 10.93-26.9 15.518 0.04 12.76 23.748-13.706 0.02 10.596-23.75 13.706 0.04 13.586 27.846-16.068 0.04 10.93-39.602 22.862-0.18-58.78 38.658-22.332z" fill="#006CB5" /><path d="M757.248 513.89l-5.652-3.288-4.568-9.984 5.672 3.288 4.548 9.984z m-24.536-8.782l-5.652-3.288 16.206-9.374 5.672 3.288-16.226 9.374z" fill="#3F9AE0" /><path d="M748.938 495.734l-5.672-3.288-8.152-17.822 5.652 3.288 8.172 17.822z m-13.98-27.844l-5.654-3.29 11.68-6.734 5.65 3.288-11.678 6.736z m-22.648 71.954l-5.652-3.288 22.646-71.956 5.652 3.29-22.646 71.954z" fill="#3F9AE0" /><path d="M746.634 461.154l23.04 45.568-12.406 7.168-4.568-9.984-23.75 13.706-4.49 15.222-12.15 7.01 22.646-71.954 11.678-6.736z m-13.922 43.934l16.226-9.354-8.172-17.82-8.054 27.174z" fill="#006CB5" /><path d="M695.808 549.376l-5.652-3.288-0.176-35.23 5.65 3.288 0.178 35.23z m-17.664-12.09l-5.672-3.29 18.748-47.42 5.652 3.29-18.728 47.42z" fill="#3F9AE0" /><path d="M696.872 489.866l-5.652-3.288 9.728-5.594 5.652 3.27-9.728 5.612z m-21.544 65.102l-5.652-3.288-15.064-19.652 5.652 3.288 15.064 19.652z m-26.23-37.514l-5.652-3.288 9.788-5.652 5.65 3.29-9.786 5.65z m0.158 58.802l-5.652-3.288-0.158-58.8 5.652 3.286 0.158 58.802z" fill="#3F9AE0" /><path d="M706.6 484.254l0.314 58.702-11.106 6.42-0.178-35.25-14.966 37.77-5.316 3.072-15.084-19.652 0.098 34.52-11.106 6.42-0.158-58.8 9.786-5.652 19.26 25.48 18.728-47.42 9.728-5.61z" fill="#006CB5" /><path d="M579.072 528.03l-11.698-6.794-0.668-269.43 11.696 6.794 0.67 269.43z m25.934-315.51l-11.696-6.774c7.364-4.274 14.04-4.688 18.904-1.93l11.678 6.794c-4.844-2.758-11.52-2.344-18.904 1.91h0.02z" fill="#CC4848" /><path d="M578.402 258.6l-11.696-6.794c-0.04-16.936 11.874-37.554 26.604-46.08l11.696 6.794c-14.748 8.526-26.642 29.144-26.584 46.08h-0.02z" fill="#CC4848" /><path d="M605.006 212.52c7.366-4.254 14.04-4.668 18.906-1.91 4.824 2.756 7.836 8.704 7.876 17.17l0.65 269.43-53.366 30.82-0.67-269.43c-0.04-16.936 11.856-37.554 26.586-46.08h0.02z" fill="#F25A5A" /><path d="M718.238 292.076l-6.696-3.9 0.158 113.9 6.656 3.84 83.652-48.244-0.156-113.9c-0.1-26.488-18.906-37.2-41.966-23.928-11.164 6.46-21.62 17.528-29.538 31.174a98.46 98.46 0 0 0-9.098 21.012c2.028-7.09 5.12-14.238 9.1-21.19 7.914-13.626 18.372-24.694 29.536-31.114 11.62-6.694 22.134-7.324 29.736-2.914l-6.636-3.84c-7.66-4.45-18.136-3.84-29.756 2.856-11.164 6.46-21.62 17.526-29.538 31.154-7.856 13.646-12.15 28.218-12.15 41.078l6.696 3.84v0.196-0.02z" fill="#434240" /><path d="M796.948 246.174l-6.972-4.038 0.14 108.426 6.99 4.058-0.16-108.446z" fill="#C4C2C0" /><path d="M797.106 354.62l-6.992-4.058-73.55 42.458 6.97 4.056 73.572-42.456z" fill="#FFFFFF" /><path d="M786.216 222.62l-6.972-4.056c6.598 3.84 10.712 11.994 10.732 23.572l6.992 4.038c-0.04-11.56-4.136-19.712-10.752-23.552z" fill="#C4C2C0" /><path d="M716.366 292.706l-6.97-4.056 0.158 116.5 6.99 4.056-0.178-116.5z" fill="#E9E8E6" /><path d="M729.108 249.52l-6.972-4.036c-8.27 14.278-12.78 29.54-12.74 43.008l6.97 4.038c-0.04-13.43 4.49-28.712 12.74-43.008z" fill="#FFFFFF" /><path d="M791.198 213.88l-6.992-4.06c-7.954-4.626-19.002-3.976-31.152 3.034-11.678 6.754-22.686 18.354-30.918 32.63l6.972 4.038c8.25-14.258 19.24-25.856 30.916-32.612 12.17-7.01 23.2-7.66 31.174-3.032z" fill="#FFFFFF" /><path d="M760.044 217.088c24.144-13.942 43.856-2.718 43.934 25.048l0.178 116.48-87.632 50.59-0.158-116.5c-0.04-13.45 4.49-28.712 12.74-43.008 8.252-14.276 19.24-25.876 30.92-32.61h0.02z m-36.51 179.988l73.572-42.456-0.14-108.446c-0.078-23.296-16.64-32.73-36.9-21.012-9.828 5.652-19.044 15.38-25.976 27.372-6.932 12.012-10.732 24.812-10.694 36.116l0.14 108.426z" fill="#D6D4D2" /><path d="M399.832 476.04l-6.694-3.898 0.176 113.9 6.636 3.84 83.654-48.264-0.158-113.88c-0.1-26.488-18.904-37.22-41.964-23.928-11.166 6.46-21.622 17.526-29.54 31.154a98.458 98.458 0 0 0-9.096 21.012c2.048-7.07 5.12-14.22 9.118-21.17 7.876-13.626 18.352-24.694 29.518-31.114 11.62-6.696 22.134-7.326 29.736-2.914l-6.636-3.84c-7.64-4.45-18.138-3.84-29.736 2.836-11.186 6.46-21.642 17.526-29.54 31.152-7.876 13.668-12.168 28.22-12.168 41.08l6.694 3.84v0.196z" fill="#434240" /><path d="M478.562 430.14l-6.99-4.058 0.158 108.426 6.97 4.056-0.138-108.424z" fill="#C4C2C0" /><path d="M478.7 538.584l-6.97-4.076-73.572 42.476 6.972 4.058 73.57-42.458z" fill="#FFFFFF" /><path d="M467.81 406.568l-6.97-4.058c6.616 3.84 10.712 12.014 10.732 23.572l6.99 4.056c-0.04-11.578-4.134-19.73-10.752-23.57z" fill="#C4C2C0" /><path d="M397.98 476.672l-7.008-4.056 0.156 116.48 6.992 4.056-0.14-116.48z" fill="#E9E8E6" /><path d="M410.702 433.486l-6.97-4.056c-8.252 14.296-12.78 29.56-12.74 43.008l6.97 4.056c-0.02-13.45 4.49-28.71 12.74-43.008z m62.09-35.642l-6.97-4.056c-7.976-4.628-19.004-4-31.174 3.032-11.676 6.754-22.666 18.334-30.916 32.61l6.97 4.056c8.252-14.276 19.24-25.874 30.918-32.61 12.17-7.03 23.198-7.68 31.172-3.032z" fill="#FFFFFF" /><path d="M441.64 401.034c24.142-13.942 43.874-2.698 43.932 25.048l0.18 116.5-87.632 50.57-0.16-116.48c-0.018-13.45 4.492-28.712 12.742-43.008 8.252-14.278 19.24-25.876 30.918-32.63h0.02z m-36.51 180.008l73.57-42.478-0.138-108.424c-0.08-23.316-16.62-32.73-36.904-21.032-9.826 5.672-19.04 15.4-25.974 27.392-6.93 11.992-10.712 24.812-10.692 36.116l0.138 108.426z" fill="#D6D4D2" /><path d="M384.492 412.81a43.262 43.262 0 0 0-17.624 11.028 46.908 46.908 0 0 0-11.028 17.762c-0.866 2.206-3.662 2.206-4.53 0a44.464 44.464 0 0 0-28.652-28.79c-2.206-0.59-2.206-3.526 0-4.254 6.754-2.362 12.78-6.026 17.92-11.028a46.986 46.986 0 0 0 10.732-17.624c0.868-2.48 3.664-2.48 4.53 0 2.226 6.616 6.046 12.8 11.028 17.644 4.864 4.982 10.87 8.664 17.624 11.008 2.206 0.728 2.206 3.664 0 4.254z" fill="#FFFFFF" /></svg>