<?xml version="1.0" standalone="no"?><!DOCTYPE svg PUBLIC "-//W3C//DTD SVG 1.1//EN" "http://www.w3.org/Graphics/SVG/1.1/DTD/svg11.dtd"><svg class="icon" width="200px" height="200.00px" viewBox="0 0 1024 1024" version="1.1" xmlns="http://www.w3.org/2000/svg"><path d="M913.328 281.6l-1.08 375.788L378.188 967.74l1.104-375.79L913.328 281.6z" fill="#C4C2C0" /><path d="M912.304 636.75l-0.058 20.64-534.056 310.348 0.08-20.638 534.034-310.35z" fill="#F25A5A" /><path d="M379.274 591.95l-1.064 375.79-284.002-162.56 1.064-375.612 284.002 162.382z" fill="#D6D4D2" /><path d="M378.27 947.1l-0.06 20.64-284.002-162.56 0.06-20.48 284.002 162.4z" fill="#DD4A4A" /><path d="M913.33 281.6L379.274 591.952 95.292 429.568 629.348 119.218l283.98 162.382z" fill="#E9E8E6" /><path d="M148.146 429.49l29.124 16.818L629.366 183.552V149.82L148.146 429.49z" fill="#C4C2C0" /><path d="M629.386 149.82v33.732l201.964 115.042 29.126-16.934-231.09-131.84z" fill="#D6D4D2" /><path d="M831.35 298.594L629.366 183.552 177.25 446.306l201.964 115.024 452.136-262.736z" fill="#434240" /><path d="M275.752 568.99v103.05l72.33 41.55V610.56l-72.33-41.57z" fill="#3F9AE0" /><path d="M275.752 568.99l-15.696-9.02v118.252l15.696-6.182v-103.05z" fill="#C4C2C0" /><path d="M275.752 672.04l-15.696 6.182 88.026 50.59v-15.22l-72.33-41.552z" fill="#FFFFFF" /><path d="M141.096 491.304v103.03l72.33 41.55v-103.01l-72.33-41.57z" fill="#3F9AE0" /><path d="M141.096 491.304l-15.696-9.02v118.232l15.696-6.182v-103.03z" fill="#C4C2C0" /><path d="M141.096 594.314l-15.696 6.202 88.026 50.61v-15.222l-72.33-41.59z" fill="#FFFFFF" /><path d="M275.752 755.2v103.05L348.08 899.8v-103.01L275.752 755.2z" fill="#3F9AE0" /><path d="M275.752 755.2l-15.696-9v118.252l15.696-6.202V755.2z" fill="#C4C2C0" /><path d="M275.752 858.25l-15.696 6.202 88.026 50.57v-15.2l-72.33-41.572z" fill="#FFFFFF" /><path d="M141.096 677.514v103.03l72.33 41.57v-103.03l-72.33-41.57z" fill="#3F9AE0" /><path d="M141.096 677.514l-15.696-9.02v118.254l15.696-6.184v-103.05z" fill="#C4C2C0" /><path d="M141.096 780.564l-15.696 6.184 88.026 50.588v-15.22l-72.33-41.552z" fill="#FFFFFF" /><path d="M870.992 341.564v103.03L437.564 693.624v-103.032l433.428-249.028z" fill="#3F9AE0" /><path d="M870.99 341.564l15.716-9.02v118.232l-15.696-6.182-0.02-103.03z" fill="#C4C2C0" /><path d="M870.992 444.594l15.714 6.182-449.142 258.088v-15.222l433.428-249.048z" fill="#FFFFFF" /><path d="M674.344 984.182L512 889.816l-0.552-192.118 162.384 94.366 0.512 192.12z" fill="#D6D4D2" /><path d="M675.112 984.616l-163.132-94.8-0.06-20.38 162.364 94.364 0.828 20.816z" fill="#DD4A4A" /><path d="M673.812 792.064l-162.402-94.366 255.448-147.494 162.364 94.364-255.41 147.496z" fill="#E9E8E6" /><path d="M555.244 697.758l17.566 10.22 194.048-112.01v-20.36l-211.614 122.15z" fill="#C4C2C0" /><path d="M766.858 575.606v20.342l101.02 58.704 17.566-10.142-118.586-68.904z" fill="#D6D4D2" /><path d="M867.86 654.652l-101.02-58.684-194.03 112.01 101.02 58.702 194.03-112.028z" fill="#909293" /><path d="M929.24 644.568l0.552 192.12-255.448 147.494-0.532-192.118 255.428-147.496z" fill="#C4C2C0" /><path d="M929.732 816.306l0.06 20.38-255.448 147.496-0.06-20.38 255.448-147.496z" fill="#F25A5A" /><path d="M859.314 877.096l-0.374-131.8-113.9 65.81 114.274 65.97v0.02z" fill="#21201F" /><path d="M745.04 811.106l-0.77 0.434 0.394 131.74 114.65-66.204-114.276-65.97z" fill="#434240" /><path d="M550.144 768.196l93.204 53.84-0.256 88.18-5.948 3.428-93.204-53.8 0.238-88.16 5.966-3.488z" fill="#3F9AE0" /><path d="M547.8 857.186l6.262-3.642 0.198-78.04-6.242 3.64-0.218 78.042z" fill="#E9E8E6" /><path d="M632.99 906.36l6.242-3.626-85.17-49.19-6.26 3.642 85.188 49.172z" fill="#FFFFFF" /><path d="M639.252 917.208l6.26-3.622 0.258-92.496-6.262 3.644-0.256 92.474z" fill="#E9E8E6" /><path d="M639.508 824.714l6.26-3.624-97.75-56.438-6.262 3.644 97.752 56.418z" fill="#FFFFFF" /><path d="M639.252 917.208l-97.752-56.438 0.256-92.474 97.752 56.438-0.256 92.474z m-91.452-60.02l85.19 49.17 0.216-78.04-85.188-49.172-0.218 78.04z" fill="#C4C2C0" /><path d="M492.7 414.168l-0.294 20.756c-0.04 12.012-7.936 23.926-23.63 33.064-32.572 18.904-84.6 19.14-117.366 0.196-16.01-9.234-24.064-21.464-24.026-33.712l0.276-20.776c-0.04 12.268 8.016 24.478 24.024 33.734 32.768 18.904 84.796 18.706 117.368-0.218 15.694-9.136 23.59-21.05 23.63-33.044h0.02z" fill="#D6D4D2" /><path d="M492.7 414.168l-0.294 20.756c-0.04 12.012-7.936 23.926-23.63 33.064-32.572 18.904-84.6 19.14-117.366 0.196-16.01-9.234-24.064-21.464-24.026-33.712l0.276-20.776c-0.04 12.268 8.016 24.478 24.024 33.734 32.768 18.904 84.796 18.706 117.368-0.218 15.694-9.136 23.59-21.05 23.63-33.044h0.02z" fill="#D6D4D2" /><path d="M469.032 447.212c-17.764 10.32-41.354 15.046-64.414 14.14v20.794c22.98 0.828 46.434-3.88 64.138-14.178 15.714-9.118 23.63-21.032 23.65-33.044l0.276-20.756c-0.04 12.012-7.936 23.906-23.63 33.044h-0.02z" fill="#C4C2C0" /><path d="M469.032 447.212c-1.36 0.788-2.758 1.536-4.176 2.246v20.636c1.34-0.668 2.64-1.378 3.9-2.106 15.714-9.138 23.63-21.052 23.65-33.064l0.276-20.756c-0.04 12.012-7.936 23.908-23.63 33.044h-0.02z" fill="#D6D4D2" /><path d="M467.89 379.884c32.786 18.906 32.944 48.838 1.14 67.328-32.55 18.906-84.578 19.14-117.364 0.198-32-18.472-32.16-48.838 0.394-67.742 31.802-18.472 83.83-18.256 115.83 0.216z" fill="#E9E8E6" /><path d="M470.804 314.644l-0.256 89.896c-0.02 8.92-5.888 17.76-17.448 24.476-23.906 13.904-61.912 13.904-85.976 0-11.914-6.872-17.88-15.832-17.86-24.812l0.254-89.896c-0.04 8.98 5.928 17.94 17.842 24.814 24.084 13.902 62.07 13.902 85.996 0 11.54-6.696 17.408-15.558 17.448-24.48z" fill="#D6D4D2" /><path d="M453.356 339.12c-18.786 10.93-46.218 13.234-68.804 7.012v89.954c22.528 6.144 49.84 3.82 68.548-7.07 11.56-6.694 17.428-15.556 17.448-24.476l0.256-89.896c-0.04 8.92-5.908 17.762-17.448 24.478z" fill="#C4C2C0" /><path d="M453.356 339.12a67.368 67.368 0 0 1-9.708 4.59v89.796c3.348-1.3 6.5-2.756 9.452-4.49 11.56-6.694 17.428-15.556 17.448-24.476l0.256-89.896c-0.04 8.92-5.908 17.762-17.448 24.478z" fill="#B2B0AF" /><path d="M452.726 289.516c24.084 13.904 23.886 36.096 0.63 49.624-23.926 13.884-61.912 13.884-85.996 0-23.748-13.724-23.868-35.72 0.06-49.624 23.236-13.528 61.576-13.706 85.326 0h-0.02z" fill="#FFFFFF" /><path d="M452.608 161.458l-0.158 147.494c-0.02 6.262-4.134 12.466-12.228 17.172-16.76 9.748-43.382 9.748-60.26 0-8.348-4.804-12.524-11.086-12.504-17.388l0.158-147.496c0 6.282 4.174 12.564 12.504 17.37 16.878 9.748 43.52 9.748 60.26 0 8.112-4.688 12.208-10.91 12.228-17.152z" fill="#8D9799" /><path d="M440.38 178.61c-11.816 6.892-28.594 8.88-43.364 6.044v147.536c14.73 2.796 31.41 0.788 43.206-6.066 8.094-4.706 12.208-10.91 12.208-17.152l0.198-147.514c-0.04 6.24-4.136 12.464-12.248 17.152z" fill="#7E8A8C" /><path d="M440.38 178.61c-0.67 0.394-1.4 0.708-2.108 1.082v147.418c0.65-0.336 1.32-0.632 1.95-0.986 8.094-4.706 12.208-10.91 12.208-17.152l0.198-147.514c-0.04 6.24-4.136 12.464-12.248 17.152z" fill="#6D797A" /><path d="M439.966 143.852c16.856 9.728 16.72 25.304 0.414 34.758-16.74 9.746-43.384 9.746-60.26 0-16.62-9.59-16.72-25.01 0.04-34.758 16.306-9.472 43.166-9.61 59.806 0z" fill="#A0A8AA" /><path d="M388.726 158.268c7.502-4.294 17.94-5.908 27.57-4.826 5.356 0.808 10.712 2.402 14.966 4.826a17.724 17.724 0 0 1 7.482 7.836c2.934-5.946 0.768-12.524-7.482-17.27a44.8 44.8 0 0 0-14.966-4.824c-9.63-1.064-20.068 0.532-27.57 4.824-7.976 4.726-10.102 11.244-7.246 17.152a17.604 17.604 0 0 1 7.266-7.72h-0.02z" fill="#7E8A8C" /><path d="M388.726 173.706c11.244 6.44 28.632 6.97 40.408 1.34 0.808-0.532 1.616-0.788 2.422-1.34a17.664 17.664 0 0 0 7.188-7.6 17.724 17.724 0 0 0-7.482-7.84 44.8 44.8 0 0 0-14.966-4.824c-9.63-1.062-20.068 0.532-27.57 4.826a17.604 17.604 0 0 0-7.246 7.72 17.624 17.624 0 0 0 7.266 7.718h-0.02z" fill="#434240" /><path d="M662.252 316.85l-0.256 20.774c-0.04 12.012-7.956 23.926-23.65 33.044-32.552 18.904-84.6 19.14-117.366 0.218-16.01-9.256-24.044-21.466-24.024-33.734l0.274-20.776c-0.02 12.268 8.016 24.498 24.026 33.734 32.768 18.924 84.814 18.708 117.366-0.198 15.694-9.136 23.61-21.07 23.63-33.062z" fill="#D6D4D2" /><path d="M662.252 316.85l-0.256 20.774c-0.04 12.012-7.956 23.926-23.65 33.044-32.552 18.904-84.6 19.14-117.366 0.218-16.01-9.256-24.044-21.466-24.024-33.734l0.274-20.776c-0.02 12.268 8.016 24.498 24.026 33.734 32.768 18.924 84.814 18.708 117.366-0.198 15.694-9.136 23.61-21.07 23.63-33.062z" fill="#D6D4D2" /><path d="M638.62 349.894c-17.78 10.338-41.352 15.044-64.432 14.158v20.776c23 0.846 46.454-3.88 64.158-14.16 15.694-9.118 23.61-21.05 23.63-33.044l0.296-20.774c-0.04 12.012-7.956 23.926-23.65 33.044z" fill="#C4C2C0" /><path d="M638.62 349.894a93.96 93.96 0 0 1-4.174 2.264v20.638c1.32-0.69 2.62-1.38 3.9-2.128 15.694-9.118 23.61-21.05 23.63-33.044l0.296-20.774c-0.04 12.012-7.956 23.926-23.65 33.044z" fill="#D6D4D2" /><path d="M637.48 282.584c32.768 18.906 32.944 48.838 1.14 67.308-32.55 18.906-84.596 19.142-117.364 0.218-32-18.472-32.178-48.838 0.394-67.742 31.782-18.492 83.83-18.274 115.83 0.196v0.02z" fill="#E9E8E6" /><path d="M640.394 217.324l-0.256 89.896c-0.04 8.92-5.908 17.78-17.448 24.498-23.926 13.9-61.912 13.9-85.996 0-11.894-6.894-17.86-15.834-17.84-24.814l0.236-89.894c-0.02 8.98 5.946 17.92 17.84 24.812 24.084 13.902 62.09 13.902 85.996 0 11.56-6.716 17.428-15.578 17.448-24.498h0.02z" fill="#D6D4D2" /><path d="M622.926 241.82c-18.766 10.912-46.218 13.216-68.804 6.992v89.954c22.548 6.144 49.86 3.82 68.568-7.05 11.56-6.714 17.408-15.576 17.448-24.496l0.236-89.896c-0.02 8.92-5.908 17.782-17.448 24.498z" fill="#C4C2C0" /><path d="M622.926 241.82a67.334 67.334 0 0 1-9.688 4.57v89.798a66.168 66.168 0 0 0 9.452-4.472c11.56-6.714 17.408-15.576 17.448-24.496l0.236-89.896c-0.02 8.92-5.888 17.782-17.448 24.498z" fill="#B2B0AF" /><path d="M622.316 192.196c24.084 13.904 23.868 36.116 0.61 49.626-23.906 13.902-61.912 13.902-85.996 0-23.728-13.706-23.846-35.722 0.06-49.626 23.256-13.508 61.596-13.704 85.326 0z" fill="#FFFFFF" /><path d="M622.2 64.138l-0.18 147.514c0 6.244-4.134 12.466-12.208 17.172-16.78 9.728-43.402 9.728-60.26 0-8.348-4.824-12.542-11.106-12.524-17.388l0.18-147.514c-0.02 6.3 4.154 12.562 12.502 17.388 16.878 9.748 43.5 9.748 60.26 0 8.092-4.706 12.208-10.91 12.208-17.172h0.02z" fill="#8D9799" /><path d="M609.97 81.31c-11.836 6.892-28.594 8.86-43.364 6.026v147.554c14.73 2.796 31.39 0.788 43.186-6.066 8.094-4.726 12.21-10.928 12.228-17.172l0.18-147.494c-0.02 6.242-4.138 12.446-12.23 17.132v0.02z" fill="#7E8A8C" /><path d="M609.97 81.31c-0.67 0.394-1.42 0.708-2.108 1.062v147.438c0.63-0.336 1.32-0.63 1.93-0.986 8.094-4.726 12.21-10.928 12.228-17.172l0.18-147.494c-0.02 6.242-4.138 12.446-12.23 17.132v0.02z" fill="#6D797A" /><path d="M609.536 46.532c16.876 9.748 16.74 25.306 0.434 34.778-16.76 9.748-43.382 9.748-60.26 0-16.64-9.61-16.738-25.03 0.04-34.778 16.286-9.452 43.146-9.608 59.786 0z" fill="#A0A8AA" /><path d="M558.316 60.948c7.484-4.274 17.92-5.888 27.57-4.806 5.336 0.788 10.692 2.404 14.966 4.806a17.724 17.724 0 0 1 7.482 7.838c2.916-5.928 0.75-12.506-7.482-17.27a44.8 44.8 0 0 0-14.966-4.806c-9.65-1.082-20.086 0.532-27.57 4.806-7.976 4.726-10.1 11.244-7.246 17.17a17.604 17.604 0 0 1 7.246-7.74z" fill="#7E8A8C" /><path d="M558.316 76.406c11.224 6.42 28.632 6.952 40.408 1.34 0.788-0.532 1.596-0.808 2.404-1.34a17.664 17.664 0 0 0 7.206-7.62 17.724 17.724 0 0 0-7.482-7.84 44.8 44.8 0 0 0-14.966-4.804c-9.65-1.082-20.086 0.532-27.57 4.806a17.604 17.604 0 0 0-7.246 7.74 17.624 17.624 0 0 0 7.246 7.72z" fill="#434240" /><path d="M416.158 617.354c-17.96 5.848-31.252 20.834-36.57 36.746-1.12 2.816-4.686 2.816-5.808 0a56.772 56.772 0 0 0-36.568-36.746c-2.816-0.748-2.816-4.51 0-5.456 8.624-2.992 16.324-7.68 22.88-14.06a60.002 60.002 0 0 0 13.688-22.508c1.122-3.17 4.686-3.17 5.808 0 2.816 8.448 7.68 16.326 14.08 22.508a57.304 57.304 0 0 0 22.49 14.06c2.816 0.946 2.816 4.708 0 5.456z" fill="#FFFFFF" /></svg>