<?xml version="1.0" standalone="no"?><!DOCTYPE svg PUBLIC "-//W3C//DTD SVG 1.1//EN" "http://www.w3.org/Graphics/SVG/1.1/DTD/svg11.dtd"><svg class="icon" width="200px" height="200.00px" viewBox="0 0 1024 1024" version="1.1" xmlns="http://www.w3.org/2000/svg"><path d="M172.642 612.372l0.12 236.092 234.28 136.152-0.1-236.092-234.3-136.152z" fill="#C4C2C0" /><path d="M406.94 748.524l0.1 236.09 444.318-256.512-0.12-236.11-444.296 256.532z" fill="#D6D4D2" /><path d="M172.642 612.372l234.3 136.152L851.24 492.012 616.96 355.84 172.642 612.372z" fill="#E9E8E6" /><path d="M177.486 579.682l0.1 35.564 229.316 133.28-0.1-35.566-229.316-133.278z" fill="#006CB5" /><path d="M257.87 661.898l149.032 86.626-0.1-35.564-148.932-86.568v35.506z" fill="#00649B" /><path d="M357.04 719.558l49.862 28.946-0.1-35.544-49.76-28.928v35.526z" fill="#005E87" /><path d="M406.804 712.96l0.1 35.566 434.884-251.08-0.12-35.562L406.806 712.96z" fill="#3F9AE0" /><path d="M540.612 671.312l301.174-173.884-0.118-35.544-301.056 173.824v35.604z" fill="#0074D1" /><path d="M643.682 611.82l198.106-114.372-0.12-35.564-197.986 114.312v35.624z" fill="#006CB5" /><path d="M774.46 536.3l67.328-38.852-0.12-35.564-67.208 38.792v35.624z" fill="#00649B" /><path d="M177.486 579.684l229.316 133.276 434.866-251.076-229.316-133.26-434.866 251.06z" fill="#E9E8E6" /><path d="M612.334 351.9v20.442l-377.01 217.64-17.664-10.24 394.674-227.84z" fill="#D6D4D2" /><path d="M801.496 461.824l-17.644 10.2-171.52-99.682v-20.46l189.164 109.942z" fill="#C4C2C0" /><path d="M783.854 472.024l-377.01 217.64L235.324 590l376.97-217.678 171.56 99.702z" fill="#81D672" /><path d="M172.642 553.276l0.12 36.352 234.28 136.152-0.1-36.352-234.3-136.152z" fill="#C4C2C0" /><path d="M406.94 689.428l0.1 36.352 444.318-256.532-0.12-36.332-444.296 256.512z" fill="#D6D4D2" /><path d="M172.642 553.276l234.3 136.152L851.24 432.916 616.96 296.764 172.642 553.276z" fill="#E9E8E6" /><path d="M616.92 320.532v20.894L231.74 563.81l-18.04-10.476 403.22-232.802z" fill="#D6D4D2" /><path d="M810.2 432.856l-18.038 10.418-175.24-101.848v-20.874l193.28 112.304z" fill="#C4C2C0" /><path d="M792.164 443.274L406.98 665.66l-175.24-101.83 385.18-222.404 175.244 101.848z" fill="#6D797A" /><path d="M217.876 692.58l127.704 73.746-0.334 120.832-8.172 4.706-127.726-73.728 0.356-120.812 8.172-4.746z" fill="#3F9AE0" /><path d="M214.646 814.474l8.566-4.962 0.316-106.93-8.566 4.982-0.316 106.91z" fill="#C4C2C0" /><path d="M331.382 881.88l8.566-4.98-116.736-67.388-8.566 4.98 116.736 67.388z" fill="#FFFFFF" /><path d="M339.968 896.748l8.566-4.98 0.354-126.72-8.566 4.98-0.354 126.72z" fill="#E9E8E6" /><path d="M340.322 770.028l8.566-4.98-133.946-77.354-8.566 4.982 133.946 77.352z" fill="#FFFFFF" /><path d="M339.968 896.748l-133.966-77.332 0.374-126.74 133.946 77.352-0.354 126.72z m-125.32-82.254l116.734 67.386 0.296-106.928-116.716-67.388-0.316 106.93z" fill="#D6D4D2" /><path d="M555.322 725.996l-114.412 66.068 0.316 108.228 7.326 4.216 114.412-66.03-0.316-108.228-7.326-4.254z" fill="#3F9AE0" /><path d="M558.218 835.21l-7.68-4.47-0.276-95.784 7.68 4.45 0.276 95.804z" fill="#E9E8E6" /><path d="M453.652 895.566l-7.68-4.45 104.566-60.376 7.68 4.47-104.566 60.356z" fill="#FFFFFF" /><path d="M445.952 908.9l-7.68-4.472-0.316-113.506 7.68 4.45 0.316 113.526z" fill="#E9E8E6" /><path d="M445.636 795.372l-7.68-4.45 120.006-69.298 7.68 4.47-120.006 69.28z" fill="#FFFFFF" /><path d="M445.636 795.372l120.006-69.278 0.314 113.526-120.004 69.28-0.316-113.528z m112.582 39.838l-0.276-95.804-104.566 60.378 0.276 95.782 104.566-60.356z" fill="#C4C2C0" /><path d="M818.668 573.952l-114.412 66.088 0.316 108.228 7.304 4.214 114.414-66.048-0.316-108.228-7.306-4.254z" fill="#3F9AE0" /><path d="M821.544 683.166l-7.68-4.45-0.276-95.784 7.68 4.45 0.276 95.784z" fill="#E9E8E6" /><path d="M716.996 743.542l-7.68-4.47 104.568-60.356 7.66 4.45-104.548 60.376z" fill="#FFFFFF" /><path d="M709.278 756.854l-7.68-4.45-0.316-113.526 7.68 4.47 0.316 113.506z" fill="#E9E8E6" /><path d="M708.962 643.348l-7.68-4.47 120.006-69.278 7.68 4.45-120.006 69.298z" fill="#FFFFFF" /><path d="M708.962 643.348l120.006-69.298 0.314 113.526-120.004 69.28-0.316-113.508z m112.58 39.818l-0.274-95.784-104.566 60.376 0.276 95.784 104.566-60.376z" fill="#C4C2C0" /><path d="M444.574 254.09l-1.064 311.196c-0.02 6.952-4.608 13.924-13.764 19.22-18.394 10.714-48.326 10.714-66.896 0-9.314-5.396-13.98-12.464-13.96-19.494l1.062-311.218c0 7.07 4.648 14.12 13.96 19.496 18.552 10.732 48.504 10.732 66.896 0.04 9.158-5.318 13.746-12.27 13.766-19.24z" fill="#D6D4D2" /><path d="M444.574 254.09v47.42c-0.02 6.95-4.608 13.92-13.766 19.24-18.392 10.692-48.344 10.692-66.894-0.04-9.314-5.378-13.98-12.446-13.962-19.496v-47.42c0 7.07 4.648 14.12 13.96 19.496 18.552 10.732 48.504 10.732 66.896 0.04 9.158-5.318 13.746-12.27 13.766-19.24z" fill="#81D672" /><path d="M430.808 273.33c-13.744 7.994-33.948 10.002-51.04 6.026v311.374c16.854 3.66 36.508 1.614 49.978-6.204 9.156-5.316 13.744-12.288 13.764-19.24l1.064-311.196c-0.02 6.97-4.608 13.922-13.766 19.24z" fill="#C4C2C0" /><path d="M430.808 273.33c-13.744 7.994-33.948 10.002-51.04 6.026v47.438c16.854 3.642 37.572 1.772 51.04-6.046 9.158-5.316 13.746-12.288 13.766-19.24v-47.42c-0.02 6.972-4.608 13.924-13.766 19.24z" fill="#3DB542" /><path d="M430.808 273.33c-1.712 0.984-3.544 1.91-5.434 2.716v310.666c1.496-0.688 2.992-1.38 4.372-2.186 9.156-5.316 13.744-12.288 13.764-19.24l1.064-311.196c-0.02 6.97-4.608 13.922-13.766 19.24z" fill="#B2B0AF" /><path d="M430.808 273.33c-1.712 0.984-3.544 1.91-5.434 2.716v47.42c1.496-0.69 4.056-1.91 5.434-2.718 9.158-5.316 13.746-12.288 13.766-19.24v-47.42c-0.02 6.972-4.608 13.924-13.766 19.24z" fill="#2C9A2C" /><path d="M430.572 234.556c18.57 10.712 18.668 28.06 0.236 38.774-18.392 10.692-48.344 10.692-66.894-0.02-18.51-10.694-18.63-28.042-0.216-38.736 18.412-10.712 48.364-10.712 66.874 0v-0.02z" fill="#E9E8E6" /><path d="M373.09 239.99c-13.252 7.7-13.194 20.184 0.158 27.904 6.52 3.76 15.006 5.652 23.512 5.75V234.22c-8.586 0.06-17.132 1.97-23.67 5.77z" fill="#C4C2C0" /><path d="M421.258 239.99c-6.774-3.92-15.656-5.828-24.498-5.77v39.424c8.94 0.1 17.88-1.792 24.676-5.75 13.252-7.7 13.194-20.184-0.18-27.904z" fill="#B2B0AF" /><path d="M630.548 146.708l-1.064 311.198c-0.02 6.97-4.608 13.922-13.744 19.238-18.414 10.694-48.346 10.694-66.916-0.02-9.314-5.394-13.98-12.444-13.94-19.494l1.06-311.198c-0.018 7.05 4.63 14.12 13.944 19.496 18.57 10.712 48.502 10.712 66.914 0.02 9.138-5.318 13.726-12.27 13.746-19.24z" fill="#D6D4D2" /><path d="M630.548 146.708v47.42c-0.02 6.97-4.608 13.92-13.746 19.24-18.412 10.692-48.344 10.692-66.914-0.02-9.314-5.398-13.98-12.448-13.942-19.496v-47.44c-0.02 7.05 4.628 14.12 13.942 19.496 18.57 10.712 48.502 10.712 66.914 0.02 9.138-5.318 13.726-12.268 13.746-19.24v0.02z" fill="#81D672" /><path d="M616.802 165.948c-13.764 7.994-33.968 10.002-51.042 6.024v311.376c16.856 3.66 36.49 1.634 49.98-6.204 9.136-5.316 13.724-12.268 13.744-19.24l1.064-311.196c-0.02 6.97-4.608 13.922-13.746 19.24z" fill="#C4C2C0" /><path d="M616.802 165.948c-13.764 7.994-33.968 10.002-51.042 6.024v47.44c16.856 3.642 37.554 1.772 51.042-6.046 9.138-5.316 13.726-12.268 13.746-19.24v-47.42c-0.02 6.972-4.608 13.924-13.746 19.24z" fill="#3DB542" /><path d="M616.802 165.948c-1.732 0.984-3.544 1.91-5.454 2.716v310.666c1.516-0.688 2.992-1.38 4.392-2.186 9.136-5.316 13.724-12.268 13.744-19.24l1.064-311.196c-0.02 6.97-4.608 13.922-13.746 19.24z" fill="#B2B0AF" /><path d="M616.802 165.948c-1.732 0.984-3.544 1.91-5.454 2.716v47.42c1.516-0.69 4.056-1.91 5.454-2.718 9.138-5.316 13.726-12.268 13.746-19.24v-47.42c-0.02 6.972-4.608 13.924-13.746 19.24z" fill="#2C9A2C" /><path d="M616.566 127.192c18.55 10.714 18.648 28.042 0.236 38.756-18.412 10.692-48.344 10.692-66.914-0.02-18.51-10.694-18.61-28.042-0.196-38.736 18.412-10.692 48.344-10.692 66.874 0z" fill="#E9E8E6" /><path d="M559.064 132.608c-13.252 7.7-13.194 20.204 0.16 27.904 6.536 3.76 15.024 5.672 23.53 5.75V126.858c-8.586 0.04-17.132 1.97-23.69 5.75z" fill="#C4C2C0" /><path d="M607.232 132.608c-6.754-3.92-15.636-5.81-24.478-5.75V166.26c8.92 0.1 17.88-1.792 24.656-5.73 13.272-7.72 13.194-20.204-0.178-27.924z" fill="#B2B0AF" /><path d="M675.8 829.46l-0.314-106.87-92.378 53.366L675.8 829.46z" fill="#21201F" /><path d="M583.09 775.936l-0.592 0.354 0.296 106.85 93.006-53.68-92.71-53.524z" fill="#434240" /><path d="M429.45 416.216a49.104 49.104 0 0 0-20.086 12.544c-5.712 5.868-10.064 12.74-12.584 20.284-0.984 2.5-4.174 2.5-5.18 0a50.708 50.708 0 0 0-32.688-32.848c-2.5-0.668-2.5-4.016 0-4.844a54.94 54.94 0 0 0 20.46-12.564 53.522 53.522 0 0 0 12.21-20.086c1.024-2.854 4.194-2.854 5.2 0 2.52 7.524 6.87 14.574 12.562 20.086 5.514 5.712 12.406 9.886 20.086 12.564 2.52 0.828 2.52 4.196 0 4.864h0.02z" fill="#FFFFFF" /><path d="M687.694 63.704c0 11.422-9.392 21.052-20.854 21.052a15.992 15.992 0 0 1-7.148-1.438 17.132 17.132 0 0 1-16.738 14.514c-1.654 0-3.486 0-4.924-0.828-2.028 9.394-10.634 16.74-20.636 16.74a17.448 17.448 0 0 1-9.59-2.64c-3.684 3.072-8.39 5.12-13.49 5.12-11.612-0.054-21.008-9.46-21.052-21.07 0-8.764 5.514-16.346 13.294-19.2 1.83-0.592 3.88-1.024 5.906-1.22 1.24-9.394 8.804-16.346 18-17.568a20.776 20.776 0 0 1 20.834-17.78c8.172 0 15.538 4.706 18.806 11.854 3.88-5.12 10.004-8.39 16.74-8.39 9.608 0 17.78 6.754 20.026 15.754 0.588 1.634 0.868 3.364 0.826 5.1z" fill="#B2B0AF" /><path d="M686.868 58.584c-2.442 0.828-5.12 1.44-7.76 1.44a17.192 17.192 0 0 1-7.148-1.44 16.818 16.818 0 0 1-16.758 14.71 10.102 10.102 0 0 1-4.904-1.004 21.268 21.268 0 0 1-20.636 16.74 19.2 19.2 0 0 1-9.61-2.442 20.596 20.596 0 0 1-13.49 4.902c-9.59 0-17.762-6.538-20.008-15.536 1.832-0.592 3.88-1.024 5.908-1.22 1.24-9.394 8.804-16.346 18-17.568a20.776 20.776 0 0 1 20.834-17.78c8.172 0 15.538 4.706 18.806 11.854 3.88-5.12 10.004-8.39 16.74-8.39 9.608 0 17.78 6.754 20.026 15.754v-0.02z" fill="#C4C2C0" /><path d="M511.154 167.286c0 11.46-9.394 21.07-20.836 21.07a15.994 15.994 0 0 1-7.148-1.436 17.132 17.132 0 0 1-16.758 14.492c-1.634 0-3.486 0-4.922-0.806-2.03 9.392-10.614 16.738-20.62 16.738a17.446 17.446 0 0 1-9.608-2.64c-3.682 3.054-8.37 5.12-13.49 5.12-11.612-0.052-21.008-9.458-21.05-21.07 0-8.782 5.514-16.344 13.292-19.2 1.83-0.61 3.88-1.024 5.908-1.22 1.24-9.394 8.8-16.346 17.998-17.566a20.776 20.776 0 0 1 20.834-17.782c8.172 0 15.538 4.686 18.806 11.854 3.88-5.12 10.004-8.388 16.74-8.388 9.628 0 17.8 6.754 20.046 15.754 0.58 1.63 0.852 3.352 0.808 5.08z" fill="#B2B0AF" /><path d="M510.346 162.186c-2.46 0.826-5.12 1.438-7.78 1.438a17.192 17.192 0 0 1-7.146-1.44 16.818 16.818 0 0 1-16.74 14.712 10.102 10.102 0 0 1-4.922-1.024 21.268 21.268 0 0 1-20.638 16.76 19.202 19.202 0 0 1-9.59-2.444 20.596 20.596 0 0 1-13.49 4.904c-9.61 0-17.78-6.54-20.026-15.538 1.83-0.61 3.88-1.024 5.908-1.22 1.24-9.394 8.8-16.346 17.998-17.566a20.776 20.776 0 0 1 20.834-17.782c8.172 0 15.538 4.686 18.806 11.854 3.88-5.12 10.004-8.388 16.74-8.388 9.628 0 17.8 6.754 20.046 15.754v-0.02z" fill="#C4C2C0" /></svg>