<?xml version="1.0" standalone="no"?><!DOCTYPE svg PUBLIC "-//W3C//DTD SVG 1.1//EN" "http://www.w3.org/Graphics/SVG/1.1/DTD/svg11.dtd"><svg class="icon" width="200px" height="200.00px" viewBox="0 0 1024 1024" version="1.1" xmlns="http://www.w3.org/2000/svg"><path d="M664.988 294.242l0.65 229.71-567.63 327.72-0.65-229.71 567.63-327.72z" fill="#B5E5F4" /><path d="M663.1 77.588l22.546-13.096c47.558-8.368 95.568 1.42 143.656 29.184l-22.548 13.116c-48.088-27.766-96.098-37.574-143.654-29.204z" fill="#E9E8E6" /><path d="M950.94 243.732l22.55-13.116-12.406 14.77-22.548 13.116 12.406-14.77z" fill="#B2B0AF" /><path d="M806.754 106.792l22.548-13.116c48.088 27.766 96.256 73.452 144.188 136.94l-22.548 13.116c-47.952-63.488-96.1-109.194-144.188-136.94z" fill="#D6D4D2" /><path d="M806.754 106.792c48.07 27.766 96.238 73.452 144.188 136.94l-12.406 14.768c-44.466-58.88-88.222-100.726-131.84-125.932-43.64-25.186-87.16-33.712-131.21-25.954l-12.406-29.026c47.576-8.37 95.586 1.438 143.674 29.204z" fill="#C4C2C0" /><path d="M115.652 380.908l-0.256 578.58-18.844 10.968 0.236-578.6 18.864-10.948z" fill="#B2B0AF" /><path d="M96.808 391.858l-0.236 578.58-18.964-10.95 0.236-578.58 18.964 10.95z" fill="#D6D4D2" /><path d="M115.652 380.908l-18.844 10.95-18.964-10.95 18.846-10.948 18.962 10.948z" fill="#E9E8E6" /><path d="M316.416 340.146l-0.236 502.686-18.846 10.948 0.236-502.686 18.846-10.948z" fill="#B2B0AF" /><path d="M297.57 351.114l-0.216 502.646-18.964-10.948 0.236-502.686 18.944 10.988z" fill="#D6D4D2" /><path d="M316.416 340.146l-18.846 10.948-18.964-10.948 18.846-10.95 18.964 10.95z" fill="#E9E8E6" /><path d="M517.18 223.468l-0.238 502.686-18.844 10.948 0.236-340.52 18.846-173.114z" fill="#B2B0AF" /><path d="M498.334 396.584l-0.236 340.52-18.964-10.95 0.236-502.686 18.964 173.116z" fill="#D6D4D2" /><path d="M517.18 223.468l-18.846 10.95-18.964-10.95 18.846-10.948 18.964 10.948z" fill="#E9E8E6" /><path d="M684.504 50.334l-0.256 578.6-18.844 10.948 0.236-578.6 18.864-10.948z" fill="#B2B0AF" /><path d="M665.64 61.282l-0.236 578.6-18.964-10.948 0.236-578.6 18.964 10.948z" fill="#D6D4D2" /><path d="M684.504 50.334l-18.864 10.948-18.964-10.948 18.846-10.95 18.982 10.95z" fill="#E9E8E6" /><path d="M344.812 598.726L969.06 235.934l-9.924 11.814-610.64 358.44-3.68-7.462z" fill="#B2B0AF" /><path d="M946.296 249.166l-601.482 349.56c-47.54-62.92-95.312-108.25-142.968-135.76-47.656-27.53-95.252-37.22-142.394-28.948L660.952 84.48c47.126-8.31 94.72 1.418 142.376 28.948 47.676 27.49 95.45 72.82 142.968 135.78v-0.04z" fill="#F25A5A" /><path d="M803.348 113.388c-47.654-27.51-95.27-37.238-142.394-28.948L59.452 434.02c47.142-8.312 94.72 1.396 142.374 28.926 44.406 25.62 88.892 66.72 133.18 123.076l601.48-349.556c-44.286-56.36-88.75-97.478-133.14-123.078z" fill="#F25A5A" /><path d="M660.954 84.44L59.452 434.02a189.448 189.448 0 0 1 75.716 2.086l601.48-349.54a189.354 189.354 0 0 0-75.694-2.126z" fill="#F25A5A" /><path d="M803.348 113.388c-22.252-12.84-44.504-21.76-66.698-26.84L135.168 436.106c22.194 5.06 44.426 13.98 66.68 26.84 8.604 4.964 17.21 10.536 25.814 16.66L829.164 130.048a323.218 323.218 0 0 0-25.816-16.66z" fill="#DD4A4A" /><path d="M292.686 536.89a685.66 685.66 0 0 1 42.34 49.132l601.46-349.556a685.036 685.036 0 0 0-42.318-49.134l-601.48 349.56z" fill="#C44141" /><path d="M829.166 130.048l-601.522 349.56c21.66 15.436 43.36 34.52 65.024 57.282l601.5-349.558c-21.66-22.764-43.322-41.864-65.002-57.304v0.02z" fill="#CC4848" /><path d="M335.006 586.024a716.618 716.618 0 0 1 9.806 12.7l601.48-349.538a829.296 829.296 0 0 0-9.804-12.72L335.006 586.024z" fill="#E9E8E6" /><path d="M201.846 462.946c47.656 27.51 95.43 72.842 142.968 135.78l-9.926 11.814c-44.88-59.432-89.03-101.672-133.08-127.114-44.052-25.422-87.986-34.048-132.452-26.23L59.452 434c47.142-8.29 94.72 1.42 142.394 28.948z" fill="#FFFFFF" /><path d="M50.51 438.37l22.548-13.094c47.578-8.37 95.568 1.416 143.676 29.184l-22.568 13.114c-48.088-27.766-96.1-37.572-143.656-29.204z" fill="#E9E8E6" /><path d="M338.354 604.514l22.546-13.114-12.406 14.768-22.546 13.116 12.406-14.77z" fill="#FFFFFF" /><path d="M194.166 467.574l22.568-13.114c48.068 27.766 96.236 73.452 144.166 136.94l-22.546 13.114c-47.952-63.488-96.1-109.194-144.188-136.94z" fill="#D6D4D2" /><path d="M194.166 467.574c48.088 27.766 96.236 73.452 144.186 136.94l-12.406 14.77c-44.464-58.88-88.22-100.726-131.84-125.932-43.638-25.188-87.158-33.714-131.208-25.956l-12.388-29.026c47.558-8.368 95.568 1.438 143.656 29.204z" fill="#C4C2C0" /><path d="M50.51 438.37l22.548-13.094c47.578-8.37 95.568 1.416 143.676 29.184l-22.568 13.114c-48.088-27.766-96.1-37.572-143.656-29.204z" fill="#E9E8E6" /><path d="M338.354 604.514l22.546-13.114-12.406 14.768-22.546 13.116 12.406-14.77z" fill="#B2B0AF" /><path d="M194.166 467.574l22.568-13.114c48.068 27.766 96.236 73.452 144.166 136.94l-22.546 13.114c-47.952-63.488-96.1-109.194-144.188-136.94z" fill="#D6D4D2" /><path d="M194.166 467.574c48.088 27.766 96.236 73.452 144.186 136.94l-12.406 14.77c-44.464-58.88-88.22-100.726-131.84-125.932-43.638-25.188-87.158-33.714-131.208-25.956l-12.388-29.026c47.558-8.368 95.568 1.438 143.656 29.204z m69.75 470.568l43.106-25.068-0.02 8.27-43.106 25.03 0.02-8.232z" fill="#C4C2C0" /><path d="M256.728 933.986l43.126-25.048 7.168 4.136-43.106 25.048-7.188-4.136z" fill="#D6D4D2" /><path d="M263.916 938.14l-0.02 8.232-7.188-4.134 0.02-8.272 7.188 4.176z" fill="#89732B" /><path d="M265.06 869.652l-0.238 104.606-17.82 10.358 0.216-104.586 17.84-10.38z" fill="#B2B0AF" /><path d="M247.218 880.03l-0.218 104.586-17.94-10.36 0.198-104.604 17.96 10.378z" fill="#D6D4D2" /><path d="M265.06 869.652l-17.842 10.378-17.94-10.38 17.82-10.356 17.96 10.358z" fill="#E9E8E6" /><path d="M748.21 692.126c0 1.14-0.748 2.304-2.264 3.15L325.08 939.066a11.938 11.938 0 0 1-10.83 0l-84.756-48.818c-1.458-0.866-2.206-1.988-2.206-3.13l-0.06-31.448c0 1.122 0.73 2.264 2.226 3.132l84.736 48.836c2.974 1.732 7.84 1.732 10.832 0l420.864-243.79c1.516-0.886 2.264-2.028 2.264-3.172l0.06 31.45z" fill="#EFC348" /><path d="M748.15 660.676c0 1.144-0.748 2.286-2.264 3.152L325.02 907.618a11.9 11.9 0 0 1-10.832 0l-55.708-32.098v31.428l55.748 32.14a11.938 11.938 0 0 0 10.832 0l420.884-243.792c1.516-0.866 2.264-2.028 2.264-3.17l-0.06-31.45z" fill="#DDB040" /><path d="M748.15 660.676c0 1.144-0.75 2.286-2.266 3.152L471.236 822.94v31.508l274.728-159.154c1.516-0.866 2.264-2.028 2.264-3.17l-0.078-31.45z" fill="#CEA03A" /><path d="M748.15 660.676c0 1.144-0.748 2.286-2.264 3.152l-141.706 82.116v31.468l141.784-82.116c1.496-0.866 2.246-2.028 2.246-3.17l-0.06-31.45z" fill="#EFC348" /><path d="M229.494 852.52c-3.012 1.734-3.012 4.53-0.04 6.26l84.736 48.84a11.938 11.938 0 0 0 10.832 0l420.884-243.792c2.992-1.734 3.012-4.53 0.02-6.262l-84.736-48.838a11.936 11.936 0 0 0-10.832 0L229.494 852.52z" fill="#FFD651" /><path d="M390.164 356.786c-9.708 3.15-18.354 8.664-25.324 15.812a67.406 67.406 0 0 0-15.814 25.54c-1.28 3.172-5.278 3.172-6.558 0a63.882 63.882 0 0 0-41.156-41.352c-3.15-0.848-3.15-5.08 0-6.126 9.708-3.386 18.372-8.664 25.758-15.832 6.754-6.97 12.248-15.832 15.4-25.324 1.28-3.584 5.276-3.584 6.556 0 3.152 9.492 8.646 18.354 15.814 25.324 6.97 7.168 15.616 12.446 25.324 15.832 3.17 1.044 3.17 5.28 0 6.106v0.02z" fill="#FFFFFF" /></svg>