<?xml version="1.0" standalone="no"?><!DOCTYPE svg PUBLIC "-//W3C//DTD SVG 1.1//EN" "http://www.w3.org/Graphics/SVG/1.1/DTD/svg11.dtd"><svg class="icon" width="200px" height="200.00px" viewBox="0 0 1024 1024" version="1.1" xmlns="http://www.w3.org/2000/svg"><path d="M114.826 402.432l1.772 404.284 306.136 177.9-1.772-404.284-306.136-177.9z" fill="#D6D4D2" /><path d="M420.942 580.332l1.774 404.282 486.48-280.85-1.776-404.284-486.478 280.852z" fill="#C4C2C0" /><path d="M114.826 402.432l306.116 177.9L907.38 299.48 601.286 121.58 114.826 402.432z" fill="#E9E8E6" /><path d="M161.084 402.512l23.906 13.88L601.246 176.052V148.38L161.084 402.512z" fill="#C4C2C0" /><path d="M601.246 148.38v27.67l235.972 137.136 23.908-13.784-259.88-151.02z" fill="#D6D4D2" /><path d="M837.24 313.206L420.98 553.57 184.95 416.394 601.206 176.03l236.032 137.176z" fill="#F25A5A" /><path d="M290.048 190.208l0.946 217.088 164.39 95.508-0.984-217.088-164.352-95.508z" fill="#D6D4D2" /><path d="M454.42 285.736l0.964 217.088L716.584 352l-0.946-217.088-261.22 150.824z" fill="#C4C2C0" /><path d="M290.048 190.208l164.372 95.508 261.198-150.804-164.352-95.528-261.218 150.824z" fill="#E9E8E6" /><path d="M314.88 190.228l12.84 7.482 223.508-129.062V53.76L314.88 190.228z" fill="#C4C2C0" /><path d="M551.246 53.76v14.888l126.72 73.648 12.82-7.424-139.54-81.112z" fill="#D6D4D2" /><path d="M677.948 142.258L454.44 271.32l-126.74-73.648 223.508-129.064 126.74 73.65z" fill="#F25A5A" /><path d="M450.954 648.9l0.256 84.402 5.71 3.308 89.226-51.494-0.236-84.402-5.71-3.308-89.246 51.494z" fill="#434240" /><path d="M558.16 675.112l-7.15-4.156-0.256-89.264 7.148 4.154 0.256 89.266z" fill="#C4C2C0" /><path d="M460.72 731.372l-7.148-4.174 97.44-56.24 7.146 4.134-97.436 56.28z" fill="#FFFFFF" /><path d="M453.554 743.78l-7.15-4.156-0.294-105.788 7.148 4.156 0.296 105.786z" fill="#D6D4D2" /><path d="M453.258 637.992l-7.148-4.136 111.812-64.59 7.148 4.174-111.812 64.552z" fill="#FFFFFF" /><path d="M453.258 637.992l111.812-64.552 0.296 105.786-111.812 64.552-0.296-105.786z m104.9 37.12l-0.256-89.266-97.436 56.26 0.256 89.246 97.436-56.24z" fill="#D6D4D2" /><path d="M610.954 544.256l0.276 95.92 6.498 3.782 101.416-58.526-0.296-95.92-6.5-3.78-101.394 58.524z" fill="#434240" /><path d="M717.47 583.424l-7.148-4.136-0.256-89.264 7.148 4.134 0.256 89.266z" fill="#C4C2C0" /><path d="M620.032 639.684l-7.148-4.154 97.438-56.26 7.148 4.154-97.438 56.26z" fill="#FFFFFF" /><path d="M612.864 652.092l-7.148-4.136-0.296-105.808 7.148 4.176 0.296 105.768z" fill="#D6D4D2" /><path d="M612.568 546.304l-7.148-4.136 111.814-64.57 7.148 4.154-111.814 64.552z" fill="#FFFFFF" /><path d="M612.568 546.304l111.814-64.552 0.314 105.788-111.832 64.552-0.296-105.788z m104.9 37.12l-0.254-89.246-97.42 56.24 0.238 89.268 97.438-56.262z" fill="#D6D4D2" /><path d="M770.284 452.568l0.276 95.94 6.5 3.762 101.394-58.524-0.276-95.922-6.5-3.78-101.394 58.524z" fill="#434240" /><path d="M876.8 491.736l-7.148-4.134-0.256-89.266 7.148 4.156 0.256 89.244z" fill="#C4C2C0" /><path d="M779.362 547.998l-7.148-4.156 97.438-56.26 7.148 4.154-97.438 56.26z" fill="#FFFFFF" /><path d="M772.194 560.404l-7.148-4.136-0.296-105.786 7.15 4.134 0.294 105.788z" fill="#D6D4D2" /><path d="M771.9 454.636l-7.15-4.154 111.814-64.572 7.148 4.174-111.812 64.552z" fill="#FFFFFF" /><path d="M771.9 454.636l111.812-64.552 0.296 105.768-111.814 64.552-0.294-105.768z m104.9 37.1l-0.256-89.244-97.438 56.26 0.256 89.246 97.438-56.26z" fill="#D6D4D2" /><path d="M392.33 627.12l-0.276 92.102-6.222 3.624-97.38-56.182 0.276-92.12 6.224-3.624 97.378 56.2z" fill="#434240" /><path d="M290.048 664.734l6.852-3.998 0.256-85.7-6.872 3.976-0.236 85.72z" fill="#C4C2C0" /><path d="M383.606 718.75l6.872-3.998-93.578-54.016-6.852 3.998 93.56 54.016z" fill="#FFFFFF" /><path d="M390.5 730.664l6.852-4 0.294-101.572-6.892 4-0.256 101.572z" fill="#C4C2C0" /><path d="M390.774 629.09l6.872-3.998-107.38-61.99-6.874 3.998 107.382 61.99z" fill="#FFFFFF" /><path d="M390.5 730.664l-107.384-61.992 0.276-101.572 107.382 61.99-0.276 101.574z m-100.452-65.93l93.54 54.016 0.254-85.72-93.558-54.018-0.236 85.72z" fill="#B2B0AF" /><path d="M249.108 544.748l-0.256 92.12-6.224 3.624-97.378-56.2 0.256-92.122 6.242-3.624 97.36 56.202z" fill="#434240" /><path d="M146.826 582.36l6.892-3.996 0.216-85.7-6.852 3.996-0.256 85.7z" fill="#C4C2C0" /><path d="M240.404 636.376l6.852-3.996-93.538-54.016-6.892 3.996 93.578 54.016z" fill="#FFFFFF" /><path d="M247.276 648.29l6.872-3.978 0.276-101.572-6.852 3.978-0.296 101.572z" fill="#C4C2C0" /><path d="M247.572 546.718l6.852-3.98-107.36-61.99-6.874 3.98 107.38 61.99z" fill="#FFFFFF" /><path d="M247.276 648.29L139.914 586.3l0.276-101.574 107.38 61.992-0.294 101.572zM146.846 582.36l93.538 54.016 0.256-85.7-93.56-54.016-0.234 85.7z" fill="#B2B0AF" /><path d="M478.68 329.532l0.236 79.654 5.376 3.132 84.206-48.58-0.238-79.656-5.394-3.132-84.186 48.58z" fill="#0074D1" /><path d="M567.12 362.062l-5.948-3.446-0.198-74.1 5.928 3.444 0.216 74.102z" fill="#C4C2C0" /><path d="M486.222 408.754l-5.926-3.446 80.876-46.692 5.946 3.446-80.896 46.692z" fill="#FFFFFF" /><path d="M480.276 419.052l-5.948-3.426-0.236-87.828 5.928 3.446 0.256 87.808z" fill="#D6D4D2" /><path d="M480.02 331.244l-5.928-3.446 92.83-53.602 5.928 3.446-92.83 53.602z" fill="#FFFFFF" /><path d="M480.02 331.244l92.83-53.582 0.256 87.828-92.83 53.6-0.256-87.846z m87.1 30.82l-0.2-74.104-80.914 46.692 0.216 74.1 80.896-46.69z" fill="#B2B0AF" /><path d="M602.506 258.324l0.216 79.656 5.396 3.13 84.184-48.6-0.236-79.636-5.376-3.15-84.184 48.6z" fill="#0074D1" /><path d="M690.924 290.856l-5.928-3.466-0.196-74.102 5.908 3.466 0.216 74.1z" fill="#C4C2C0" /><path d="M610.048 337.546l-5.948-3.446 80.896-46.71 5.928 3.466-80.876 46.69z" fill="#FFFFFF" /><path d="M604.08 347.864l-5.926-3.466-0.256-87.826 5.946 3.464 0.238 87.828z" fill="#D6D4D2" /><path d="M603.844 260.036l-5.946-3.446 92.83-53.6 5.946 3.444-92.83 53.602z" fill="#FFFFFF" /><path d="M603.844 260.036l92.83-53.6 0.236 87.826-92.828 53.602-0.238-87.828z m87.08 30.82l-0.196-74.102-80.896 46.69 0.196 74.1 80.896-46.688z" fill="#B2B0AF" /><path d="M392.33 802.756l-0.276 92.12-6.222 3.624-97.38-56.2 0.276-92.12 6.224-3.624 97.378 56.2z" fill="#434240" /><path d="M290.048 840.37l6.852-3.98 0.256-85.72-6.872 4-0.236 85.7z" fill="#C4C2C0" /><path d="M383.606 894.386l6.872-3.98-93.578-54.034-6.852 3.998 93.56 54.016z" fill="#FFFFFF" /><path d="M390.5 906.32l6.852-4 0.294-101.572-6.892 3.98-0.256 101.59z" fill="#C4C2C0" /><path d="M390.774 804.726l6.872-3.978-107.38-61.992-6.874 3.98 107.382 61.99z" fill="#FFFFFF" /><path d="M390.5 906.32l-107.384-61.992 0.276-101.594 107.382 61.992-0.276 101.592z m-100.452-65.95l93.54 54.016 0.254-85.7-93.558-54.018-0.236 85.7z" fill="#B2B0AF" /><path d="M249.108 720.384l-0.256 92.12-6.224 3.624-97.378-56.2 0.256-92.102 6.242-3.624 97.36 56.182z" fill="#434240" /><path d="M146.826 757.996l6.892-3.978 0.216-85.7-6.852 3.978-0.256 85.7z" fill="#C4C2C0" /><path d="M240.404 812.032l6.852-3.998L153.72 754.02 146.826 758l93.578 54.034z" fill="#FFFFFF" /><path d="M247.276 823.926l6.872-3.978 0.276-101.572-6.852 3.996-0.296 101.554z" fill="#C4C2C0" /><path d="M247.572 722.372l6.852-3.996-107.36-61.992-6.874 3.998 107.38 61.99z" fill="#FFFFFF" /><path d="M247.276 823.926l-107.362-61.972 0.276-101.572 107.38 61.99-0.294 101.554z m-100.43-65.93l93.538 54.036 0.256-85.72-93.56-54.016-0.234 85.7z" fill="#B2B0AF" /><path d="M450.954 815.4l0.256 84.42 5.71 3.308 89.226-51.494-0.236-84.402-5.71-3.328-89.246 51.496z" fill="#434240" /><path d="M558.16 841.63l-7.15-4.176-0.256-89.244 7.148 4.154 0.256 89.266z" fill="#C4C2C0" /><path d="M460.72 897.87l-7.148-4.134 97.44-56.28 7.146 4.174-97.436 56.24z" fill="#FFFFFF" /><path d="M453.554 910.296l-7.15-4.154-0.294-105.788 7.148 4.136 0.296 105.806z" fill="#D6D4D2" /><path d="M453.258 804.51l-7.148-4.156 111.812-64.55 7.148 4.134-111.812 64.572z" fill="#FFFFFF" /><path d="M453.258 804.51l111.812-64.552 0.296 105.768-111.812 64.57-0.296-105.786z m104.9 37.12l-0.256-89.266-97.436 56.26 0.256 89.246 97.436-56.24z" fill="#D6D4D2" /><path d="M770.284 619.086l0.276 95.94 6.5 3.762 101.394-58.524-0.276-95.92-6.5-3.782-101.394 58.524z" fill="#434240" /><path d="M876.8 658.254l-7.148-4.134-0.256-89.266 7.148 4.136 0.256 89.264z" fill="#C4C2C0" /><path d="M779.362 714.516l-7.148-4.156 97.438-56.26 7.148 4.154-97.438 56.26z" fill="#FFFFFF" /><path d="M772.194 726.922l-7.148-4.136-0.296-105.806 7.15 4.174 0.294 105.768z" fill="#D6D4D2" /><path d="M771.9 621.154l-7.15-4.174 111.814-64.552 7.148 4.156-111.812 64.57z" fill="#FFFFFF" /><path d="M771.9 621.154l111.812-64.57 0.296 105.786-111.814 64.552-0.294-105.768z m104.9 37.1l-0.256-89.244-97.438 56.24 0.256 89.266 97.438-56.26z" fill="#D6D4D2" /><path d="M715.52 823.434l-6.774-3.94-0.256-167.146 6.774 3.938 0.256 167.148z m-86.35 50.118l-6.794-3.94-0.296-176.128 6.794 3.94 0.296 176.128z" fill="#21201F" /><path d="M628.874 697.442l-6.794-3.94 94.188-54.624 6.774 3.938-94.168 54.626z" fill="#434240" /><path d="M723.042 642.816l0.276 176.108-7.798 4.51-0.256-167.148-78.572 45.606 0.256 167.15-7.8 4.508-0.274-176.108 94.168-54.626z" fill="#383736" /><path d="M708.726 819.496l-71.78 41.668-0.254-159.272 71.798-41.688 0.236 159.292z" fill="#FFD651" /><path d="M654.14 748.446c4.666-2.7 8.466-0.532 8.486 4.844 0.02 5.376-3.74 11.914-8.428 14.612-4.686 2.698-8.468 0.55-8.488-4.826-0.02-5.376 3.742-11.912 8.43-14.63z" fill="#434240" /><path d="M417.614 329.412l-0.216 79.636-5.396 3.152-84.184-48.6 0.236-79.636 5.376-3.152 84.184 48.6z" fill="#0074D1" /><path d="M329.196 361.944l5.928-3.466 0.196-74.1-5.908 3.444-0.216 74.122z" fill="#C4C2C0" /><path d="M410.072 408.636l5.948-3.448-80.896-46.71-5.928 3.446 80.876 46.712z" fill="#FFFFFF" /><path d="M416.04 418.934l5.926-3.446 0.256-87.828-5.946 3.466-0.236 87.808z" fill="#D6D4D2" /><path d="M416.296 331.126l5.908-3.446-92.81-53.602-5.948 3.446 92.85 53.602z" fill="#FFFFFF" /><path d="M416.04 418.934l-92.85-53.582 0.256-87.828 92.83 53.602-0.236 87.808z m-86.844-57.01l80.876 46.712 0.218-74.104-80.896-46.71-0.198 74.102z" fill="#B2B0AF" /><path d="M492.386 283.412c-16.836 5.514-29.32 19.554-34.284 34.46-1.064 2.64-4.392 2.64-5.454 0a53.228 53.228 0 0 0-34.266-34.46c-2.658-0.69-2.658-4.214 0-5.1 16.246-5.652 28.672-17.488 34.266-34.266 1.062-2.992 4.39-2.992 5.454 0a54.884 54.884 0 0 0 34.284 34.266c2.64 0.886 2.64 4.41 0 5.12v-0.02z m-34.44 300.878a51.802 51.802 0 0 0-21.092 13.194 56.14 56.14 0 0 0-13.194 21.268c-1.064 2.638-4.392 2.638-5.454 0a53.234 53.234 0 0 0-34.266-34.462c-2.658-0.708-2.658-4.214 0-5.1a57.676 57.676 0 0 0 21.426-13.194 56.328 56.328 0 0 0 12.84-21.09c1.062-2.994 4.39-2.994 5.454 0 2.64 7.916 7.208 15.3 13.194 21.09 5.79 5.986 12.998 10.378 21.09 13.194 2.64 0.886 2.64 4.392 0 5.1z" fill="#FFFFFF" /></svg>