<?xml version="1.0" standalone="no"?><!DOCTYPE svg PUBLIC "-//W3C//DTD SVG 1.1//EN" "http://www.w3.org/Graphics/SVG/1.1/DTD/svg11.dtd"><svg class="icon" width="200px" height="200.00px" viewBox="0 0 1024 1024" version="1.1" xmlns="http://www.w3.org/2000/svg"><path d="M882.846 534.548l-0.08 19.496-562.352 326.794 0.08-19.496 562.352-326.794z" fill="#64A558" /><path d="M320.492 861.34l-0.08 19.496-281.028-162.264 0.08-19.496 281.028 162.266z" fill="#3DB542" /><path d="M882.846 534.548L320.492 861.34 39.464 699.076l562.334-326.774 281.048 162.246z" fill="#6DCB60" /><path d="M984.616 593.31l-0.08 19.494L422.206 939.58l0.06-19.496 562.352-326.774z" fill="#21201F" /><path d="M422.262 920.104l-0.06 19.494-101.788-58.76 0.08-19.496 101.768 58.76z" fill="#383736" /><path d="M984.616 593.31L422.262 920.104l-101.77-58.762 562.354-326.794 101.77 58.76z" fill="#434240" /><path d="M351.548 386.776l0.334 156.18 156.04 90.682-0.334-156.16-156.04-90.7z" fill="#D6D4D2" /><path d="M507.588 477.46l0.336 156.18 270.492-156.16-0.334-156.18-270.494 156.16z" fill="#B2B0AF" /><path d="M778.064 321.3l-270.476 156.16-156.04-90.664 270.474-156.18 156.04 90.684z" fill="#E9E8E6" /><path d="M273.98 305.054l0.334 241.86 231.858 134.736-0.334-241.842-231.86-134.754z" fill="#D6D4D2" /><path d="M745.806 329.57l-123.824-71.482-72.33 41.748 123.824 71.482 72.33-41.748z" fill="#6D797A" /><path d="M505.836 439.808l0.336 241.82 167.226-96.53-0.354-241.84-167.208 96.55z m-19.908-120.26v17.092L622 258.068v-17.094l-136.074 78.574z" fill="#C4C2C0" /><path d="M622 240.974v17.094l123.432 71.72 14.77-8.528-138.2-80.286z" fill="#D6D4D2" /><path d="M673.044 343.236l-167.206 96.572-231.86-134.734 167.208-96.552 231.858 134.714z" fill="#E9E8E6" /><path d="M77.844 544.808l0.334 156.16 156.042 90.7-0.334-156.178-156.042-90.682z" fill="#D6D4D2" /><path d="M233.886 635.49l0.334 156.16 231.386-133.572-0.336-156.18-231.384 133.592z" fill="#C4C2C0" /><path d="M465.27 501.898l-231.384 133.612-156.042-90.702 231.384-133.594 156.04 90.684z" fill="#E9E8E6" /><path d="M291.86 305.094l14.768 8.584 134.54-77.706v-17.092l-149.308 86.214z" fill="#C4C2C0" /><path d="M441.166 218.88v17.092l199.228 115.792 14.768-8.546-213.996-124.338z" fill="#D6D4D2" /><path d="M640.392 351.744l-199.226-115.772-134.538 77.706 199.228 115.772 134.536-77.706z" fill="#B2B0AF" /><path d="M95.724 544.828l14.77 8.584 198.694-114.726v-17.114L95.724 544.828z" fill="#C4C2C0" /><path d="M309.208 421.572v17.114l123.412 71.72 14.77-8.528-138.18-80.306z" fill="#D6D4D2" /><path d="M432.64 510.404l-123.432-71.72-198.734 114.728 123.412 71.74 198.754-114.748z" fill="#6D797A" /><path d="M144.66 628.066l-0.198 73.452-4.154 2.404-42.95-24.814 0.198-73.392 4.174-2.422 42.93 24.772z" fill="#434240" /><path d="M100.844 639.074l4.588-2.658-0.118 39.346-4.588 2.678 0.12-39.366z" fill="#D6D4D2" /><path d="M100.726 678.44l4.588-2.68 35.78 20.68-4.568 2.656-35.8-20.656z" fill="#FFFFFF" /><path d="M100.924 610.776l4.588-2.658-0.06 21.66-4.588 2.68 0.06-21.68z" fill="#D6D4D2" /><path d="M100.864 632.458l4.588-2.66 35.78 20.66-4.588 2.656-35.78-20.656z" fill="#FFFFFF" /><path d="M142.494 628.146l4.588-2.66-0.236 80.896-4.588 2.66 0.236-80.896z" fill="#D6D4D2" /><path d="M95.172 600.812l4.59-2.64 47.32 27.314-4.588 2.66-47.32-27.334z" fill="#FFFFFF" /><path d="M95.172 600.812l47.32 27.334-0.234 80.896-47.3-27.314 0.214-80.916z m41.354 98.264l0.1-39.324-35.78-20.678-0.12 39.366 35.8 20.636z m0.12-45.96l0.058-21.662-35.78-20.678-0.06 21.68 35.78 20.66z" fill="#B2B0AF" /><path d="M214.706 668.356l-0.198 73.414-4.174 2.422-42.93-24.812 0.198-73.414 4.154-2.4 42.95 24.79z" fill="#434240" /><path d="M170.89 679.346l4.568-2.66-0.118 39.346-4.568 2.66 0.118-39.346z" fill="#D6D4D2" /><path d="M170.772 718.69l4.568-2.658 35.8 20.678-4.588 2.658-35.78-20.678z" fill="#FFFFFF" /><path d="M170.968 651.028l4.57-2.64-0.06 21.662-4.568 2.68 0.06-21.702z" fill="#D6D4D2" /><path d="M170.89 672.728l4.588-2.658 35.78 20.658-4.568 2.658-35.8-20.658z" fill="#FFFFFF" /><path d="M212.52 668.416l4.588-2.66-0.236 80.898-4.57 2.658 0.218-80.896z" fill="#D6D4D2" /><path d="M165.22 641.102l4.586-2.658 47.3 27.314-4.586 2.658-47.3-27.314z" fill="#FFFFFF" /><path d="M165.22 641.102l47.3 27.314-0.218 80.896-47.32-27.314 0.236-80.896z m41.352 98.266l0.1-39.346-35.782-20.676-0.12 39.344 35.802 20.678z m0.12-45.982l0.058-21.66-35.78-20.68-0.06 21.662 35.78 20.678z" fill="#B2B0AF" /><path d="M320.158 628.066l0.216 73.452 4.136 2.404 42.968-24.814-0.216-73.392-4.156-2.422-42.948 24.772z" fill="#434240" /><path d="M363.992 639.074l-4.588-2.658 0.12 39.346 4.568 2.678-0.1-39.366z" fill="#D6D4D2" /><path d="M364.11 678.44l-4.588-2.68-35.8 20.68 4.588 2.656 35.8-20.656z" fill="#FFFFFF" /><path d="M363.914 610.776l-4.588-2.658 0.06 21.66 4.586 2.68-0.06-21.68z" fill="#D6D4D2" /><path d="M363.972 632.458l-4.588-2.66-35.78 20.66 4.568 2.656 35.8-20.656z" fill="#FFFFFF" /><path d="M322.344 628.146l-4.588-2.66 0.236 80.896 4.568 2.66-0.216-80.896z" fill="#D6D4D2" /><path d="M369.644 600.812l-4.568-2.64-47.32 27.314 4.588 2.66 47.3-27.334z" fill="#FFFFFF" /><path d="M369.88 681.728l-47.32 27.314-0.216-80.896 47.3-27.314 0.236 80.896z m-41.57 17.368l35.78-20.676-0.098-39.326-35.8 20.658 0.12 39.344z m-0.138-45.98l35.8-20.66-0.06-21.68-35.8 20.678 0.06 21.66z" fill="#B2B0AF" /><path d="M250.132 668.356l0.196 73.414 4.156 2.422 42.948-24.812-0.196-73.414-4.176-2.4-42.928 24.79z" fill="#434240" /><path d="M293.948 679.346l-4.57-2.66 0.1 39.346 4.588 2.66-0.12-39.346z" fill="#D6D4D2" /><path d="M294.066 718.69l-4.59-2.658-35.78 20.678 4.588 2.658 35.78-20.678z" fill="#FFFFFF" /><path d="M293.868 651.028l-4.588-2.64 0.08 21.662 4.568 2.68-0.06-21.702z" fill="#D6D4D2" /><path d="M293.928 672.728l-4.57-2.658-35.8 20.658 4.588 2.658 35.78-20.658z" fill="#FFFFFF" /><path d="M252.298 668.416l-4.568-2.66 0.216 80.898 4.588 2.658-0.236-80.896z" fill="#D6D4D2" /><path d="M299.62 641.102l-4.59-2.658-47.3 27.314 4.568 2.658 47.32-27.314z" fill="#FFFFFF" /><path d="M299.836 722l-47.3 27.312-0.24-80.896 47.322-27.314 0.218 80.896z m-41.552 17.368l35.78-20.678-0.116-39.344-35.78 20.676 0.116 39.346z m-0.138-45.982l35.78-20.678-0.058-21.66-35.78 20.676 0.06 21.66z" fill="#B2B0AF" /><path d="M389.966 587.816l0.198 73.412 4.174 2.422 42.93-24.792-0.198-73.414-4.154-2.42-42.95 24.792z" fill="#434240" /><path d="M433.782 598.824l-4.568-2.66 0.118 39.346 4.568 2.66-0.118-39.346z" fill="#D6D4D2" /><path d="M433.9 638.168l-4.568-2.658-35.8 20.658 4.588 2.658 35.78-20.658z" fill="#FFFFFF" /><path d="M433.704 570.506l-4.57-2.66 0.06 21.682 4.588 2.66-0.08-21.682z" fill="#D6D4D2" /><path d="M433.762 592.188l-4.568-2.66-35.78 20.678 4.568 2.64 35.78-20.66z" fill="#FFFFFF" /><path d="M392.152 587.874l-4.588-2.658 0.236 80.896 4.57 2.66-0.218-80.898z" fill="#D6D4D2" /><path d="M439.454 560.56l-4.588-2.658-47.3 27.314 4.586 2.66 47.3-27.314z" fill="#FFFFFF" /><path d="M439.69 641.458l-47.32 27.312-0.218-80.896 47.3-27.312 0.238 80.896z m-41.57 17.368l35.78-20.678-0.118-39.324-35.78 20.656 0.118 39.346z m-0.14-45.98l35.782-20.66-0.06-21.66-35.78 20.638 0.06 21.68z" fill="#B2B0AF" /><path d="M600.97 427.5l0.216 73.414 4.156 2.42 42.928-24.792-0.196-73.412-4.156-2.422-42.948 24.792z" fill="#434240" /><path d="M644.804 438.508l-4.588-2.678 0.12 39.366 4.568 2.658-0.1-39.346z" fill="#D6D4D2" /><path d="M644.924 477.854l-4.59-2.66-35.8 20.66 4.588 2.656 35.8-20.656z" fill="#FFFFFF" /><path d="M644.726 410.19l-4.588-2.658 0.06 21.68 4.588 2.66-0.06-21.68z" fill="#D6D4D2" /><path d="M644.786 431.872l-4.59-2.66-35.78 20.68 4.568 2.638 35.8-20.658z" fill="#FFFFFF" /><path d="M603.156 427.56l-4.588-2.66 0.236 80.896 4.568 2.66-0.216-80.896z" fill="#D6D4D2" /><path d="M650.456 400.246l-4.568-2.66-47.32 27.314 4.588 2.66 47.3-27.314z" fill="#FFFFFF" /><path d="M650.692 481.142l-47.32 27.314-0.216-80.896 47.3-27.314 0.236 80.896z m-41.55 17.368l35.76-20.676-0.098-39.326-35.8 20.658 0.14 39.344z m-0.158-45.98l35.8-20.658-0.058-21.66-35.8 20.636 0.06 21.68z" fill="#B2B0AF" /><path d="M530.944 467.772l0.196 73.412 4.156 2.422 42.948-24.812-0.196-73.394-4.174-2.42-42.93 24.792z" fill="#434240" /><path d="M574.76 478.78l-4.57-2.68 0.1 39.346 4.588 2.68-0.12-39.346z" fill="#D6D4D2" /><path d="M574.878 518.104l-4.588-2.658-35.78 20.678 4.586 2.658 35.78-20.678z" fill="#FFFFFF" /><path d="M574.68 450.46l-4.568-2.656 0.06 21.66 4.568 2.68-0.06-21.682z" fill="#D6D4D2" /><path d="M574.74 472.142l-4.568-2.658-35.8 20.678 4.586 2.638 35.78-20.658z" fill="#FFFFFF" /><path d="M533.11 467.83l-4.568-2.66 0.216 80.898 4.588 2.658-0.236-80.896z" fill="#D6D4D2" /><path d="M580.43 440.516l-4.588-2.658-47.3 27.314 4.568 2.66 47.32-27.316z" fill="#FFFFFF" /><path d="M580.648 521.412l-47.3 27.314-0.238-80.896 47.32-27.314 0.218 80.896z m-41.552 17.37l35.78-20.678-0.116-39.324-35.78 20.656 0.116 39.346z m-0.138-45.982l35.78-20.658-0.058-21.66-35.78 20.636 0.06 21.68z" fill="#B2B0AF" /><path d="M704.1 404.184l0.216 73.434 4.134 2.42 42.97-24.812-0.218-73.412-4.154-2.422-42.95 24.792z" fill="#434240" /><path d="M747.914 415.192l-4.568-2.658 0.118 39.346 4.568 2.658-0.12-39.346z" fill="#D6D4D2" /><path d="M748.032 454.538l-4.568-2.66-35.8 20.68 4.588 2.636 35.78-20.656z" fill="#FFFFFF" /><path d="M747.854 386.894l-4.588-2.658 0.06 21.662 4.588 2.68-0.06-21.684z" fill="#D6D4D2" /><path d="M747.914 408.576l-4.588-2.66-35.78 20.66 4.568 2.658 35.8-20.658z" fill="#FFFFFF" /><path d="M706.284 404.264l-4.588-2.68 0.236 80.898 4.568 2.678-0.216-80.896z" fill="#D6D4D2" /><path d="M753.586 376.95l-4.57-2.678-47.32 27.314 4.588 2.678 47.3-27.314z" fill="#FFFFFF" /><path d="M753.82 457.846l-47.32 27.314-0.216-80.896 47.3-27.314 0.238 80.896z m-41.568 17.35l35.78-20.66-0.1-39.344-35.8 20.678 0.12 39.326z m-0.14-45.962l35.8-20.678-0.058-21.66-35.8 20.656 0.06 21.68z" fill="#B2B0AF" /><path d="M626.61 614.262l-22.646 13.076-3.388 1.97-22.666 13.074-2.54-1.476-0.158-70.262 22.666-13.076 3.388-1.97 22.666-13.074 2.54 1.476 0.138 70.262z" fill="#3F9AE0" /><path d="M604.022 624.206l-2.58-1.516 19.732-11.4 2.6 1.514-19.752 11.402z m-23.218 13.392l-2.6-1.498 19.752-11.4 2.6 1.516-19.752 11.38z" fill="#FFFFFF" /><path d="M623.774 612.804l-2.6-1.516-0.138-64 2.6 1.516 0.138 64z" fill="#D6D4D2" /><path d="M600.556 626.216l-2.6-1.516-0.136-64 2.6 1.516 0.136 64z" fill="#C4C2C0" /><path d="M603.884 556.19l-2.6-1.498 23.238-13.41 2.58 1.516-23.218 13.392z" fill="#C8C8C6" /><path d="M600.4 558.2l-2.6-1.5 3.484-2.008 2.6 1.498-3.486 2.008z" fill="#C8C8C6" /><path d="M577.34 643.624l-2.6-1.516-0.158-71.996 2.6 1.496 0.158 72.016z" fill="#D6D4D2" /><path d="M603.884 556.19l23.218-13.392 0.158 71.996-23.22 13.41-3.484 2.008-23.216 13.392-0.16-71.996 23.22-13.39 3.484-2.028z m-3.348 70.026l-0.118-64-19.752 11.38 0.14 64 19.73-11.38z m23.238-13.412l-0.14-64-19.75 11.402 0.138 64 19.752-11.4z" fill="#E9E8E6" /><path d="M577.18 571.608l-2.598-1.496 23.238-13.41 2.58 1.496-23.22 13.41z" fill="#C8C8C6" /><path d="M662.508 541.282l-0.1 91.51-8.268 4.806 0.078-91.51 8.29-4.806z" fill="#B2B0AF" /><path d="M654.218 546.088l-0.08 91.51-8.348-4.806 0.098-91.51 8.33 4.806z" fill="#D6D4D2" /><path d="M662.508 541.282l-8.27 4.806-8.35-4.806 8.27-4.804 8.35 4.804z" fill="#E9E8E6" /><path d="M567.02 596.776l-0.1 91.51-8.268 4.804 0.078-91.51 8.29-4.804z" fill="#B2B0AF" /><path d="M558.73 601.6l-0.08 91.49-8.348-4.804 0.098-91.51 8.33 4.824z" fill="#D6D4D2" /><path d="M567.02 596.776l-8.27 4.804-8.35-4.804 8.27-4.806 8.35 4.806z" fill="#E9E8E6" /><path d="M506.172 592.068l0.02 7.306 32.078 18.65-0.02-7.306-32.08-18.65z" fill="#DD4A4A" /><path d="M538.25 610.718v7.286l167.64-96.768-0.02-7.286-167.62 96.768z" fill="#CC4848" /><path d="M673.536 539.924l32.354-18.688-0.02-7.286-32.334 18.648v7.326z" fill="#CC4848" /><path d="M506.172 592.068l32.078 18.65 167.62-96.788-32.078-18.63-167.62 96.768z" fill="#F25A5A" /><path d="M675.644 184.24l-0.336 119.396-30.384 17.664 0.334-119.414 30.386-17.644z" fill="#C4C2C0" /><path d="M645.258 201.886l-0.334 119.414-30.584-17.644 0.336-119.414 30.582 17.644z" fill="#D6D4D2" /><path d="M675.644 184.24l-30.386 17.646-30.582-17.644 30.384-17.646 30.584 17.646z" fill="#E9E8E6" /><path d="M698.092 142.828l-22.45 41.414-30.384 17.644 0.334-28.594 52.5-30.464z" fill="#C4C2C0" /><path d="M698.092 142.828l-52.44 30.464-52.776-30.464 52.46-30.464 52.756 30.464z" fill="#E9E8E6" /><path d="M645.592 173.292l-0.196 15.3 40.684-23.61 12.012-22.154-52.5 30.464z" fill="#0074D1" /><path d="M645.258 201.886l30.366-17.644 10.436-19.26-40.644 23.612-0.16 13.292z" fill="#D6D4D2" /><path d="M645.592 173.292l-52.696-30.464 11.304 21.504 41.216 23.906 0.176-14.946z" fill="#006CB5" /><path d="M604.2 164.332l10.476 19.91 30.58 17.664 0.16-13.668L604.2 164.332z" fill="#E9E8E6" /><path d="M691.634 111.124l-19.694 36.332-26.662 15.498 0.294-25.108 46.06-26.722z" fill="#C4C2C0" /><path d="M691.634 111.124l-46.002 26.74-46.276-26.72 46-26.742 46.278 26.72z" fill="#E9E8E6" /><path d="M645.572 137.846l-0.156 13.43 35.68-20.696 10.538-19.456-46.06 26.722z" fill="#0074D1" /><path d="M645.278 162.954l26.644-15.498 9.176-16.876-35.682 20.696-0.14 11.678z" fill="#C4C2C0" /><path d="M645.572 137.846l-46.216-26.702 9.924 18.844 36.136 20.992 0.156-13.134z" fill="#006CB5" /><path d="M609.28 129.988l9.176 17.488 26.822 15.478 0.14-11.974-36.138-20.992zM284.672 547.702l-0.04 14.12-54.764 31.822 0.04-14.12 54.764-31.82z" fill="#D6D4D2" /><path d="M229.908 579.544l-0.04 14.1-55.14-31.822 0.06-14.12 55.12 31.842z" fill="#E9E8E6" /><path d="M284.672 547.702l-54.764 31.822-55.14-31.82 54.786-31.824 55.118 31.822z" fill="#FFFFFF" /><path d="M243.712 539.648c7.68 4.43 7.838 11.776 0.196 16.206-7.72 4.49-20.38 4.432-28.06 0-7.878-4.568-7.936-11.814-0.198-16.324 7.62-4.43 20.186-4.43 28.062 0.118z" fill="#434240" /><path d="M364.584 502.016l-0.04 14.1-54.744 31.822 0.04-14.1 54.744-31.822z" fill="#D6D4D2" /><path d="M309.84 533.84l-0.04 14.1-55.14-31.824 0.06-14.1 55.12 31.822z" fill="#E9E8E6" /><path d="M364.584 502.016l-54.746 31.822-55.138-31.822 54.764-31.822 55.12 31.822z" fill="#FFFFFF" /><path d="M323.644 493.96c7.68 4.432 7.836 11.76 0.196 16.188-7.74 4.49-20.38 4.432-28.06 0-7.9-4.548-7.938-11.814-0.2-16.324 7.622-4.43 20.166-4.43 28.064 0.138z" fill="#434240" /><path d="M458.516 345.5l0.04 14.12 54.744 31.824-0.02-14.12-54.764-31.822z" fill="#D6D4D2" /><path d="M513.28 377.304l0.04 14.14 55.12-31.824-0.04-14.12-55.12 31.804z" fill="#E9E8E6" /><path d="M458.516 345.5l54.744 31.824 55.14-31.822-54.766-31.824-55.12 31.824z" fill="#FFFFFF" /><path d="M499.456 337.448c-7.68 4.43-7.818 11.756-0.196 16.186 7.74 4.51 20.4 4.45 28.08 0 7.878-4.548 7.936-11.814 0.198-16.304-7.64-4.452-20.186-4.452-28.082 0.118z" fill="#434240" /><path d="M378.584 299.796l0.04 14.12 54.764 31.82-0.04-14.118-54.764-31.822z" fill="#D6D4D2" /><path d="M433.348 331.62l0.04 14.118 55.12-31.822-0.04-14.12-55.12 31.822z" fill="#E9E8E6" /><path d="M378.584 299.796l54.746 31.822 55.138-31.822-54.744-31.824-55.14 31.824z" fill="#FFFFFF" /><path d="M419.524 291.74c-7.68 4.432-7.816 11.778-0.196 16.208 7.74 4.49 20.4 4.432 28.08 0 7.88-4.568 7.938-11.816 0.2-16.344-7.642-4.412-20.186-4.412-28.084 0.138z" fill="#434240" /><path d="M851.712 602.88l16.344 9.492 40.034-23.12-16.344-9.49-40.034 23.118z m-64.946 37.494l16.344 9.492 40.036-23.12-16.346-9.49-40.034 23.12z m-64.946 37.494l16.346 9.492 40.034-23.1-16.344-9.51-40.036 23.12z m-64.944 37.494l16.344 9.492 40.034-23.1-16.344-9.49-40.034 23.1z m-64.944 37.494l16.344 9.512 39.954-23.08-16.344-9.49-39.954 23.06z m-64.966 37.496l16.344 9.51 39.976-23.08-16.344-9.49-39.976 23.06z m-64.984 37.552l16.324 9.492 40.036-23.12-16.346-9.49-40.014 23.118z m-64.966 37.494l16.346 9.492 40.034-23.12-16.344-9.49-40.036 23.118z" fill="#E9E8E6" /></svg>