<?xml version="1.0" standalone="no"?><!DOCTYPE svg PUBLIC "-//W3C//DTD SVG 1.1//EN" "http://www.w3.org/Graphics/SVG/1.1/DTD/svg11.dtd"><svg class="icon" width="200px" height="200.00px" viewBox="0 0 1024 1024" version="1.1" xmlns="http://www.w3.org/2000/svg"><path d="M139.4 594.04l0.12 242.882 254.13 147.694-0.12-242.886L139.404 594.04z" fill="#C4C2C0" /><path d="M393.532 741.73l0.118 242.884 447.606-258.42-0.12-242.906-447.604 258.442z" fill="#D6D4D2" /><path d="M139.4 594.04l254.132 147.69 447.606-258.44-254.11-147.694L139.4 594.04z" fill="#E9E8E6" /><path d="M160.354 302.788l0.848 286.542 231.266 134.4-0.848-286.52-231.266-134.42z" fill="#C4C2C0" /><path d="M391.62 437.19l0.848 286.54 427.716-246.94-0.848-286.522-427.716 246.92z" fill="#D6D4D2" /><path d="M160.354 302.79l231.266 134.4L819.34 190.248l-231.27-134.4-427.716 246.94z" fill="#DCDCDC" /><path d="M143.124 295.07l0.1 40.29 251.45 146.116-0.12-40.29-251.43-146.116z" fill="#D6D4D2" /><path d="M225.832 383.37l168.84 98.106-0.118-40.29-168.722-98.048v40.232z" fill="#B2B0AF" /><path d="M329.65 443.688l65.024 37.808-0.12-40.31-64.904-37.71v40.212z" fill="#D6D4D2" /><path d="M394.556 441.186l0.118 40.292 442.88-255.686-0.12-40.29-442.88 255.684z" fill="#C4C2C0" /><path d="M519.03 409.68l318.504-183.888-0.1-40.29-318.424 183.828 0.02 40.35z" fill="#B2B0AF" /><path d="M702.976 303.46l134.558-77.668-0.1-40.29-134.458 77.626v40.33z" fill="#C4C2C0" /><path d="M143.124 295.068l251.432 146.12L837.436 185.5 586.004 39.384 143.124 295.068z" fill="#E9E8E6" /><path d="M182.41 295.128l19.652 11.422 383.9-221.636V62.148L182.412 295.128z" fill="#C4C2C0" /><path d="M585.964 62.148v22.766l192.532 111.89 19.652-11.36-212.184-123.296z" fill="#D6D4D2" /><path d="M778.496 196.804l-192.53-111.89-383.922 221.636 192.53 111.892 383.92-221.638z" fill="#6D797A" /><path d="M255.96 456.27l-0.354 119.396-6.734 3.938-69.85-40.33 0.356-119.394 6.754-3.94 69.828 40.33z" fill="#434240" /><path d="M184.714 474.152l7.444-4.332-0.198 64-7.444 4.332 0.198-64z" fill="#D6D4D2" /><path d="M184.516 538.132l7.444-4.332 58.192 33.614-7.444 4.332-58.192-33.614z" fill="#FFFFFF" /><path d="M184.832 428.13l7.444-4.332-0.1 35.25-7.442 4.332 0.098-35.25z" fill="#D6D4D2" /><path d="M184.734 463.38l7.444-4.332 58.19 33.614-7.444 4.332-58.19-33.614z" fill="#FFFFFF" /><path d="M252.416 456.37l7.464-4.334-0.394 131.546-7.424 4.332 0.354-131.544z" fill="#D6D4D2" /><path d="M175.498 411.964l7.444-4.334 76.938 44.406-7.464 4.334-76.92-44.406z" fill="#FFFFFF" /><path d="M175.498 411.964l76.918 44.406-0.354 131.544-76.94-44.426 0.376-131.524z m67.21 159.762l0.196-63.96-58.21-33.594-0.178 63.96 58.192 33.594z m0.216-74.752l0.1-35.248-58.192-33.596-0.1 35.25 58.192 33.594z" fill="#B2B0AF" /><path d="M369.84 521.748l-0.354 119.394-6.734 3.94-69.848-40.332 0.354-119.374 6.774-3.94 69.81 40.312z" fill="#434240" /><path d="M298.594 539.648l7.444-4.332-0.196 63.98-7.444 4.332 0.196-63.98z" fill="#D6D4D2" /><path d="M298.398 603.628l7.444-4.332 58.21 33.594-7.464 4.334-58.19-33.596z" fill="#FFFFFF" /><path d="M298.732 493.608l7.424-4.332-0.1 35.248-7.44 4.332 0.116-35.248z" fill="#D6D4D2" /><path d="M298.614 528.856l7.444-4.332 58.19 33.616-7.444 4.332-58.19-33.616z" fill="#FFFFFF" /><path d="M366.316 521.846l7.444-4.332-0.394 131.544-7.424 4.332 0.374-131.544z" fill="#D6D4D2" /><path d="M289.38 477.44l7.442-4.332 76.938 44.406-7.464 4.332-76.918-44.406z" fill="#FFFFFF" /><path d="M289.38 477.44l76.896 44.406-0.354 131.544-76.938-44.406 0.394-131.544z m67.208 159.784l0.198-64-58.192-33.576-0.196 63.98 58.19 33.596z m0.216-74.752l0.1-35.25-58.192-33.614-0.098 35.248 58.19 33.616z" fill="#B2B0AF" /><path d="M563.358 436.066l0.394 131.84 7.444 4.332 77.114-44.504-0.394-131.82-7.444-4.332-77.114 44.484z" fill="#434240" /><path d="M642.048 455.838l-8.212-4.786 0.198 70.656 8.21 4.786-0.196-70.656z" fill="#D6D4D2" /><path d="M642.244 526.494l-8.21-4.786-64.256 37.1 8.21 4.786 64.256-37.1z" fill="#FFFFFF" /><path d="M641.91 405.012l-8.232-4.786 0.12 38.932 8.23 4.786-0.118-38.932z" fill="#D6D4D2" /><path d="M642.028 443.944l-8.232-4.786-64.256 37.1 8.212 4.786 64.276-37.1z" fill="#FFFFFF" /><path d="M567.276 436.184l-8.232-4.764 0.414 145.25 8.232 4.784-0.414-145.27z" fill="#C4C2C0" /><path d="M652.21 387.15l-8.212-4.784-84.954 49.034 8.232 4.804 84.934-49.054z" fill="#FFFFFF" /><path d="M652.642 532.4l-84.952 49.036-0.414-145.232 84.952-49.054 0.414 145.252z m-74.634 31.194l64.236-37.1-0.196-70.656-64.256 37.1 0.216 70.656z m-0.236-82.55l64.256-37.1-0.118-38.932-64.256 37.1 0.12 38.932z" fill="#B2B0AF" /><path d="M437.622 508.376l0.394 131.84 7.444 4.332 77.096-44.504-0.376-131.82-7.482-4.332-77.076 44.484z" fill="#434240" /><path d="M516.292 528.148l-8.21-4.786 0.196 70.656 8.232 4.766-0.218-70.636z" fill="#D6D4D2" /><path d="M516.51 598.784l-8.232-4.766-64.256 37.1 8.232 4.766 64.256-37.1z" fill="#FFFFFF" /><path d="M516.156 477.32l-8.232-4.784 0.118 38.932 8.232 4.786-0.12-38.932z" fill="#D6D4D2" /><path d="M516.274 516.254l-8.232-4.786-64.256 37.1 8.232 4.786 64.256-37.1z" fill="#FFFFFF" /><path d="M441.52 508.494l-8.23-4.764 0.414 145.25 8.23 4.766-0.412-145.252z" fill="#C4C2C0" /><path d="M526.474 459.46l-8.232-4.784-84.952 49.034 8.232 4.784 84.952-49.034z" fill="#FFFFFF" /><path d="M526.888 604.712l-84.954 49.034-0.412-145.252 84.952-49.034 0.414 145.252z m-74.634 31.172l64.256-37.1-0.198-70.636-64.276 37.1 0.218 70.636z m-0.236-82.53l64.256-37.1-0.12-38.932-64.254 37.1 0.118 38.932z" fill="#B2B0AF" /><path d="M689.25 362.91l0.394 131.84 7.444 4.332 77.116-44.504-0.394-131.84-7.444-4.334-77.116 44.506z" fill="#434240" /><path d="M767.94 382.68l-8.23-4.784 0.196 70.636 8.232 4.784-0.198-70.636z" fill="#D6D4D2" /><path d="M768.138 453.316l-8.212-4.784-64.256 37.1 8.212 4.786 64.256-37.1z" fill="#FFFFFF" /><path d="M767.804 331.836l-8.232-4.766 0.118 38.932 8.212 4.764-0.1-38.93z" fill="#D6D4D2" /><path d="M767.9 370.766l-8.21-4.764-64.256 37.1 8.212 4.766 64.256-37.1z" fill="#FFFFFF" /><path d="M693.17 363.028l-8.232-4.786 0.394 145.25 8.25 4.786-0.412-145.25z" fill="#C4C2C0" /><path d="M778.102 313.974l-8.212-4.766-84.952 49.034 8.232 4.786 84.932-49.054z" fill="#FFFFFF" /><path d="M778.516 459.224L693.58 508.28l-0.412-145.25 84.932-49.034 0.414 145.23zM703.88 490.42l64.256-37.1-0.198-70.638-64.256 37.1 0.198 70.638z m-0.236-82.55l64.256-37.1-0.1-38.932-64.254 37.1 0.098 38.932z" fill="#B2B0AF" /><path d="M542.13 739.92l-11.028 6.38 0.196 124.592 11.088 6.36-0.256-137.334z" fill="#C4C2C0" /><path d="M531.3 870.892L461.192 911.4l0.02 12.78 81.172-46.908v-0.02l-11.088-6.36z" fill="#FFFFFF" /><path d="M531.1 746.3l-70.162 40.486 0.236 124.614 70.144-40.508-0.216-124.592z" fill="#3F9AE0" /><path d="M803.604 588.84l-11.028 6.38 0.196 124.592 11.088 6.36-0.256-137.332z" fill="#C4C2C0" /><path d="M792.772 719.812l-70.104 40.508 0.02 12.78 81.172-46.906v-0.02l-11.088-6.36z" fill="#FFFFFF" /><path d="M792.576 595.22l-70.164 40.488 0.236 124.612 70.124-40.508-0.196-124.592z" fill="#3F9AE0" /><path d="M703.9 810.456l-53.502 30.9-8.016 4.624-53.484 30.88-5.986-3.468-0.374-165.886 53.524-30.88 8.014-4.646 53.504-30.878 5.968 3.486 0.354 165.868z" fill="#434240" /><path d="M650.556 833.93l-6.126-3.544 46.574-26.94 6.124 3.564-46.572 26.92z m-54.804 31.646l-6.144-3.546 46.612-26.92 6.104 3.566-46.572 26.9z" fill="#FFFFFF" /><path d="M697.148 807.03l-6.106-3.544-0.334-151.1 6.104 3.546 0.336 151.098z m-54.804 31.666l-6.124-3.584-0.336-151.08 6.124 3.544 0.336 151.12z" fill="#C4C2C0" /><path d="M650.2 673.398l-6.124-3.544 54.824-31.666 6.124 3.544L650.2 673.4z" fill="#C8C8C6" /><path d="M641.97 678.144l-6.106-3.564 8.212-4.726 6.124 3.544-8.23 4.746z" fill="#C8C8C6" /><path d="M587.54 879.774l-6.104-3.546-0.394-170.002 6.104 3.564 0.394 169.984z" fill="#C4C2C0" /><path d="M650.2 673.4l54.824-31.648 0.394 169.984-54.844 31.646-8.21 4.746-54.824 31.644-0.394-169.982 54.842-31.646 8.212-4.746z m-7.876 165.276l-0.316-151.08-46.592 26.9 0.336 151.08 46.572-26.9z m54.824-31.646l-0.316-151.08-46.612 26.9 0.336 151.08 46.592-26.9z" fill="#E9E8E6" /><path d="M587.166 709.79l-6.124-3.546 54.822-31.664 6.106 3.544-54.804 31.666z" fill="#C8C8C6" /><path d="M436.618 803.72l447.98-260.33-0.04 11.184L436.6 814.908l0.02-11.186z" fill="#B2B0AF" /><path d="M393.276 778.692l448-260.332 43.324 25.01L436.618 803.7l-43.342-25.01z" fill="#E9E8E6" /><path d="M436.618 803.722l-0.02 11.186-43.342-25.03 0.02-11.186 43.34 25.03z" fill="#C4C2C0" /><path d="M510.878 654.1l279.966-162.7-0.158 87.672-279.966 162.698 0.158-87.67z" fill="#CC4848" /><path d="M500.638 648.192l279.966-162.698 10.24 5.908-279.966 162.698-10.24-5.908z" fill="#F25A5A" /><path d="M500.638 648.192l216.754-125.952 10.24 5.908-216.754 125.952-10.24-5.908z" fill="#DD4A4A" /><path d="M500.638 648.192l90.308-52.48 10.24 5.908-90.308 52.48-10.24-5.908z" fill="#F25A5A" /><path d="M510.878 654.1l-0.158 87.67-10.24-5.908 0.158-87.67 10.24 5.908z" fill="#DD4A4A" /><path d="M590 633.344l0.06 14.986 4.076 2.362-0.04-14.984 7.64-4.412-4.074-2.382-7.66 4.43z m0.08 22.41l0.04 15.596 4.076 2.364-0.04-15.598-4.076-2.362z" fill="#FFD651" /><path d="M579.112 659.358l-4.076-2.364 15.024-8.664 4.076 2.362-15.024 8.666z m-7.7-10.556l-4.076-2.362 7.64-4.432 4.096 2.364-7.66 4.43zM571.53 686.808l-4.096-2.362-0.1-38.006 4.078 2.362 0.118 38.006z" fill="#FFD651" /><path d="M601.738 631.296l0.118 38.006-7.66 4.412-0.04-15.578-15.024 8.666 0.04 15.596-7.642 4.41-0.12-38.006 7.662-4.41 0.04 14.966 15.024-8.666-0.04-14.966 7.642-4.43z" fill="#DDB040" /><path d="M685.884 613.71l-4.096-2.362 18.018-10.398 4.076 2.364-18 10.396z m-0.04-15.636l-4.096-2.362 15.36-8.86 4.076 2.36-15.34 8.862z m-7.542 27.098l-4.096-2.364-0.1-38.006 4.078 2.364 0.118 38.006z m-0.1-38.006l-4.094-2.364 24.988-14.434 4.076 2.364-24.968 14.434z" fill="#FFD651" /><path d="M703.172 572.732l0.02 7.068-17.388 10.044 0.04 8.232 15.36-8.862v6.852l-15.36 8.86 0.04 8.784 17.998-10.378 0.02 7.05-25.6 14.77-0.12-38.006 24.99-14.414z" fill="#DDB040" /><path d="M655.95 638.07l-4.096-2.362-0.078-30.86 4.076 2.384 0.1 30.838z m-10.672-24.734l-4.096-2.362v-7.168l4.076 2.362 0.02 7.168z" fill="#FFD651" /><path d="M645.258 606.168l-4.096-2.362 28.83-16.64 4.096 2.362-28.83 16.64z" fill="#FFD651" /><path d="M674.068 589.528l0.04 7.168-10.596 6.106 0.1 30.838-7.68 4.43-0.08-30.838-10.574 6.104-0.02-7.168 28.81-16.64z" fill="#DDB040" /><path d="M618.28 649.57l-4.076-2.382c0.644 0.366 1.366 0.582 2.106 0.63 1.576 0.118 3.348-0.374 5.298-1.496a19.14 19.14 0 0 0 5.276-4.608 23.14 23.14 0 0 0 3.704-6.46l4.096 2.364a23.35 23.35 0 0 1-3.704 6.46c-1.574 1.928-3.346 3.484-5.296 4.606-1.95 1.122-3.722 1.634-5.298 1.516a4.904 4.904 0 0 1-2.106-0.63z" fill="#FFD651" /><path d="M628.952 621.096l4.076 2.382c0.65 0.388 1.204 0.92 1.616 1.556 0.988 1.664 1.46 3.58 1.36 5.514 0 2.362-0.434 4.726-1.32 7.088l-4.096-2.38a19.216 19.216 0 0 0 1.32-7.092 9.788 9.788 0 0 0-1.36-5.512 4.962 4.962 0 0 0-1.616-1.536l0.02-0.02z" fill="#FFD651" /><path d="M612.352 657.86l-4.096-2.362a8.136 8.136 0 0 1-2.402-2.166c-1.576-2.108-2.364-5.002-2.364-8.744-0.02-3.72 0.748-7.522 2.304-11.42a39.268 39.268 0 0 1 6.46-10.754c2.756-3.268 5.828-5.926 9.254-7.916 3.428-1.988 6.54-2.914 9.276-2.796 1.43 0.036 2.83 0.42 4.076 1.122l4.076 2.364a8.742 8.742 0 0 0-4.076-1.104c-2.736-0.118-5.828 0.808-9.256 2.798a34.656 34.656 0 0 0-9.274 7.896 39.666 39.666 0 0 0-6.46 10.772c-1.536 3.88-2.322 7.68-2.304 11.42 0 3.742 0.788 6.638 2.364 8.724 0.654 0.88 1.478 1.616 2.422 2.166z" fill="#FFD651" /><path d="M641.38 617.354c1.574 2.088 2.36 5 2.36 8.724 0.02 3.74-0.746 7.54-2.322 11.42a40.068 40.068 0 0 1-6.46 10.772c-2.716 3.29-5.808 5.908-9.254 7.898-3.446 1.988-6.5 2.914-9.276 2.816a8.114 8.114 0 0 1-6.5-3.29c-1.574-2.086-2.36-5-2.36-8.722 0-3.742 0.766-7.544 2.302-11.422a39.864 39.864 0 0 1 6.46-10.772c2.756-3.288 5.848-5.908 9.256-7.896 3.406-1.99 6.538-2.916 9.274-2.798 2.758 0.12 4.924 1.202 6.5 3.29l0.02-0.02z m-6.696 20.282c0.886-2.362 1.32-4.726 1.32-7.088 0-2.364-0.454-4.194-1.38-5.514-0.926-1.32-2.126-2.048-3.702-2.166-1.576-0.12-3.348 0.354-5.318 1.496-1.968 1.142-3.7 2.66-5.276 4.608a22.806 22.806 0 0 0-3.684 6.46 19.604 19.604 0 0 0-1.338 7.05c0 2.362 0.472 4.214 1.38 5.532 0.904 1.32 2.126 2.048 3.7 2.166 1.576 0.14 3.348-0.354 5.318-1.496 1.948-1.122 3.7-2.66 5.276-4.608a23.524 23.524 0 0 0 3.704-6.44z" fill="#DDB040" /><path d="M717.628 595.28l-4.078-2.364 16.58-9.59 4.078 2.382-16.58 9.57z m-7.64 11.578l-4.078-2.364-0.118-38.006 4.096 2.364 0.1 38.006z" fill="#FFD651" /><path d="M709.888 568.872l-4.096-2.384 7.68-4.43 4.076 2.382-7.66 4.432z" fill="#FFD651" /><path d="M717.548 564.44l0.08 30.84 16.58-9.572 0.02 7.168-24.22 13.98-0.12-38.004 7.66-4.412z" fill="#DDB040" /><path d="M158.148 682.062l10.792 6.224-0.196 112.876-10.832 6.222 0.236-125.32z" fill="#D6D4D2" /><path d="M168.724 801.16l88.95 51.38-0.04 12.464-99.72-57.6v-0.02l10.81-6.222z" fill="#FFFFFF" /><path d="M168.94 688.286l88.97 51.358-0.236 112.896-88.95-51.38 0.216-112.874z" fill="#3F9AE0" /><path d="M279 751.812l10.792 6.224-0.196 112.876-10.832 6.222 0.236-125.32z" fill="#D6D4D2" /><path d="M289.596 870.912l88.93 51.378-0.04 12.464-99.72-57.6v-0.02l10.83-6.222z" fill="#FFFFFF" /><path d="M289.792 758.036l88.97 51.358-0.236 112.896-88.93-51.38 0.196-112.874z" fill="#3F9AE0" /><path d="M385.91 392.744c-9.708 3.11-18.314 8.428-25.462 15.556-6.972 6.972-12.288 15.576-15.576 25.286-0.926 3.13-5.12 3.13-6.224 0a63.528 63.528 0 0 0-40.86-40.842c-3.29-1.104-3.29-5.318 0-6.42 9.708-3.112 18.312-8.606 25.284-15.558 6.97-6.95 12.466-15.576 15.556-25.284 1.124-3.112 5.318-3.112 6.244 0 3.288 9.708 8.604 18.314 15.556 25.284 7.168 6.952 15.754 12.446 25.482 15.558a3.368 3.368 0 0 1 0 6.42z" fill="#FFFFFF" /></svg>