<?xml version="1.0" standalone="no"?><!DOCTYPE svg PUBLIC "-//W3C//DTD SVG 1.1//EN" "http://www.w3.org/Graphics/SVG/1.1/DTD/svg11.dtd"><svg class="icon" width="200px" height="200.00px" viewBox="0 0 1024 1024" version="1.1" xmlns="http://www.w3.org/2000/svg"><path d="M81.684 679.58l0.06 50.492L519.76 984.616l-0.06-50.492L81.684 679.58z" fill="#6DCB60" /><path d="M180.066 787.22l339.692 197.396-0.058-50.492-339.634-197.376v50.472z" fill="#3DB542" /><path d="M308.52 861.854l211.24 122.76-0.06-50.49-211.18-122.742v50.472z" fill="#6DCB60" /><path d="M519.7 934.126l0.06 50.49 422.556-244.264-0.06-50.51L519.7 934.126z" fill="#3DB542" /><path d="M695.748 883.004l246.548-142.652-0.04-50.51-246.508 142.63v50.532z" fill="#6DCB60" /><path d="M903.346 762.84l38.97-22.488-0.06-50.51-38.91 22.468v50.53z" fill="#3DB542" /><path d="M81.684 679.582L519.7 934.124l422.558-244.302-366.828-213.15L81.684 679.582z" fill="#81D672" /><path d="M797.912 235.54l-0.924 388.94-382.13 222.072 0.926-388.942L797.912 235.54z" fill="#E9E8E6" /><path d="M415.784 457.61l-0.926 388.922L110.356 670.74l0.926-388.924 304.5 175.794z" fill="#D6D4D2" /><path d="M797.914 235.54L415.784 457.61 111.26 281.796 493.41 59.746l304.504 175.794z" fill="#FFD651" /><path d="M815.656 225.458l-0.986 50.766-399.044 232.33 0.236-50.766 399.794-232.33z" fill="#8D9799" /><path d="M549.948 379.864v50.454l264.724-154.094 0.984-50.766-265.708 154.406z" fill="#6D797A" /><path d="M734.03 272.876v50.314l80.64-46.966 0.986-50.766-81.626 47.42z" fill="#7E8A8C" /><path d="M415.862 457.788l-0.238 50.766-323.012-186.072 0.986-50.768 322.264 186.074z" fill="#8D9799" /><path d="M193.714 329.512v51.2l221.912 127.84 0.236-50.764-222.148-128.276z" fill="#7E8A8C" /><path d="M317.716 401.112v51.044l97.91 56.398 0.236-50.766-98.146-56.676z" fill="#6D797A" /><path d="M815.656 225.458L415.86 457.786 93.578 271.714 493.372 39.384l322.284 186.074z" fill="#A0A8AA" /><path d="M136.388 271.654l31.39 18.12 325.632-189.244V64.196l-357.02 207.46z" fill="#7E8A8C" /><path d="M493.41 64.178v36.37l248.044 143.204 31.39-18.236-279.434-161.34z" fill="#8D9799" /><path d="M741.454 243.752L493.41 100.548 167.78 289.792l248.044 143.202 325.632-189.242z" fill="#6D797A" /><path d="M696.772 188.77l-21.03-12.208 65.22-37.672 21.032 12.228-65.22 37.652z" fill="#D6D4D2" /><path d="M463.28 430.316l-21.03-12.208-0.316-106.576 21.052 12.21 0.296 106.574z" fill="#B2B0AF" /><path d="M462.966 323.74l-21.032-12.208 65.22-37.652 21.032 12.21-65.22 37.652z" fill="#C4C2C0" /><path d="M528.188 286.11l-21.032-12.23-0.216-77.862 21.03 12.228 0.218 77.864z" fill="#B2B0AF" /><path d="M527.97 208.246l-21.03-12.21 168.566-97.34 21.05 12.212-168.586 97.34z" fill="#C4C2C0" /><path d="M527.97 208.246l-21.03-12.21 128.924-74.456 21.052 12.21-128.946 74.456z" fill="#B2B0AF" /><path d="M527.97 208.246l-21.03-12.21 49.644-28.672 21.03 12.21-49.644 28.672z" fill="#C4C2C0" /><path d="M696.556 110.908l0.218 77.862 65.22-37.652 0.296 106.576-299.008 172.624-0.296-106.556 65.2-37.652-0.196-77.864 168.566-97.34z" fill="#E9E8E6" /><path d="M521.886 317.932c2.756-1.576 5.494-2.796 8.132-3.544 2.64-0.748 4.982-1.024 6.972-0.728l-3.072 10.554a20.736 20.736 0 0 0-12.072 3.052 19.968 19.968 0 0 0-6.222 5.14 9.04 9.04 0 0 0-2.028 5.318c0 1.712 0.786 2.56 2.362 2.48 1.536-0.08 3.92-0.59 7.11-1.634 3.308-1.024 6.044-1.674 8.132-1.99 2.126-0.334 3.94 0.06 5.454 1.144 1.518 1.082 2.266 3.268 2.286 6.616 0 2.856-0.67 5.848-2.068 9-1.36 3.15-3.446 6.22-6.204 9.216-2.796 2.952-6.144 5.592-10.12 7.876a38.004 38.004 0 0 1-9.966 4.174 15.52 15.52 0 0 1-7.76 0.296l3.408-10.692a14.572 14.572 0 0 0 6.656-0.06c2.56-0.512 5.12-1.516 7.68-2.994a21.66 21.66 0 0 0 6.36-5.12c1.226-1.418 1.94-3.206 2.03-5.08 0-1.2-0.394-1.95-1.24-2.244a5.376 5.376 0 0 0-3.112-0.1c-1.24 0.238-2.954 0.71-5.12 1.38-3.31 0.984-6.026 1.654-8.134 1.968a7.05 7.05 0 0 1-5.434-1.2c-1.518-1.162-2.266-3.368-2.286-6.696 0-2.914 0.65-5.908 2.01-9.06a32.69 32.69 0 0 1 6.164-9.176c2.756-2.952 6.104-5.592 10.08-7.876v-0.02z m47.44-26.506l19.572 38.716-10.554 6.104-3.88-8.488-20.184 11.66-3.8 12.898-10.32 5.966 19.24-61.126 9.924-5.73z m-11.818 37.318l13.746-7.936-6.912-15.164-6.834 23.1z m45.824-56.95l0.12 40.506 21.8-12.584 0.02 9.414-31.844 18.392-0.14-49.94 10.044-5.788z m68.472-27.806c2.086 2.756 3.13 6.558 3.15 11.46 0 4.924-1.004 9.906-3.072 15.026a53.686 53.686 0 0 1-8.488 14.18c-3.604 4.292-7.64 7.738-12.17 10.336-4.528 2.6-8.586 3.86-12.208 3.702a10.692 10.692 0 0 1-8.528-4.332c-2.068-2.716-3.092-6.538-3.11-11.44 0-4.924 0.984-9.906 3.032-15.026a51.658 51.658 0 0 1 8.488-14.14c3.602-4.332 7.68-7.798 12.188-10.396 4.53-2.62 8.566-3.82 12.17-3.682 3.624 0.156 6.46 1.574 8.548 4.332v-0.02z m-8.804 26.644c1.182-3.112 1.772-6.204 1.772-9.296a12.8 12.8 0 0 0-1.81-7.266 6.262 6.262 0 0 0-4.884-2.856 12.17 12.17 0 0 0-6.972 1.97c-2.56 1.476-4.884 3.506-6.95 6.066a31.408 31.408 0 0 0-4.846 8.466c-1.18 3.132-1.772 6.224-1.772 9.316 0.02 3.11 0.63 5.514 1.812 7.246 1.2 1.752 2.836 2.698 4.884 2.856a12.228 12.228 0 0 0 6.972-1.97c2.56-1.496 4.882-3.504 6.95-6.064a30.334 30.334 0 0 0 4.844-8.468z m59.314-67.526l0.138 49.94-8.27 4.766-21.74-17.82 0.078 30.324-9.926 5.73-0.138-49.94 8.31-4.784 21.7 17.84-0.096-30.326 9.944-5.73z" fill="#0074D1" /><path d="M661.15 199.68a2.06 2.06 0 0 1-0.984 1.084l-0.59 0.314c-2.58 1.34-5.12 2.246-7.642 3.112a259.588 259.588 0 0 1-25.74 7.482c-3.266 0.808-6.456 1.38-9.686 2.01a11.434 11.434 0 0 0-2.284 0.728c-1.556 0.728-3.092 1.594-4.648 2.44l-0.394 0.336c-2.422 2.914-4.804 5.81-7.226 8.684l-0.394 0.552 0.63 0.374-0.492 0.532c-1.852 2.108-3.742 4.234-5.554 6.34a24.672 24.672 0 0 0-3.268 4.57c-0.454 0.846-0.788 1.772-1.084 2.62l0.02 0.786c1.18 2.284 0.886 5.318-0.492 8.842-2.068 5.318-5.396 9.63-9.65 13.194-0.65 0.552-1.36 1.044-2.068 1.596l-2.166 1.26-1.574 0.59c-6.144 2.206-9.06-2.226-6.382-9.708 1.418-3.94 3.7-7.542 6.656-10.674 6.874-7.246 13.786-14.454 20.678-21.7 0.236-0.216 0.472-0.512 0.688-0.63 0.158-0.1 0.316-0.1 0.454 0.098 1.458-1.654 2.56-3.406 3.564-5.278 0.51-0.784 0.808-1.686 0.866-2.62 0-0.294 0.1-0.668 0.04-0.904l-0.728-2.462-0.1-0.216a5.746 5.746 0 0 0-4.45-1.498 1.282 1.282 0 0 1-0.472 0.63 1.306 1.306 0 0 1-0.472 0.14c-5.632 0.944-11.264 1.928-16.876 2.814-1.99 0.382-4.004 0.612-6.026 0.69-3.092 0.04-5.26-1.36-6.244-4.372l-0.156-0.57a7.392 7.392 0 0 1-0.18-1.498c-0.02-1.54 0.248-3.068 0.79-4.508 1.18-3.348 3.288-6.086 5.908-8.39 0.788-0.67 1.594-1.24 2.4-1.87l2.168-1.26c0.846-0.316 1.694-0.69 2.5-0.946 3.78-1.102 6.874-0.748 8.9 1.674 1.578 1.812 2.03 4.47 0.948 8.172l-0.04 0.492c0.196 0.828 0.65 1.38 1.358 1.556a12.062 12.062 0 0 0 3.308 0.472c1.832 0 3.78-0.256 5.692-0.394l0.492-0.04-0.59 1.104h0.512l7.58-0.06 0.434-0.176c1.516-1.004 3.052-2.126 4.588-3.15a17.568 17.568 0 0 0 3.25-2.758c3.74-4.076 7.64-7.8 11.54-11.48 7.936-7.562 15.95-14.966 24.16-21.86 1.972-1.692 4.02-3.268 6.048-4.824 0.256-0.196 0.532-0.374 0.788-0.532l0.786-0.452 0.592-0.158c-6.794 7.484-13.608 14.828-20.422 22.252a5534.944 5534.944 0 0 0-20.282 22.272c0.554 0.084 1.118 0.084 1.674 0a934.018 934.018 0 0 0 39.384-4.824h-0.04z m-76.09 6.46c2.34-3.328 2.816-6.992 1.18-9.02-1.752-2.166-5.316-2.166-8.782-0.138-0.56 0.32-1.1 0.674-1.614 1.064-4.904 3.8-6.992 9.944-4.274 12.76 1.99 2.048 4.94 1.772 7.976 0.216a16.02 16.02 0 0 0 5.514-4.882z m3.426 43.912c1.18-4.154-0.394-6.616-3.682-6.006-1.02 0.212-2 0.592-2.896 1.124a21.608 21.608 0 0 0-9.354 12.05c-0.964 3.31-0.176 5.672 1.93 6.126 1.38 0.274 2.954-0.218 5.16-1.46 0.512-0.392 1.516-1.06 2.46-1.968 3.014-2.736 5.298-5.986 6.38-9.866z m20.5-36.864a4.552 4.552 0 0 0 2.166-3.504c0-1.24-0.984-1.714-2.166-1.044l-0.06 0.04a4.612 4.612 0 0 0-2.126 3.544c0.02 1.24 0.984 1.654 2.186 0.964zM341.306 716.94l-152.32-87.966 0.494-175.006 152.32 87.946-0.492 175.026z m-140.996-94.406l129.772 74.91 0.394-149.07-129.732-74.91-0.434 149.07z" fill="#434240" /><path d="M214.292 481.28l-13.548-7.818-0.434 149.07 13.588-7.876 0.394-133.376z" fill="#D6D4D2" /><path d="M213.898 614.656l-13.588 7.876 129.772 74.91 0.04-15.674-116.224-67.112z" fill="#FFFFFF" /><path d="M214.292 481.28l-0.394 133.376 116.224 67.112 0.374-133.396-116.204-67.092z" fill="#3F9AE0" /><path d="M294.952 610.914l-152.42-88.576-0.04-18.314 152.42 88.596 0.04 18.294z" fill="#DD4A4A" /><path d="M294.912 592.62l-152.42-88.576 47.302-51.2 152.42 88.596-47.302 51.18z" fill="#F25A5A" /><path d="M294.912 592.62l-152.42-88.576 32.258-34.914 152.418 88.576-32.256 34.914z" fill="#DD4A4A" /><path d="M294.912 592.62l-152.42-88.576 17.232-18.648 152.42 88.576-17.232 18.648z" fill="#F25A5A" /><path d="M342.212 541.44l0.12 42.14-47.38 27.334-0.04-18.314 47.3-51.16z" fill="#CC4848" /><path d="M445.874 630.312l76.7-44.288 0.238 88.122-76.682 44.268-0.256-88.102z m71.246 40.566l-0.216-75.028-65.34 37.71 0.198 75.048 65.358-37.73z" fill="#434240" /><path d="M510.07 599.768l6.834-3.938 0.196 75.068-6.832-3.96-0.198-67.17z" fill="#D6D4D2" /><path d="M510.268 666.94l6.852 3.938-65.34 37.73-0.02-7.896 58.508-33.772z" fill="#FFFFFF" /><path d="M510.07 599.768l0.198 67.152-58.506 33.792-0.198-67.152 58.506-33.792z" fill="#3F9AE0" /><path d="M469.464 665.048l76.74-44.602 0.02-9.216-76.74 44.602-0.02 9.216z" fill="#DD4A4A" /><path d="M469.484 655.832l76.74-44.602-23.826-25.778-76.72 44.604 23.806 25.776z" fill="#F25A5A" /><path d="M469.484 655.832l76.74-44.602-17.328-18.728-76.72 44.584 17.308 18.746z" fill="#DD4A4A" /><path d="M469.484 655.832l76.74-44.602-10.81-11.698-76.74 44.604 10.81 11.696z" fill="#F25A5A" /><path d="M445.676 630.056l-0.06 21.208 23.828 13.784 0.04-9.216-23.808-25.776z" fill="#CC4848" /><path d="M694.706 485.494l76.68-44.308 0.258 88.144-76.702 44.268-0.236-88.104z m71.226 40.566l-0.196-75.048-65.34 37.712 0.198 75.066 65.34-37.73z" fill="#434240" /><path d="M758.902 454.952l6.814-3.94 0.216 75.048-6.832-3.938-0.198-67.17z" fill="#D6D4D2" /><path d="M759.1 522.102l6.832 3.96-65.32 37.728-0.04-7.896 58.528-33.792z" fill="#FFFFFF" /><path d="M758.902 454.952l0.198 67.15-58.526 33.792-0.198-67.15 58.526-33.792z" fill="#3F9AE0" /><path d="M718.276 520.212l76.74-44.584 0.04-9.216-76.74 44.584-0.04 9.216z" fill="#DD4A4A" /><path d="M718.316 511.016l76.74-44.604-23.826-25.776-76.74 44.602 23.826 25.778z" fill="#F25A5A" /><path d="M718.316 511.016l76.74-44.604-17.328-18.746-76.74 44.602 17.328 18.748z" fill="#DD4A4A" /><path d="M718.316 511.016l76.74-44.604-10.83-11.696-76.72 44.582 10.81 11.718z" fill="#F25A5A" /><path d="M694.488 485.22l-0.06 21.226 23.848 13.786 0.04-9.236-23.828-25.778z" fill="#CC4848" /><path d="M665.088 710.656l-8.232-4.786-0.294-202.712 8.21 4.786 0.316 202.712z m-104.744 60.77l-8.23-4.784-0.336-213.584 8.232 4.786 0.334 213.582z" fill="#21201F" /><path d="M560.01 557.844l-8.232-4.786 114.216-66.244 8.232 4.784-114.216 66.246z" fill="#434240" /><path d="M674.226 491.6l0.334 213.58-9.452 5.476-0.336-202.712-95.27 55.316 0.294 202.692-9.452 5.474-0.334-213.582 114.216-66.246z" fill="#383736" /><path d="M656.876 705.87l-87.08 50.552-0.314-193.182 87.08-50.55 0.314 193.18z" fill="#FFD651" /><path d="M590.632 619.716c5.67-3.268 10.3-0.648 10.32 5.87 0.018 6.518-4.57 14.454-10.24 17.722-5.674 3.27-10.28 0.65-10.3-5.868 0-6.52 4.548-14.454 10.24-17.724h-0.02z" fill="#434240" /><path d="M785.682 780.13l-95.29 55.316-120.596-69.494 95.312-55.296 120.574 69.474z m-120.614-69.494l-95.272 55.316v-9.512l87.04-50.59 8.232 4.786z" fill="#DD4A4A" /><path d="M307.634 370.136c-20.284 6.618-35.29 23.532-41.276 41.492-1.28 3.17-5.316 3.17-6.578 0a64.1 64.1 0 0 0-41.294-41.492c-3.17-0.846-3.17-5.1 0-6.144 19.594-6.812 34.56-21.07 41.294-41.294 1.28-3.604 5.3-3.604 6.58 0a66.088 66.088 0 0 0 41.274 41.294c3.19 1.044 3.19 5.298 0 6.144z" fill="#FFFFFF" /><path d="M441.934 244.756l-0.06 20.794-80.698 46.908 0.06-20.796 80.7-46.906z" fill="#D6D4D2" /><path d="M361.236 291.644l-0.06 20.814-81.25-46.908 0.06-20.794 81.25 46.888z" fill="#E9E8E6" /><path d="M441.934 244.756l-80.7 46.906-81.248-46.906 80.718-46.908 81.23 46.908z" fill="#FFFFFF" /><path d="M381.598 232.88c11.322 6.54 11.54 17.33 0.294 23.868-11.42 6.636-30.07 6.54-41.372 0-11.64-6.696-11.698-17.428-0.296-24.044 11.224-6.538 29.736-6.538 41.354 0.178h0.02z" fill="#434240" /></svg>