<?xml version="1.0" standalone="no"?><!DOCTYPE svg PUBLIC "-//W3C//DTD SVG 1.1//EN" "http://www.w3.org/Graphics/SVG/1.1/DTD/svg11.dtd"><svg class="icon" width="200px" height="200.00px" viewBox="0 0 1024 1024" version="1.1" xmlns="http://www.w3.org/2000/svg"><path d="M89.108 686.514l0.06 55.65 467.928 271.932-0.06-55.65L89.108 686.514z" fill="#6DCB60" /><path d="M197.514 805.12l359.58 208.974-0.06-55.65-359.52-208.936v55.612z" fill="#3DB542" /><path d="M339.042 887.374l218.052 126.72-0.058-55.65-217.994-126.68v55.61z" fill="#6DCB60" /><path d="M557.036 958.444l0.06 55.65 377.796-218.13-0.06-55.632-377.796 218.112z" fill="#3DB542" /><path d="M751.044 902.104l183.848-106.14-0.06-55.632-183.788 106.102v55.67z" fill="#6DCB60" /><path d="M790.528 761.796l42.93-24.772-0.06-55.65-42.87 24.752v55.67z" fill="#3DB542" /><path d="M89.108 686.514l467.928 271.95 377.798-218.132L466.904 468.38 89.108 686.514z" fill="#81D672" /><path d="M758.292 226.64l-1.064 460.7-303.064 176.128 1.044-460.7 303.084-176.13z" fill="#E9E8E6" /><path d="M455.208 402.766l-1.064 460.702L160.178 693.76l1.062-460.72 293.968 169.726z" fill="#D6D4D2" /><path d="M184.024 272.6l13.076 7.542-0.414 177.408-13.114 8.468 0.452-193.418z" fill="#E9E8E6" /><path d="M196.686 457.55l235.226 135.8-0.04 16.048-248.3-143.36 13.114-8.488z" fill="#FFFFFF" /><path d="M432.304 415.96l-0.078 38.106-0.316 139.282-59.39-34.304-58.152-33.576-32.02-18.47-85.66-49.428 0.078-37.04 0.334-140.388 59.826 34.56 101.454 58.566 32 18.49 41.924 24.202z" fill="#3F9AE0" /><path d="M758.292 226.64l-303.086 176.126L161.24 233.04l303.104-176.128 293.948 169.728z" fill="#B8B7B5" /><path d="M763.432 251L466.748 78.768l-5.14-7.168 296.684 172.228 5.14 7.168z" fill="#383736" /><path d="M758.292 243.83L461.608 71.602l-6.696-9.354 296.684 172.228 6.696 9.354z" fill="#000000" /><path d="M429.134 38.538l296.686 172.228a82.91 82.91 0 0 1 25.776 23.71L454.892 62.248a82.906 82.906 0 0 0-25.796-23.71h0.04z" fill="#000000" /><path d="M429.134 38.538l296.684 172.228c-31.034-18.038-73.668-14.492-118.548 11.402L310.626 49.94c44.86-25.896 87.494-29.44 118.528-11.42l-0.02 0.018z" fill="#434240" /><path d="M310.548 34.382l296.684 172.23c48.46-27.96 94.54-31.816 128.068-12.38L438.706 22.056v0.02c-33.536-19.496-79.656-15.676-128.16 12.306z m424.84 159.902l-0.088-0.052 0.09 0.052zM160.18 245.624l296.684 172.226 0.512-1.28 6.144-15.772-296.684-172.23-6.144 15.774-0.512 1.28z" fill="#434240" /><path d="M358.38 373.268l-76.012 133.71-85.68-49.428 0.078-37.02 60.16-105.828 101.454 58.566z m73.924 42.692l-0.078 38.106-59.706 104.98-58.152-33.578 76.012-133.71 41.924 24.202z" fill="#FFFFFF" opacity=".2" /><path d="M440.084 429.864L143.4 257.634l11.716-30.128 296.686 172.248-11.72 30.11z" fill="#2D2C2B" /><path d="M463.518 400.798L166.834 228.568c29.538-76.052 84.636-144.5 143.754-178.628l296.704 172.228c-59.136 34.128-114.216 102.578-143.754 178.61l-0.02 0.02z" fill="#434240" /><path d="M607.292 222.168c59.116-34.146 114.412-29.44 144.304 12.308l6.696 9.354-301.43 174.02 0.512-1.28 6.144-15.774c29.538-76.07 84.638-144.5 143.754-178.628h0.02z" fill="#434240" /><path d="M451.8 399.754L155.116 227.524c31.94-82.194 91.51-156.238 155.432-193.14l296.684 172.228c-63.92 36.922-123.49 110.946-155.432 193.142z" fill="#383736" /><path d="M607.232 206.612c63.92-36.904 123.728-31.784 156.02 13.332l11.818 16.5-11.64 14.554-5.14-7.168-6.694-9.354c-29.912-41.748-85.188-46.454-144.304-12.308-59.156 34.148-114.216 102.56-143.794 178.63l-6.124 15.754-0.512 1.3-5.08 13.074-11.7-1.062 11.72-30.13c31.94-82.176 91.508-156.2 155.43-193.122z" fill="#21201F" /><path d="M183.512 501.15l5.868 3.386-0.392 171.52-5.908 4.49 0.432-179.396z" fill="#E9E8E6" /><path d="M188.988 676.036l242.392 139.974-0.02 7.896-248.26-143.36 5.888-4.51z" fill="#FFFFFF" /><path d="M189.38 504.516l242.414 139.954-0.414 171.54-242.412-139.954 0.412-171.54z" fill="#C4C2C0" /><path d="M730.152 554.496l-5.868 3.388 0.392 118.152 5.888 4.53-0.412-126.07z" fill="#D6D4D2" /><path d="M724.676 676.036l-244.854 141.392 0.02 7.876 250.722-144.738-5.888-4.53z" fill="#FFFFFF" /><path d="M724.282 557.884l-244.854 141.35 0.394 118.194 244.854-141.392-0.394-118.152z" fill="#C4C2C0" /><path d="M725.15 435.692l0.866-152.42 9.314-5.434-0.926 163.368-9.254-5.514z" fill="#D6D4D2" /><path d="M477.164 579.8l247.986-144.108 9.256 5.514-257.3 149.524 0.06-10.93z" fill="#FFFFFF" /><path d="M726.016 283.274l-0.592 108.564-0.274 43.854-82.314 47.852-31.96 18.57-58.094 33.714-75.618 43.992 0.866-152.42 9.846-5.728 58.054-33.772 31.98-18.55 101.24-58.84 46.866-27.236z" fill="#3F9AE0" /><path d="M721.27 516.804l0.926-33.672 9.786-5.712-0.984 45.174-9.728-5.79z" fill="#D6D4D2" /><path d="M656.03 554.712l65.24-37.908 9.728 5.79-75.028 43.6 0.06-11.48z" fill="#FFFFFF" /><path d="M656.03 554.712v-33.14l66.166-38.46-0.926 33.674-65.24 37.926z" fill="#3F9AE0" /><path d="M631.768 568.812l0.926-33.674 9.788-5.71-0.986 45.174-9.728-5.79z" fill="#D6D4D2" /><path d="M566.528 606.72l65.24-37.908 9.728 5.79-75.028 43.62 0.06-11.502z" fill="#FFFFFF" /><path d="M566.528 606.72v-33.142l66.166-38.44-0.926 33.674-65.24 37.908z" fill="#3F9AE0" /><path d="M542.268 620.82l0.924-33.674 9.788-5.71-0.984 45.174-9.728-5.79z" fill="#D6D4D2" /><path d="M477.026 658.728l65.24-37.908 9.73 5.79-75.028 43.618 0.06-11.5z" fill="#FFFFFF" /><path d="M477.026 658.728v-33.142l66.166-38.44-0.924 33.674-65.24 37.908z" fill="#3F9AE0" /><path d="M725.426 391.838l-0.276 43.854-82.314 47.852-64.926-114.196 101.24-58.84 46.276 81.33z m-114.57 110.276L552.8 535.828l-64.944-114.156 58.092-33.772 64.906 114.214z" fill="#FFFFFF" opacity=".2" /><path d="M445.992 225.812a73.02 73.02 0 0 0-29.736 18.59 79.164 79.164 0 0 0-18.61 30.01c-1.476 3.702-6.182 3.702-7.68 0a75.028 75.028 0 0 0-48.324-48.6c-3.74-0.984-3.74-5.948 0-7.188a81.328 81.328 0 0 0 30.228-18.59c7.936-8.172 14.374-18.59 18.116-29.734 1.478-4.216 6.184-4.216 7.68 0 3.702 11.144 10.142 21.562 18.57 29.734 8.192 8.428 18.354 14.632 29.756 18.59 3.72 1.24 3.72 6.204 0 7.188z" fill="#FFFFFF" /></svg>