<?xml version="1.0" standalone="no"?><!DOCTYPE svg PUBLIC "-//W3C//DTD SVG 1.1//EN" "http://www.w3.org/Graphics/SVG/1.1/DTD/svg11.dtd"><svg class="icon" width="200px" height="200.00px" viewBox="0 0 1024 1024" version="1.1" xmlns="http://www.w3.org/2000/svg"><path d="M898.362 748.466l-0.176 45.92-327.346 190.23 0.198-45.924 327.324-190.226z" fill="#3DB542" /><path d="M690.314 869.376v45.804l207.872-120.792 0.196-45.922-208.068 120.91z" fill="#2C9A2C" /><path d="M571.038 938.692l-0.198 45.922L130.816 730.564l0.196-45.92L571.04 938.69z" fill="#6DCB60" /><path d="M218.29 735.036v46.02l352.552 203.56 0.196-45.922-352.748-203.66z" fill="#3DB542" /><path d="M355.644 814.336v46.02l215.178 124.26 0.196-45.924-215.374-124.356z" fill="#2C9A2C" /><path d="M898.362 748.464l-327.326 190.228L131.012 684.662l327.346-190.248 440.004 254.05z" fill="#81D672" /><path d="M430.69 815.28L191.036 676.036l-0.1-228.824 239.656 139.284 0.1 228.784z" fill="#DD4A4A" /><path d="M430.592 586.496L190.936 447.212l256.16-147.888 239.652 139.264-256.156 147.908z" fill="#D04D4D" /><path d="M430.69 815.28l-0.098-228.784 256.158-147.89 0.118 228.786-256.178 147.888z" fill="#F25A5A" /><path d="M430.592 586.496L190.936 447.212l-0.098-30.248 239.656 139.264 0.1 30.268z" fill="#DD4A4A" /><path d="M430.514 556.23L190.858 416.964l256.158-147.888 239.654 139.264-256.156 147.89z" fill="#BE4040" /><path d="M686.672 408.34l0.078 30.248-256.158 147.888-0.08-30.248 256.16-147.888z" fill="#F25A5A" /><path d="M430.512 556.228L190.86 416.964l-0.178-55.65L430.336 500.6l0.176 55.63z" fill="#DD4A4A" /><path d="M430.356 500.598L190.7 361.314l256.16-147.888 239.652 139.284-256.156 147.888z" fill="#D04D4D" /><path d="M430.514 556.228l-0.16-55.63 256.16-147.89 0.158 55.632-256.16 147.888z" fill="#F25A5A" /><path d="M430.356 500.6L190.7 361.312l-0.1-30.266 239.658 139.264 0.098 30.286z" fill="#DD4A4A" /><path d="M430.276 470.31L190.582 331.048l256.18-147.91 239.652 139.264-256.138 147.908z" fill="#BE4040" /><path d="M686.416 322.422l0.098 30.286-256.16 147.89-0.096-30.286 256.158-147.89z" fill="#F25A5A" /><path d="M697.56 252.75L432.994 99.012l14.416 4.136 264.564 153.758-14.414-4.156z" fill="#983333" /><path d="M430.1 414.66L190.444 275.378l256.16-147.89 239.652 139.264L430.1 414.66z" fill="#D04D4D" /><path d="M443.04 376.872L203.38 237.608l230.104-132.864 239.656 139.282-230.104 132.846z" fill="#BE4040" /><path d="M675.268 246.35L410.702 92.594l22.292 6.42 264.566 153.736-22.292-6.4z" fill="#A63E3E" /><path d="M570.25 216.142L305.684 62.386l105.02 30.208 264.566 153.756-105.02-30.208z" fill="#A63E3E" /><path d="M430.276 470.312L190.582 331.048l-0.158-55.67L430.08 414.66l0.196 55.652z" fill="#DD4A4A" /><path d="M430.1 414.66l256.158-147.888 0.158 55.65-256.16 147.89-0.156-55.652z" fill="#F25A5A" /><path d="M751.024 245.168l-180.854-52.026-264.566-153.758 180.856 52.028 264.564 153.756z" fill="#434240" /><path d="M667.942 221.262l-97.772-28.12-264.546-153.758 97.774 28.12 264.544 153.76z" fill="#2D2C2B" /><path d="M652.958 238.218l20.204 5.81-230.124 132.844 114.806-166.006 95.114 27.352z" fill="#F25A5A" /><path d="M443.53 399.42L179.004 245.66l126.7-183.274 264.566 153.756-126.74 183.278z" fill="#BC4646" /><path d="M673.162 244.028l13.056 3.74 0.04 18.984-256.16 147.89-0.058-18.964 12.998-18.806 230.124-132.844z" fill="#F25A5A" /><path d="M430.1 414.66L190.444 275.38l-0.06-18.984 239.658 139.284 0.058 18.982z" fill="#CC4848" /><path d="M429.194 420.156l-264.566-153.72 14.356-20.754 264.546 153.756-14.336 20.718z" fill="#DD4A4A" /><path d="M399.834 462.632l-264.568-153.76-9.648-9.116 264.566 153.738 9.65 9.138z" fill="#2D2C2B" /><path d="M570.17 193.142l180.856 52.028-9.57 20.224-29.48-8.468-14.414-4.176-22.292-6.4-105.02-30.246-170.418 246.528-9.648-9.138 179.986-260.352z" fill="#21201F" /><path d="M390.184 453.514L125.618 299.736l180.006-260.352 264.568 153.74-180.008 260.39z" fill="#383736" /><path d="M390.184 453.514L125.618 299.736l132.154-191.172L522.34 262.32l-132.156 191.192z" fill="#434240" /><path d="M390.184 453.514L125.618 299.736l73.668-106.554 264.568 153.758-73.67 106.574z" fill="#383736" /><path d="M598.508 337.408l27.372 15.892c-13.43-7.8-32-6.696-52.5 5.12l-27.352-15.892c20.5-11.816 39.07-12.92 52.48-5.12z" fill="#E9E8E6" /><path d="M521.394 533.248l-27.374-15.912c-13.232-7.68-21.464-24.064-21.522-47.32-0.12-46.848 32.806-103.976 73.53-127.488l27.372 15.912c-40.762 23.512-73.668 80.62-73.53 127.468 0.06 23.256 8.27 39.64 21.524 47.34z" fill="#D6D4D2" /><path d="M573.38 358.44c40.764-23.552 73.906-4.57 74.044 42.26 0.138 46.828-32.788 103.876-73.55 127.408-40.744 23.532-73.886 4.608-74.004-42.2-0.14-46.848 32.788-103.956 73.51-127.468z" fill="#C4C2C0" /><path d="M615.384 358.558c8.31 7.168 12.978 19.85 13.018 36.784 0.118 43.894-30.86 97.556-69.06 119.612-10.104 5.828-19.99 8.9-28.594 8.9-3.192 0-6.144-0.452-8.9-1.26 5.04 4.332 11.42 6.656 18.942 6.656 8.606 0 18.51-3.092 28.594-8.92 38.202-22.056 69.2-75.718 69.06-119.592-0.06-22.842-8.546-37.926-23.08-42.18h0.02z" fill="#E9E8E6" /><path d="M628.4 395.342c-0.04-16.934-4.724-29.616-13.036-36.784a32.18 32.18 0 0 0-8.9-1.26c-8.606 0-18.51 3.09-28.594 8.9-21.82 12.604-41.254 35.544-53.898 61.066l78.336 45.528c15.952-23.828 26.172-52.224 26.094-77.45z" fill="#B2B0AF" /><path d="M523.972 427.264c-9.49 19.16-15.18 39.78-15.142 58.624 0.06 16.896 4.726 29.56 13.016 36.706 2.758 0.808 5.71 1.26 8.9 1.26 8.606 0 18.512-3.072 28.594-8.9 16.246-9.394 31.174-24.516 42.968-42.14l-78.336-45.55z" fill="#909293" /><path d="M565.86 587.64l163.8 95.19c-3.092-1.792-7.366-1.554-12.072 1.182l-163.8-95.212c4.706-2.718 8.98-2.974 12.07-1.18v0.02z" fill="#FFD651" /><path d="M717.588 684.012l-163.8-95.212c-6.026 3.466-11.246 10.102-14.24 17.27l163.802 95.192c2.994-7.168 8.212-13.804 14.238-17.27v0.02z" fill="#EFC348" /><path d="M700.692 713.294c0-3.86 0.984-8.014 2.658-12.012l-163.8-95.192a31.57 31.57 0 0 0-2.66 12.012c0 5.356 1.912 9.118 4.964 10.89l163.8 95.192c-3.052-1.772-4.942-5.552-4.962-10.89z" fill="#DDB040" /><path d="M717.588 684.012c9.354-5.416 16.994-1.082 17.034 9.688 0.02 10.752-7.582 23.908-16.936 29.322-9.374 5.416-16.954 1.006-16.994-9.728-0.02-10.77 7.522-23.886 16.896-29.28z" fill="#CEA03A" /><path d="M385.084 236.11c-10.496 3.348-19.556 9.296-26.96 16.936-7.64 7.878-13.352 16.936-16.7 26.98-1.436 3.326-5.71 3.326-6.91 0a68.964 68.964 0 0 0-43.68-43.916c-3.346-0.708-3.346-5.258 0-6.44a73.06 73.06 0 0 0 27.216-16.698c7.148-7.404 12.88-16.7 16.464-26.98 1.18-3.8 5.474-3.8 6.912 0 3.346 10.28 9.058 19.576 16.7 26.98 7.402 7.62 16.46 13.116 26.976 16.7 3.328 1.18 3.328 5.71 0 6.44h-0.02z" fill="#FFFFFF" /></svg>