<?xml version="1.0" standalone="no"?><!DOCTYPE svg PUBLIC "-//W3C//DTD SVG 1.1//EN" "http://www.w3.org/Graphics/SVG/1.1/DTD/svg11.dtd"><svg class="icon" width="200px" height="200.00px" viewBox="0 0 1024 1024" version="1.1" xmlns="http://www.w3.org/2000/svg"><path d="M898.836 711.78l-31.016-18.02-0.788-309.976 31.036 18.018 0.768 309.978z" fill="#C4C2C0" /><path d="M898.068 401.8l-18.294-10.632 45.154-26.052 18.274 10.632-45.134 26.054z" fill="#DBB846" /><path d="M943.202 375.73l0.788 309.996-45.154 26.054-0.788-309.96 45.154-26.09z" fill="#E9E8E6" /><path d="M922.88 704.216c-9.708-5.572-23.12-4.764-37.928 3.74-29.42 17.036-53.17 58.194-53.11 92.064 0 16.738 5.986 28.554 15.52 34.108l-573.324-331.66c-9.53-5.512-15.518-17.388-15.518-34.126-0.08-33.87 23.69-75.028 53.11-91.982 14.81-8.566 316.652 156.73 326.36 162.304l284.89 165.552z" fill="#DDB040" /><path d="M884.932 707.978c29.46-17.014 53.368-3.368 53.486 30.484 0.098 33.752-23.67 74.968-53.15 91.982-29.42 16.994-53.346 3.308-53.426-30.444-0.098-33.87 23.67-75.028 53.09-92.022z" fill="#EFC348" /><path d="M868.312 821.956c-4.332 0-8.348-1.042-11.932-3.09-8.468-4.884-13.136-14.77-13.176-27.846-0.06-25.246 17.724-56.122 39.7-68.784 11.46-6.638 22.45-7.582 30.958-2.7 8.466 4.866 13.134 14.77 13.192 27.886 0.06 25.246-17.76 56.084-39.74 68.784-6.614 3.8-13.094 5.732-19 5.732v0.02z" fill="#CEA03A" /><path d="M851.534 791.04c0 9.984 3.27 17.27 9.02 20.618 5.848 3.348 13.804 2.402 22.646-2.68 19.652-11.32 35.584-38.95 35.486-61.576 0-9.984-3.17-17.27-8.92-20.638a15.496 15.496 0 0 0-7.878-2.008c-4.412 0-9.492 1.634-14.868 4.706-19.554 11.324-35.584 38.932-35.486 61.578z" fill="#DDB040" /><path d="M793.994 779.756a48.9 48.9 0 0 1-19.28-12.938 243.926 243.926 0 0 0-76.404-57.166 248.932 248.932 0 0 0-45.234-16.05c-15.38-4.016-319.35-173.98-333.036-181.878-26.054-14.572-45.174-39.876-58.034-67.21l-0.06 0.236c15.282 35.27 35.644 56.616 56.912 69.042 13.882 8.408 318.228 178.392 333.49 182.548 47.026 12.208 87.08 36.016 120.694 72.152 2.876 2.816 5.908 5.514 9.334 7.778 3.408 2.284 7.168 3.94 10.93 5.318 7.6 2.638 15.2 4.726 22.252 8.408 5.71 2.796 11.068 6.164 16.306 9.768l0.038-1.104a130.394 130.394 0 0 0-15.654-10.022c-7.07-3.86-14.888-6.164-22.254-8.882z m21.66-43.146a48.874 48.874 0 0 1-19.256-12.938 243.948 243.948 0 0 0-76.406-57.166 248.968 248.968 0 0 0-45.234-16.03c-15.38-4.036-30.92-7.876-44.604-15.754-13.744-7.718-314.172-184.614-324.038-196.98a177.514 177.514 0 0 1-22.35-36.176l-0.1 0.158a178.244 178.244 0 0 0 21.27 36.94c9.708 12.704 310.134 189.974 324.038 198.106 13.88 8.41 29.774 12.268 45.056 16.424 47.004 12.21 87.078 36.036 120.694 72.172 2.874 2.796 5.908 5.514 9.314 7.778 3.426 2.266 7.168 3.94 10.948 5.318 7.6 2.638 15.204 4.726 22.254 8.408 2.756 1.358 5.434 2.914 8.112 4.49l0.572-1.064a117.016 117.016 0 0 0-8.016-4.784c-7.05-3.88-14.868-6.164-22.252-8.902z m21.704-43.126a48.908 48.908 0 0 1-19.28-12.938 243.922 243.922 0 0 0-76.426-57.166 249.004 249.004 0 0 0-45.212-16.03c-15.4-4.036-30.92-7.876-44.604-15.774-13.746-7.7-314.172-184.596-324.038-196.98a167.538 167.538 0 0 1-13.608-19.556l-0.668 0.334a166.366 166.366 0 0 0 13.094 20.146c9.708 12.7 310.136 189.972 324.038 198.104 13.884 8.428 29.776 12.288 45.056 16.444 47.006 12.208 87.08 36.016 120.694 72.172 2.876 2.796 5.908 5.514 9.316 7.758 3.406 2.286 7.168 3.94 10.948 5.318 7.6 2.638 15.2 4.746 22.252 8.408 5.986 2.954 11.618 6.498 17.132 10.32l0.71-0.552a133.296 133.296 0 0 0-17.172-11.106c-7.05-3.88-14.868-6.184-22.252-8.902h0.02z" fill="#CEA03A" /><path d="M816.246 788.638c-7.07-3.86-14.888-6.164-22.252-8.88a48.914 48.914 0 0 1-19.28-12.94 246.52 246.52 0 0 0-54.704-45.43c-0.178 1.064-0.316 2.128-0.454 3.19a253.246 253.246 0 0 1 53.486 43.914c2.874 2.816 5.906 5.514 9.334 7.78 3.406 2.284 7.168 3.938 10.928 5.316 7.602 2.64 15.204 4.726 22.252 8.408 5.712 2.796 11.068 6.164 16.306 9.768v-0.04l0.04-1.064a130.36 130.36 0 0 0-15.656-10.022z m-0.59-52.028a48.896 48.896 0 0 1-19.26-12.938 246.15 246.15 0 0 0-57.974-47.32l-1.576 2.5a251.764 251.764 0 0 1 57.876 46.514c2.876 2.796 5.908 5.514 9.314 7.78 3.428 2.264 7.168 3.938 10.95 5.316 7.6 2.64 15.202 4.726 22.252 8.408 2.756 1.36 5.436 2.914 8.114 4.49l0.274-0.532 0.296-0.532a116.618 116.618 0 0 0-8.014-4.784c-7.05-3.88-14.868-6.164-22.252-8.9z m0.748-54.37c2.874 2.796 5.908 5.514 9.314 7.76 3.406 2.284 7.168 3.938 10.95 5.316 7.6 2.64 15.2 4.746 22.252 8.408 5.986 2.954 11.618 6.5 17.132 10.32l0.708-0.552a133.486 133.486 0 0 0-17.172-11.106c-7.048-3.88-14.866-6.184-22.252-8.9a48.912 48.912 0 0 1-19.26-12.94 247.436 247.436 0 0 0-43.834-38.4c-0.788 0.434-1.574 0.788-2.362 1.24l-0.474 0.316a256.252 256.252 0 0 1 44.998 38.538z" fill="#CEA03A" /><path d="M788.796 781.392c-9.688-5.554-23.12-4.746-37.908 3.74-29.42 17.054-53.188 58.192-53.11 92.06 0 16.74 5.986 28.556 15.518 34.13L139.972 579.64c-9.53-5.512-15.516-17.388-15.516-34.106-0.08-33.87 23.69-75.028 53.11-92.002 14.788-8.566 28.22-9.374 37.908-3.8l573.32 331.658z" fill="#EFC348" /><path d="M750.868 785.172c29.46-17.014 53.366-3.388 53.464 30.484 0.1 33.732-23.67 74.968-53.13 91.962-29.42 16.994-53.346 3.308-53.444-30.444-0.1-33.87 23.67-75.028 53.09-92.002h0.02z" fill="#FFD651" /><path d="M734.228 899.132c-4.312 0-8.33-1.024-11.914-3.092-8.468-4.864-13.134-14.75-13.174-27.826-0.08-25.266 17.722-56.122 39.68-68.804 11.48-6.638 22.448-7.562 30.976-2.68 8.468 4.866 13.134 14.77 13.174 27.866 0.06 25.246-17.762 56.104-39.74 68.784-6.616 3.82-13.074 5.752-19.002 5.752z" fill="#DDB040" /><path d="M717.45 868.234c0 9.964 3.268 17.25 9.02 20.62 5.868 3.346 13.824 2.38 22.646-2.7 19.652-11.324 35.584-38.932 35.484-61.578 0-9.984-3.15-17.27-8.92-20.618a15.484 15.484 0 0 0-7.876-2.028c-4.392 0-9.472 1.634-14.848 4.726-19.574 11.304-35.584 38.932-35.506 61.56v0.02z m-57.522-11.304a48.914 48.914 0 0 1-19.3-12.938c-21.304-23.69-335.87-209.584-364.838-223.29a248.912 248.912 0 0 0-45.212-16.03c-15.4-4.036-30.918-7.876-44.604-15.754a122.918 122.918 0 0 1-35.584-30.878 177.696 177.696 0 0 1-22.45-36.352l-0.06 0.236a178.376 178.376 0 0 0 21.328 37.062 124.28 124.28 0 0 0 35.584 31.98c13.884 8.428 29.776 12.288 45.056 16.424 15.36 3.998 30.326 9.254 44.624 16.108 28.75 13.39 342.84 198.872 364.504 222.188 2.876 2.796 5.928 5.514 9.334 7.76 3.408 2.284 7.168 3.94 10.95 5.316 7.6 2.64 15.18 4.746 22.252 8.408 5.69 2.796 11.046 6.184 16.286 9.768l0.058-1.084a130.534 130.534 0 0 0-15.674-10.04c-7.05-3.86-14.868-6.166-22.254-8.884z m21.66-43.126a48.872 48.872 0 0 1-19.256-12.958c-21.348-23.69-335.912-209.564-364.9-223.27a248.958 248.958 0 0 0-45.194-16.03c-15.4-4.038-30.916-7.878-44.602-15.754a122.92 122.92 0 0 1-35.584-30.878A177.5 177.5 0 0 1 149.7 478.76l-0.118 0.138a178.26 178.26 0 0 0 21.268 36.942 124.26 124.26 0 0 0 35.604 32c13.884 8.408 29.774 12.268 45.056 16.424 15.36 3.996 30.326 9.254 44.622 16.108 28.752 13.37 342.844 198.872 364.506 222.168 2.874 2.816 5.928 5.514 9.334 7.78 3.406 2.282 7.168 3.94 10.948 5.316 7.6 2.64 15.184 4.726 22.254 8.408 2.756 1.36 5.434 2.934 8.092 4.51l0.592-1.084a116.536 116.536 0 0 0-8.016-4.784c-7.05-3.86-14.868-6.164-22.252-8.88z m21.684-43.146a48.916 48.916 0 0 1-19.26-12.938c-21.346-23.69-335.91-209.584-364.9-223.27a248.906 248.906 0 0 0-45.212-16.05c-15.36-4.018-30.878-7.876-44.584-15.754a122.9 122.9 0 0 1-35.602-30.878 167.536 167.536 0 0 1-13.588-19.554l-0.69 0.334a171.466 171.466 0 0 0 13.096 20.166 124.258 124.258 0 0 0 35.604 31.98c13.882 8.428 29.774 12.288 45.056 16.424 15.36 3.998 30.326 9.254 44.622 16.128 28.752 13.35 342.844 198.852 364.504 222.168 7.326 7.148 12.308 10.18 20.284 13.076 7.6 2.66 15.18 4.746 22.232 8.408 6.006 2.954 11.62 6.5 17.132 10.32l0.73-0.552a133.296 133.296 0 0 0-17.172-11.106c-7.05-3.88-14.868-6.184-22.252-8.9z" fill="#DDB040" /><path d="M682.16 865.832c-7.05-3.88-14.868-6.184-22.252-8.902a48.896 48.896 0 0 1-19.258-12.94c-15.854-17.602-322.816-199.146-343.16-211.532-0.196 1.064-0.314 2.126-0.452 3.19 19.712 12.012 326.104 193.024 341.94 210.038 2.852 2.796 5.904 5.514 9.312 7.758 3.406 2.286 7.168 3.94 10.948 5.318 7.602 2.638 15.184 4.746 22.252 8.408 5.692 2.796 11.048 6.184 16.286 9.768v-0.04l0.06-1.044a130.556 130.556 0 0 0-15.676-10.042v0.02z m-0.57-52.028a48.864 48.864 0 0 1-19.26-12.96c-16.698-18.508-324.804-200.72-346.426-213.442-0.552 0.826-1.064 1.674-1.576 2.52 21.446 12.446 329.334 194.364 346.308 212.618 2.876 2.816 5.928 5.514 9.334 7.778 3.408 2.286 7.168 3.94 10.95 5.318 7.602 2.638 15.182 4.726 22.252 8.408 2.76 1.36 5.436 2.934 8.094 4.51l0.296-0.552 0.294-0.532a117.3 117.3 0 0 0-8.014-4.784c-7.05-3.86-14.868-6.164-22.252-8.882z m0.748-54.39c7.306 7.148 12.288 10.18 20.244 13.076 7.62 2.66 15.202 4.746 22.252 8.408 6.006 2.954 11.62 6.5 17.132 10.32l0.728-0.552a133.352 133.352 0 0 0-17.172-11.106c-7.048-3.88-14.866-6.184-22.252-8.9a48.908 48.908 0 0 1-19.258-12.94 247.426 247.426 0 0 0-43.856-38.38c-0.786 0.414-1.574 0.788-2.36 1.24-0.16 0.08-0.298 0.198-0.456 0.296a256.208 256.208 0 0 1 44.98 38.538h0.02z" fill="#DDB040" /><path d="M803.23 638.622c-9.708-5.574-23.138-4.766-37.928 3.74-29.42 17.054-53.17 58.192-53.11 92.062 0 16.74 5.986 28.554 15.518 34.128L154.388 436.872c-9.532-5.512-15.518-17.386-15.518-34.106-0.08-33.87 23.69-75.026 53.11-92 14.79-8.568 28.22-9.376 37.908-3.802l573.342 331.66z" fill="#CEA03A" /><path d="M765.262 642.402c29.48-17.014 53.406-3.386 53.504 30.464 0.1 33.754-23.67 74.988-53.148 92.002-29.42 16.976-53.348 3.29-53.426-30.464-0.1-33.87 23.67-75.026 53.09-92h-0.02z" fill="#EFC348" /><path d="M723.516 725.464c0.098 13.036 4.804 22.922 13.252 27.806 3.544 2.008 7.56 3.072 11.894 3.072 5.948 0 12.366-1.93 18.984-5.75 21.956-12.662 39.798-43.56 39.72-68.786 0-13.134-4.728-23.02-13.156-27.804-8.526-4.904-19.476-4.038-30.976 2.678-11.028 6.32-20.912 17.172-28.1 29.636-7.188 12.466-11.62 26.466-11.62 39.128v0.02z" fill="#DDB040" /><path d="M674.342 714.16a48.886 48.886 0 0 1-19.278-12.938c-21.346-23.69-335.89-209.584-364.88-223.29a248.906 248.906 0 0 0-45.212-16.03c-15.38-4.036-30.896-7.876-44.602-15.754a122.918 122.918 0 0 1-35.584-30.876 177.712 177.712 0 0 1-22.45-36.352l-0.04 0.236a178.38 178.38 0 0 0 21.308 37.04 124.278 124.278 0 0 0 35.604 32c13.882 8.41 29.754 12.27 45.036 16.424 15.38 3.998 30.326 9.256 44.622 16.108 28.772 13.392 342.842 198.872 364.504 222.188 7.346 7.148 12.328 10.18 20.284 13.076 12.9 4.49 20.5 5.79 38.56 18.176l0.036-1.084a130.374 130.374 0 0 0-15.674-10.04c-7.05-3.86-14.868-6.166-22.252-8.884h0.02z m21.682-43.146a48.886 48.886 0 0 1-19.278-12.938c-21.348-23.69-335.872-209.564-364.88-223.27a248.954 248.954 0 0 0-45.212-16.03c-15.38-4.036-30.898-7.876-44.604-15.754a122.92 122.92 0 0 1-35.584-30.876 177.5 177.5 0 0 1-22.35-36.156l-0.1 0.138a178.26 178.26 0 0 0 21.268 36.942 124.264 124.264 0 0 0 35.604 32c13.864 8.41 29.756 12.27 45.036 16.424 15.38 3.978 30.328 9.256 44.624 16.108 28.77 13.372 342.842 198.872 364.504 222.168 7.344 7.148 12.308 10.2 20.282 13.096 7.602 2.64 15.204 4.726 22.254 8.408 2.756 1.36 5.434 2.914 8.092 4.51l0.592-1.084a116.536 116.536 0 0 0-8.016-4.784c-7.05-3.86-14.868-6.164-22.252-8.9h0.02z m21.682-43.126a48.908 48.908 0 0 1-19.28-12.938C677.08 591.26 362.534 405.366 333.548 391.66a248.926 248.926 0 0 0-45.214-16.03c-15.38-4.016-30.896-7.876-44.602-15.754a122.896 122.896 0 0 1-35.584-30.876 167.52 167.52 0 0 1-13.628-19.556l-0.65 0.336a166.586 166.586 0 0 0 13.096 20.164 124.276 124.276 0 0 0 35.584 31.98c13.884 8.43 29.776 12.288 45.056 16.424 15.38 3.998 30.326 9.256 44.624 16.108 28.768 13.392 342.842 198.892 364.502 222.188 7.346 7.148 12.308 10.18 20.284 13.076 7.602 2.66 15.202 4.746 22.252 8.408 5.986 2.954 11.62 6.5 17.132 10.32 0.22-0.198 0.474-0.376 0.71-0.552a133.296 133.296 0 0 0-17.172-11.106c-7.05-3.88-14.868-6.184-22.252-8.9h0.02z" fill="#C19234" /><path d="M674.344 714.16a48.886 48.886 0 0 1-19.28-12.938c-15.852-17.604-322.796-199.148-343.138-211.554-0.196 1.084-0.334 2.148-0.472 3.21 19.712 12.012 326.104 193.024 341.938 210.04 7.324 7.146 12.306 10.18 20.28 13.074 12.88 4.49 20.48 5.79 38.54 18.176v-0.04l0.04-1.044c-17.664-12.878-24.674-14.04-37.908-18.924z m21.68-43.146a48.894 48.894 0 0 1-19.28-12.938c-16.696-18.51-324.784-200.722-346.406-213.444-0.55 0.828-1.062 1.674-1.594 2.52 21.464 12.446 329.334 194.364 346.328 212.62 7.326 7.146 12.288 10.2 20.264 13.094 7.6 2.64 15.2 4.726 22.252 8.408 2.758 1.36 5.436 2.914 8.094 4.51l0.296-0.552 0.294-0.532a117.3 117.3 0 0 0-8.014-4.784c-7.05-3.86-14.868-6.164-22.252-8.9h0.02z m0.73-54.37c7.326 7.15 12.288 10.18 20.264 13.076 7.6 2.66 15.2 4.746 22.252 8.41 5.986 2.952 11.618 6.498 17.132 10.32 0.216-0.2 0.472-0.376 0.708-0.554a133.31 133.31 0 0 0-17.172-11.106c-7.048-3.88-14.866-6.184-22.252-8.9a48.906 48.906 0 0 1-19.26-12.94 247.482 247.482 0 0 0-43.834-38.38c-0.788 0.414-1.574 0.788-2.362 1.24l-0.474 0.296a256.19 256.19 0 0 1 44.998 38.54z" fill="#C19234" /><path d="M518.774 931.21l-31.016-18.04-0.786-309.956 31.034 18.02 0.768 309.976z" fill="#C4C2C0" /><path d="M518.006 621.234l-18.294-10.634 45.154-26.054 18.276 10.634-45.136 26.054z" fill="#DBB846" /><path d="M563.14 595.16l0.788 309.976-45.154 26.074-0.788-309.976 45.154-26.074z" fill="#E9E8E6" /><path d="M88.26 394.988c-9.944-3.15-18.254-9.256-26.662-15.202l0.708 286.148 31.016 18.04-0.71-288.1c-1.478-0.134-2.938-0.432-4.352-0.886z" fill="#C4C2C0" /><path d="M92.554 373.996l-18.274-10.634 45.134-26.052 18.274 10.634-45.134 26.052z" fill="#DBB846" /><path d="M137.688 347.924l0.788 309.976-45.154 26.074-0.768-309.978 45.134-26.072z" fill="#E9E8E6" /><path d="M473.404 434.886l-18.314-10.614-0.75-280.34 18.276 10.632 0.788 280.32z" fill="#C4C2C0" /><path d="M472.616 154.564l-18.276-10.632 45.136-26.054 18.274 10.634-45.134 26.052z" fill="#DBB846" /><path d="M517.75 128.492l0.788 280.34-45.154 26.052-0.768-280.3 45.134-26.092z" fill="#E9E8E6" /><path d="M731.018 365.116L292.234 110.14l212.952 12.07 438.764 254.998-212.932-12.092z" fill="#BFA03D" /><path d="M730.98 347.864L292.172 92.868l253.656 14.416 438.784 254.974-253.636-14.394z" fill="#F25A5A" /><path d="M730.98 347.864L292.172 92.868l198.618 11.284 438.762 254.976-198.576-11.264z" fill="#DD4A4A" /><path d="M730.98 347.864L292.172 92.868l97.202 5.514L828.14 353.38l-97.16-5.514z" fill="#F25A5A" /><path d="M518.754 622.712L79.99 367.716 292.234 110.14 730.98 365.096 518.754 622.712z" fill="#CEAD41" /><path d="M731.02 365.116l212.95 12.09-425.216 245.506L731.02 365.116z" fill="#E9E8E6" /><path d="M484.548 664.22L45.804 409.206l-6.42-9.512 438.764 254.976 6.4 9.55z" fill="#C44141" /><path d="M730.98 347.806L478.126 654.612 39.384 399.596 292.234 92.79 730.98 347.806z" fill="#DD4A4A" /><path d="M662.154 431.32l-184.026 223.312L39.384 399.596l184.026-223.31L662.154 431.32z" fill="#F25A5A" /><path d="M566.666 547.19l-88.538 107.42L39.384 399.596l88.538-107.42 438.744 255.014z" fill="#DD4A4A" /><path d="M730.98 347.864l253.634 14.396-6.32 16.896-34.324-1.97-212.954-12.07-212.28 257.574-34.188 41.512-6.4-9.532L730.98 347.864z" fill="#CC4848" /><path d="M461.508 318.524a68.074 68.074 0 0 0-27.746 17.328c-7.856 8.074-13.862 17.566-17.328 27.964-1.38 3.466-5.79 3.466-7.168 0a69.966 69.966 0 0 0-45.076-45.292c-3.466-0.926-3.466-5.554 0-6.696a75.854 75.854 0 0 0 28.2-17.35c7.404-7.62 13.39-17.328 16.876-27.746 1.378-3.94 5.77-3.94 7.168 0 3.466 10.418 9.472 20.126 17.328 27.746 7.64 7.858 17.114 13.628 27.746 17.33 3.466 1.16 3.466 5.79 0 6.696v0.02z" fill="#FFFFFF" /></svg>