<?xml version="1.0" standalone="no"?><!DOCTYPE svg PUBLIC "-//W3C//DTD SVG 1.1//EN" "http://www.w3.org/Graphics/SVG/1.1/DTD/svg11.dtd"><svg class="icon" width="200px" height="200.00px" viewBox="0 0 1024 1024" version="1.1" xmlns="http://www.w3.org/2000/svg"><path d="M945.092 637.48l-0.078 25.46-120.772 70.184 0.078-25.46 120.772-70.184z" fill="#B2B0AF" /><path d="M874.594 678.44v25.422l70.42-40.92 0.08-25.462-70.5 40.96z" fill="#C4C2C0" /><path d="M913.586 655.794v25.422l31.428-18.274 0.08-25.462-31.508 18.314z" fill="#B2B0AF" /><path d="M824.32 707.662l-0.08 25.464-303.556-175.262 0.08-25.462 303.556 175.26z" fill="#D6D4D2" /><path d="M608.158 582.852v25.522l216.084 124.75 0.078-25.46-216.162-124.812z" fill="#E9E8E6" /><path d="M728.42 652.288v25.5l95.82 55.336 0.08-25.46-95.9-55.376z" fill="#C4C2C0" /><path d="M945.092 637.48l-120.772 70.18-303.558-175.26 120.774-70.182 303.556 175.26zM503.316 888.97l-0.08 25.46-120.772 70.186 0.08-25.462 120.772-70.184z" fill="#D6D4D2" /><path d="M432.818 929.93v25.422l70.42-40.92 0.078-25.462-70.5 40.96z" fill="#C4C2C0" /><path d="M471.788 907.284v25.402l31.448-18.254 0.08-25.462-31.528 18.314z" fill="#B2B0AF" /><path d="M382.544 959.154l-0.08 25.46-303.556-175.26 0.078-25.462 303.558 175.26z" fill="#D6D4D2" /><path d="M166.38 834.364v25.5l216.084 124.752 0.08-25.462L166.38 834.364z" fill="#C4C2C0" /><path d="M286.62 903.78v25.5l95.844 55.336 0.08-25.462-95.922-55.376z" fill="#B2B0AF" /><path d="M503.316 888.97l-120.774 70.182-303.556-175.26 120.772-70.184 303.558 175.26z" fill="#E9E8E6" /><path d="M504.2 409.148l268.448 156.02c32.55 18.906 52.736 59.158 52.912 116.324l-268.464-156.022c-0.16-57.168-20.342-97.4-52.894-116.322z" fill="#D6D4D2" /><path d="M504.2 409.148l268.448 156.02c32.55 18.906 52.736 59.158 52.912 116.324l-268.464-156.022c-0.16-57.168-20.342-97.4-52.894-116.322z" fill="#C4C2C0" /><path d="M825.56 681.472l-268.464-156.002 79.832-46.08 268.446 156.002-79.812 46.08z" fill="#E9E8E6" /><path d="M847.4 642.126l-268.446-156 57.896-33.44 268.444 156.022-57.894 33.42z" fill="#C4C2C0" /><path d="M578.954 486.124c-5.454-50.648-26.722-86.744-58.27-105.118l268.446 156.004c31.546 18.372 52.814 54.468 58.288 105.116l-268.464-156z" fill="#E9E8E6" /><path d="M520.586 380.948l268.466 156.002c-37.22-21.622-88.754-18.628-145.526 14.14L375.08 395.086c56.772-32.768 108.308-35.76 145.526-14.14h-0.02z" fill="#C4C2C0" /><path d="M383.016 936.96L114.57 780.996l-0.926-330.24 268.446 156.004 0.926 330.2z" fill="#D6D4D2" /><path d="M176.936 744.96l-0.532-185.5 143.32 83.296 0.532 185.502-143.32-83.298z" fill="#C4C2C0" /><path d="M383.016 936.96L114.57 780.996l-0.08-26.7 268.448 156 0.078 26.664z" fill="#B2B0AF" /><path d="M643.544 551.09c104.96-60.594 191.96-19.378 203.854 91.036l57.896-33.418 0.08 26.684-79.814 46.08c-0.334-115.1-81.8-161.496-181.956-103.68-100.156 57.816-181.09 197.986-180.776 313.108l-79.812 46.08-0.08-26.704 57.896-33.418c11.244-123.786 97.734-265.156 202.692-325.768h0.02z" fill="#C4C2C0" /><path d="M382.17 633.442l-268.466-156L636.06 175.85l268.446 156.002-522.34 301.588z" fill="#E9E8E6" /><path d="M382.168 633.442L113.704 477.44l-0.06-26.702 268.446 156 0.08 26.704z" fill="#C4C2C0" /><path d="M383.016 936.96l-0.926-330.22 0.08 26.702 522.338-301.588 0.786 276.854-57.894 33.42c-11.894-110.416-98.914-151.632-203.874-91.04-104.96 60.594-191.45 201.984-202.694 325.77l-57.896 33.42 0.08 26.682z" fill="#E9E8E6" /><path d="M904.508 331.854l-522.34 301.588-0.08-26.702 522.34-301.568 0.08 26.682z" fill="#C4C2C0" /><path d="M382.09 606.74L113.624 450.758l522.36-301.608 268.444 156.02L382.09 606.74z" fill="#E9E8E6" /><path d="M113.566 423.188l0.08 27.568 268.444 156.004-0.06-27.57-268.464-156.002z" fill="#383736" /><path d="M382.03 579.19l0.06 27.568 522.34-301.586-0.06-27.57-522.34 301.588z" fill="#2D2C2B" /><path d="M113.704 423.188l268.466 156 522.338-301.586L636.1 121.64 113.7 423.188z" fill="#434240" /><path d="M113.704 423.188l31.31 18.196L667.372 139.816 636.1 121.66 113.7 423.188z m237.154 137.808l31.312 18.196L904.508 277.6l-31.252-18.156-522.4 301.55z" fill="#434240" /><path d="M817.624 322.756l-20.54-13.016 80.78-46.65 20.54 12.996-80.78 46.67z" fill="#E9E8E6" /><path d="M898.402 276.086l-20.54-12.996-28.828-73.02 20.54 12.998 28.828 73.02z" fill="#D6D4D2" /><path d="M813.686 323.112l-20.54-12.998 52.52-120.97 20.54 12.998-52.52 120.97z" fill="#D6D4D2" /><path d="M704.196 388.214l-20.54-12.996 105.552-60.928 20.56 12.996-105.572 60.928z" fill="#E9E8E6" /><path d="M809.748 327.286l-20.54-12.996-53.03-60.022 20.558 12.996 53.012 60.022z" fill="#D6D4D2" /><path d="M700.26 388.588l-20.52-12.996 52.5-120.97 20.558 12.996-52.54 120.97z" fill="#D6D4D2" /><path d="M590.848 453.672l-20.56-12.998 105.512-60.908 20.54 12.998-105.492 60.908z" fill="#E9E8E6" /><path d="M696.34 392.764l-20.54-12.998-53.03-60.022 20.558 12.996 53.012 60.024z" fill="#D6D4D2" /><path d="M586.87 454.066l-20.56-12.998 52.52-120.97 20.56 12.998-52.52 120.97z" fill="#D6D4D2" /><path d="M477.42 519.148l-20.54-12.996 105.512-60.908 20.54 12.996-105.512 60.908z" fill="#E9E8E6" /><path d="M582.932 458.24l-20.54-12.996L509.4 385.18l20.54 13.016 52.992 60.042z" fill="#D6D4D2" /><path d="M473.48 519.522l-20.538-12.996 52.48-120.95 20.54 12.996-52.48 120.95z" fill="#D6D4D2" /><path d="M387.8 570.9l-20.56-12.998 81.784-47.2 20.54 12.996-81.764 47.2z" fill="#E9E8E6" /><path d="M469.564 523.698l-20.54-12.998-53.11-60.1 20.54 12.996 53.11 60.1z" fill="#D6D4D2" /><path d="M414.09 458.34l-20.54-12.998L851.002 181.228l20.56 12.998-457.472 264.112z" fill="#E9E8E6" /><path d="M381.794 579.19l-20.54-12.996 32.296-120.852 20.54 12.996-32.296 120.852z" fill="#C4C2C0" /><path d="M871.562 194.226l32.886 83.22-522.634 301.744 32.296-120.85L871.56 194.226z m-167.346 193.988l105.552-60.928-53.032-60.022-52.52 120.95z m56.44-125.124l53.03 60.02 52.52-120.968-105.552 60.948z m-113.37 65.456l52.972 60.042 52.54-120.97-105.512 60.928z m-56.438 125.126l105.492-60.908-53.012-60.022-52.48 120.93z m-56.97-59.668l52.972 60.06 52.54-120.968-105.512 60.908z m-56.458 125.146l105.512-60.91-52.972-60.042-52.54 120.952z m-56.97-59.648l53.032 60.02 52.48-120.93-105.512 60.91zM387.8 570.9l81.764-47.202-53.112-60.1-28.652 107.3z m481.772-367.832l-51.948 119.688 80.78-46.63-28.832-73.06z" fill="#B2B0AF" /><path d="M570.526 180.914l-20.54-12.998 80.78-46.67 20.538 13.016-80.78 46.652z" fill="#E9E8E6" /><path d="M651.304 134.262l-20.54-12.996-28.83-73.04 20.54 12.998 28.83 73.038z" fill="#D6D4D2" /><path d="M566.588 181.268l-20.54-12.998 52.52-120.97 20.54 12.998-52.52 120.97z" fill="#D6D4D2" /><path d="M457.118 246.39l-20.56-12.996 105.552-60.948 20.56 12.996-105.552 60.948z" fill="#E9E8E6" /><path d="M562.668 185.442l-20.56-12.996-53.03-60.022 20.56 12.996 53.03 60.022z" fill="#D6D4D2" /><path d="M453.18 246.744l-20.56-12.996 52.52-120.97 20.56 12.996-52.52 120.97z" fill="#D6D4D2" /><path d="M343.73 311.848l-20.54-12.998 105.512-60.928 20.54 12.998-105.512 60.928z" fill="#E9E8E6" /><path d="M449.24 250.92l-20.54-12.998-53.03-60.02 20.54 12.996 53.03 60.02z" fill="#D6D4D2" /><path d="M339.772 312.22l-20.56-12.996 52.52-120.97 20.56 12.998-52.52 120.97z" fill="#D6D4D2" /><path d="M230.32 377.304l-20.538-12.996 105.512-60.908 20.54 12.996-105.512 60.908z" fill="#E9E8E6" /><path d="M335.832 316.396l-20.54-12.996-52.99-60.042 20.54 12.996 52.99 60.042z" fill="#D6D4D2" /><path d="M226.382 377.68l-20.54-13 52.48-120.948 20.54 12.996-52.48 120.95z" fill="#D6D4D2" /><path d="M140.7 429.056l-20.558-12.996 81.782-47.204 20.54 12.998-81.762 47.202z" fill="#E9E8E6" /><path d="M222.464 381.854l-20.54-12.998-53.11-60.1 20.54 12.996 53.11 60.1z" fill="#D6D4D2" /><path d="M166.99 316.494l-20.54-12.996L603.906 39.384l20.56 12.998L166.99 316.494z" fill="#E9E8E6" /><path d="M134.696 437.366l-20.54-12.996 32.296-120.872 20.54 12.996-32.296 120.872z" fill="#C4C2C0" /><path d="M624.444 52.38l32.886 83.24L134.696 437.366l32.294-120.87L624.444 52.38z m-167.326 194.01l105.55-60.948-53.03-60.02-52.52 120.968z m56.438-125.144l53.032 60.02 52.52-120.948-105.552 60.928zM400.188 186.7l52.972 60.042 52.54-120.95-105.512 60.908z m-56.46 125.146l105.514-60.928-53.032-60.022-52.48 120.95zM286.78 252.18l52.974 60.04 52.54-120.948-105.514 60.908z m-56.456 125.144l105.512-60.928-52.974-60.042-52.54 120.97z m-56.97-59.666l53.03 60.02 52.48-120.93-105.51 60.91zM140.7 429.056l81.762-47.202-53.11-60.082-28.652 107.284zM622.474 61.244l-51.948 119.67 80.778-46.632-28.83-73.04z" fill="#B2B0AF" /><path d="M256.926 467.888l43.6-25.166 20.26 11.776-43.616 25.166-20.244-11.776z m82.234-47.478l43.62-25.186 20.242 11.776-43.598 25.186-20.264-11.776z m164.49-94.974l43.62-25.168 20.244 11.776-43.6 25.168-20.264-11.776z m-82.234 47.496l43.598-25.186 20.264 11.776-43.62 25.168-20.242-11.758z m164.49-94.976l43.598-25.186 20.264 11.776-43.62 25.186-20.242-11.776z m82.254-47.478l43.6-25.186 20.24 11.776-43.596 25.168-20.244-11.758z" fill="#E9E8E6" /><path d="M422.164 716.524a56.58 56.58 0 0 0-23 14.376 61.24 61.24 0 0 0-14.376 23.236c-1.18 2.856-4.806 2.856-5.968 0a58.054 58.054 0 0 0-37.394-37.612c-2.876-0.768-2.876-4.608 0-5.552 8.82-3.072 16.68-7.878 23.394-14.376 6.144-6.34 11.126-14.396 14-23.04 1.162-3.25 4.806-3.25 5.948 0 2.876 8.644 7.876 16.7 14.376 23.04 6.34 6.5 14.198 11.304 23.04 14.376 2.854 0.944 2.854 4.784 0 5.552h-0.02z" fill="#FFFFFF" /></svg>