<?xml version="1.0" standalone="no"?><!DOCTYPE svg PUBLIC "-//W3C//DTD SVG 1.1//EN" "http://www.w3.org/Graphics/SVG/1.1/DTD/svg11.dtd"><svg class="icon" width="200px" height="200.00px" viewBox="0 0 1024 1024" version="1.1" xmlns="http://www.w3.org/2000/svg"><path d="M930.66 684.426l-0.14 35.21-455.974 264.98 0.138-35.21 455.976-264.98z" fill="#3DB542" /><path d="M640 853.326v35.132l290.52-168.822 0.138-35.21L640 853.326z" fill="#2C9A2C" /><path d="M777.374 773.514v35.112l153.146-89.01 0.14-35.19-153.286 89.088z m-302.692 175.892l-0.136 35.21L96.886 766.58l0.158-35.21 377.64 218.034z" fill="#6DCB60" /><path d="M214.232 799.036v35.288l260.312 150.292 0.14-35.21-260.452-150.37z" fill="#3DB542" /><path d="M355.524 880.6v35.308l119.02 68.708 0.14-35.21-119.16-68.806z" fill="#2C9A2C" /><path d="M930.66 684.426l-455.976 264.98-377.6-218.034 455.976-264.98 377.6 218.034z" fill="#81D672" /><path d="M151.768 330.044l1.064 396.052 321.634 186.92-1.064-396.074-321.634-186.9z" fill="#FFD651" /><path d="M473.404 516.924l1.062 396.09 398.77-230.222-1.062-396.072-398.77 230.204z" fill="#EFC348" /><path d="M151.768 330.042l321.634 186.88L872.172 286.72 550.54 99.8 151.768 330.042z" fill="#FFE2A9" /><path d="M548.786 73.984l0.098 56.91 322.01 187.136-0.1-56.91-322.008-187.136z" fill="#E86D6D" /><path d="M153.01 302.474l0.098 56.91L548.884 130.914l-0.1-56.91L153.012 302.474zM474.88 524.17l0.1 56.93L930.6 318.032l-0.08-56.912-455.64 263.05z" fill="#CC5C5C" /><path d="M646.242 482.226L930.6 318.03l-0.078-56.91-284.278 164.116v56.99z" fill="#B75151" /><path d="M780.406 404.756l150.194-86.726-0.08-56.91-150.114 86.646v56.99z" fill="#CC5C5C" /><path d="M93.34 302.454l0.1 56.91L474.978 581.12l-0.1-56.91L93.344 302.454z" fill="#E86D6D" /><path d="M208.306 426.14l266.674 154.96-0.1-56.91-266.574-154.94v56.892z" fill="#CC5C5C" /><path d="M348.022 507.332l126.956 73.768-0.098-56.91-126.858-73.728v56.87z" fill="#B75151" /><path d="M930.52 261.12L474.88 524.15 93.34 302.434 548.98 39.384 930.52 261.12zM475.04 489.61L870.794 261.1 548.786 73.984 153.01 302.474l322.028 187.136z" fill="#FC7E7E" /><path d="M844.604 457.432l-19.024 10.97 0.354 134.222 19.102 10.95-0.432-156.14z" fill="#FFD651" /><path d="M825.974 596.48v6.104l-3.88 2.284-44.544 25.7-30.72 17.722-80.66 46.612-0.04-17.92-0.392-116.342 73.906-42.614L825.58 468.4v9.452l0.178 48.462 0.216 70.164z" fill="#3F9AE0" /><path d="M632.2 577.26l-19.02 10.968 0.374 222.662 19.08 10.948-0.432-244.578z" fill="#FFD651" /><path d="M613.554 810.89l-103.524 59.826 0.08 21.996 122.526-70.814v-0.06l-19.082-10.948z" fill="#E9E8E6" /><path d="M613.18 588.228l-103.562 59.786 0.412 222.7 103.524-59.826-0.374-222.66z" fill="#3F9AE0" /><path d="M666.19 694.212v9.216l23.296 13.55v-9.236l-23.296-13.53z" fill="#D6D4D2" /><path d="M689.468 707.74l0.02 9.238 159.782-91.61-0.02-9.216-159.782 91.59z" fill="#C4C2C0" /><path d="M666.19 694.212l23.278 13.53 159.782-91.57-23.316-13.548-159.744 91.588z" fill="#E9E8E6" /><path d="M825.58 468.4v9.454l-78.768 170.456-80.64 46.592-0.04-17.92 73.512-158.956L825.58 468.4z m0.394 128.08l-3.88 8.388-44.544 25.7 48.208-104.252 0.216 70.164z" fill="#D6D4D2" opacity=".3" /><path d="M815.38 468.284l18.668-10.852 31.744 37.988-18.668 10.83-31.744-37.966z" fill="#F25A5A" /><path d="M847.124 506.27l18.668-10.85-0.04 11.36-18.668 10.832 0.04-11.342z" fill="#DD4A4A" /><path d="M815.38 468.284l31.744 37.986-0.04 11.362-31.802-18.372 0.098-30.976z" fill="#823030" /><path d="M796.712 479.114l18.668-10.83 31.744 37.986-18.668 10.83-31.744-37.986z" fill="#E9E8E6" /><path d="M828.456 517.12l18.668-10.85-0.04 11.362-18.668 10.83 0.04-11.342z" fill="#D6D4D2" /><path d="M796.712 479.114l31.744 38.006-0.04 11.362-31.804-18.372 0.1-30.996z" fill="#823030" /><path d="M778.044 489.984l18.668-10.85 31.744 37.986-18.668 10.83-31.744-37.966z" fill="#F25A5A" /><path d="M809.788 527.95l18.668-10.83-0.04 11.362-18.668 10.832 0.04-11.364z" fill="#DD4A4A" /><path d="M778.044 489.984l31.744 37.986-0.04 11.364-31.804-18.374 0.1-30.976z" fill="#823030" /><path d="M759.356 500.834l18.668-10.85 31.764 37.986-18.67 10.832-31.762-37.968z" fill="#E9E8E6" /><path d="M791.12 538.82l18.668-10.85-0.04 11.362-18.668 10.832 0.04-11.344z" fill="#D6D4D2" /><path d="M759.356 500.834l31.762 37.986-0.04 11.364-31.8-18.374 0.078-30.976z" fill="#823030" /><path d="M740.686 511.684l18.67-10.85 31.762 37.986-18.688 10.832-31.744-37.968z" fill="#F25A5A" /><path d="M772.43 549.672l18.688-10.852-0.04 11.364-18.666 10.83 0.02-11.342z" fill="#DD4A4A" /><path d="M740.686 511.684l31.744 37.988-0.02 11.362-31.802-18.374 0.08-30.976z" fill="#823030" /><path d="M722.02 522.536l18.666-10.852 31.744 37.988-18.668 10.83-31.744-37.966z" fill="#E9E8E6" /><path d="M753.762 560.52l18.668-10.848-0.02 11.36-18.668 10.832 0.02-11.342z" fill="#D6D4D2" /><path d="M722.02 522.536l31.742 37.986-0.02 11.362-31.802-18.372 0.08-30.976z" fill="#823030" /><path d="M703.35 533.366l18.668-10.83 31.744 37.986-18.668 10.83-31.744-37.986z" fill="#F25A5A" /><path d="M735.114 571.372l18.648-10.85-0.02 11.362-18.668 10.832 0.04-11.344z" fill="#DD4A4A" /><path d="M703.35 533.366l31.744 38.006-0.02 11.362-31.802-18.372 0.08-30.996z" fill="#823030" /><path d="M684.68 544.216l18.67-10.83 31.744 37.986-18.668 10.832-31.744-37.988z" fill="#E9E8E6" /><path d="M716.426 582.222l18.668-10.85-0.02 11.362-18.668 10.832 0.02-11.344z" fill="#D6D4D2" /><path d="M684.68 544.216l31.746 38.006-0.02 11.364-31.822-18.374 0.098-30.996z" fill="#823030" /><path d="M665.994 555.068l18.688-10.832 31.744 37.986-18.668 10.832-31.764-37.986z" fill="#F25A5A" /><path d="M697.758 593.074l18.668-10.852-0.02 11.364-18.688 10.83 0.04-11.342z" fill="#DD4A4A" /><path d="M665.994 555.068l31.764 38.006-0.04 11.36-31.802-18.372 0.078-30.994z" fill="#CC4848" /><path d="M201.768 479.508l24.004 13.844-0.452 169.354-24.084 13.842 0.532-197.04z" fill="#EFC348" /><path d="M427.46 609.732l-0.116 42.004-0.434 127.448-89.54-51.732-31.666-18.294-21.9-12.66-58.484-33.774v-9.944l0.452-159.39 112.088 64.65 65.498 37.81 21.898 12.602 2.206 1.28z" fill="#3F9AE0" /><path d="M426.93 778.3l-0.02 11.618-29.42 17.092 0.02-11.618 29.42-17.092z" fill="#D6D4D2" /><path d="M397.51 795.372v11.64L195.86 691.434l0.02-11.62 201.63 115.556z" fill="#C4C2C0" /><path d="M426.93 778.3l-29.42 17.072L195.9 679.8l29.42-17.074 201.61 115.576z" fill="#E9E8E6" /><path d="M403.358 595.85l-119.532 100.648-58.486-33.774v-9.944l112.52-94.72 65.498 37.79z m24.104 13.882l-0.12 42.004-89.974 75.718-31.664-18.294 119.532-100.708 2.226 1.28z" fill="#D6D4D2" opacity=".3" /><path d="M238.67 493.194l-23.57-13.686-40.074 47.93 23.57 13.706 40.074-47.95z" fill="#F25A5A" /><path d="M198.596 541.144l-23.57-13.706 0.04 14.336 23.57 13.706-0.04-14.336z" fill="#DD4A4A" /><path d="M238.67 493.194l-40.074 47.95 0.04 14.336 40.134-23.178-0.1-39.108z" fill="#823030" /><path d="M262.204 506.88l-23.552-13.686-40.056 47.95 23.552 13.686 40.056-47.95z" fill="#E9E8E6" /><path d="M222.148 554.83l-23.552-13.686 0.04 14.336 23.552 13.686-0.04-14.336z" fill="#D6D4D2" /><path d="M262.204 506.88l-40.056 47.95 0.04 14.336 40.134-23.178-0.12-39.108z" fill="#823030" /><path d="M285.774 520.586l-23.57-13.706-40.056 47.95 23.552 13.688 40.074-47.932z" fill="#F25A5A" /><path d="M245.7 568.516l-23.552-13.686 0.04 14.336 23.552 13.686-0.04-14.336z" fill="#DD4A4A" /><path d="M285.774 520.586l-40.074 47.93 0.04 14.336 40.134-23.176-0.1-39.09z" fill="#823030" /><path d="M309.326 534.272l-23.552-13.686-40.074 47.93 23.572 13.688 40.054-47.932z" fill="#E9E8E6" /><path d="M269.272 582.204l-23.572-13.688 0.04 14.336 23.572 13.688-0.04-14.336z" fill="#D6D4D2" /><path d="M309.326 534.272l-40.054 47.93 0.04 14.336 40.134-23.158-0.12-39.108z" fill="#823030" /><path d="M332.9 547.96l-23.574-13.688-40.054 47.93 23.552 13.706 40.074-47.95z" fill="#F25A5A" /><path d="M292.824 595.89l-23.552-13.686 0.04 14.336 23.552 13.704-0.04-14.354z" fill="#DD4A4A" /><path d="M332.9 547.96l-40.076 47.948 0.04 14.336 40.134-23.178-0.1-39.108z" fill="#823030" /><path d="M356.43 561.644l-23.532-13.686-40.074 47.95 23.572 13.688 40.034-47.952z" fill="#E9E8E6" /><path d="M316.396 609.596l-23.572-13.688 0.04 14.336 23.572 13.688-0.04-14.336z" fill="#D6D4D2" /><path d="M356.43 561.644l-40.034 47.952 0.04 14.336 40.132-23.18-0.138-39.108z" fill="#823030" /><path d="M380.002 575.35l-23.552-13.706-40.074 47.952 23.572 13.686 40.054-47.932z" fill="#F25A5A" /><path d="M339.948 623.28l-23.572-13.684 0.06 14.336 23.552 13.686-0.04-14.336z" fill="#DD4A4A" /><path d="M380.002 575.35l-40.054 47.932 0.04 14.336 40.132-23.16-0.118-39.108z" fill="#823030" /><path d="M403.574 589.036l-23.572-13.686-40.054 47.932 23.552 13.686 40.074-47.932z" fill="#E9E8E6" /><path d="M363.52 636.968l-23.572-13.686 0.04 14.336 23.552 13.686-0.02-14.336z" fill="#D6D4D2" /><path d="M403.574 589.036l-40.074 47.932 0.04 14.336 40.132-23.16-0.098-39.108z" fill="#823030" /><path d="M427.126 602.722l-23.552-13.686-40.074 47.932 23.572 13.706 40.054-47.952z" fill="#F25A5A" /><path d="M387.072 650.674l-23.572-13.706 0.04 14.336 23.572 13.706-0.04-14.336z" fill="#DD4A4A" /><path d="M427.126 602.722l-40.054 47.952 0.04 14.336 40.132-23.18-0.118-39.108z" fill="#CC4848" /><path d="M613.554 702.484v22.094l-103.464 59.746-0.06-21.996 103.524-59.844z" fill="#0074D1" /><path d="M306.216 410.092a2.304 2.304 0 0 1 0 4.45 45.214 45.214 0 0 0-28.948 28.91 2.304 2.304 0 0 1-4.432 0 45.272 45.272 0 0 0-28.908-28.91 2.304 2.304 0 0 1 0-4.45 45.214 45.214 0 0 0 28.908-28.928 2.304 2.304 0 0 1 4.452 0 45.214 45.214 0 0 0 28.928 28.948v-0.02z" fill="#FFFFFF" /></svg>