<?xml version="1.0" standalone="no"?><!DOCTYPE svg PUBLIC "-//W3C//DTD SVG 1.1//EN" "http://www.w3.org/Graphics/SVG/1.1/DTD/svg11.dtd"><svg class="icon" width="200px" height="200.00px" viewBox="0 0 1024 1024" version="1.1" xmlns="http://www.w3.org/2000/svg"><path d="M70.774 346.132l1.044 370.766 416.688 242.158-1.04-370.768L70.772 346.132z" fill="#DDB040" /><path d="M487.464 588.288l1.044 370.768 419.386-242.12-1.062-370.764-419.368 242.116z" fill="#EFC348" /><path d="M70.774 346.13l416.69 242.16 419.366-242.1L490.142 104.014 70.774 346.13z" fill="#DCDCDC" /><path d="M42.988 297.57l1.122 43.264 444.36 258.206-1.126-43.264L42.988 297.57z" fill="#D6D4D2" /><path d="M172.21 415.272l316.258 183.788-1.122-43.264-315.136-183.14v42.616z" fill="#C4C2C0" /><path d="M317.244 499.554l171.224 99.506-1.122-43.264-170.084-98.856-0.02 42.614z" fill="#B2B0AF" /><path d="M487.346 555.796l1.12 43.264 447.196-258.206-1.124-43.244-447.192 258.186z" fill="#C4C2C0" /><path d="M678.696 489.216l256.964-148.362-1.122-43.244-255.842 147.712v43.894z" fill="#B2B0AF" /><path d="M809.138 413.912l126.522-73.058-1.122-43.244-125.4 72.408v43.894z" fill="#D6D4D2" /><path d="M42.988 297.57l444.356 258.226L934.56 297.61 490.18 39.384 42.988 297.57z" fill="#E9E8E6" /><path d="M124.928 297.69l47.3 27.49 317.894-183.534V86.844L124.928 297.69z" fill="#D6D4D2" /><path d="M490.14 86.844v54.802l315.178 183.14 47.3-27.294L490.14 86.844z" fill="#C4C2C0" /><path d="M805.336 324.786l-317.852 183.572-315.196-183.14 317.854-183.61 315.194 183.178z" fill="#6D797A" /><path d="M523.756 653.352l180.54-104.272 0.532 207.576-180.52 104.272-0.552-207.576z" fill="#FFFFFF" /><path d="M693.76 567.414l-16.462 9.492 0.412 164.628 16.502 9.02-0.452-183.14z" fill="#D6D4D2" /><path d="M677.71 741.534l-142.906 82.53 0.04 18.51 159.368-92.02-16.5-9.02z" fill="#E9E8E6" /><path d="M677.298 576.906l-142.928 82.55 0.434 164.628 142.906-82.55-0.412-164.628z" fill="#434240" /><path d="M755.79 804.826l-8.94-5.18-0.728-263.542 8.94 5.2 0.728 263.52z" fill="#D6D4D2" /><path d="M755.062 541.302l-8.94-5.2 120.478-69.552 8.94 5.18-120.478 69.572z" fill="#E9E8E6" /><path d="M875.54 471.73l0.708 263.54-120.476 69.556-0.71-263.524 120.478-69.572z" fill="#E9E8E6" /><path d="M495.124 974.532l-17.388-10.1-0.12-47.874 17.37 10.102 0.138 47.872z" fill="#D6D4D2" /><path d="M494.986 926.66l-17.368-10.1 268.446-154.98 17.368 10.102-268.446 154.98z" fill="#E9E8E6" /><path d="M763.432 771.682l0.138 47.892-268.446 154.98-0.14-47.894 268.448-154.978z" fill="#C4C2C0" /><path d="M893.636 744.33l-17.368-10.102-0.138-47.892 17.388 10.102 0.12 47.892z" fill="#B2B0AF" /><path d="M893.52 696.438l-17.39-10.102 31.824-18.372 17.388 10.1-31.824 18.374z" fill="#E9E8E6" /><path d="M925.34 678.066l0.14 47.872-31.842 18.392-0.12-47.892 31.824-18.372zM477.62 984.616l17.368-10.102 0.138-47.892-17.388 10.1-0.12 47.894z" fill="#C4C2C0" /><path d="M477.736 936.724l17.388-10.1L71.798 679.914l-17.388 10.102 423.326 246.706z" fill="#E9E8E6" /><path d="M54.41 690.02l-0.138 47.89 423.346 246.704 0.118-47.89L54.41 690.02z" fill="#D6D4D2" /><path d="M174.218 759.848v47.95l303.4 176.818 0.118-47.892-303.52-176.876z" fill="#C4C2C0" /><path d="M333.804 852.854v47.95l143.814 83.812 0.118-47.892-143.932-83.87z" fill="#D6D4D2" /><path d="M859.668 604.888l-76.84 44.388-3.88-2.246-0.196-89.284 76.78-44.308 3.88 2.224 0.256 89.226z" fill="#434240" /><path d="M783.164 649.098l-4.254-2.48 76.504-44.172 4.254 2.482-76.504 44.17z" fill="#C8C8C6" /><path d="M859.668 604.948l-4.254-2.5-0.256-88.912 4.274 2.48 0.236 88.932z m-80.76 51.594l-4.272-2.48-0.276-98.818 4.254 2.48 0.296 98.818z" fill="#7D7C7B" /><path d="M778.634 557.726l-4.274-2.48 85.11-49.134 4.254 2.48-85.09 49.134z" fill="#C8C8C6" /><path d="M778.634 557.726l85.09-49.132 0.296 98.816-85.11 49.132-0.276-98.816z m81.034 47.202l-0.236-88.91-76.506 44.15 0.256 88.93 76.486-44.17z" fill="#B4B3B2" /><path d="M656.05 735.566l-19.694-4.332c-11.618 16.148-25.206 29.144-39.778 37.416-11.028 6.3-21.66 9.648-31.31 9.648-6.696 0-12.8-1.574-18.314-4.726l-1.576-0.786 0.986-1.576c12.8-22.45 30.128-40.566 48.442-51.2 14.376-8.272 28.16-11.224 39.976-8.468l21.07-28.948 0.198 52.972z" fill="#E9E8E6" /><path d="M570.576755 762.987738a4.45 7.7 30.13 1 0 7.73024-13.319286 4.45 7.7 30.13 1 0-7.73024 13.319286Z" fill="#434240" /><path d="M856.576 385.064l46.08-26.782 78.356 93.754-46.08 26.782-78.356-93.754z" fill="#0074D1" /><path d="M934.932 478.82l46.08-26.784-0.08 28.042-46.08 26.782 0.08-28.04z" fill="#006CB5" /><path d="M856.576 385.064l78.356 93.754-0.08 28.042-78.492-45.312 0.216-76.484z" fill="#823030" /><path d="M810.496 411.844l46.08-26.78 78.356 93.754-46.08 26.782-78.356-93.756z" fill="#E9E8E6" /><path d="M888.852 505.6l46.08-26.78-0.08 28.04-46.08 26.78 0.08-28.04z" fill="#D6D4D2" /><path d="M810.496 411.844l78.356 93.736-0.08 28.062-78.492-45.332 0.216-76.466z" fill="#823030" /><path d="M764.416 438.626l46.08-26.78 78.356 93.734-46.08 26.782-78.356-93.736z" fill="#0074D1" /><path d="M842.772 532.38l46.08-26.78-0.08 28.04-46.08 26.784 0.08-28.042z" fill="#006CB5" /><path d="M764.416 438.626l78.376 93.736-0.1 28.04-78.492-45.29 0.216-76.486z" fill="#823030" /><path d="M718.356 465.388l46.08-26.78 78.336 93.774-46.08 26.78-78.336-93.774z" fill="#E9E8E6" /><path d="M796.692 559.144l46.08-26.782-0.08 28.04-46.08 26.784 0.08-28.042z" fill="#D6D4D2" /><path d="M718.356 465.388l78.336 93.756-0.08 28.04-78.472-45.31 0.216-76.486z" fill="#823030" /><path d="M672.276 492.17l46.08-26.78 78.336 93.754-46.08 26.78-78.336-93.754z" fill="#0074D1" /><path d="M750.632 585.924l46.08-26.78-0.1 28.04-46.08 26.782 0.1-28.04z" fill="#006CB5" /><path d="M672.276 492.17l78.356 93.754-0.08 28.042-78.492-45.312 0.216-76.484z" fill="#823030" /><path d="M626.196 518.952l46.08-26.782 78.356 93.754-46.08 26.782-78.356-93.754z" fill="#E9E8E6" /><path d="M704.552 612.706l46.08-26.78-0.08 28.04-46.08 26.782 0.08-28.04z" fill="#D6D4D2" /><path d="M626.196 518.952l78.356 93.734-0.08 28.062-78.492-45.332 0.216-76.464z" fill="#823030" /><path d="M580.136 545.714l46.06-26.782 78.356 93.774-46.08 26.782-78.336-93.774z" fill="#0074D1" /><path d="M658.472 639.488l46.08-26.78-0.08 28.04-46.08 26.78 0.08-28.04z" fill="#006CB5" /><path d="M580.136 545.714l78.336 93.774-0.08 28.022-78.492-45.292 0.236-76.504z" fill="#823030" /><path d="M534.056 572.494l46.08-26.78 78.336 93.774-46.08 26.78-78.336-93.774z" fill="#E9E8E6" /><path d="M612.392 666.25l46.08-26.78-0.08 28.04-46.08 26.78 0.08-28.04z" fill="#D6D4D2" /><path d="M534.056 572.494l78.336 93.756-0.08 28.04-78.492-45.31 0.236-76.486z" fill="#823030" /><path d="M487.976 599.276l46.08-26.78 78.336 93.754-46.08 26.78-78.336-93.754z" fill="#0074D1" /><path d="M566.312 693.032l46.08-26.782-0.08 28.04-46.08 26.784 0.08-28.042z" fill="#006CB5" /><path d="M487.976 599.276l78.336 93.756-0.08 28.04-78.474-45.31 0.218-76.486z" fill="#00649B" /><path d="M391.248 821.248L156.476 685.706l0.53-191.174 234.774 135.544-0.532 191.172zM168.86 678.636L378.98 799.94l0.452-162.834L169.314 515.8l-0.452 162.836z" fill="#434240" /><path d="M184.124 524.348l-14.81-8.548-0.452 162.856 14.848-8.606 0.414-145.702z" fill="#D6D4D2" /><path d="M183.71 670.05l-14.848 8.586 210.116 121.306 0.04-17.134-195.308-112.758z" fill="#FFFFFF" /><path d="M379.49 637.066l-0.414 145.86-195.346-112.934 0.432-145.644 195.328 112.718z" fill="#82C6E0" /><path d="M186.092 477.244l-29.636-17.232-50.412 60.318 29.656 17.21 50.392-60.296z" fill="#F25A5A" /><path d="M135.68 537.54l-29.636-17.21 0.06 18.02 29.636 17.23-0.06-18.04z" fill="#DD4A4A" /><path d="M186.092 477.244L135.68 537.54l0.06 18.04 50.49-29.146-0.138-49.19z" fill="#823030" /><path d="M215.73 494.474l-29.638-17.23L135.68 537.54l29.656 17.232 50.394-60.3z" fill="#E9E8E6" /><path d="M165.336 554.772L135.7 537.54l0.04 18.04 29.636 17.23-0.04-18.04z" fill="#D6D4D2" /><path d="M215.73 494.474l-50.414 60.298 0.06 18.038 50.492-29.144-0.14-49.192z" fill="#823030" /><path d="M245.366 511.684l-29.636-17.23-50.414 60.318L194.974 572l50.392-60.318z" fill="#F25A5A" /><path d="M194.954 572.002l-29.618-17.23 0.04 18.038 29.656 17.23-0.08-18.038z" fill="#DD4A4A" /><path d="M245.366 511.684l-50.412 60.32 0.08 18.036 50.49-29.144-0.158-49.212z" fill="#823030" /><path d="M275.022 528.916l-29.656-17.232-50.412 60.32 29.656 17.21 50.412-60.3z" fill="#E9E8E6" /><path d="M224.61 589.214L194.974 572l0.06 18.04 29.636 17.21-0.06-18.04z" fill="#D6D4D2" /><path d="M275.022 528.916l-50.412 60.298 0.06 18.038 50.49-29.144-0.138-49.192z" fill="#823030" /><path d="M304.64 546.126l-29.618-17.21-50.412 60.298 29.638 17.23 50.392-60.318z" fill="#F25A5A" /><path d="M254.248 606.444l-29.638-17.23 0.06 18.038 29.636 17.23-0.06-18.038z" fill="#DD4A4A" /><path d="M304.64 546.126l-50.392 60.32 0.06 18.036 50.49-29.144-0.158-49.212z" fill="#823030" /><path d="M334.296 563.358l-29.636-17.232-50.412 60.32 29.636 17.23 50.412-60.32z" fill="#E9E8E6" /><path d="M283.884 623.656l-29.636-17.212 0.06 18.04 29.636 17.23-0.06-18.06z" fill="#D6D4D2" /><path d="M334.296 563.358l-50.412 60.318 0.06 18.038 50.49-29.146-0.138-49.21z" fill="#823030" /><path d="M363.934 580.588l-29.638-17.23-50.412 60.318 29.656 17.21 50.394-60.298z" fill="#F25A5A" /><path d="M313.54 640.886l-29.656-17.21 0.06 18.038 29.636 17.21-0.04-18.038z" fill="#DD4A4A" /><path d="M363.934 580.588l-50.412 60.298 0.06 18.04 50.49-29.146-0.14-49.192z" fill="#823030" /><path d="M393.57 597.8l-29.636-17.212-50.412 60.298 29.656 17.23 50.392-60.316z" fill="#E9E8E6" /><path d="M343.178 658.116l-29.638-17.23 0.04 18.04 29.638 17.23-0.04-18.04z" fill="#D6D4D2" /><path d="M393.57 597.8l-50.412 60.316 0.06 18.04 50.49-29.146-0.138-49.21z" fill="#823030" /><path d="M423.208 615.03l-29.638-17.23-50.412 60.316 29.656 17.232 50.394-60.318z" fill="#F25A5A" /><path d="M372.814 675.348l-29.636-17.232 0.04 18.04 29.636 17.23-0.04-18.04z" fill="#DD4A4A" /><path d="M423.208 615.03l-50.412 60.318 0.06 18.038 50.49-29.144-0.14-49.212z" fill="#CC4848" /><path d="M576.12 301.372l-0.1 34.264-110.278 64.06 0.12-34.266 110.256-64.06z" fill="#D6D4D2" /><path d="M465.86 365.43l-0.098 34.264-110.986-64.078 0.1-34.264 110.984 64.08z" fill="#E9E8E6" /><path d="M576.12 301.372l-110.28 64.06-110.964-64.06 110.276-64.08 110.968 64.08z" fill="#FFFFFF" /><path d="M466.481977 260.88366a5.278 3.052 0.17 1 0 0.018111-6.103973 5.278 3.052 0.17 1 0-0.018111 6.103973Z" fill="#434240" /><path d="M540.817977 303.813654a5.278 3.052 0.17 1 0 0.018111-6.103973 5.278 3.052 0.17 1 0-0.018111 6.103973Z" fill="#434240" /><path d="M465.497786 330.434584a50.078 29.006 0.17 1 0 0.172124-58.011744 50.078 29.006 0.17 1 0-0.172124 58.011744Z" fill="#434240" /><path d="M394.004 299.854c2.088 1.202 2.048 3.152-0.02 4.352-2.068 1.202-5.336 1.182-7.424-0.02-2.088-1.2-2.146-3.09-0.08-4.292a8.29 8.29 0 0 1 7.524-0.04z m74.34 42.91c2.066 1.2 2.026 3.152-0.04 4.372-2.068 1.18-5.32 1.18-7.406-0.04-2.086-1.22-2.166-3.092-0.08-4.292a8.292 8.292 0 0 1 7.524-0.04z" fill="#434240" /><path d="M482.304 283.51c3.76 2.166 2.62 5.966-2.422 7.148a19.18 19.18 0 0 0-7.208 3.034 11.58 11.58 0 0 0-3.7 3.622c1.318 0.394 2.638 1.044 3.542 2.048a40.764 40.764 0 0 1 13.372 0.788c4.726 0.828 8.782 2.974 11.52 5.574 2.402 2.284 0.886 5.218-3.25 6.3a11.914 11.914 0 0 1-8.466-0.866 5.06 5.06 0 0 1-1.656-1.418 12.21 12.21 0 0 0-5.276-4.194 23.47 23.47 0 0 0-6.244-2.146 7.108 7.108 0 0 1-3.564 2.068 8.526 8.526 0 0 1-1.3 7.7c-1.536 3.032-5.67 5.276-9.59 6.674a12.052 12.052 0 0 1-9.354-0.63c-3.82-2.186-2.6-5.966 2.404-7.128a19.18 19.18 0 0 0 7.206-3.052 11.36 11.36 0 0 0 3.704-3.624 6.914 6.914 0 0 1-3.526-2.048c-4.214 0.394-9.276 0.334-13.39-0.788a22.488 22.488 0 0 1-11.54-5.572c-2.364-2.266-0.906-5.2 3.268-6.302 2.934-0.788 6.302-0.394 8.468 0.866 0.71 0.394 1.26 0.866 1.654 1.42 1.34 1.908 3.152 3.286 5.278 4.192 1.732 0.986 4.018 1.654 6.262 2.166a7.6 7.6 0 0 1 3.506-2.048 8.468 8.468 0 0 1 1.34-7.74c1.574-3.012 5.67-5.276 9.588-6.674a12.112 12.112 0 0 1 9.374 0.63z m85.188 370.866a35.548 35.548 0 0 0-14.414 9.018 38.372 38.372 0 0 0-9 14.554c-0.728 1.792-3.012 1.792-3.74 0a36.372 36.372 0 0 0-23.434-23.552c-1.792-0.494-1.792-2.896 0-3.486 5.532-1.93 10.456-4.924 14.67-9.02a38.452 38.452 0 0 0 8.764-14.414c0.728-2.048 3.012-2.048 3.74 0a36.3 36.3 0 0 0 9 14.414c3.978 4.076 8.9 7.09 14.414 9.02 1.812 0.59 1.812 2.992 0 3.486v-0.02z" fill="#FFFFFF" /></svg>