<?xml version="1.0" standalone="no"?><!DOCTYPE svg PUBLIC "-//W3C//DTD SVG 1.1//EN" "http://www.w3.org/Graphics/SVG/1.1/DTD/svg11.dtd"><svg class="icon" width="200px" height="200.00px" viewBox="0 0 1024 1024" version="1.1" xmlns="http://www.w3.org/2000/svg"><path d="M272.168 668.948l1.34 210.452 181.03 105.216-1.34-210.492-181.03-105.176z" fill="#D6D4D2" /><path d="M754.156 811.638l-299.6 172.978-1.338-210.472 300.82-173.686 0.12 211.18z" fill="#E9E8E6" /><path d="M272.168 668.948l181.03 105.178 300.82-173.668-182.212-104.526-299.64 173.016z" fill="#FFD651" /><path d="M271.124 241.408l1.34 472.38 181.03 105.196-1.34-472.38-181.03-105.196z" fill="#EFC348" /><path d="M452.156 346.604l1.34 472.38 300.72-173.608-1.34-472.38-300.72 173.608z" fill="#FFD651" /><path d="M752.798 172.9l-300.702 173.686-180.972-105.16 300.7-173.684L752.8 172.898z" fill="#6D797A" /><path d="M571.708 63.114l0.098 33.082 160.59 93.322-0.08-33.082-160.608-93.322z" fill="#D6D4D2" /><path d="M291.564 224.866l0.1 33.064 280.142-161.752-0.1-33.064-280.14 161.752z m160.454 117.072l0.098 33.08 321.3-185.5-0.1-33.082-321.3 185.5z" fill="#C4C2C0" /><path d="M552.9 316.81l220.514-127.292-0.098-33.082-220.416 127.272v33.102z" fill="#B2B0AF" /><path d="M670.976 248.654l102.44-59.136-0.1-33.082-102.34 59.096v33.122z" fill="#C4C2C0" /><path d="M250.584 224.886l0.1 33.084 201.432 117.05-0.1-33.082-201.432-117.052z" fill="#D6D4D2" /><path d="M295.168 283.806l156.948 91.214-0.1-33.082-156.848-91.156v33.024z" fill="#C4C2C0" /><path d="M379.136 332.604l72.98 42.416-0.1-33.082-72.88-42.34v33.006z" fill="#B2B0AF" /><path d="M773.316 156.436l-321.3 185.5-201.432-117.05 321.3-185.5 201.432 117.05z m-321.16 161.752l280.16-161.752-160.61-93.322-280.14 161.752 160.588 93.322z" fill="#E9E8E6" /><path d="M464.424 854.706l-10.772-6.244-0.158-53.82 10.772 6.264 0.158 53.8z" fill="#00649B" /><path d="M464.266 800.886l-10.772-6.242 300.78-173.648 10.772 6.264-300.78 173.626z" fill="#0074D1" /><path d="M765.046 627.26l0.138 53.8-300.76 173.646-0.16-53.8 300.78-173.646z" fill="#006CB5" /><path d="M511.804 814l-3.132-1.81 2.048-6.46 3.132 1.812-2.048 6.46zM523.914 796.396l3.13 1.812c0.376 0.216 0.572 0.65 0.572 1.3 0 0.984-0.394 1.988-1.24 3.052a13.114 13.114 0 0 1-3.82 3.112c-1.454 0.86-3.036 1.48-4.688 1.83a9 9 0 0 1-4.016 0.04l-3.132-1.812a9.02 9.02 0 0 0 4.018-0.04 15.51 15.51 0 0 0 4.686-1.83 13.116 13.116 0 0 0 3.82-3.112c0.746-0.848 1.182-1.924 1.24-3.052 0-0.65-0.196-1.084-0.59-1.3h0.02z m-5.02-3.584l-3.114-1.812c0.198 0.12 0.494 0.198 0.828 0.16a18.94 18.94 0 0 0 4.312-0.986c2.01-0.61 3.664-1.024 4.944-1.2a4.528 4.528 0 0 1 3.012 0.51l3.132 1.812a4.53 4.53 0 0 0-3.014-0.512c-1.682 0.272-3.34 0.672-4.962 1.2a18.94 18.94 0 0 1-4.292 0.986 1.498 1.498 0 0 1-0.848-0.158z m4.448-13.312l-3.13-1.812c1.694-0.984 3.348-1.712 4.922-2.166a10.12 10.12 0 0 1 4.214-0.452l3.152 1.83a10.122 10.122 0 0 0-4.234 0.454c-1.596 0.452-3.25 1.18-4.924 2.146z" fill="#FFFFFF" /><path d="M514.028 799.626l-3.13-1.812a4.202 4.202 0 0 1-0.374-0.256c-0.906-0.69-1.38-2.028-1.38-4.056 0-1.754 0.394-3.564 1.22-5.474a19.496 19.496 0 0 1 3.744-5.554c1.654-1.812 3.7-3.388 6.104-4.786l3.15 1.812c-2.44 1.38-4.47 2.974-6.124 4.786a19.496 19.496 0 0 0-3.74 5.552 13.688 13.688 0 0 0-1.242 5.476c0 2.028 0.492 3.386 1.38 4.076 0.126 0.086 0.256 0.164 0.392 0.236z" fill="#FFFFFF" /><path d="M523.342 779.5a22.118 22.118 0 0 1 4.924-2.166 10.12 10.12 0 0 1 4.214-0.434l-1.87 6.42a12.406 12.406 0 0 0-7.286 1.812 12.25 12.25 0 0 0-3.78 3.152 5.454 5.454 0 0 0-1.222 3.19c0 1.042 0.472 1.554 1.418 1.516a18.942 18.942 0 0 0 4.292-0.986c2.028-0.63 3.662-1.042 4.962-1.22 1.26-0.196 2.364 0.06 3.29 0.69 0.904 0.668 1.378 2.008 1.378 4.016 0 1.714-0.414 3.544-1.24 5.456a19.87 19.87 0 0 1-3.762 5.552c-1.674 1.812-3.74 3.426-6.124 4.806-2.108 1.2-4.096 2.028-6.046 2.5-1.95 0.472-3.506 0.552-4.686 0.198l2.048-6.46c1.324 0.29 2.698 0.276 4.016-0.04a15.516 15.516 0 0 0 4.688-1.83 13.12 13.12 0 0 0 3.82-3.112c0.744-0.85 1.18-1.924 1.24-3.052 0-0.748-0.256-1.182-0.748-1.38-0.492-0.196-1.104-0.216-1.89-0.058-1.044 0.226-2.076 0.502-3.092 0.828-1.606 0.53-3.254 0.932-4.924 1.2a4.254 4.254 0 0 1-3.308-0.708c-0.906-0.69-1.38-2.048-1.38-4.076-0.018-1.754 0.396-3.566 1.222-5.476a19.494 19.494 0 0 1 3.742-5.552c1.654-1.812 3.682-3.388 6.104-4.786z" fill="#C4C2C0" /><path d="M555.914 791.512l-3.112-1.83-0.04-12.406 3.112 1.83 0.04 12.406z m-0.06-18.332l-3.11-1.812-0.04-11.914 3.132 1.812 0.02 11.914z" fill="#FFFFFF" /><path d="M555.836 761.266l-3.132-1.812 6.104-3.526 3.112 1.812-6.084 3.526z m-11.934 18.826l-3.112-1.812 11.954-6.892 3.13 1.79-11.972 6.914z m-6.124-8.41l-3.132-1.812 6.104-3.524 3.112 1.832-6.084 3.504z m0.078 30.248l-3.112-1.812-0.098-30.248 3.132 1.812 0.078 30.248z" fill="#FFFFFF" /><path d="M561.92 757.76l0.1 30.228-6.106 3.524-0.04-12.406-11.952 6.892 0.04 12.406-6.106 3.526-0.08-30.248 6.106-3.504 0.02 11.912 11.952-6.892-0.02-11.932 6.086-3.506z" fill="#C4C2C0" /><path d="M575.094 772.274l-3.13-1.812c0.512 0.294 1.084 0.468 1.672 0.512a7.424 7.424 0 0 0 4.216-1.2 15.26 15.26 0 0 0 4.214-3.684 18.512 18.512 0 0 0 2.954-5.12l3.11 1.812a18.512 18.512 0 0 1-2.954 5.12 15.264 15.264 0 0 1-4.214 3.682 7.424 7.424 0 0 1-4.194 1.18 3.94 3.94 0 0 1-1.674-0.49z" fill="#FFFFFF" /><path d="M583.68 749.726l3.15 1.812c0.508 0.306 0.94 0.724 1.26 1.22 0.794 1.316 1.178 2.838 1.104 4.372a15.754 15.754 0 0 1-1.064 5.652l-3.13-1.812c0.698-1.802 1.058-3.72 1.062-5.652a7.758 7.758 0 0 0-1.082-4.372 3.94 3.94 0 0 0-1.28-1.22h-0.02z" fill="#FFFFFF" /><path d="M570.368 778.91l-3.132-1.832a6.302 6.302 0 0 1-1.91-1.752 11.322 11.322 0 0 1-1.89-6.932c0-2.954 0.592-5.986 1.832-9.08 1.22-3.09 2.954-5.946 5.14-8.584 2.166-2.6 4.646-4.726 7.364-6.282a13.962 13.962 0 0 1 7.384-2.244 6.972 6.972 0 0 1 3.23 0.904l3.132 1.812a6.972 6.972 0 0 0-3.23-0.886 13.962 13.962 0 0 0-7.384 2.226c-2.72 1.574-5.18 3.682-7.366 6.3a31.19 31.19 0 0 0-5.14 8.568 24.122 24.122 0 0 0-1.85 9.078c0 2.954 0.65 5.316 1.89 6.95 0.514 0.714 1.172 1.31 1.93 1.754z" fill="#FFFFFF" /><path d="M593.448 746.674a11.126 11.126 0 0 1 1.91 6.892c0 2.974-0.592 6.026-1.872 9.118a31.6 31.6 0 0 1-5.12 8.566c-2.166 2.62-4.646 4.726-7.384 6.3a13.824 13.824 0 0 1-7.364 2.226 6.3 6.3 0 0 1-5.18-2.62 11.324 11.324 0 0 1-1.89-6.95c0-2.954 0.61-5.986 1.85-9.06a31.41 31.41 0 0 1 5.12-8.604c2.206-2.6 4.668-4.706 7.386-6.282a13.962 13.962 0 0 1 7.384-2.226c2.04 0.022 3.948 1 5.16 2.64z m-5.318 16.108c0.7-1.804 1.06-3.72 1.064-5.652a7.76 7.76 0 0 0-1.102-4.372 3.78 3.78 0 0 0-2.954-1.732 7.444 7.444 0 0 0-4.214 1.2 15.24 15.24 0 0 0-4.216 3.664 18.51 18.51 0 0 0-2.934 5.12 15.716 15.716 0 0 0-1.062 5.632c0 1.89 0.394 3.346 1.102 4.41 0.652 1.016 1.75 1.66 2.954 1.734 1.492 0.038 2.96-0.374 4.214-1.182a15.26 15.26 0 0 0 4.214-3.682 18.338 18.338 0 0 0 2.934-5.14z" fill="#C4C2C0" /><path d="M610.994 745.63l-3.112-1.812a12.092 12.092 0 0 0 4.154-3.74l3.132 1.81a12.092 12.092 0 0 1-4.174 3.74z m1.34-13.214l3.11 1.832c0.768 0.432 1.14 1.418 1.14 2.934a8.388 8.388 0 0 1-1.416 4.706l-3.132-1.832a8.388 8.388 0 0 0 1.42-4.706c0-1.496-0.376-2.48-1.124-2.934zM606.03 748.504l-3.11-1.83 4.96-2.856 3.114 1.812-4.964 2.874z m11.108-22.646l3.13 1.812a5.04 5.04 0 0 0-2.894-0.59 14.02 14.02 0 0 0-6.086 2.166l-3.11-1.812a14.04 14.04 0 0 1 6.064-2.166 5.04 5.04 0 0 1 2.896 0.59z" fill="#FFFFFF" /><path d="M599.906 735.822l-3.13-1.81 11.4-6.58 3.112 1.814-11.38 6.576zM599.986 766.07l-3.132-1.832-0.08-30.226 3.132 1.81 0.08 30.248z" fill="#FFFFFF" /><path d="M621.352 728.596c0.924 1.102 1.398 2.756 1.398 5.02a16.834 16.834 0 0 1-1.38 6.618 21.068 21.068 0 0 1-3.938 6.104 26 26 0 0 1-6.084 4.826l-5.298 3.052 0.02 8.33-6.084 3.524-0.08-30.248 11.382-6.576a14.04 14.04 0 0 1 6.086-2.166c1.712-0.1 3.032 0.394 3.978 1.516z m-6.184 13.292a8.388 8.388 0 0 0 1.418-4.726c0-1.674-0.472-2.738-1.438-3.072-0.946-0.354-2.362 0-4.174 1.044l-4.962 2.874 0.02 10.496 4.96-2.874a12.092 12.092 0 0 0 4.176-3.742z" fill="#C4C2C0" /><path d="M638.148 729.954l-3.13-1.812a12.248 12.248 0 0 0 4.194-3.76l3.112 1.812a12.268 12.268 0 0 1-4.176 3.76z" fill="#FFFFFF" /><path d="M639.468 716.74l3.132 1.812c0.748 0.434 1.12 1.44 1.14 2.954 0 1.668-0.492 3.3-1.416 4.688l-3.112-1.812c0.92-1.396 1.408-3.034 1.4-4.706 0-1.498-0.396-2.502-1.144-2.954v0.02z m-6.28 16.09l-3.132-1.812 4.96-2.876 3.132 1.812-4.96 2.876z m11.124-22.646l3.112 1.812a5.08 5.08 0 0 0-2.914-0.592 14.04 14.04 0 0 0-6.066 2.166l-3.13-1.812a14.04 14.04 0 0 1 6.084-2.166 5.08 5.08 0 0 1 2.914 0.592z" fill="#FFFFFF" /><path d="M627.042 720.148l-3.11-1.812 11.38-6.578 3.132 1.812-11.4 6.578zM627.12 750.396l-3.11-1.832-0.08-30.228 3.112 1.812 0.08 30.248z" fill="#FFFFFF" /><path d="M648.508 712.9c0.924 1.124 1.378 2.778 1.378 5.042a16.776 16.776 0 0 1-1.34 6.598 21.42 21.42 0 0 1-3.978 6.104 25.858 25.858 0 0 1-6.064 4.844l-5.318 3.052 0.04 8.33-6.104 3.526-0.08-30.248 11.402-6.578a14.04 14.04 0 0 1 6.066-2.166c1.732-0.1 3.052 0.394 3.998 1.496z m-6.184 13.294c0.924-1.39 1.416-3.02 1.418-4.688 0-1.694-0.492-2.756-1.438-3.092-0.964-0.354-2.364 0-4.194 1.044l-4.962 2.876 0.04 10.496 4.96-2.876a12.108 12.108 0 0 0 4.176-3.76z" fill="#C4C2C0" /><path d="M654.296 734.72l-3.13-1.832-0.08-30.246 3.132 1.83 0.08 30.248zM654.218 704.472l-3.132-1.83 6.106-3.506 3.11 1.812-6.084 3.524z" fill="#FFFFFF" /><path d="M660.302 700.948l0.08 30.248-6.086 3.504-0.08-30.228 6.086-3.524z" fill="#C4C2C0" /><path d="M684.7 705.24l-3.11-1.812-0.06-18.352 3.132 1.812 0.04 18.352z m-0.038-18.372l-3.13-1.792 6.024-3.486 3.112 1.832-6.006 3.446z m1.102 29.676l-3.13-1.832-13.194-10.772 3.15 1.812 13.174 10.792z m-19.24-19.2l-3.11-1.812 5.04-2.914 3.132 1.812-5.06 2.914z" fill="#FFFFFF" /><path d="M666.624 727.592l-3.15-1.812-0.06-30.248 3.112 1.812 0.098 30.248z" fill="#FFFFFF" /><path d="M690.668 683.42l0.1 30.23-5.004 2.894-13.192-10.792 0.06 18.374-6.008 3.466-0.1-30.248 5.062-2.914 13.116 10.83-0.04-18.372 6.006-3.466z" fill="#C4C2C0" /><path d="M714.772 693.032l-3.112-1.812-0.04-8.86 3.132 1.83 0.02 8.84z" fill="#FFFFFF" /><path d="M714.752 684.19l-3.132-1.812 5.574-3.21 3.13 1.812-5.572 3.21z m-1.142-8.96l3.112 1.812 0.156 0.098-3.11-1.812-0.16-0.1z m-9.806 22.646l-3.112-1.832c0.554 0.314 1.176 0.49 1.812 0.512a8.014 8.014 0 0 0 4.41-1.3 17.31 17.31 0 0 0 4.726-4.036l3.152 1.812a17.63 17.63 0 0 1-4.746 4.036c-1.31 0.862-2.844 1.32-4.412 1.32a3.976 3.976 0 0 1-1.812-0.512h-0.02z m13.312-29.322l3.11 1.832a6.814 6.814 0 0 0-4.194-0.788 15.914 15.914 0 0 0-6.3 2.284l-3.112-1.812c1.914-1.2 4.06-1.98 6.3-2.284a6.814 6.814 0 0 1 4.196 0.788v-0.02z" fill="#FFFFFF" /><path d="M699.116 704.59l-3.13-1.812a6.478 6.478 0 0 1-1.91-1.732 11.382 11.382 0 0 1-1.892-6.99c0-2.994 0.592-6.026 1.832-9.12a31.152 31.152 0 0 1 5.16-8.584c2.204-2.58 4.686-4.706 7.444-6.3l3.13 1.83c-2.756 1.576-5.238 3.7-7.444 6.3a31.194 31.194 0 0 0-5.16 8.568 24.18 24.18 0 0 0-1.85 9.116c0 3.014 0.65 5.358 1.89 6.992 0.552 0.728 1.182 1.32 1.93 1.732z" fill="#FFFFFF" /><path d="M709.75 671.88a15.91 15.91 0 0 1 6.282-2.282c1.87-0.198 3.466 0.196 4.746 1.14l-3.9 6.4c-1.89-1.18-4.134-1.002-6.812 0.534a17.742 17.742 0 0 0-7.524 8.96 15.95 15.95 0 0 0-1.062 5.69c0 1.872 0.394 3.328 1.102 4.392 0.686 1.02 1.824 1.646 3.052 1.674 1.568 0 3.102-0.458 4.412-1.32a17.256 17.256 0 0 0 4.726-4.036l-0.02-8.842 5.574-3.21 0.02 12.268a34.342 34.342 0 0 1-10.636 9.984 14.02 14.02 0 0 1-7.364 2.244 6.38 6.38 0 0 1-5.16-2.62 11.382 11.382 0 0 1-1.89-6.988c0-2.994 0.61-6.026 1.852-9.12a31.34 31.34 0 0 1 5.16-8.564c2.204-2.6 4.686-4.726 7.442-6.302z" fill="#C4C2C0" /><path d="M485.73 428.9l93.854-54.176 0.296 107.816-93.834 54.174-0.316-107.816z m87.18 49.662l-0.278-91.844-79.93 46.16 0.256 91.824 79.95-46.14z" fill="#434240" /><path d="M564.302 391.542l8.33-4.824 0.276 91.844-8.388-4.844-0.218-82.176z" fill="#D6D4D2" /><path d="M564.52 473.72l8.388 4.842-79.95 46.14-0.02-9.65 71.58-41.334z" fill="#FFFFFF" /><path d="M564.302 391.542l0.218 82.176-71.582 41.314-0.236-82.156 71.6-41.334z" fill="#3F9AE0" /><path d="M514.6 471.394l93.892-54.548 0.04-11.282-93.912 54.546-0.02 11.284z" fill="#DD4A4A" /><path d="M514.62 460.13l93.912-54.566-29.144-31.528-93.894 54.548 29.126 31.546z" fill="#F25A5A" /><path d="M514.62 460.13l93.912-54.566-19.89-21.524-93.892 54.566 19.87 21.524z" fill="#DD4A4A" /><path d="M514.62 460.13l93.912-54.566-10.634-11.5-93.894 54.566 10.616 11.5z" fill="#F25A5A" /><path d="M485.494 428.604l-0.08 25.954 29.186 16.836 0.02-11.264-29.126-31.526z" fill="#CC4848" /><path d="M635.864 342.212l93.854-54.172 0.316 107.814-93.854 54.174-0.316-107.816z m87.18 49.664l-0.258-91.844-79.95 46.16 0.276 91.824 79.93-46.14z" fill="#434240" /><path d="M714.436 304.836l8.35-4.804 0.256 91.844-8.368-4.844-0.238-82.196z" fill="#D6D4D2" /><path d="M714.674 387.032l8.368 4.844-79.95 46.14v-9.65l71.58-41.334z" fill="#FFFFFF" /><path d="M714.438 304.836l0.236 82.196-71.602 41.334-0.216-82.176 71.58-41.354z" fill="#3F9AE0" /><path d="M664.734 384.708l93.892-54.546 0.04-11.284-93.894 54.548-0.04 11.282z" fill="#DD4A4A" /><path d="M664.772 373.444l93.894-54.566-29.144-31.528-93.894 54.548 29.144 31.546z" fill="#F25A5A" /><path d="M664.772 373.444l93.894-54.566-19.89-21.524-93.892 54.568 19.888 21.522z" fill="#DD4A4A" /><path d="M664.772 373.444l93.894-54.566-10.634-11.5-93.874 54.566 10.614 11.5z" fill="#F25A5A" /><path d="M635.628 341.918l-0.08 25.954 29.186 16.836 0.04-11.264-29.146-31.526z" fill="#CC4848" /><path d="M413.932 531.338l-93.834-54.174 0.296-107.816 93.854 54.174-0.316 107.816z m-86.842-58.152l79.93 46.14 0.256-91.826-79.95-46.16-0.236 91.846z" fill="#434240" /><path d="M335.694 386.166l-8.348-4.824-0.256 91.844 8.368-4.844 0.236-82.176z" fill="#D6D4D2" /><path d="M335.46 468.342l-8.37 4.844 79.93 46.14 0.02-9.65-71.58-41.334z" fill="#FFFFFF" /><path d="M335.694 386.166l-0.236 82.176 71.582 41.334 0.236-82.176-71.58-41.334z" fill="#3F9AE0" /><path d="M385.38 466.02l-93.894-54.55-0.04-11.282 93.912 54.546 0.02 11.284z" fill="#DD4A4A" /><path d="M385.36 454.754l-93.914-54.566 29.144-31.528 93.894 54.548-29.126 31.546z" fill="#F25A5A" /><path d="M385.36 454.754l-93.914-54.566 19.89-21.504 93.892 54.546-19.87 21.524z" fill="#DD4A4A" /><path d="M385.36 454.754l-93.914-54.566 10.634-11.5 93.892 54.566-10.614 11.5z" fill="#F25A5A" /><path d="M414.484 423.228l0.08 25.954-29.186 16.836-0.02-11.264 29.126-31.526z" fill="#CC4848" /><path d="M413.932 719.556l-93.834-54.152 0.296-107.816 93.854 54.174-0.316 107.794z m-86.842-58.13l79.93 46.14 0.256-91.826-79.95-46.16-0.236 91.846z" fill="#434240" /><path d="M335.694 574.404l-8.348-4.824-0.256 91.846 8.368-4.846 0.236-82.176z" fill="#D6D4D2" /><path d="M335.46 656.58l-8.37 4.846 79.93 46.14 0.02-9.65-71.58-41.336z" fill="#FFFFFF" /><path d="M335.694 574.404l-0.236 82.176 71.582 41.316 0.236-82.156-71.58-41.336z" fill="#3F9AE0" /><path d="M385.38 654.258l-93.894-54.548-0.04-11.284 93.912 54.548 0.02 11.284z" fill="#DD4A4A" /><path d="M385.36 642.994l-93.914-54.588 29.144-31.546 93.894 54.566-29.126 31.568z" fill="#F25A5A" /><path d="M385.36 642.994l-93.914-54.588 19.89-21.524 93.892 54.568-19.87 21.544z" fill="#DD4A4A" /><path d="M385.36 642.994l-93.914-54.588 10.634-11.5 93.892 54.568-10.614 11.52z" fill="#F25A5A" /><path d="M414.484 611.446l0.08 25.974-29.186 16.838-0.02-11.264 29.126-31.548z" fill="#CC4848" /><path d="M485.73 611.406l93.854-54.154 0.296 107.796-93.834 54.174-0.316-107.816z m87.18 49.664l-0.278-91.844-79.93 46.16 0.256 91.824 79.95-46.14z" fill="#434240" /><path d="M564.302 574.05l8.33-4.824 0.276 91.844-8.388-4.844-0.218-82.176z" fill="#D6D4D2" /><path d="M564.52 656.226l8.388 4.844-79.95 46.14-0.02-9.65 71.58-41.334z" fill="#FFFFFF" /><path d="M564.302 574.05l0.218 82.176-71.582 41.334-0.236-82.176 71.6-41.334z" fill="#3F9AE0" /><path d="M514.6 653.922l93.892-54.566 0.04-11.284-93.912 54.566-0.02 11.284z" fill="#DD4A4A" /><path d="M514.62 642.64l93.912-54.568-29.144-31.528-93.894 54.548 29.126 31.546z" fill="#F25A5A" /><path d="M514.62 642.64l93.912-54.568-19.89-21.504-93.892 54.546 19.87 21.524z" fill="#DD4A4A" /><path d="M514.62 642.64l93.912-54.568-10.634-11.48-93.894 54.546 10.616 11.5z" fill="#F25A5A" /><path d="M485.494 611.112l-0.08 25.954 29.186 16.856 0.02-11.284-29.126-31.526z" fill="#CC4848" /><path d="M635.864 524.72l93.854-54.152 0.316 107.796-93.854 54.172-0.316-107.814z m87.18 49.666l-0.258-91.846-79.95 46.16 0.276 91.844 79.93-46.16z" fill="#434240" /><path d="M714.436 487.384l8.35-4.844 0.256 91.846-8.368-4.846-0.238-82.156z" fill="#D6D4D2" /><path d="M714.674 569.54l8.368 4.846-79.95 46.158v-9.668l71.58-41.336z" fill="#FFFFFF" /><path d="M714.438 487.384l0.236 82.156-71.602 41.336-0.216-82.176 71.58-41.316z" fill="#3F9AE0" /><path d="M664.734 567.236l93.892-54.566 0.04-11.284-93.894 54.568-0.04 11.282z" fill="#DD4A4A" /><path d="M664.772 555.954l93.894-54.568-29.144-31.528-93.894 54.548 29.144 31.548z" fill="#F25A5A" /><path d="M664.772 555.954l93.894-54.568-19.89-21.504-93.892 54.548 19.888 21.524z" fill="#DD4A4A" /><path d="M664.772 555.954l93.894-54.568-10.634-11.48-93.874 54.546 10.614 11.5z" fill="#F25A5A" /><path d="M635.628 524.406l-0.08 25.974 29.186 16.856 0.04-11.282-29.146-31.548z" fill="#CC4848" /><path d="M349.736 798.188l-0.256 87.986-4.964 2.914-51.474-29.736 0.256-87.964 4.98-2.896 51.458 29.696z" fill="#3F9AE0" /><path d="M297.216 811.382l5.514-3.19-0.158 47.144-5.474 3.19 0.118-47.144z" fill="#D6D4D2" /><path d="M297.098 858.526l5.474-3.19 42.89 24.772-5.494 3.19-42.87-24.772z" fill="#FFFFFF" /><path d="M297.314 777.452l5.494-3.19-0.08 25.994-5.472 3.19 0.06-25.994z" fill="#D6D4D2" /><path d="M297.256 803.446l5.474-3.19 42.89 24.754-5.494 3.19-42.87-24.754z" fill="#FFFFFF" /><path d="M347.136 798.268l5.494-3.192-0.276 96.946-5.514 3.19 0.296-96.944z" fill="#C4C2C0" /><path d="M290.44 765.54l5.476-3.192 56.714 32.728-5.514 3.192-56.674-32.73z" fill="#FFFFFF" /><path d="M290.44 765.54l56.696 32.728-0.276 96.944-56.714-32.728 0.296-96.946z m49.528 117.76l0.138-47.164-42.89-24.754-0.12 47.144 42.872 24.772z m0.158-55.1l0.08-25.994-42.892-24.754-0.06 25.994 42.872 24.754z" fill="#B2B0AF" /><path d="M433.664 846.454l-0.256 87.986-4.962 2.894-51.476-29.716 0.256-87.984 4.982-2.896 51.456 29.716z" fill="#3F9AE0" /><path d="M381.144 859.648l5.514-3.19-0.158 47.144-5.474 3.19 0.12-47.144z" fill="#D6D4D2" /><path d="M381.026 906.792l5.474-3.19 42.89 24.752-5.494 3.19-42.87-24.752z" fill="#FFFFFF" /><path d="M381.244 825.7l5.512-3.172-0.098 25.994-5.474 3.17 0.06-25.994z" fill="#D6D4D2" /><path d="M381.184 851.692l5.474-3.19 42.89 24.774-5.494 3.19-42.87-24.774z" fill="#FFFFFF" /><path d="M431.064 846.532l5.494-3.19-0.274 96.946-5.496 3.19 0.276-96.946z" fill="#C4C2C0" /><path d="M374.35 813.784l5.514-3.17 56.694 32.728-5.514 3.19-56.694-32.748z" fill="#FFFFFF" /><path d="M374.35 813.784l56.714 32.748-0.276 96.946-56.712-32.728 0.274-96.966z m49.546 117.76l0.14-47.142-42.892-24.754-0.118 47.144 42.87 24.752z m0.158-55.08l0.08-25.992-42.89-24.754-0.06 25.994 42.87 24.754z" fill="#B2B0AF" /><path d="M527.556 849.526l5.928-3.426 0.198 65.38-5.968-3.448-0.158-58.506z" fill="#D6D4D2" /><path d="M527.714 908.012l5.948 3.466-56.912 32.846v-6.872l50.964-29.44z" fill="#FFFFFF" /><path d="M527.556 849.526l0.16 58.486-50.966 29.44-0.176-58.486 50.982-29.44z" fill="#3F9AE0" /><path d="M731.55 731.746l5.946-3.426 0.198 65.38-5.986-3.448-0.16-58.506z" fill="#D6D4D2" /><path d="M731.708 790.252l5.966 3.446-56.91 32.848v-6.874l50.944-29.42z" fill="#FFFFFF" /><path d="M731.55 731.746l0.158 58.486-50.964 29.44-0.16-58.486 50.966-29.44z" fill="#3F9AE0" /><path d="M687.44 754.648l-0.258 104.764-25.206 14.65 0.236-104.762 25.226-14.652z" fill="#B6B9BA" /><path d="M662.212 769.3l-0.256 104.762-8.23-4.764 0.256-104.764 8.23 4.766z" fill="#A2A4A5" /><path d="M687.44 754.648l-25.208 14.652-8.27-4.746 25.206-14.652 8.27 4.746z" fill="#A9A7A5" /><path d="M624.324 890.94l-3.544-2.048-0.138-92.32 3.546 2.05 0.136 92.316z" fill="#C4C2C0" /><path d="M657.448 779.106l0.138 92.318-33.28 19.496-0.12-92.3 33.26-19.514z" fill="#E9E8E6" /><path d="M650.476 867.544l-0.196-81.172 4.47-2.54 0.08 85.978-4.354-2.266z" fill="#C4C2C0" /><path d="M650.476 867.544l4.352 2.266-27.806 16.422v-4.922l23.454-13.766z" fill="#FFFFFF" /><path d="M650.3 786.372l0.176 81.172-23.454 13.786-0.098-81.172 23.376-13.786z" fill="#434240" /><path d="M591.064 910.376l-3.544-2.068-0.12-92.3 3.526 2.05 0.14 92.318z" fill="#C4C2C0" /><path d="M587.46 816.088l3.546 1.91 33.24-19.356 33.26-19.614-3.544-1.91-33.26 19.338-33.24 19.632z" fill="#FFFFFF" /><path d="M624.206 798.524l0.14 92.316-33.28 19.516-0.14-92.3 33.28-19.532z" fill="#E9E8E6" /><path d="M617.216 886.96l-0.196-81.15 4.47-2.56 0.098 85.996-4.372-2.284z" fill="#C4C2C0" /><path d="M617.216 886.96l4.372 2.286-27.826 16.422v-4.922l23.454-13.784z" fill="#FFFFFF" /><path d="M617.04 805.81l0.196 81.152-23.474 13.784-0.098-81.152 23.374-13.784z" fill="#434240" /><path d="M594.452 808.96l-0.256 104.762-25.206 14.632 0.256-104.762 25.206-14.632z" fill="#B6B9BA" /><path d="M569.246 823.612l-0.256 104.762-8.252-4.786 0.256-104.762 8.252 4.786z" fill="#A2A4A5" /><path d="M594.452 808.96l-25.206 14.652-8.252-4.766 25.206-14.652 8.252 4.766z" fill="#A9A7A5" /><path d="M520.212 822.468l0.04 9.434 47.91 27.844-0.04-9.432-47.91-27.846z" fill="#DD4A4A" /><path d="M568.124 850.314l0.04 9.432 144.796-83.614-0.04-9.412-144.796 83.594z" fill="#CC4848" /><path d="M520.212 822.468l47.912 27.846 144.796-83.594-47.91-27.844-144.8 83.592z" fill="#F25A5A" /><path d="M489.04 560.168a51.792 51.792 0 0 0-21.112 13.194 56.14 56.14 0 0 0-13.194 21.266c-1.042 2.64-4.39 2.64-5.434 0a53.228 53.228 0 0 0-34.284-34.46c-2.64-0.69-2.64-4.214 0-5.1a57.696 57.696 0 0 0 21.464-13.194c5.612-5.79 10.18-13.174 12.8-21.072 1.064-2.992 4.412-2.992 5.474 0 2.64 7.898 7.208 15.28 13.194 21.072 5.79 5.986 12.998 10.396 21.072 13.194 2.658 0.886 2.658 4.41 0 5.12l0.02-0.02z" fill="#FFFFFF" /></svg>