<?xml version="1.0" standalone="no"?><!DOCTYPE svg PUBLIC "-//W3C//DTD SVG 1.1//EN" "http://www.w3.org/Graphics/SVG/1.1/DTD/svg11.dtd"><svg class="icon" width="200px" height="200.00px" viewBox="0 0 1024 1024" version="1.1" xmlns="http://www.w3.org/2000/svg"><path d="M984.616 628.676l-0.16 43.934-487.382 283.234 0.156-43.914 487.386-283.254z" fill="#7E8A8C" /><path d="M686.04 802.186v43.854l298.42-173.43 0.154-43.934-298.574 173.51z" fill="#6D797A" /><path d="M863.074 699.314v43.834l121.384-70.538 0.158-43.934-121.54 70.638z" fill="#7E8A8C" /><path d="M497.23 911.912l-0.158 43.934L39.384 688.7l0.16-43.914 457.686 267.126z" fill="#8D9799" /><path d="M191.41 733.4v44.032l305.664 178.412 0.158-43.912L191.41 733.4z" fill="#7E8A8C" /><path d="M378.21 842.436v44.032l118.864 69.376 0.156-43.912-119.02-69.496z" fill="#8D9799" /><path d="M984.616 628.678L497.23 911.912 39.542 644.786l487.384-283.254 457.69 267.146z" fill="#A0A8AA" /><path d="M912.206 332.484l-0.158 255.448-468.932 272.522 0.14-255.448 468.95-272.52z" fill="#C4C2C0" /><path d="M443.274 605.008l-0.158 255.448L77.646 649.452l0.16-255.428 365.468 210.984z" fill="#D6D4D2" /><path d="M912.206 332.484L443.254 605.026 77.804 394.006 546.736 121.46l365.47 211.022z" fill="#E9E8E6" /><path d="M677.652 739.446l-13.016-7.562-0.67-285.262 13.036 7.56 0.65 285.264z" fill="#B2B0AF" /><path d="M677 454.184l-13.034-7.562 45.686-26.388 13.016 7.58-45.666 26.37z" fill="#B8B6B5" /><path d="M722.668 427.816l0.67 285.26-45.686 26.39-0.65-285.282 45.666-26.368z" fill="#D6D4D2" /><path d="M838.44 367.104l-0.158 26.19L442.23 623.48l0.158-26.21L838.44 367.104z" fill="#B2B0AF" /><path d="M442.388 597.268l-0.158 26.19L39.384 390.892l0.16-26.19 402.844 232.566z" fill="#C4C2C0" /><path d="M838.44 367.104L442.388 597.268 39.542 364.702 435.594 134.5 838.44 367.104z" fill="#E9E8E6" /><path d="M108.446 485.376l14.886 8.586-0.294 102.046-14.928 8.586 0.336-119.218z" fill="#C4C2C0" /><path d="M123.038 596.008l122.682 70.892-0.04 17.192-137.57-79.46v-0.04l14.928-8.584z" fill="#FFFFFF" /><path d="M246.056 564.796l-0.316 102.104-122.682-70.892 0.274-102.026 122.724 70.814z" fill="#3F9AE0" /><path d="M275.18 581.592l14.868 8.606-0.276 102.046-14.926 8.566 0.334-119.218z" fill="#C4C2C0" /><path d="M289.772 692.244l122.684 70.872-0.04 17.212-137.57-79.48v-0.04l14.926-8.564z" fill="#FFFFFF" /><path d="M412.79 661.032l-0.334 102.084c-229.85-132.804 15.22 8.784-122.684-70.872l0.276-102.046 122.742 70.834z" fill="#3F9AE0" /><path d="M618.732 581.376l-15.912 9.176 0.296 109.076 15.952 9.158-0.336-127.41z" fill="#D6D4D2" /><path d="M603.116 699.628l-131.15 75.736 0.08 18.414 147.02-84.954v-0.04l-15.95-9.156z" fill="#FFFFFF" /><path d="M603.116 699.628l-131.13 75.756-0.356-109.134 131.172-75.698 0.314 109.096v-0.02z" fill="#3F9AE0" /><path d="M846.454 641.576l-13.016-7.582-0.67-285.282 13.036 7.58 0.65 285.284z" fill="#B2B0AF" /><path d="M845.784 356.292l-12.996-7.58 45.666-26.368 13.016 7.58-45.686 26.368z" fill="#B8B6B5" /><path d="M891.47 329.924l0.67 285.262-45.686 26.388-0.65-285.28 45.666-26.37z" fill="#D6D4D2" /><path d="M833.044 634.23l-35.348 20.4-74.398 42.99 0.04 15.812 88.064-50.884 35.368-20.44-13.726-7.878z" fill="#E9E8E6" /><path d="M833.024 634.23c-1.99 1.162-116.874 67.504-109.746 63.408l-0.274-238.158 109.784-63.35 0.236 238.1z" fill="#3F9AE0" /><path d="M464.068 551.188l457.966-266.14-0.18 39.68-457.942 266.14 0.156-39.68z" fill="#B2B0AF" /><path d="M88.4 334.298L546.34 68.136l375.69 216.892-457.964 266.16L88.4 334.298z" fill="#E9E8E6" /><path d="M163.96 332.998l33.534 19.338 346.86-201.572V111.932L163.96 332.998z" fill="#C4C2C0" /><path d="M544.354 111.932v38.832l268.604 155.058 33.496-19.476-302.1-174.414z" fill="#D6D4D2" /><path d="M812.938 305.82L544.334 150.766 197.514 352.334l268.584 155.08 346.84-201.592z" fill="#6D797A" /><path d="M464.07 551.188l-0.16 39.68L88.224 373.96l0.176-39.66 375.672 216.89z" fill="#D6D4D2" /><path d="M921.364 285.774c9.452 5.456 17.98 14.77 24.142 25.462 6.164 10.674 9.964 22.706 9.926 33.536l-34.186-19.73 0.118-39.268z" fill="#F25A5A" /><path d="M870.596 315.274l51.95-30.188c9.452 5.454 17.98 14.788 24.14 25.46 6.166 10.674 9.966 22.706 9.926 33.558l-51.948 30.188c0.04-10.85-3.76-22.882-9.944-33.556-6.164-10.674-14.67-20.008-24.124-25.462z" fill="#DD4A4A" /><path d="M870.596 315.274c9.454 5.454 17.96 14.788 24.124 25.462 6.184 10.674 9.984 22.706 9.944 33.556l-34.186-19.752 0.12-39.266z m-50.766 29.5c9.452 5.474 17.96 14.788 24.124 25.46 6.182 10.674 9.964 22.706 9.944 33.556l-34.186-19.73 0.118-39.288z m-50.786 29.518c9.452 5.454 17.98 14.768 24.142 25.46 6.184 10.676 9.964 22.688 9.946 33.538l-34.186-19.732 0.098-39.266z" fill="#F25A5A" /><path d="M819.83 344.772l51.948-30.188c9.452 5.456 17.96 14.79 24.124 25.462 6.182 10.674 9.984 22.706 9.944 33.556l-51.948 30.188c0.02-10.83-3.76-22.88-9.944-33.554-6.164-10.674-14.692-20.008-24.124-25.464z" fill="#D6D4D2" /><path d="M615.464 463.36c9.452 5.474 17.98 14.808 24.142 25.48 6.164 10.674 9.964 22.688 9.924 33.538l-34.184-19.732 0.118-39.286z" fill="#F25A5A" /><path d="M564.696 492.9l51.948-30.21c9.454 5.456 17.98 14.77 24.144 25.462 6.164 10.674 9.964 22.706 9.924 33.536l-51.948 30.208c0.04-10.85-3.74-22.882-9.924-33.556-6.164-10.672-14.692-20.006-24.144-25.46v0.02z" fill="#DD4A4A" /><path d="M564.696 492.9c9.452 5.434 17.98 14.768 24.144 25.44 6.162 10.674 9.964 22.706 9.924 33.556l-34.186-19.75 0.12-39.248z m-50.766 29.478c9.452 5.454 17.96 14.788 24.122 25.462 6.184 10.674 9.984 22.706 9.946 33.554l-34.186-19.73 0.118-39.286z m253.834-147.516c9.452 5.456 17.978 14.79 24.14 25.462 6.186 10.674 9.966 22.706 9.948 33.556l-34.186-19.75 0.098-39.268z m-50.766 29.5c9.452 5.454 17.978 14.788 24.14 25.462 6.166 10.674 9.966 22.706 9.946 33.556l-34.186-19.732 0.1-39.286z" fill="#F25A5A" /><path d="M666.23 433.88l51.948-30.208c9.452 5.476 17.98 14.79 24.144 25.482 6.162 10.654 9.964 22.686 9.944 33.536l-51.968 30.188c0.04-10.83-3.74-22.88-9.926-33.536-6.162-10.692-14.69-20.006-24.14-25.46z" fill="#DD4A4A" /><path d="M666.23 433.88c9.452 5.456 17.98 14.77 24.142 25.462 6.164 10.654 9.966 22.686 9.926 33.536l-34.186-19.73 0.12-39.268z" fill="#F25A5A" /><path d="M463.164 551.896l51.948-30.208c9.452 5.476 17.96 14.79 24.122 25.482 6.184 10.654 9.984 22.686 9.946 33.536l-51.95 30.188c0.02-10.83-3.76-22.88-9.944-33.536-6.164-10.692-14.69-20.006-24.122-25.46z" fill="#DD4A4A" /><path d="M463.164 551.896c9.452 5.456 17.96 14.77 24.122 25.462 6.184 10.654 9.964 22.686 9.944 33.536l-34.186-19.73 0.12-39.268z" fill="#F25A5A" /><path d="M615.464 463.36l51.948-30.168c9.452 5.454 17.98 14.768 24.142 25.46 6.164 10.674 9.964 22.688 9.926 33.538l-51.948 30.188c0.04-10.83-3.742-22.862-9.926-33.536-6.164-10.674-14.69-20.008-24.142-25.462v-0.02z m-101.534 59.018l51.948-30.188c9.452 5.454 17.98 14.788 24.142 25.46 6.164 10.674 9.966 22.706 9.926 33.558l-51.948 30.188c0.04-10.85-3.76-22.882-9.946-33.556-6.162-10.674-14.67-20.008-24.122-25.462z" fill="#D6D4D2" /><path d="M207.064 542.306l-65.26 64.552-18.766-10.83 0.118-36.452 41.944-41.51 41.964 24.24z m38.992 22.49l-0.02 8.782-59.668 59.038-30.13-17.428 65.22-64.592 24.598 14.2zM377.62 640.728l-65.26 64.552-22.588-13.036 0.1-30.444 45.764-45.292 41.984 24.22z m35.17 20.304l-0.04 14.788-55.826 55.218-30.15-17.428 65.26-64.59 20.756 12.012zM555.914 617.61L533.74 739.7l-53.07 30.64 22.192-122.11 53.052-30.622z m47.026 18.944l-12.84 70.596-38.124 22.036 22.172-122.092 28.654-16.54 0.138 46zM832.846 458.89l-109.626 190.542-0.12-93.5 83.104-144.48 26.584-15.32 0.06 62.758z m0.1 99.386l-65.478 113.822-44.19 25.522v-16.03l109.608-190.562 0.06 67.248z" fill="#FFFFFF" opacity=".2" /><path d="M769.044 374.292l51.968-30.188c9.452 5.454 17.96 14.768 24.122 25.46 6.184 10.656 9.966 22.688 9.946 33.538l-51.948 30.188c0.02-10.83-3.762-22.862-9.946-33.536-6.164-10.674-14.69-20.008-24.142-25.462z" fill="#DD4A4A" /><path d="M716.998 404.36l51.948-30.186c9.452 5.454 17.978 14.788 24.14 25.46 6.186 10.674 9.966 22.706 9.946 33.558l-51.968 30.168c0.02-10.85-3.78-22.882-9.944-33.556-6.164-10.672-14.69-20.008-24.142-25.462l0.02 0.02z m-190.918-51.276l-0.08 26.78-103.836 60.338 0.06-26.78 103.856-60.34z" fill="#D6D4D2" /><path d="M422.222 413.44l-0.06 26.76-104.526-60.356 0.06-26.76 104.526 60.356z" fill="#E9E8E6" /><path d="M526.08 353.084l-103.858 60.356-104.526-60.356 103.858-60.34 104.526 60.34z" fill="#FFFFFF" /><path d="M448.434 337.8c14.572 8.41 14.848 22.314 0.392 30.722-14.69 8.526-38.694 8.408-53.246 0-14.968-8.646-15.046-22.43-0.394-30.956 14.492-8.41 38.28-8.41 53.248 0.236z" fill="#434240" /><path d="M677.652 266.436l-0.08 26.744-103.836 60.356 0.08-26.78 103.836-60.32z" fill="#D6D4D2" /><path d="M573.814 326.774l-0.08 26.762-104.526-60.356 0.08-26.762 104.526 60.356z" fill="#E9E8E6" /><path d="M677.652 266.436l-103.838 60.34-104.526-60.36 103.836-60.336 104.528 60.356z" fill="#FFFFFF" /><path d="M600.024 251.136c14.554 8.408 14.828 22.312 0.356 30.72-14.672 8.526-38.656 8.408-53.23 0-14.966-8.644-15.044-22.41-0.394-30.936 14.494-8.41 38.282-8.41 53.248 0.216h0.02z" fill="#434240" /></svg>