<?xml version="1.0" standalone="no"?><!DOCTYPE svg PUBLIC "-//W3C//DTD SVG 1.1//EN" "http://www.w3.org/Graphics/SVG/1.1/DTD/svg11.dtd"><svg class="icon" width="200px" height="200.00px" viewBox="0 0 1024 1024" version="1.1" xmlns="http://www.w3.org/2000/svg"><path d="M967.13 667.708l-0.316 53.366-453.494 263.54 0.314-53.364 453.496-263.542z" fill="#D6D4D2" /><path d="M666.78 842.24v53.19l300.034-174.356 0.316-53.366L666.78 842.24z" fill="#C4C2C0" /><path d="M820.972 752.64v53.208l145.84-84.774 0.316-53.366-146.156 84.932z" fill="#B2B0AF" /><path d="M513.636 931.248l-0.316 53.366-456.448-263.52 0.314-53.368 456.45 263.522z" fill="#D6D4D2" /><path d="M207.104 754.274v53.564l306.216 176.776 0.314-53.364-306.53-176.976z" fill="#C4C2C0" /><path d="M334.868 828.04v53.546l178.452 103.03 0.314-53.366-178.766-103.208z" fill="#B2B0AF" /><path d="M967.128 667.706L513.634 931.248 57.186 667.728 510.68 404.182l456.448 263.522z" fill="#E9E8E6" /><path d="M835.978 410.052l-0.748 259.94-323.604 188.06 0.728-259.938 323.624-188.06z" fill="#F25A5A" /><path d="M512.354 598.134l-0.728 259.94-325.75-188.064 0.748-259.938 325.73 188.062z" fill="#DD4A4A" /><path d="M835.978 410.052l-323.624 188.064-325.73-188.064 323.604-188.06 325.75 188.06z" fill="#6D7779" /><path d="M912.108 466q-219.038-8.724-400.798-69.416l1.3 301.568 399.5-232.154z" fill="#DDB040" /><path d="M511.312 396.604q-248.52 69.394-400.8 69.394l402.118 232.174-1.32-301.568z" fill="#CEA03A" /><path d="M912.11 466q-255.332-10.91-400.8-69.416l-1.3-162.738L912.112 466z" fill="#FFD651" /><path d="M510.012 233.846l1.3 162.738q-216.144 68.45-400.8 69.414l399.5-232.152z" fill="#CEA03A" /><path d="M912.108 453.828q-219.038-8.722-400.798-69.414l1.3 301.568 399.5-232.154z" fill="#EFC348" /><path d="M511.312 384.414q-248.52 69.414-400.8 69.414l402.118 232.154-1.32-301.568z" fill="#DDB040" /><path d="M912.11 453.828q-255.332-10.908-400.8-69.414l-1.3-162.738 402.1 232.152z" fill="#FFD651" /><path d="M510.012 221.676l1.3 162.738q-216.144 68.45-400.8 69.414l399.5-232.152z" fill="#CEA03A" /><path d="M912.108 453.81v24.024L512.63 709.988V685.98l399.48-232.172z" fill="#DDB040" /><path d="M912.108 453.81v24.024L512.63 709.988V685.98l399.48-232.172z" fill="#DDB040" /><path d="M912.108 453.81v24.024L512.63 709.988V685.98l399.48-232.172z" fill="#FFD651" /><path d="M655.95 602.702v23.986l256.16-148.874v-24.004l-256.16 148.892z" fill="#DDB040" /><path d="M782.336 529.23v24.026l129.772-75.422v-24.024l-129.772 75.42z" fill="#CEA03A" /><path d="M512.63 685.98v24.006L110.514 477.814v-23.986L512.63 685.98z" fill="#FFD651" /><path d="M230.066 522.87v23.986l282.564 163.13v-24.004l-282.564-163.112z" fill="#EFC348" /><path d="M411.49 627.594v24.004l101.14 58.388v-24.004l-101.14-58.388z" fill="#CEA03A" /><path d="M465.466 705.18l-0.276 94.368-6.38 3.7-99.74-57.56 0.256-94.364 6.4-3.704 99.74 57.56z m-241.76-139.36l99.74 57.62-0.276 94.364-6.38 3.664-99.74-57.56 0.274-94.368 6.38-3.72z" fill="#434240" /><path d="M365.49 742.006l6.38-3.702 0.236-79.616-6.38 3.702-0.236 79.616z" fill="#C4C2C0" /><path d="M452.412 792.2l6.38-3.72-86.922-50.176-6.38 3.702 86.92 50.196z" fill="#FFFFFF" /><path d="M458.812 803.268l6.38-3.7 0.256-94.366-6.38 3.7-0.256 94.366z" fill="#C4C2C0" /><path d="M459.068 708.904l6.38-3.702-99.742-57.6-6.38 3.7 99.74 57.6z" fill="#FFFFFF" /><path d="M458.812 803.268l-99.762-57.58 0.276-94.364 99.74 57.58-0.254 94.364z m-93.322-61.242l86.92 50.176 0.218-79.636-86.902-50.176-0.236 79.636z" fill="#D6D4D2" /><path d="M223.468 660.244l6.38-3.722 0.236-79.616-6.38 3.702-0.236 79.636z" fill="#C4C2C0" /><path d="M310.39 710.42l6.38-3.702-86.92-50.196-6.38 3.72 86.92 50.178z" fill="#FFFFFF" /><path d="M316.79 721.486l6.38-3.7 0.256-94.366-6.36 3.7-0.276 94.366z" fill="#C4C2C0" /><path d="M317.046 627.12l6.38-3.7-99.74-57.58-6.38 3.7 99.74 57.58z" fill="#FFFFFF" /><path d="M316.79 721.486l-99.74-57.58 0.254-94.366 99.76 57.58-0.274 94.366z m-93.32-61.242l86.92 50.176 0.236-79.616-86.92-50.196-0.238 79.636z" fill="#D6D4D2" /><path d="M598.194 768.276l-47.36 27.352-5.022-2.914-0.198-73.906 47.38-27.352 4.982 2.914 0.218 73.906z m213.64-120.144l-53.288 30.74-5.376-3.072-0.216-79.478 53.268-30.78 5.376 3.112 0.236 79.48z" fill="#434240" /><path d="M601.364 768.296l-6.104-3.546-0.218-76.326 6.106 3.544 0.216 76.328z" fill="#C4C2C0" /><path d="M548.786 798.66l-6.106-3.544 52.58-30.366 6.104 3.546-52.58 30.364z" fill="#FFFFFF" /><path d="M542.66 809.276l-6.104-3.546-0.256-90.466 6.104 3.544 0.256 90.468z" fill="#C4C2C0" /><path d="M542.404 718.808l-6.104-3.544 64.866-37.454 6.106 3.544-64.868 37.454z" fill="#FFFFFF" /><path d="M542.404 718.808l64.868-37.454 0.256 90.466-64.868 37.454-0.256-90.466z m58.96 49.488l-0.198-76.328-52.578 30.366 0.198 76.326 52.578-30.364z" fill="#D6D4D2" /><path d="M811.854 646.99l-6.104-3.544-0.236-76.346 6.104 3.544 0.236 76.346z" fill="#C4C2C0" /><path d="M759.276 677.336l-6.104-3.544 52.578-30.366 6.104 3.546-52.578 30.364z" fill="#FFFFFF" /><path d="M753.152 687.95l-6.104-3.544-0.276-90.466 6.104 3.544 0.276 90.466z" fill="#C4C2C0" /><path d="M752.896 597.504l-6.104-3.544 64.846-37.476 6.124 3.546-64.866 37.474z" fill="#FFFFFF" /><path d="M752.896 597.504l64.866-37.454 0.256 90.446-64.866 37.454-0.256-90.446z m58.96 49.486l-0.218-76.326-52.58 30.346 0.22 76.326 52.576-30.346z" fill="#D6D4D2" /><path d="M797.932 230.34l-0.63 228.982-285.086 165.672 0.65-228.98 285.066-165.674z" fill="#F25A5A" /><path d="M512.866 396.012l-0.65 228.982-286.916-165.672 0.63-228.96 286.936 165.65z" fill="#DD4A4A" /><path d="M797.934 230.34l-285.048 165.674-286.916-165.654 285.046-165.67 286.918 165.652z" fill="#6D7779" /><path d="M912.108 283.706q-219.038-8.722-400.798-69.394l1.3 301.568 399.5-232.174z" fill="#DDB040" /><path d="M511.312 214.312q-248.52 69.394-400.8 69.394L512.632 515.88l-1.32-301.568z" fill="#CEA03A" /><path d="M912.11 283.706q-255.332-10.89-400.8-69.394l-1.3-162.758 402.1 232.152z" fill="#FFD651" /><path d="M510.012 51.554l1.3 162.758q-216.144 68.45-400.8 69.394l399.5-232.152z" fill="#CEA03A" /><path d="M912.108 271.556q-219.038-8.742-400.798-69.414l1.3 301.548 399.5-232.134z" fill="#EFC348" /><path d="M511.312 202.14q-248.52 69.398-400.8 69.398l402.118 232.172-1.32-301.568z" fill="#DDB040" /><path d="M912.11 271.556q-255.332-10.928-400.8-69.414l-1.3-162.758 402.1 232.172z" fill="#FFD651" /><path d="M510.012 39.384l1.3 162.758q-216.144 68.43-400.8 69.394l399.5-232.152z" fill="#CEA03A" /><path d="M912.108 271.538v24.024L512.63 527.676v-23.946l399.48-232.192z" fill="#FFD651" /><path d="M636.416 431.754v24.024l275.692-160.236V271.52l-275.692 160.236z" fill="#DDB040" /><path d="M797.006 338.432v24.024l115.102-66.914V271.52l-115.1 66.914z" fill="#CEA03A" /><path d="M512.63 503.708v23.986L110.514 295.542v-23.986l402.116 232.152z" fill="#FFD651" /><path d="M230.912 341.07v23.986l281.718 162.66v-24.026l-281.718-162.62z" fill="#EFC348" /><path d="M413.204 446.306v24.006l99.426 57.382v-23.964l-99.426-57.424z" fill="#CEA03A" /><path d="M729.462 731.47l-0.334-118.802-102.696 59.312 103.03 59.472v0.02z" fill="#21201F" /><path d="M626.412 671.98l-0.67 0.394 0.356 118.764 103.384-59.668-103.07-59.49z" fill="#434240" /><path d="M559.28 213.898a78.728 78.728 0 0 1-25.244 26.27 44.7 44.7 0 0 1-48.208 0c-45.744-29.028-46.394-99.82-38.498-134.322 2.778-12.052 10.714-20.026 20.066-25.304 18.314-10.398 41.946-10.476 42.536-10.476q53.622-1.576 62.544 35.78c6.36 26.388 7.324 74.122-13.194 108.052z" fill="#C4C2C0" /><path d="M572.712 179.2a115.788 115.788 0 0 1-13.43 34.698 71.954 71.954 0 0 1-6.106 4.332 44.7 44.7 0 0 1-48.226 0c-45.726-28.986-46.394-99.8-38.518-134.34 0.296-1.142 0.59-2.266 0.964-3.348 10.104-5.73 21.86-8.33 30.426-9.512a100.432 100.432 0 0 1 12.11-0.964q53.622-1.576 62.544 35.78c4.37 18.118 6.202 46.396 0.236 73.334v0.02z" fill="#D6D4D2" /><path d="M572.712 179.2a44.662 44.662 0 0 1-32.63-6.242c-33.99-21.584-43.088-66.226-42.26-101.928a100.43 100.43 0 0 1 12.11-0.964q53.622-1.576 62.544 35.78c4.37 18.118 6.202 46.396 0.236 73.334v0.02z" fill="#E9E8E6" /><path d="M432.916 320.414a68.65 68.65 0 0 0-27.964 17.486c-7.936 8.152-13.98 17.724-17.486 28.2-1.4 3.486-5.83 3.486-7.228 0a70.538 70.538 0 0 0-45.45-45.686c-3.484-0.926-3.484-5.594 0-6.754a76.464 76.464 0 0 0 28.436-17.468c7.464-7.68 13.53-17.486 17.014-27.964 1.4-3.976 5.83-3.976 7.228 0 3.504 10.478 9.55 20.284 17.486 27.964 7.68 7.916 17.232 13.746 27.964 17.468 3.486 1.18 3.486 5.828 0 6.754z" fill="#FFFFFF" /></svg>