<?xml version="1.0" standalone="no"?><!DOCTYPE svg PUBLIC "-//W3C//DTD SVG 1.1//EN" "http://www.w3.org/Graphics/SVG/1.1/DTD/svg11.dtd"><svg class="icon" width="200px" height="200.00px" viewBox="0 0 1024 1024" version="1.1" xmlns="http://www.w3.org/2000/svg"><path d="M43.086 654.534l62.996 89.46 254.68 140.584 152.006 34.226 152.182-28.574 250.506-144.58 65.456-91.472-63.448-90.584-263.54-148.716-152.204-32.532-142.848 34.974-253.242 145.92-62.544 91.294z" fill="#E9E8E6" /><path d="M43.086 654.532v48.424l62.996 89.462 254.68 140.584 152.006 34.224 152.182-28.572 250.506-144.58 65.456-91.472v-48.424l-65.456 91.472-250.506 144.58-152.18 28.574-152.008-34.226-254.68-140.602-62.996-89.444z" fill="#C4C2C0" /><path d="M43.086 654.532l62.996 89.464v48.422l-62.996-89.46v-48.426z" fill="#B2B0AF" /><path d="M106.082 743.976v48.442l254.68 140.584v-48.424l-254.68-140.602z" fill="#C4C2C0" /><path d="M360.764 884.58l152.004 34.224v48.442l-152.004-34.244v-48.424z" fill="#B2B0AF" /><path d="M512.768 918.804l152.182-28.574v48.424l-152.182 28.574v-48.424z" fill="#D6D4D2" /><path d="M915.456 745.65v48.422l65.458-91.47v-48.424l-65.458 91.472z" fill="#B2B0AF" /><path d="M67.74 348.632l59.67 84.756 241.31 133.2 144.01 32.432 144.186-27.076 237.352-136.98 61.99-86.646-60.1-85.86-249.7-140.878-144.186-30.818-135.344 33.122-239.952 138.26-59.234 86.488z" fill="#E9E8E6" /><path d="M67.74 348.632v294.676l59.67 84.736 241.31 133.22 144.01 32.412 144.186-27.076 237.352-136.98 61.99-86.646V348.28l-61.99 86.646-237.352 137-144.186 27.076-144.01-32.432-241.31-133.18-59.668-84.756z" fill="#F25A5A" /><path d="M67.74 348.632l59.67 84.756v294.656L67.74 643.308V348.632z" fill="#CC4848" /><path d="M127.41 433.388v294.656l241.31 133.22V566.586l-241.31-133.2z" fill="#DD4A4A" /><path d="M368.72 566.588l144.008 32.432V893.68l-144.01-32.414V566.588z" fill="#F25A5A" /><path d="M512.728 599.02l144.188-27.076V866.6l-144.188 27.076V599.02z m381.54-164.056V729.6l61.99-86.646V348.28l-61.992 86.686z" fill="#DD4A4A" /><path d="M43.086 311.572l62.996 89.462 254.68 140.582 152.006 34.226 152.182-28.574 250.506-144.6 65.456-91.452-63.448-90.584-263.54-148.716-152.204-32.532-142.848 34.974-253.242 145.92-62.544 91.294z" fill="#E9E8E6" /><path d="M383.506 153.128l119.2-29.204 127.742 27.312 241.88 136.468 22.174 31.686 6.144-8.586-28.318-40.428-241.88-136.468-127.744-27.314-119.198 29.184-232.27 133.81L122.82 311.06l6.026 8.546 22.39-32.67 232.27-133.808z" fill="#C4C2C0" /><path d="M894.504 319.39l-13.392 18.708-10.672 14.926-228.55 131.92-127.92 24.024-129.714-29.224-233.294-128.788-8.96-12.7-13.116-18.63 22.37-32.69 232.252-133.808 119.2-29.204 127.742 27.312 241.88 136.468 22.174 31.686z" fill="#FC7E7E" /><path d="M881.114 338.098l-10.674 14.926-8.114 4.686-220.434 127.212-127.922 24.026-129.714-29.204-222.858-123.018-10.436-5.77-8.96-12.7 9.254-13.49 232.252-133.83 119.198-29.184 127.744 27.314 241.88 136.468 8.784 12.564z" fill="#E86D6D" /><path d="M862.326 357.71l-33.12 19.102-187.316 108.112-127.92 24.024-129.714-29.204-189.34-104.526-33.518-18.492 222.11-127.96 119.2-29.184 127.742 27.294 231.876 130.834z" fill="#CC5C5C" /><path d="M829.204 376.832l-33.14 19.12-154.194 88.99-127.9 24.024-129.714-29.22-155.826-86-33.516-18.51 188.594-108.66 119.196-29.186 127.744 27.294 198.756 112.148z" fill="#B75151" /><path d="M796.06 395.954l-21.52 12.424L746 424.862l-40.624 23.434-28.514 16.462-34.974 20.184-8.546 1.576-43.068 8.114-25.994 4.864-33.968 6.38-1.32 0.256-15.026 2.836-60.848-13.706-68.864-15.518-85.07-46.966-10.2-5.612-60.556-33.42 24.46-14.098 28.532-16.444 40.666-23.434 28.554-16.46 32.866-18.906 10.948-2.68 40.054-9.806 57.028-13.98 11.166-2.738 65.38 13.98 62.364 13.334 165.612 93.44z" fill="#81D672" /><path d="M43.086 311.572v48.424l62.996 89.46 254.68 140.586 152.006 34.224 152.182-28.574 250.506-144.6 65.456-91.452V311.2l-65.456 91.49-250.506 144.58-152.18 28.574-152.008-34.224-254.68-140.604-62.996-89.442z" fill="#C4C2C0" /><path d="M43.086 311.572l62.996 89.46v48.426l-62.996-89.482v-48.404z" fill="#B2B0AF" /><path d="M106.082 401.034v48.424l254.68 140.582V541.6l-254.68-140.564z" fill="#C4C2C0" /><path d="M360.764 541.618l152.004 34.224v48.424l-152.004-34.226V541.62z" fill="#B2B0AF" /><path d="M512.768 575.842l152.182-28.574v48.424l-152.182 28.554v-48.404z" fill="#D6D4D2" /><path d="M915.456 402.668v48.444l65.458-91.472V311.2l-65.458 91.47z" fill="#B2B0AF" /><path d="M167.168 552.626l-0.374 129.91 162.166 93.618 0.354-129.892-162.146-93.636z" fill="#FFE2A9" /><path d="M764.14 984.616l-89.108-51.792-0.334-140.68 89.108 51.79 0.334 140.68z" fill="#EFC348" /><path d="M763.806 843.934l-89.108-51.792 201.216-116.164 89.108 51.79-201.216 116.166z" fill="#DBC291" /><path d="M965.02 727.768l0.336 140.682-201.216 116.164-0.334-140.68 201.216-116.166z" fill="#FFD651" /><path d="M763.806 843.934l-89.108-51.792-0.06-21.8 89.108 51.792 0.06 21.8z" fill="#CC5C5C" /><path d="M763.746 822.134l-89.108-51.79 201.216-116.166 89.108 51.792-201.216 116.164z" fill="#FC7E7E" /><path d="M964.962 705.97l0.06 21.8-201.216 116.164-0.06-21.8 201.216-116.164z" fill="#B75151" /><path d="M633.344 486.538l-43.068 8.074-268.188-154.84 28.554-16.464 282.702 163.23z m72.034-38.224l-28.514 16.444-282.388-163.052 40.034-9.788 270.868 156.396z m-176.384 57.818l-15.026 2.836-60.848-13.706-200.232-115.594 28.534-16.464 247.572 142.928zM774.54 408.38l-28.534 16.48-254.464-146.904 11.164-2.756 65.38 13.98 206.454 119.2z" fill="#6FB862" /><path d="M633.206 335.044c-55.888-32.274-146.628-32.354-202.3-0.176l-0.098 0.06-109.232 63.468c-14.258 8.29-25.246 18.056-32.592 28.77l10.18 5.612c6.382-8.94 15.894-17.232 28.22-24.4l108.9-63.27 0.078-0.02 0.216-0.138c52.52-30.404 138.122-30.326 190.86 0.12 12.246 7.088 21.76 15.24 28.236 24.062 6.46 8.802 9.886 18.274 9.946 27.964 0.12 19.318-13.156 37.75-37.376 51.868l-97.93 56.912 33.948-6.38 69.614-40.43 0.314-0.196c27.766-16.206 42.988-38.066 42.988-61.52v-0.314c-0.138-23.67-15.754-45.666-43.972-61.992z" fill="#FFFFFF" /><path d="M562.55 500.52l-209.014-120.714 63.646-36.944 209.014 120.676-63.646 36.98z m-185.954-120.714l185.934 107.342 40.586-23.592-185.914-107.322-40.606 23.572z" fill="#FFFFFF" /><path d="M584.82 401.96c0.04 9.452-6.102 18.904-18.488 26.132l-0.1 0.04-62.818 37.984-13.43 7.82c-24.91 14.452-65.38 14.452-90.428 0-12.504-7.248-18.806-16.74-18.864-26.192-0.06-9.452 6.124-18.964 18.57-26.19l13.43-7.82 62.858-37.946 0.098-0.06c24.872-14.414 65.3-14.394 90.308 0.06 12.526 7.228 18.828 16.68 18.866 26.192v-0.02z" fill="#FFD651" /><path d="M940.072 771.092l-96.434 55.67 96.65 56.162-0.216-111.832z" fill="#21201F" /><path d="M843.64 826.76l-54.746 31.608 0.196 111.812 151.198-87.236-96.65-56.182z" fill="#434240" /><path d="M558.06 726.706a64.42 64.42 0 0 0-26.328 16.462c-7.484 7.68-13.174 16.68-16.464 26.546-1.32 3.288-5.494 3.288-6.812 0a66.42 66.42 0 0 0-42.772-43.008c-3.288-0.868-3.288-5.26 0-6.36 10.082-3.506 19.1-9 26.76-16.464a69.988 69.988 0 0 0 16.012-26.328c1.32-3.742 5.494-3.742 6.812 0 3.29 9.884 9 19.1 16.464 26.328 7.226 7.482 16.226 12.958 26.328 16.462 3.29 1.104 3.29 5.494 0 6.36z" fill="#FFFFFF" /></svg>