<?xml version="1.0" standalone="no"?><!DOCTYPE svg PUBLIC "-//W3C//DTD SVG 1.1//EN" "http://www.w3.org/Graphics/SVG/1.1/DTD/svg11.dtd"><svg class="icon" width="200px" height="200.00px" viewBox="0 0 1024 1024" version="1.1" xmlns="http://www.w3.org/2000/svg"><path d="M696.636 863.508l15.084-8.764 0.08-31.252-15.086 8.764-0.08 31.252z" fill="#B2B0AF" /><path d="M684.386 807.996l15.104-8.764-45.94-26.526-15.086 8.764 45.922 26.526z" fill="#E9E8E6" /><path d="M609.596 605.34l15.084-8.76-14.908-5.062-15.084 8.762 14.908 5.06z" fill="#C4C3C1" /><path d="M638.464 781.47l15.084-8.764-28.868-176.128-15.084 8.764 28.868 176.128z" fill="#888886" /><path d="M728.99 677.81l15.084-8.764-14.808-12.09-15.104 8.762 14.828 12.092z" fill="#C7C6C4" /><path d="M696.714 832.256l15.084-8.764 32.296-154.446-15.104 8.782-32.276 154.428z" fill="#C4C2C0" /><path d="M609.596 605.34l-14.908-5.06 31.35 191.174-0.08 31.25 70.676 40.822 0.08-31.27 32.276-154.426-14.828-12.112-29.776 142.276-45.922-26.524-28.868-176.128z" fill="#D6D4D2" /><path d="M426.2 863.508l-15.084-8.764-0.1-31.252 15.106 8.764 0.08 31.252z" fill="#B2B0AF" /><path d="M438.45 807.996l-15.104-8.764 45.94-26.526 15.086 8.764-45.922 26.526z" fill="#E9E8E6" /><path d="M513.24 605.34l-15.084-8.76 14.908-5.062 15.084 8.762-14.908 5.06z" fill="#C4C3C1" /><path d="M484.372 781.47l-15.084-8.764 28.868-176.128 15.084 8.764-28.868 176.128z" fill="#888886" /><path d="M393.846 677.81l-15.084-8.764 14.808-12.09 15.104 8.762-14.828 12.092z" fill="#C7C6C4" /><path d="M426.12 832.256l-15.102-8.764-32.256-154.446 15.084 8.782 32.276 154.428z" fill="#C4C2C0" /><path d="M513.24 605.34l14.908-5.06-31.35 191.174 0.08 31.25-70.678 40.822-0.08-31.27-32.294-154.426 14.848-12.112 29.776 142.276 45.92-26.524 28.87-176.128z" fill="#D6D4D2" /><path d="M579.052 855.572c0 8.94-9.826 16.186-21.976 16.186-12.328 0-22.154-7.246-22.154-16.186 0-9.06 9.826-16.306 22.154-16.306 12.15 0 21.976 7.228 21.976 16.306z" fill="#F25A5A" /><path d="M691.002 763.924c-32.788 62.956-85.896 94.78-131.15 94.78-45.096 0-98.46-31.824-131.23-94.78h262.38z" fill="#E9E8E6" /><path d="M634.584 984.616l-15.084-8.764-0.1-31.272 15.106 8.784 0.08 31.252z" fill="#B2B0AF" /><path d="M646.814 929.084l-15.084-8.764 45.92-26.526 15.106 8.784-45.942 26.506z" fill="#E9E8E6" /><path d="M721.624 726.45l-15.084-8.784 14.908-5.06 15.084 8.762-14.908 5.08z" fill="#C4C3C1" /><path d="M692.756 902.578l-15.104-8.784 28.888-176.128 15.084 8.784-28.868 176.128z" fill="#B2B0AF" /><path d="M602.23 798.916l-15.104-8.762 14.828-12.11 15.084 8.78-14.808 12.092z" fill="#C7C6C4" /><path d="M634.486 953.364l-15.084-8.784-32.276-154.426 15.104 8.762 32.256 154.448z" fill="#C4C2C0" /><path d="M721.624 726.45l14.908-5.08-31.37 191.192 0.1 31.25-70.678 40.802-0.08-31.25-32.294-154.448 14.828-12.09 29.776 142.256 45.94-26.504 28.87-176.128z" fill="#D6D4D2" /><path d="M481.4 975.99l15.082-8.762 0.1-31.272-15.086 8.782-0.098 31.252z" fill="#B2B0AF" /><path d="M469.17 920.458l15.084-8.764-45.922-26.506-15.104 8.764 45.94 26.506z" fill="#E9E8E6" /><path d="M394.36 717.824l15.082-8.782-14.906-5.06-15.084 8.76 14.906 5.082z" fill="#C4C3C1" /><path d="M423.228 893.952l15.104-8.762-28.89-176.148-15.084 8.782 28.87 176.128z" fill="#B2B0AF" /><path d="M513.772 790.292l15.084-8.764-14.828-12.11-15.084 8.782 14.828 12.092z" fill="#C7C6C4" /><path d="M481.476 944.74l15.104-8.784 32.276-154.428-15.104 8.764-32.276 154.446z" fill="#C4C2C0" /><path d="M394.36 717.824l-14.908-5.08 31.368 191.192-0.098 31.252 70.676 40.8 0.1-31.248 32.254-154.448-14.808-12.092-29.774 142.278-45.942-26.526-28.87-176.128z" fill="#D6D4D2" /><path d="M748.86 678.006v21.82c-0.08 27.746-19.772 55.846-56.242 77.036-73.256 42.574-192.454 42.614-266.34-0.04-37.08-21.406-54.152-49.94-54.054-77.98V677c-0.08 28.08 18.432 56.182 55.512 77.588 73.886 42.654 193.084 42.614 266.34 0.04 36.45-21.19 54.704-48.878 54.784-76.604v-0.02z" fill="#8D9799" /><path d="M693.19 600.32c73.904 42.654 74.28 111.656 0.866 154.31-73.256 42.572-192.434 42.612-266.32-0.04-73.728-42.576-74.042-111.616-0.786-154.192 73.392-42.652 192.512-42.652 266.24-0.078z" fill="#A0A8AA" /><path d="M744.074 171.716l-1.42 499.732c-0.076 27.038-17.86 54.016-53.404 74.674-71.404 41.492-187.568 41.55-259.584-0.04-36.154-20.874-54.192-48.246-54.114-75.618l1.418-499.712c-0.08 27.372 17.96 54.744 54.114 75.62 72.016 41.568 188.18 41.55 259.584 0.038 35.546-20.658 53.328-47.656 53.406-74.674v-0.02z" fill="#D6D4D2" /><path d="M690.668 246.41c-49.112 28.554-119.394 37.474-181.918 26.742V773.08c62.17 10.36 131.762 1.38 180.5-26.958 35.544-20.658 53.326-47.656 53.406-74.674l1.42-499.712c-0.08 27.04-17.864 54.016-53.408 74.674z" fill="#D6D4D2" /><path d="M690.668 246.41c-49.112 28.554-119.394 37.474-181.918 26.742V773.08c62.17 10.36 131.762 1.38 180.5-26.958 35.544-20.658 53.326-47.656 53.406-74.674l1.42-499.712c-0.08 27.04-17.864 54.016-53.408 74.674z" fill="#C4C2C0" /><path d="M695.532 243.436v498.846c31.35-20.106 47.064-45.45 47.124-70.834l1.418-499.712c-0.06 25.76-16.266 51.456-48.522 71.68l-0.02 0.02z" fill="#D6D4D2" /><path d="M743.856 265.176l0.216 26.034c-0.078 27.038-19.298 54.016-54.82 74.674-71.406 41.49-187.57 41.55-259.586-0.04-36.154-20.874-52.774-48.246-52.696-75.62l-0.216-26.032c-0.08 27.372 18.176 54.744 54.33 75.62 72.014 41.568 188.18 41.53 259.584 0.038 35.544-20.658 53.11-47.656 53.168-74.674h0.02z" fill="#A0A8AA" /><path d="M743.856 403.634l0.216 26.032c-0.078 27.02-19.298 54.016-54.82 74.674-71.406 41.492-187.57 41.55-259.586-0.04-36.154-20.874-52.774-48.246-52.696-75.62l-0.216-26.032c-0.08 27.374 18.176 54.746 54.33 75.62 72.014 41.57 188.18 41.53 259.584 0.04 35.544-20.66 53.11-47.656 53.168-74.674h0.02z" fill="#A0A8AA" /><path d="M743.856 542.09l0.216 26.034c-0.078 27.016-19.298 54.016-54.82 74.672-71.406 41.492-187.57 41.552-259.586-0.04-36.154-20.872-52.774-48.264-52.696-75.618l-0.216-26.032c-0.08 27.352 18.176 54.744 54.33 75.618 72.014 41.57 188.18 41.53 259.584 0.04 35.544-20.678 53.11-47.656 53.168-74.674h0.02z" fill="#A0A8AA" /><path d="M743.858 265.176c-0.08 27.04-17.644 54.016-53.19 74.674-49.428 28.712-120.26 37.572-183.1 26.526v26.288c62.486 10.654 132.648 1.714 181.682-26.78 35.546-20.66 54.746-47.656 54.824-74.674l-0.216-26.034z m0 138.458c-0.08 27.018-17.644 54.016-53.19 74.672-49.428 28.712-120.26 37.554-183.1 26.526v26.288c62.486 10.654 132.648 1.714 181.682-26.78 35.546-20.658 54.746-47.656 54.824-74.674l-0.216-26.032z m0 138.456c-0.08 27.02-17.644 54.016-53.19 74.672-49.428 28.712-120.26 37.554-183.1 26.506v26.31c62.486 10.652 132.648 1.712 181.682-26.78 35.546-20.66 54.746-47.658 54.824-74.676l-0.216-26.032z" fill="#8D9799" /><path d="M743.858 265.176c-0.08 25.6-15.872 51.16-47.754 71.346v25.166c31.152-20.046 47.91-45.252 47.97-70.498l-0.216-26.014z m0 138.458c-0.08 25.6-15.872 51.16-47.754 71.344v25.166c31.152-20.046 47.91-45.252 47.97-70.498l-0.216-26.012z m0 138.456c-0.08 25.6-15.872 51.16-47.754 71.344v25.168c31.152-20.048 47.91-45.254 47.97-70.5l-0.216-26.012z" fill="#7E8A8C" /><path d="M689.82 96c72.016 41.59 72.39 108.84 0.848 150.41-71.404 41.49-187.568 41.55-259.584-0.04-71.876-41.492-72.172-108.78-0.788-150.272C501.86 54.528 617.964 54.508 689.82 96z" fill="#E9E8E6" /><path d="M619.008 124.06c32.964 19.044 33.142 49.824 0.394 68.866-32.69 18.982-85.86 19.002-118.844-0.02-32.886-19.004-33.024-49.802-0.354-68.786 32.748-19.04 85.9-19.04 118.804-0.06z" fill="#D6D4D2" /><path d="M623.4 132.668l-0.08 25.048c-0.02 9.334-6.144 18.628-18.372 25.738-24.812 14.434-65.024 14.374-89.916 0-12.544-7.228-18.826-16.74-18.786-26.21l0.06-25.05c-0.02 9.492 6.26 18.984 18.786 26.23 24.91 14.376 65.102 14.416 89.914 0 12.25-7.108 18.354-16.422 18.394-25.756z" fill="#EFC348" /><path d="M605.006 158.424c-19.06 11.088-47.142 13.53-70.46 7.6v25.05c23.298 5.908 51.36 3.446 70.4-7.62 12.23-7.09 18.354-16.404 18.374-25.74l0.08-25.046c-0.04 9.334-6.144 18.648-18.394 25.756z" fill="#DDB040" /><path d="M605.006 158.424c-2.166 1.28-4.528 2.404-6.912 3.446V186.88c2.364-1.044 4.688-2.166 6.854-3.426 12.228-7.09 18.352-16.404 18.372-25.74l0.08-25.046c-0.04 9.334-6.144 18.648-18.394 25.756z" fill="#CEA03A" /><path d="M605.026 158.424c-24.772 14.436-65.004 14.336-89.894 0-24.97-14.336-25.188-37.67-0.296-52.106 24.674-14.336 64.788-14.236 89.796 0.1 24.872 14.336 25.068 37.67 0.394 52.006z" fill="#FFD651" /><path d="M593.624 147.28a4.25 4.25 0 0 1-2.126-0.592L534 113.488a4.294 4.294 0 0 1 4.27-7.426l57.502 33.202a4.292 4.292 0 0 1-2.146 8.014z m-45.41 26.21a4.252 4.252 0 0 1-2.146-0.552l-57.5-33.22a4.294 4.294 0 0 1 4.27-7.426l57.502 33.202a4.294 4.294 0 0 1-2.126 8.014v-0.02zM502.784 199.74a4.26 4.26 0 0 1-2.148-0.592l-57.5-33.2a4.294 4.294 0 0 1 4.274-7.444l57.52 33.22a4.29 4.29 0 0 1-2.166 8.016h0.02z m-45.43 26.21c-0.746 0-1.48-0.198-2.126-0.572L397.706 192.2a4.296 4.296 0 0 1 4.292-7.444l57.502 33.22a4.294 4.294 0 0 1-2.146 7.996v-0.02z m-45.43 26.23c-0.746 0-1.48-0.2-2.126-0.572l-57.522-33.2a4.296 4.296 0 0 1 4.292-7.444l57.502 33.2a4.294 4.294 0 0 1-2.146 8.016z m-45.43 26.23a4.254 4.254 0 0 1-2.128-0.59l-57.5-33.182a4.292 4.292 0 0 1 4.272-7.444l57.502 33.2a4.292 4.292 0 0 1-2.146 8.016z m-29.48 65.692a4.254 4.254 0 0 1-2.244-0.668l-57.502-35.84a4.294 4.294 0 1 1 4.528-7.286l57.502 35.84a4.294 4.294 0 0 1-2.264 7.954h-0.02z m0 52.894a4.24 4.24 0 0 1-2.264-0.65l-57.502-35.84a4.292 4.292 0 1 1 4.53-7.286l57.5 35.84a4.294 4.294 0 0 1-2.264 7.936z m0 52.894c-0.8 0-1.586-0.224-2.264-0.65l-57.502-35.84a4.292 4.292 0 1 1 4.53-7.286l57.5 35.84a4.292 4.292 0 0 1-2.264 7.936z m0 52.894c-0.8 0-1.586-0.224-2.264-0.65l-57.502-35.84a4.294 4.294 0 1 1 4.53-7.286l57.5 35.84a4.292 4.292 0 0 1-2.264 7.936z m0 52.892c-0.8 0.002-1.586-0.224-2.264-0.648l-57.502-35.84a4.294 4.294 0 1 1 4.53-7.288l57.5 35.84a4.294 4.294 0 0 1-2.264 7.936z m0 52.894a4.24 4.24 0 0 1-2.244-0.67l-57.502-35.84a4.292 4.292 0 1 1 4.528-7.286l57.502 35.84a4.294 4.294 0 0 1-2.264 7.936l-0.02 0.02z m0 52.894c-0.8 0-1.586-0.224-2.264-0.65l-57.502-35.84a4.294 4.294 0 1 1 4.53-7.286l57.5 35.84a4.292 4.292 0 0 1-2.264 7.936z m0 52.894c-0.8 0-1.586-0.224-2.264-0.65l-57.502-35.84a4.294 4.294 0 1 1 4.53-7.286l57.5 35.84a4.292 4.292 0 0 1-2.264 7.936z m0 52.892a4.238 4.238 0 0 1-2.244-0.63l-57.502-35.84a4.292 4.292 0 1 1 4.528-7.286l57.502 35.84a4.294 4.294 0 0 1-2.264 7.936l-0.02-0.02z m0 52.894a4.24 4.24 0 0 1-2.264-0.65l-57.502-35.84a4.292 4.292 0 1 1 4.53-7.286l57.5 35.84a4.294 4.294 0 0 1-2.264 7.936z m0 52.894a4.24 4.24 0 0 1-2.264-0.65l-57.502-35.84a4.292 4.292 0 1 1 4.53-7.286l57.5 35.84a4.294 4.294 0 0 1-2.264 7.936z" fill="#C44141" /><path d="M337.034 295.384a4.292 4.292 0 0 1-4.294-4.272l-0.098-39.148c0-1.536 0.808-2.954 2.146-3.722l302.042-175.066a4.194 4.194 0 0 1 4.292 0 4.252 4.252 0 0 1 2.146 3.684l0.1 39.128c0 1.536-0.828 2.954-2.168 3.74l-302.02 175.066a4.234 4.234 0 0 1-2.166 0.59h0.02z m4.194-40.96l0.08 29.224 293.454-170.12-0.06-29.206-293.474 170.102z" fill="#F25A5A" /><path d="M337.034 933.002a4.294 4.294 0 0 1-4.294-4.294V283.432a4.294 4.294 0 1 1 8.586 0v645.276a4.304 4.304 0 0 1-4.292 4.294z m-57.52-670.838a4.294 4.294 0 0 1-4.294-4.274l-0.08-39.128c0-1.536 0.788-2.954 2.128-3.74l302.04-175.066c2.856-1.65 6.426 0.404 6.44 3.7l0.1 39.13c0 1.536-0.81 2.954-2.15 3.722l-302.04 175.064a4.266 4.266 0 0 1-2.146 0.592z m4.212-40.96l0.06 29.222 293.474-170.08-0.08-29.206-293.454 170.064z" fill="#F25A5A" /><path d="M279.512 899.78a4.294 4.294 0 0 1-4.292-4.292V250.23a4.292 4.292 0 1 1 8.586 0v645.258a4.304 4.304 0 0 1-4.294 4.294z" fill="#F25A5A" /><path d="M337.034 295.384a4.234 4.234 0 0 1-2.166-0.59l-57.5-33.2c-2.85-1.656-2.85-5.77 0-7.426l302.04-175.084a4.272 4.272 0 0 1 4.292 0l57.5 33.2c2.85 1.656 2.85 5.77 0 7.426l-302.02 175.064a4.234 4.234 0 0 1-2.166 0.59l0.02 0.02z m-48.956-37.514l48.936 28.26 293.494-170.142-48.954-28.26-293.476 170.142z" fill="#F25A5A" /><path d="M680.802 356.096a70.558 70.558 0 0 0-28.75 17.98c-8.134 8.368-14.376 18.194-17.96 28.986-1.438 3.584-5.986 3.584-7.424 0a72.526 72.526 0 0 0-46.71-46.966c-3.604-0.964-3.604-5.75 0-6.952a78.612 78.612 0 0 0 29.224-17.96c7.68-7.916 13.882-17.978 17.486-28.75 1.438-4.076 5.986-4.076 7.424 0 3.604 10.772 9.826 20.834 17.98 28.752 7.896 8.132 17.722 14.14 28.75 17.96 3.584 1.2 3.584 5.986 0 6.95h-0.02z" fill="#FFFFFF" /></svg>