<?xml version="1.0" standalone="no"?><!DOCTYPE svg PUBLIC "-//W3C//DTD SVG 1.1//EN" "http://www.w3.org/Graphics/SVG/1.1/DTD/svg11.dtd"><svg class="icon" width="200px" height="200.00px" viewBox="0 0 1024 1024" version="1.1" xmlns="http://www.w3.org/2000/svg"><path d="M115.1 698.132l0.06 59.352 390.834 227.132-0.06-59.352L115.104 698.132z" fill="#6DCB60" /><path d="M230.716 824.636l275.298 159.98-0.08-59.354-275.22-159.94v59.314z" fill="#3DB542" /><path d="M381.636 912.344l124.378 72.272-0.06-59.354-124.278-72.21-0.04 59.292z" fill="#6DCB60" /><path d="M505.934 925.264l0.06 59.352 402.904-232.606-0.06-59.352-402.904 232.606z" fill="#3DB542" /><path d="M712.822 865.2l196.076-113.19-0.06-59.352-196.016 113.17v59.374z" fill="#6DCB60" /><path d="M863.114 778.436l45.784-26.426-0.06-59.352-45.724 26.386v59.392z" fill="#3DB542" /><path d="M115.1 698.132l390.836 227.13L908.84 692.66 518.006 465.526 115.1 698.132z" fill="#81D672" /><path d="M817.348 287.232l-0.984 408.91-317.932 184.774 0.984-408.912 317.932-184.772z" fill="#FFD651" /><path d="M499.396 472.004l-0.964 408.91-320.138-184.832 0.984-408.91 320.12 184.832z" fill="#EFC348" /><path d="M817.348 287.232l-317.952 184.772L179.28 287.174 497.21 102.4l320.14 184.832z" fill="#FFD651" /><path d="M835.998 276.618l-1.024 53.386-335.734 195.544 0.256-53.366 336.5-195.564z" fill="#C4C2C0" /><path d="M640.452 390.262v53.052l194.52-113.31 1.026-53.366-195.546 113.624z" fill="#B2B0AF" /><path d="M750.218 326.5v52.892l84.756-49.388 1.024-53.366-85.78 49.86zM499.496 472.18l-0.256 53.366-339.594-195.604 1.024-53.366 338.826 195.604z" fill="#D6D4D2" /><path d="M265.924 337.33v53.838l233.314 134.4 0.256-53.366-233.57-134.872z" fill="#C4C2C0" /><path d="M396.308 412.612v53.662l102.932 59.274 0.256-53.366-103.188-59.57z" fill="#D6D4D2" /><path d="M835.998 276.618L499.496 472.18 160.69 276.56l336.52-195.544L836 276.62z" fill="#E9E8E6" /><path d="M783.222 570.584l-3.486-2.028 36.944-21.326 3.484 2.028-36.94 21.326z" fill="#434240" /><path d="M687.222 626.02l-3.486-2.03-0.176-57.266 3.484 2.01 0.18 57.284z" fill="#383736" /><path d="M687.064 568.734l-3.504-2.01 96.02-55.432 3.484 2.008-96 55.434z m-52.618 87.748l-3.484-2.028 52.774-30.464 3.486 2.028-52.776 30.464z m-132.942 76.76l-3.486-2.026 36.962-21.348 3.486 2.03-36.962 21.346z" fill="#434240" /><path d="M501.918 882.944l-3.486-2.028-0.414-149.7 3.486 2.028 0.414 149.7z" fill="#383736" /><path d="M538.308 654.612l-3.484-2.028 95.98-55.414 3.486 2.028-95.98 55.414z" fill="#434240" /><path d="M538.466 711.878l-3.486-2.01-0.156-57.284 3.484 2.028 0.16 57.266z" fill="#383736" /><path d="M783.064 513.3l0.158 57.284 36.942-21.326 0.414 149.7-318.66 183.986-0.414-149.7 36.962-21.348-0.158-57.284 95.98-55.414 0.16 57.284 52.774-30.464-0.178-57.284 96.02-55.434z" fill="#2D2C2B" /><path d="M813.724 222.11l0.08 41.708-314.328 182.666-0.08-41.708 314.328-182.666z" fill="#DDB040" /><path d="M499.396 404.776l0.08 41.708L183 263.76l-0.098-41.708 316.494 182.726z" fill="#EFC348" /><path d="M813.726 222.11l-314.33 182.664-316.494-182.724 314.328-182.666 316.496 182.726z" fill="#FFD651" /><path d="M240.462 221.972l22.134 12.78 234.674-136.388v-25.64l-256.808 149.248z" fill="#DDB040" /><path d="M497.27 72.724v25.64l236.76 136.684 22.134-12.86-258.894-149.464z" fill="#EFC348" /><path d="M734.03 235.048l-236.76-136.684-234.674 136.368 236.74 136.666 234.694-136.35z" fill="#CEA03A" /><path d="M627.14 701.262c0-11.776-4.174-19.986-10.908-23.788a17.82 17.82 0 0 0-3.96-1.614c4.59 4.41 7.346 11.56 7.346 21.07l0.336 109.194 7.52 4.332-0.334-109.194z" fill="#EFC348" /><path d="M619.954 806.124l-66.404 38.32 0.02 8.666 73.906-42.634-7.522-4.352z" fill="#81D672" /><path d="M619.934 806.144l-31.312 18.078-3.642 2.126-31.448 18.118-0.296-95.056v-5.494c-0.04-21.346 13.508-46.828 31.35-60.16 1.2-0.906 2.46-1.712 3.662-2.54 0.63-0.394 1.24-0.768 1.872-1.102 8.31-4.806 15.95-6.066 22.174-4.274 4.568 4.412 7.286 11.58 7.286 21.11l0.06 9.906v4.214l0.294 95.074z" fill="#E9E8E6" /><path d="M619.64 711.09l-31.352 18.018 0.334 95.114-3.642 2.126-0.236-95.114-31.508 18.176v-4.292l31.408-18.02-0.058-43.322c1.2-0.926 2.46-1.732 3.662-2.56l0.04 43.756 31.35-18.116v4.234z" fill="#434240" /><path d="M777.65 614.4c0-11.776-4.176-19.988-10.91-23.788a17.824 17.824 0 0 0-3.94-1.616c4.57 4.412 7.346 11.56 7.346 21.072l0.336 109.194 7.52 4.332-0.352-109.194z" fill="#EFC348" /><path d="M770.48 719.26l-66.42 38.322 0.04 8.666 73.904-42.634-7.522-4.352z" fill="#81D672" /><path d="M770.44 719.28l-31.308 18.08-3.644 2.126-31.448 18.116-0.276-95.054v-5.494c-0.06-21.346 13.508-46.828 31.35-60.16 1.18-0.906 2.44-1.714 3.642-2.54 0.632-0.394 1.26-0.768 1.892-1.104 8.31-4.804 15.95-6.064 22.154-4.272 4.568 4.41 7.306 11.58 7.306 21.11l0.058 9.904v4.214l0.276 95.076z" fill="#E9E8E6" /><path d="M770.166 624.206l-31.35 18.04 0.334 95.112-3.662 2.128-0.236-95.114-31.508 18.176v-4.294l31.41-18.018-0.04-43.322c1.18-0.926 2.44-1.734 3.642-2.56l0.06 43.756 31.35-18.118v4.214z" fill="#434240" /><path d="M566.488 512.69l10.634-6.106v67.388l-10.634-4.176v-57.106z" fill="#EFC348" /><path d="M566.488 569.796l10.634 4.176-59.588 34.244v-10.3l48.954-28.12z" fill="#FFE2A9" /><path d="M566.488 512.69v57.106l-48.954 28.12v-57.106l48.954-28.12z m59.59-34.246v57.108l-48.956 28.14v-57.108l48.956-28.14z" fill="#FFFFFF" /><path d="M626.078 478.444l10.634-6.104v67.406l-10.634-4.194v-57.108z" fill="#EFC348" /><path d="M626.078 535.552l10.634 4.194-59.59 34.226v-10.28l48.956-28.14z" fill="#FFE2A9" /><path d="M719.892 423.62l10.634-6.104v67.408l-10.634-4.196V423.62z" fill="#EFC348" /><path d="M719.892 480.728l10.634 4.196-59.59 34.224v-10.3l48.956-28.12z" fill="#FFE2A9" /><path d="M719.892 423.62v57.108l-48.956 28.12v-57.106l48.956-28.12z m59.588-34.244v57.108l-48.954 28.14v-57.108l48.954-28.14z" fill="#FFFFFF" /><path d="M779.48 389.376l10.634-6.104v67.406l-10.634-4.194v-57.108z" fill="#EFC348" /><path d="M779.48 446.484l10.634 4.194-59.588 34.246v-10.3l48.954-28.14z" fill="#FFE2A9" /><path d="M540.436 448.808l-22.488-13.056-0.218-111.852 22.47 13.074 0.236 111.834z" fill="#DD4A4A" /><path d="M540.2 336.974l-22.47-13.056 259.82-150.034 22.488 13.056-259.84 150.034z" fill="#F25A5A" /><path d="M799.566 186.96l0.236 111.852-259.366 149.994-0.69-111.85 259.82-149.998z" fill="#CC4848" /><path d="M581.71 351.88l0.08 27.316 14.69-8.468 0.02 6.36-21.464 12.406-0.12-33.694 6.794-3.92z m25.286-14.59l0.1 33.674-6.796 3.94-0.1-33.696 6.796-3.92z m32.452 0.492c0.946 0.906 1.44 2.364 1.458 4.47 0 2.954-0.984 5.79-2.994 8.528-2.008 2.736-4.884 5.218-8.704 7.424l-15.162 8.762-0.1-33.694 14.318-8.27c3.584-2.068 6.32-2.876 8.25-2.382 1.91 0.452 2.856 2.028 2.876 4.726a12.84 12.84 0 0 1-1.024 4.98 17.406 17.406 0 0 1-2.856 4.688c1.674-0.354 2.994-0.118 3.94 0.788v-0.02z m-6.734 11.48a6.3 6.3 0 0 0 1.36-3.9c0-2.794-1.832-3.15-5.416-1.08l-7.918 4.568 0.02 8.33 7.916-4.57a13.232 13.232 0 0 0 4.038-3.348z m-12.012-14.02l0.02 7.936 6.754-3.88a12.094 12.094 0 0 0 3.78-3.21c0.84-1.066 1.296-2.384 1.3-3.74 0-1.32-0.432-2.068-1.3-2.206-0.866-0.158-2.126 0.236-3.82 1.2l-6.734 3.9z m44.7-8.802l6.618 7.05-7.286 4.194-5.672-6.104-0.334 0.176-5.908 3.408 0.04 9.392-6.794 3.92-0.1-33.694 12.682-7.326c2.62-1.496 4.864-2.284 6.774-2.402 1.91-0.12 3.388 0.432 4.432 1.674 1.044 1.22 1.574 3.11 1.574 5.592a18.258 18.258 0 0 1-1.574 7.384 23.12 23.12 0 0 1-4.432 6.736h-0.02z m-2.42-4.904c1.028-1.56 1.574-3.388 1.574-5.258s-0.532-3.012-1.576-3.426c-1.082-0.394-2.638 0-4.686 1.18l-5.514 3.172 0.02 11.756 5.514-3.19a13.508 13.508 0 0 0 4.666-4.234z m29.676-33.714l13.192 26.132-7.108 4.096-2.64-5.71-13.586 7.876-2.56 8.684-6.972 4.018 12.978-41.216 6.696-3.88z m-7.996 25.188l9.314-5.376-4.706-10.2-4.608 15.576z m43.6-22.844l6.596 7.03-7.286 4.214-5.672-6.124-0.334 0.198-5.908 3.406 0.02 9.374-6.774 3.938-0.1-33.694 12.682-7.326a15.95 15.95 0 0 1 6.774-2.42c1.91-0.1 3.388 0.452 4.412 1.692 1.064 1.22 1.576 3.092 1.576 5.592a18.252 18.252 0 0 1-1.556 7.366 23.12 23.12 0 0 1-4.432 6.754z m-2.444-4.922a9.548 9.548 0 0 0 1.576-5.24c0-1.89-0.552-3.032-1.594-3.426-1.084-0.394-2.64 0-4.668 1.182l-5.514 3.17 0.02 11.756 5.514-3.19a13.372 13.372 0 0 0 4.666-4.252z m38.794-38.952l-11.322 28.318 0.02 11.932-6.774 3.92-0.04-12.032-11.4-15.104 7.206-4.156 7.876 10.438 7.78-19.496 6.654-3.82z" fill="#FFFFFF" /><path d="M314.546 514.364l-0.474 157.144-8.86 5.178-91.924-53.07 0.452-157.144 8.9-5.16 91.906 53.052z" fill="#3F9AE0" /><path d="M220.75 537.916l9.808-5.692-0.236 84.204-9.808 5.712 0.236-84.224z" fill="#D6D4D2" /><path d="M220.514 622.12l9.808-5.692 76.582 44.21-9.806 5.71-76.584-44.228z" fill="#FFFFFF" /><path d="M220.928 477.34l9.788-5.71-0.12 46.416-9.806 5.69 0.138-46.394z" fill="#D6D4D2" /><path d="M220.79 523.736l9.806-5.71 76.584 44.228-9.806 5.712-76.584-44.23z" fill="#FFFFFF" /><path d="M309.88 514.5l9.804-5.71-0.492 173.154-9.806 5.692 0.492-173.136z" fill="#D6D4D2" /><path d="M208.62 456.054l9.808-5.71 101.256 58.466-9.806 5.71-101.258-58.466z" fill="#FFFFFF" /><path d="M208.62 456.054l101.258 58.446-0.492 173.136-101.24-58.466 0.474-173.116z m88.478 210.294l0.236-84.204-76.602-44.228-0.218 84.204 76.584 44.228z m0.276-98.402l0.138-46.396-76.604-44.208-0.118 46.394 76.584 44.21z" fill="#B2B0AF" /><path d="M464.424 600.536l-0.454 157.146-8.88 5.178-91.924-53.07 0.452-157.126 8.9-5.18 91.906 53.052z" fill="#3F9AE0" /><path d="M370.628 624.108l9.808-5.71-0.236 84.204-9.808 5.71 0.236-84.204z" fill="#D6D4D2" /><path d="M370.412 708.312l9.788-5.71 76.602 44.228-9.826 5.712-76.564-44.23z" fill="#FFFFFF" /><path d="M370.806 563.516l9.806-5.712-0.136 46.416-9.808 5.71 0.14-46.414z" fill="#D6D4D2" /><path d="M370.668 609.91l9.808-5.69 76.602 44.228-9.806 5.692-76.604-44.23z" fill="#FFFFFF" /><path d="M459.776 600.694l9.788-5.71-0.494 173.134-9.786 5.71 0.492-173.134z" fill="#D6D4D2" /><path d="M358.52 542.228l9.804-5.712 101.24 58.488-9.788 5.69-101.258-58.466z" fill="#FFFFFF" /><path d="M358.52 542.228l101.256 58.466-0.492 173.116-101.26-58.448 0.494-173.134z m88.456 210.314l0.256-84.224-76.604-44.21-0.236 84.204 76.584 44.23z m0.296-98.402l0.118-46.396-76.584-44.228-0.138 46.394 76.604 44.23z" fill="#B2B0AF" /><path d="M364.19 314.21a39.778 39.778 0 0 0-16.208 10.142 43.126 43.126 0 0 0-10.14 16.344c-0.808 2.028-3.368 2.028-4.196 0a40.9 40.9 0 0 0-26.328-26.486c-2.028-0.532-2.028-3.23 0-3.92 6.204-2.164 11.756-5.532 16.482-10.12a43.32 43.32 0 0 0 9.846-16.206c0.828-2.304 3.388-2.304 4.196 0 2.028 6.064 5.532 11.736 10.14 16.206 4.452 4.588 9.984 7.956 16.208 10.12 2.028 0.69 2.028 3.388 0 3.94v-0.02z" fill="#FFFFFF" /></svg>