<?xml version="1.0" standalone="no"?><!DOCTYPE svg PUBLIC "-//W3C//DTD SVG 1.1//EN" "http://www.w3.org/Graphics/SVG/1.1/DTD/svg11.dtd"><svg class="icon" width="200px" height="200.00px" viewBox="0 0 1024 1024" version="1.1" xmlns="http://www.w3.org/2000/svg"><path d="M46.67 688.68l0.12 42.77L482.42 984.616l-0.138-42.83L46.67 688.68z" fill="#6DCB60" /><path d="M312.38 843.066V885.8L46.788 731.45l-0.136-42.77 265.728 154.386z" fill="#3DB542" /><path d="M214.98 786.472v42.732l-168.192-97.754-0.136-42.77 168.328 97.792z" fill="#2C9A2C" /><path d="M482.284 941.804l0.14 42.772 494.904-285.972-0.118-42.772-494.926 285.972z" fill="#6DCB60" /><path d="M855.866 725.898v42.83L482.422 984.576l-0.138-42.772 373.582-215.906z" fill="#3DB542" /><path d="M625.388 858.96v42.83l-142.966 82.786-0.138-42.772 143.104-82.846z" fill="#2C9A2C" /><path d="M46.67 688.64l435.594 253.184 494.946-285.972L541.58 402.688 46.67 688.64z" fill="#81D672" /><path d="M300.74 396.072L740.628 140.446l-1.14 400.956-439.87 255.624 1.122-400.954z" fill="#C4C2C0" /><path d="M300.74 396.072L740.628 140.446l-0.296 89.64-439.886 255.626 0.294-89.64z" fill="#CC4848" /><path d="M125.716 295.01L565.564 39.384l175.044 101.06L300.72 396.054l-175.006-101.04z" fill="#F25A5A" /><path d="M300.74 396.072l-1.12 400.954-175.046-101.04 1.14-400.976 175.026 101.06z" fill="#D6D4D2" /><path d="M300.74 396.072l-0.256 89.62-175.064-101.022 0.296-89.66 175.024 101.06z" fill="#DD4A4A" /><path d="M915.2 395.264l-0.71 247.178-36.352 21.13-151.434 88.004-63.212 36.746-151.432 88.026-37.456 21.74 0.728-247.198L915.2 395.264z" fill="#C4C2C0" /><path d="M475.314 650.89L915.2 395.264l-0.12 44.11L475.198 694.98l0.118-44.09z" fill="#F25A5A" /><path d="M300.308 549.848l439.886-255.626 175.006 101.022-439.886 255.646-175.006-101.04z" fill="#E9E8E6" /><path d="M475.314 650.89l-0.69 247.196-175.006-101.06 0.69-247.178 175.006 101.04z" fill="#D6D4D2" /><path d="M475.314 650.89l-0.12 44.11-350.74-202.516 0.12-44.11 350.74 202.516z" fill="#DD4A4A" /><path d="M565.622 61.026v20.816l119.69 69.1 17.96-10.438-137.65-79.478z" fill="#E9E8E6" /><path d="M163.052 294.952l17.98 10.38L565.62 81.82V61.046L163.052 294.952z" fill="#D6D4D2" /><path d="M337.664 549.808l17.96 10.36L740.214 336.66v-20.796L337.664 549.808z" fill="#C4C2C0" /><path d="M740.234 315.864v20.796l119.65 69.1 17.96-10.436-137.61-79.46z" fill="#D6D4D2" /><path d="M685.292 150.94L565.62 81.82 181.032 305.332l119.69 69.1L685.292 150.94z m174.592 254.82l-119.67-69.1-384.59 223.508 119.67 69.08L859.884 405.76z" fill="#909293" /><path d="M368.68 386.954v5.14l-12.564 7.266v7.286l11.106-6.42v5.12l-11.086 6.42 0.04 10.044-5.554 3.21-0.08-27.59 18.138-10.476z m9.314-5.376l0.08 27.59-5.554 3.21-0.08-27.59 5.554-3.21z m21.622 6.262l5.416 5.77-5.968 3.446-4.646-5.02-0.276 0.156-4.844 2.796 0.02 7.68-5.554 3.21-0.08-27.588 10.4-6.006a13.056 13.056 0 0 1 5.532-1.97c1.576-0.1 2.776 0.374 3.624 1.38 0.866 0.982 1.28 2.54 1.3 4.586a15.02 15.02 0 0 1-1.28 6.046 19.118 19.118 0 0 1-3.644 5.514z m-1.97-4.018a7.72 7.72 0 0 0 1.26-4.292c0-1.556-0.432-2.5-1.3-2.836-0.884-0.314-2.164 0-3.82 0.984l-4.528 2.6 0.04 9.63 4.528-2.62a11.124 11.124 0 0 0 3.82-3.466z m29.4-30.56v5.12l-12.6 7.284v6.006l11.144-6.44 0.02 4.964-11.146 6.44v6.38l13.096-7.542v5.12l-18.59 10.732-0.08-27.59 18.158-10.476z m37.082-14.87c1.102 1.458 1.654 3.546 1.674 6.302a21.96 21.96 0 0 1-1.634 8.212 26.98 26.98 0 0 1-11.56 13.234l-10.91 6.3-0.08-27.608 10.912-6.3a14.476 14.476 0 0 1 6.912-2.266c2.008 0 3.544 0.708 4.686 2.126z m-6.084 17.034a14.178 14.178 0 0 0 2.126-7.482c0-2.62-0.728-4.294-2.166-5.002-1.42-0.73-3.348-0.394-5.73 0.984l-5.08 2.954 0.038 17.112 5.08-2.934a15.79 15.79 0 0 0 5.732-5.632z m30.05-37.414v5.14l-12.624 7.284v5.988l11.166-6.42v4.962l-11.126 6.42v6.4l13.096-7.562v5.12l-18.57 10.732-0.08-27.588 18.138-10.476z m24.418-9.394c0.866 0.984 1.28 2.52 1.28 4.588a15.164 15.164 0 0 1-1.26 6.026 19.106 19.106 0 0 1-3.584 5.554c-1.576 1.712-3.406 3.15-5.554 4.39l-4.824 2.796 0.02 7.62-5.554 3.212-0.08-27.608 10.4-5.988a13.056 13.056 0 0 1 5.532-1.968c1.576-0.1 2.758 0.374 3.624 1.378z m-5.632 12.11a7.602 7.602 0 0 0 1.3-4.272c0-1.576-0.454-2.5-1.32-2.836-0.866-0.334-2.146 0-3.8 0.964l-4.53 2.6 0.02 9.59 4.53-2.6a10.89 10.89 0 0 0 3.8-3.446z m22.666-26.662l10.83 21.404-5.848 3.368-2.126-4.686-11.146 6.44-2.128 7.128-5.71 3.288 10.634-33.772 5.494-3.17z m-6.538 20.656l7.62-4.41-3.84-8.37-3.78 12.78z m35.722-18.746l5.394 5.77-5.966 3.446-4.648-5.022-0.276 0.158-4.842 2.796 0.02 7.7-5.534 3.19-0.08-27.59 10.38-6.006a13.192 13.192 0 0 1 5.552-1.968c1.554-0.08 2.756 0.394 3.622 1.378 0.848 1.004 1.28 2.56 1.28 4.608a15.02 15.02 0 0 1-1.26 6.026 19.55 19.55 0 0 1-3.64 5.514z m-2.01-4a7.77 7.77 0 0 0 1.3-4.292c0-1.574-0.452-2.5-1.32-2.834-0.886-0.316-2.146 0-3.8 0.944l-4.548 2.64 0.02 9.61 4.528-2.62a10.79 10.79 0 0 0 3.82-3.446z m29.126-30.422l0.02 5.198-7.68 4.43 0.08 22.41-5.556 3.21-0.078-22.41-7.68 4.452v-5.2l20.894-12.09z m29.99-17.31l0.16 27.568-5.22 3.014-0.08-16.54-7.03 17.72-2.52 1.44-7.05-9.236 0.04 16.206-5.2 3.012-0.078-27.588 4.588-2.66 9.02 11.974 8.802-22.252 4.568-2.66z m23.908-13.784v5.12l-12.604 7.286v6.006l11.146-6.44 0.02 4.962-11.146 6.44v6.38l13.096-7.542v5.12l-18.59 10.732-0.08-27.588 18.16-10.476z m26.88-15.54l0.08 27.61-4.55 2.62-12.014-9.826 0.04 16.738-5.494 3.17-0.078-27.588 4.588-2.66 12.012 9.866-0.06-16.738 5.476-3.19z m23.906-13.782v5.198l-7.66 4.43 0.06 22.39-5.554 3.21-0.06-22.39-7.68 4.432-0.04-5.2 20.934-12.07z" fill="#FFFFFF" /><path d="M523.44 191.666l-0.038 15.24-59.116 34.344 0.04-15.22 59.116-34.364z" fill="#D6D4D2" /><path d="M464.344 226.028l-0.06 15.222-59.488-34.342 0.04-15.242 59.508 34.362z" fill="#E9E8E6" /><path d="M523.44 191.666l-59.116 34.362-59.47-34.362 59.078-34.344 59.51 34.344z" fill="#FFFFFF" /><path d="M479.252 182.98c8.27 4.786 8.448 12.682 0.196 17.488-8.33 4.844-21.996 4.784-30.286 0-8.526-4.924-8.566-12.78-0.198-17.624 8.212-4.786 21.76-4.786 30.288 0.136z" fill="#434240" /><path d="M609.714 142.336l-0.04 15.24-59.096 34.346 0.04-15.222 59.096-34.364z" fill="#D6D4D2" /><path d="M550.596 176.7l-0.02 15.22-59.508-34.342 0.04-15.242 59.488 34.364z" fill="#E9E8E6" /><path d="M609.714 142.336L550.616 176.7l-59.51-34.364 59.116-34.344 59.492 34.344z" fill="#FFFFFF" /><path d="M565.524 133.652c8.29 4.784 8.468 12.68 0.216 17.486-8.35 4.844-22.016 4.786-30.306 0-8.508-4.922-8.566-12.78-0.198-17.624 8.232-4.786 21.76-4.786 30.288 0.138z" fill="#434240" /><path d="M427.952 717.824l-0.256 86.844-5.868 3.406-91.804-52.972 0.256-86.844 5.868-3.406 91.804 52.972z m-253.4-149.188l97.93 56.576-0.256 92.652-6.26 3.584-97.952-56.518 0.276-92.652 6.262-3.642z" fill="#0074D1" /><path d="M326.696 755.004l7.148-4.156 0.256-89.01-7.128 4.136-0.276 89.03z" fill="#C4C2C0" /><path d="M423.858 811.086l7.128-4.134-97.142-56.124-7.128 4.156 97.14 56.102z" fill="#FFFFFF" /><path d="M431.006 823.454l7.128-4.136 0.316-105.472-7.15 4.136-0.294 105.472z" fill="#C4C2C0" /><path d="M431.3 717.98l7.15-4.134-111.5-64.394-7.128 4.156 111.48 64.374z" fill="#FFFFFF" /><path d="M431.006 823.454l-111.5-64.374 0.316-105.472L431.302 718l-0.296 105.452z m-104.29-68.47l97.14 56.102 0.258-89.008-97.142-56.084-0.256 88.99z" fill="#B2B0AF" /><path d="M167.976 663.592l7.128-4.136 0.256-89.01-7.128 4.136-0.256 89.01z" fill="#C4C2C0" /><path d="M265.118 719.676l7.148-4.136-97.162-56.104-7.128 4.136 97.14 56.104z" fill="#FFFFFF" /><path d="M272.266 732.06l7.128-4.134 0.316-105.492-7.13 4.136-0.314 105.492z" fill="#C4C2C0" /><path d="M272.58 626.57l7.13-4.136-111.5-64.374-7.126 4.136 111.496 64.374z" fill="#FFFFFF" /><path d="M272.266 732.06l-111.48-64.392 0.298-105.452 111.496 64.354-0.314 105.492z m-104.29-68.468l97.14 56.084 0.258-89.01-97.142-56.084-0.256 89.01z" fill="#B2B0AF" /><path d="M663.06 631.492l-17.762 10.24 0.394 136.312 17.8 10.28-0.432-156.832z" fill="#D6D4D2" /><path d="M645.672 778.044L512 855.71l0.06 20.618 151.434-88.006-17.822-10.28z" fill="#FFFFFF" /><path d="M877.686 507.53l-17.762 10.26 0.394 135.482 17.82 10.3-0.452-156.042z" fill="#D6D4D2" /><path d="M860.318 653.272l-133.692 77.686 0.06 20.62 151.434-88.026-17.802-10.28z" fill="#FFFFFF" /><path d="M527.498 709.77l-15.872 9.156 0.374 136.784 133.672-77.666v-0.04l-118.174-68.234z" fill="#434240" /><path d="M645.298 641.752l-117.8 68.018 118.174 68.234-0.374-136.252z" fill="#21201F" /><path d="M859.924 517.79l-133.672 77.194 0.394 135.976 133.672-77.688-0.394-135.482z" fill="#434240" /><path d="M880.246 662.804l-9.04-4.176-0.412-154.7 9.04-5.22 0.412 164.096z" fill="#D6D4D2" /><path d="M726.528 751.576l144.66-83.534-144.66 83.534z" fill="#343331" /><path d="M871.208 660.914l-144.68 83.494-0.472-156.928 144.738-83.554 0.414 156.988z" fill="#FFFFFF" /><path d="M871.208 619.402l-144.68 83.496-0.472-115.418 144.738-83.554 0.414 115.476z" fill="#B2B0AF" /><path d="M871.208 598.606l-144.68 83.496-0.08-15.656v-4.45l-0.058-11.224-0.04-4.49-0.06-11.224v-4.49l-0.078-11.186v-4.49l-0.156-27.412 144.738-83.554 0.138 27.372v4.49l0.04 11.224 0.06 4.49 0.038 11.226v4.49l0.04 11.224 0.058 4.49 0.04 15.674z" fill="#E9E8E6" /><path d="M720.994 603.944l-8.546-4.964-0.06-20.616 8.548 4.96 0.06 20.62z" fill="#8D9799" /><path d="M720.936 583.326l-8.548-4.962 164.55-94.996 8.546 4.96-164.548 94.998z" fill="#A0A8AA" /><path d="M885.484 488.33l0.06 20.598-164.55 95.016-0.06-20.62 164.55-94.994z" fill="#7E8A8C" /><path d="M880.246 662.804l-153.718 88.772v-9.904l144.68-83.024 9.04 4.156z" fill="#FFFFFF" /><path d="M871.208 619.382v39.246l-1.122-0.648-32.966-18.906 34.088-19.692z" fill="#B2B0AF" /><path d="M870.932 531.3v4.488l-144.74 83.594v-4.49l144.74-83.594z m0.138 31.428v4.49l-144.68 83.554-0.04-4.49 144.72-83.554z m0.098 20.204l-144.74 83.514v-4.45l144.68-83.554 0.06 4.49z m-0.138-31.43l-144.74 83.556v-4.49l144.68-83.574 0.06 4.508z" fill="#C4C2C0" /><path d="M246.35 372.658c-15.34 5-26.682 17.78-31.212 31.37-0.964 2.4-3.998 2.4-4.962 0a48.444 48.444 0 0 0-31.212-31.37c-2.402-0.63-2.402-3.84 0-4.648 14.808-5.14 26.112-15.912 31.212-31.212 0.984-2.718 4.018-2.718 4.962 0 4.53 13.568 15.4 25.718 31.212 31.212 2.404 0.808 2.404 4.018 0 4.648z" fill="#FFFFFF" /></svg>