<?xml version="1.0" standalone="no"?><!DOCTYPE svg PUBLIC "-//W3C//DTD SVG 1.1//EN" "http://www.w3.org/Graphics/SVG/1.1/DTD/svg11.dtd"><svg class="icon" width="200px" height="200.00px" viewBox="0 0 1024 1024" version="1.1" xmlns="http://www.w3.org/2000/svg"><path d="M984.616 720.52v41.77L634.014 966.124v-41.766l350.6-203.836z" fill="#C4C2C0" /><path d="M779.854 839.56v41.788l204.76-119.06v-41.746l-204.76 119.02z" fill="#B2B0AF" /><path d="M884.696 778.614v41.768l99.92-58.092V720.54l-99.92 58.072z" fill="#C4C2C0" /><path d="M634.014 924.356v41.768l-199.76-115.496V809.02l199.76 115.336z" fill="#D6D4D2" /><path d="M550.872 876.348v41.708l83.14 48.068v-41.768l-83.14-48.008z" fill="#B2B0AF" /><path d="M434.254 809.02v41.608l-106.18 61.854v-41.766l106.18-61.696z" fill="#C4C2C0" /><path d="M328.074 870.716v41.768L39.384 745.806V704.04l288.69 166.676z" fill="#D6D4D2" /><path d="M127.528 754.924v41.788l200.546 115.79v-41.786L127.528 754.924z" fill="#C4C2C0" /><path d="M223.41 810.3v41.766l104.664 60.416v-41.766l-104.664-60.416z" fill="#B2B0AF" /><path d="M857.304 563.062l-72.468 42.122 199.78 115.34-350.604 203.812-199.758-115.318-106.18 61.696L39.384 704.04l529.23-307.652 288.69 166.676z" fill="#E9E8E6" /><path d="M860.554 254.6l-0.748 281.366-112.78 65.536 0.71-281.364 112.818-65.536z" fill="#EFC348" /><path d="M852.204 380.456l-0.728 281.364-313.5 182.192V563.06l314.228-182.606z" fill="#FFD651" /><path d="M537.954 563.062v280.95l-104.448-60.318V502.764l104.448 60.3z" fill="#EFC348" /><path d="M433.506 502.744v280.95l-102.616 60.494V562.392l102.616-59.648z" fill="#FFD651" /><path d="M330.89 562.412v281.776l-267.796-154.66v-281.78l267.796 154.664z" fill="#EFC348" /><path d="M860.554 254.602l-112.818 65.536 104.468 60.32-314.25 182.604-104.448-60.298-102.616 59.628-267.796-154.644L592.76 99.96l267.796 154.644z" fill="#E9E8E6" /><path d="M860.554 223.9l-0.748 32.454-112.78 65.556 0.71-32.452 112.818-65.556z" fill="#D6D4D2" /><path d="M852.204 349.774l-0.728 32.434-313.5 182.192v-32.02l314.228-182.606z" fill="#C4C2C0" /><path d="M537.954 532.38v32.02l-104.448-60.278v-32.02l104.448 60.28z" fill="#D6D4D2" /><path d="M433.506 472.084v32.02l-102.616 60.474v-32.866l102.616-59.628z" fill="#C4C2C0" /><path d="M330.89 531.712v32.866L63.094 409.934v-32.866l267.796 154.644z" fill="#D6D4D2" /><path d="M860.554 223.9l-112.838 65.578 104.468 60.298-314.25 182.606-104.448-60.3-102.596 59.61-267.796-154.624L592.76 69.278l267.796 154.624z" fill="#E9E8E6" /><path d="M827.234 707.998l0.04 21.504 38.34 22.292-0.04-21.504-38.34-22.292z" fill="#C4C2C0" /><path d="M865.576 730.29l0.04 21.504 38.478-22.214-0.06-21.504-38.46 22.214z" fill="#D6D4D2" /><path d="M827.234 707.998l38.34 22.292 38.46-22.214-38.34-22.292L827.234 708z" fill="#FFFFFF" /><path d="M846.926 391.72l1.202 317.972 18.078 10.516-1.22-317.992-18.06-10.496z" fill="#C4C2C0" /><path d="M864.984 402.216l1.22 317.992 18.198-10.516-1.22-317.972-18.198 10.496z" fill="#D6D4D2" /><path d="M846.926 391.72l18.06 10.496 18.194-10.496-18.078-10.496-18.176 10.496z" fill="#ECF0F1" /><path d="M710.99 775.09l0.06 21.522 38.34 22.292-0.06-21.524-38.34-22.29z" fill="#C4C2C0" /><path d="M749.332 797.38l0.06 21.524 38.458-22.212-0.06-21.504-38.46 22.192z" fill="#D6D4D2" /><path d="M710.99 775.09l38.34 22.29 38.46-22.192-38.34-22.292-38.46 22.194z" fill="#FFFFFF" /><path d="M730.684 458.83l1.22 317.972 18.058 10.516-1.2-317.992-18.08-10.496z" fill="#C4C2C0" /><path d="M748.76 469.326l1.2 317.992 18.198-10.516-1.22-317.972-18.178 10.496z" fill="#D6D4D2" /><path d="M730.684 458.83l18.076 10.496 18.176-10.496-18.058-10.496-18.194 10.496z" fill="#ECF0F1" /><path d="M594.098 841.65l0.04 21.522 38.34 22.272-0.04-21.504-38.34-22.29z" fill="#C4C2C0" /><path d="M632.44 863.94l0.038 21.506 38.48-22.194-0.06-21.524-38.46 22.212z" fill="#D6D4D2" /><path d="M594.098 841.65l38.34 22.29 38.46-22.212-38.34-22.272-38.46 22.194z" fill="#FFFFFF" /><path d="M613.79 525.39l1.2 317.972 18.08 10.496-1.222-317.972-18.06-10.496z" fill="#C4C2C0" /><path d="M631.848 535.886l1.22 317.972 18.196-10.496-1.22-317.972-18.196 10.496z" fill="#D6D4D2" /><path d="M613.79 525.39l18.058 10.496 18.196-10.496-18.08-10.514-18.174 10.514z" fill="#ECF0F1" /><path d="M837.752 204.268l-106.182 61.696 199.778 115.338-297.668 173.096-199.78-115.36-106.16 61.698-253.56-146.392L584.194 57.896l253.56 146.372z" fill="#E9E8E6" /><path d="M178.748 594.392l-71.918-41.51 0.238-82.63 71.936 41.552-0.256 82.588z m-66.56-44.564l61.242 35.368 0.198-70.38-61.244-35.368-0.196 70.38z" fill="#434240" /><path d="M118.784 483.15l-6.4-3.7-0.196 70.38 6.42-3.722 0.176-62.958z" fill="#D6D4D2" /><path d="M118.606 546.108l-6.42 3.72 61.244 35.368 0.04-7.404-54.864-31.684z" fill="#FFFFFF" /><path d="M118.784 483.15l-0.196 62.956 54.88 31.686 0.18-62.976-54.864-31.666z" fill="#3F9AE0" /><path d="M156.868 544.334l-71.954-41.786-0.02-8.646 71.956 41.828 0.02 8.604z" fill="#DD4A4A" /><path d="M156.85 535.71l-71.976-41.826 22.33-24.164 71.956 41.828-22.31 24.16z" fill="#F25A5A" /><path d="M156.85 535.71l-71.976-41.826 15.222-16.484 71.956 41.828-15.202 16.48z" fill="#DD4A4A" /><path d="M156.85 535.71l-71.976-41.826 8.132-8.804 71.956 41.828-8.112 8.8z" fill="#F25A5A" /><path d="M179.18 511.548l0.04 19.888-22.352 12.9-0.02-8.626 22.332-24.162z" fill="#CC4848" /><path d="M308.618 669.38l-71.916-41.53 0.236-82.61 71.916 41.512-0.236 82.63z m-66.56-44.582l61.242 35.368 0.198-70.36-61.244-35.37-0.196 70.36z" fill="#434240" /><path d="M248.654 558.12l-6.4-3.684-0.196 70.36 6.42-3.7 0.176-62.976z" fill="#D6D4D2" /><path d="M248.478 621.096l-6.42 3.7 61.242 35.368 0.04-7.404-54.862-31.664z" fill="#FFFFFF" /><path d="M248.654 558.12l-0.196 62.976 54.882 31.664 0.178-62.956-54.864-31.684z" fill="#3F9AE0" /><path d="M286.72 619.324l-71.936-41.808-0.02-8.664 71.956 41.826v8.646z" fill="#DD4A4A" /><path d="M286.72 610.68l-71.956-41.808 22.332-24.164 71.956 41.808-22.332 24.162z" fill="#F25A5A" /><path d="M286.72 610.68l-71.956-41.808 15.222-16.484 71.956 41.808-15.222 16.482z" fill="#DD4A4A" /><path d="M286.72 610.68l-71.956-41.808 8.134-8.804 71.954 41.808-8.132 8.802z" fill="#F25A5A" /><path d="M309.052 586.516l0.04 19.888-22.352 12.92-0.02-8.646 22.332-24.162z" fill="#CC4848" /><path d="M178.748 723.16l-71.918-41.51 0.238-82.63 71.916 41.532-0.236 82.608z m-66.56-44.564l61.242 35.368 0.198-70.38-61.244-35.368-0.196 70.38z" fill="#434240" /><path d="M118.784 611.92l-6.4-3.704-0.196 70.38 6.42-3.72 0.176-62.958z" fill="#D6D4D2" /><path d="M118.606 674.876l-6.42 3.72 61.244 35.368 0.04-7.404-54.864-31.684z" fill="#FFFFFF" /><path d="M118.784 611.92l-0.196 62.954 54.9 31.686 0.18-62.976-54.884-31.666z" fill="#3F9AE0" /><path d="M156.868 673.102l-71.954-41.806-0.02-8.644 71.956 41.826 0.02 8.624z" fill="#DD4A4A" /><path d="M156.85 664.478l-71.976-41.828 22.33-24.16 71.956 41.824-22.31 24.164z" fill="#F25A5A" /><path d="M156.85 664.478l-71.976-41.826 15.222-16.484 71.956 41.826-15.202 16.484z" fill="#DD4A4A" /><path d="M156.85 664.478l-71.976-41.826 8.132-8.804 71.956 41.826-8.112 8.804z" fill="#F25A5A" /><path d="M179.18 640.316l0.04 19.888-22.352 12.9-0.02-8.626 22.332-24.162z" fill="#CC4848" /><path d="M308.618 798.13l-71.916-41.512 0.236-82.61 71.916 41.512-0.236 82.61z m-66.56-44.564l61.242 35.366 0.198-70.36-61.244-35.368-0.196 70.36z" fill="#434240" /><path d="M248.654 686.888l-6.4-3.684-0.196 70.36 6.42-3.7 0.176-62.976z" fill="#D6D4D2" /><path d="M248.478 749.864l-6.42 3.7 61.242 35.37 0.04-7.406-54.862-31.664z" fill="#FFFFFF" /><path d="M248.654 686.888l-0.196 62.976 54.882 31.664 0.178-62.956-54.864-31.684z" fill="#3F9AE0" /><path d="M286.72 748.092l-71.936-41.808-0.02-8.664 71.956 41.826v8.646z" fill="#DD4A4A" /><path d="M286.72 739.446l-71.956-41.806 22.332-24.164 71.956 41.808-22.332 24.162z" fill="#F25A5A" /><path d="M286.72 739.446l-71.956-41.806 15.222-16.484 71.956 41.808-15.222 16.482z" fill="#DD4A4A" /><path d="M286.72 739.446l-71.956-41.806 8.134-8.804 71.954 41.808-8.132 8.802z" fill="#F25A5A" /><path d="M309.052 715.284l0.04 19.888-22.352 12.92-0.02-8.646 22.332-24.162z" fill="#CC4848" /><path d="M351.764 601.836l60.652-35.032 0.196 69.71-60.652 35.014-0.196-69.692z m56.34 32.1l-0.158-59.374-51.672 29.834 0.176 59.352 51.654-29.814z" fill="#B2B0AF" /><path d="M402.55 577.674l5.396-3.112 0.158 59.372-5.416-3.15-0.138-53.11z" fill="#D6D4D2" /><path d="M402.708 630.804l5.396 3.13-51.654 29.814-0.02-6.24 46.278-26.704z" fill="#FFFFFF" /><path d="M402.55 577.674l0.138 53.13-46.276 26.702-0.14-53.11 46.28-26.722z" fill="#3F9AE0" /><path d="M351.764 710.44l60.652-35.014 0.196 69.692-60.652 35.012-0.196-69.69z m56.34 32.098l-0.158-59.352-51.672 29.834 0.176 59.352 51.654-29.834z" fill="#B2B0AF" /><path d="M402.55 686.296l5.396-3.11 0.158 59.352-5.416-3.132-0.138-53.11z" fill="#D6D4D2" /><path d="M402.708 739.406l5.396 3.152-51.654 29.814-0.02-6.242 46.278-26.724z" fill="#FFFFFF" /><path d="M402.55 686.296l0.138 53.11-46.276 26.724-0.14-53.11 46.28-26.724z" fill="#3F9AE0" /><path d="M515.96 671.428l-60.654-35.012 0.196-69.692 60.654 35.014-0.198 69.69z m-56.124-37.592l51.652 29.834 0.178-59.352-51.674-29.834-0.156 59.352z" fill="#B2B0AF" /><path d="M465.388 577.596l-5.396-3.112-0.176 59.352 5.414-3.13 0.16-53.11z" fill="#D6D4D2" /><path d="M465.23 630.706l-5.414 3.15 51.672 29.814v-6.242l-46.258-26.722z" fill="#FFFFFF" /><path d="M465.388 577.596l-0.158 53.11 46.278 26.72 0.158-53.108-46.278-26.722z" fill="#3F9AE0" /><path d="M515.96 780.052l-60.654-35.032 0.196-69.672 60.654 35.012-0.198 69.692z m-56.124-37.612l51.652 29.852 0.178-59.372-51.674-29.814-0.156 59.334z" fill="#B2B0AF" /><path d="M465.388 686.218l-5.396-3.112-0.176 59.354 5.414-3.152 0.16-53.09z" fill="#D6D4D2" /><path d="M465.23 739.328l-5.414 3.132 51.672 29.834v-6.264l-46.258-26.702z" fill="#FFFFFF" /><path d="M465.388 686.218l-0.158 53.11 46.278 26.702 0.158-53.11-46.278-26.702z" fill="#3F9AE0" /><path d="M837.75 204.268l-0.69 17.25-90.94 52.854-14.57-8.408 106.2-61.696z" fill="#D6D4D2" /><path d="M931.348 381.302l-0.69 17.25-297.668 173.076 0.688-17.25 297.67-173.076z" fill="#C4C2C0" /><path d="M633.68 554.378l-0.69 17.25-199.09-115.79v-16.798l199.78 115.338z" fill="#D6D4D2" /><path d="M433.9 439.04v16.798l-106.85 62.148 0.69-17.25 106.16-61.696z" fill="#C4C2C0" /><path d="M327.74 500.736l-0.69 17.25-253.56-146.392 0.69-17.25 253.56 146.392zM115.516 354.284l16.994 9.828 451.7-262.6v-19.69L115.518 354.28z" fill="#D6D4D2" /><path d="M584.212 81.82v19.694l195.19 112.7 16.994-9.886L584.212 81.82z" fill="#C4C2C0" /><path d="M872.98 391.248l-239.34 139.184-199.76-115.32-106.18 61.678-195.17-112.68 451.68-262.576 195.172 112.68-89.146 51.79h-0.02v19.732h0.02l182.744 105.512z" fill="#6D797A" /><path d="M889.994 381.36l-16.994 9.886-182.784-105.51v-19.712l17.014 9.826 182.764 105.512z" fill="#C4C2C0" /><path d="M709.77 634.408l-48.66 27.962v43.088l48.64 28.298 0.02-99.348z" fill="#00649B" /><path d="M661.11 705.458v56.792l48.64-28.358v-0.156l-48.64-28.28z" fill="#0074D1" /><path d="M709.77 634.408l10.554-6.066v109.726l-10.554-4.156v-99.504z" fill="#CEA03A" /><path d="M709.77 733.912l10.554 4.156-59.214 34.402v-10.24l48.66-28.318z" fill="#E9E8E6" /><path d="M823.08 568.516l-48.66 27.964v43.106l48.64 28.28 0.02-99.35z" fill="#00649B" /><path d="M774.42 639.586v56.774L823.06 668v-0.138l-48.64-28.278z" fill="#0074D1" /><path d="M823.08 568.516l10.554-6.044v109.724l-10.554-4.174v-99.506z" fill="#CEA03A" /><path d="M823.08 668.022l10.554 4.174L774.42 706.6v-10.24l48.66-28.338z" fill="#E9E8E6" /></svg>