<?xml version="1.0" standalone="no"?><!DOCTYPE svg PUBLIC "-//W3C//DTD SVG 1.1//EN" "http://www.w3.org/Graphics/SVG/1.1/DTD/svg11.dtd"><svg class="icon" width="200px" height="200.00px" viewBox="0 0 1024 1024" version="1.1" xmlns="http://www.w3.org/2000/svg"><path d="M39.384 448.926l0.986 332.348 292.586 170.04-0.984-332.366-292.588-170.022z" fill="#EFC348" /><path d="M40.29 753.704l0.1 27.568 292.568 170.044-0.08-27.57-292.588-170.042z" fill="#F25A5A" /><path d="M123.234 829.42l209.724 121.896-0.08-27.57-209.644-121.836v27.51z" fill="#DD4A4A" /><path d="M243.28 899.19l89.678 52.126-0.08-27.57-89.6-52.086v27.53z" fill="#F25A5A" /><path d="M331.972 618.95l0.986 332.366 651.656-376.24-0.984-332.348-651.658 376.22z" fill="#DDB040" /><path d="M332.88 923.748l0.078 27.568 651.656-376.24-0.078-27.57-651.658 376.24z" fill="#DD4A4A" /><path d="M39.384 448.924l292.588 170.024 651.64-376.22L691.04 72.664 39.384 448.924z" fill="#CFD2D3" /><path d="M516.884 173.234l292.588 170.022 174.14-100.528L691.04 72.664l-174.16 100.57z" fill="#FFD651" /><path d="M691.004 92.06v14.534l246.646 143.32 12.544-7.246-259.19-150.606z" fill="#EFC348" /><path d="M550.32 173.292l12.546 7.286 128.138-73.984v-14.532L550.32 173.292z" fill="#DDB040" /><path d="M937.65 249.916l-246.646-143.32-128.14 73.982 246.648 143.32 128.138-73.982z" fill="#434240" /><path d="M39.384 448.926l292.588 170.024 157.794-91.098L197.18 357.81l-157.796 91.116z" fill="#FFD651" /><path d="M72.802 448.984l18.944 10.988 105.414-60.848v-21.958L72.8 448.986z" fill="#DDB040" /><path d="M197.16 377.166v21.958l240.246 139.62 18.944-10.95L197.16 377.166z" fill="#EFC348" /><path d="M437.406 538.742L197.16 399.122l-105.414 60.85 240.246 139.62 105.414-60.85z m521.51-230.952l-89.088 51.456 0.236 84.284 5.712 3.268 89.068-51.396-0.236-84.284-5.692-3.328z" fill="#434240" /><path d="M964.884 394.16l-6.5-3.76-0.216-80.936 6.5 3.76 0.216 80.938z" fill="#C4C2C0" /><path d="M876.524 445.164l-6.48-3.76 88.36-51.004 6.48 3.76-88.36 51.004z" fill="#FFFFFF" /><path d="M870.026 456.428l-6.48-3.76-0.274-95.922 6.498 3.76 0.256 95.922z" fill="#C4C2C0" /><path d="M869.77 360.508l-6.5-3.762 101.396-58.546 6.5 3.78-101.396 58.528z" fill="#FFFFFF" /><path d="M869.77 360.508l101.376-58.526 0.276 95.9-101.396 58.546-0.256-95.92z m95.114 33.654l-0.236-80.936-88.34 51.002 0.216 80.936 88.36-51.002z" fill="#D6D4D2" /><path d="M958.916 443.51l-89.088 51.456 0.238 84.284 5.71 3.268 89.068-51.416-0.236-84.284-5.692-3.308z" fill="#434240" /><path d="M964.884 529.86l-6.5-3.76-0.216-80.936 6.5 3.78 0.216 80.916z" fill="#C4C2C0" /><path d="M876.524 580.884l-6.48-3.78 88.36-51.004 6.48 3.76-88.36 51.024z" fill="#FFFFFF" /><path d="M870.026 592.148l-6.48-3.78-0.274-95.902 6.498 3.74 0.256 95.94z" fill="#C4C2C0" /><path d="M869.77 496.226l-6.5-3.78 101.396-58.526 6.5 3.76-101.396 58.546z" fill="#FFFFFF" /><path d="M869.77 496.226l101.376-58.544 0.276 95.9-101.396 58.546-0.256-95.9z m95.114 33.636l-0.236-80.936-88.34 51.002 0.216 80.936 88.36-51.002z" fill="#D6D4D2" /><path d="M917.386 685.45l-0.04 13.882-45.626 26.506 0.04-13.862 45.626-26.526z" fill="#C4C2C0" /><path d="M871.76 711.976l-0.04 13.862-45.942-26.524 0.04-13.864 45.94 26.526z" fill="#D6D4D2" /><path d="M917.386 685.45l-45.628 26.526-45.94-26.526 45.626-26.526 45.94 26.526z" fill="#E9E8E6" /><path d="M849.762 409.48l0.434 272.484c0 2.816 1.85 5.614 5.552 7.76 7.484 4.352 19.576 4.332 27.078 0 3.78-2.166 5.672-5.022 5.652-7.88l-0.434-272.46c0 2.854-1.89 5.71-5.652 7.876-7.502 4.332-19.594 4.332-27.096 0-3.682-2.146-5.534-4.962-5.534-7.78z" fill="#D6D4D2" /><path d="M855.296 417.26c3.328 1.93 7.542 2.954 11.874 3.152v272.46a26.38 26.38 0 0 1-11.42-3.148c-3.704-2.148-5.554-4.944-5.554-7.76l-0.434-272.482c0 2.816 1.852 5.632 5.534 7.78z" fill="#C4C2C0" /><path d="M855.434 401.586c-7.522 4.332-7.562 11.342-0.138 15.674 7.484 4.332 19.594 4.332 27.096 0 7.484-4.332 7.542-11.322 0.06-15.674-7.424-4.334-19.554-4.334-27.038 0h0.02z" fill="#E9E8E6" /><path d="M762.408 702.78l-119.376 68.92v-169.786l118.884-68.626 0.492 169.49z" fill="#434240" /><path d="M766.346 705.084l-3.94-2.286-0.392-141.468 3.938 2.284 0.394 141.47z m-0.434-149.052l-3.938-2.284-0.06-25.03 3.94 2.286 0.06 25.028z m-64.276 186.406l-3.938-2.284-0.394-141.448 3.94 2.284 0.392 141.448z" fill="#D6D4D2" /><path d="M707.82 589.588l-3.94-2.284 58.094-33.556 3.94 2.284-58.094 33.556z" fill="#E9E8E6" /><path d="M701.204 593.408l-3.94-2.304-0.078-25.01 3.94 2.266 0.078 25.048z" fill="#D6D4D2" /><path d="M643.092 626.944l-3.94-2.284 58.114-33.556 3.938 2.304-58.112 33.536z" fill="#E9E8E6" /><path d="M636.908 779.816l-3.94-2.304-0.51-181.642 3.94 2.284 0.51 181.66z" fill="#D6D4D2" /><path d="M636.396 598.154l-3.94-2.284 136.056-78.572 3.94 2.304-136.056 78.552z" fill="#E9E8E6" /><path d="M636.396 598.154l136.054-78.552 0.512 181.66-6.616 3.82-0.394-141.468-58.112 33.556 0.394 141.45-6.598 3.82-0.394-141.45-58.13 33.536 0.394 141.47-6.598 3.82-0.512-181.662z m64.808-4.746l-0.08-25.048-58.092 33.556 0.06 25.028 58.112-33.536z m64.708-37.376l-0.06-25.028-58.09 33.554 0.06 25.01 58.09-33.536z m-87.67 268.406l-0.04 13.864-45.626 26.526 0.04-13.884 45.626-26.506z" fill="#C4C2C0" /><path d="M632.616 850.944l-0.04 13.884-45.942-26.526 0.04-13.884 45.94 26.526z" fill="#D6D4D2" /><path d="M678.242 824.44l-45.626 26.504-45.942-26.526 45.626-26.506 45.942 26.526z" fill="#E9E8E6" /><path d="M610.6 548.47l0.452 272.462c0 2.816 1.852 5.634 5.554 7.78 7.482 4.332 19.574 4.332 27.076 0 3.76-2.166 5.652-5.042 5.652-7.878l-0.434-272.482c0 2.856-1.89 5.71-5.65 7.876-7.524 4.334-19.614 4.352-27.098 0-3.68-2.146-5.532-4.94-5.552-7.758z" fill="#D6D4D2" /><path d="M616.172 556.228c3.308 1.93 7.522 2.954 11.836 3.172V831.84a26.38 26.38 0 0 1-11.422-3.15c-3.682-2.128-5.514-4.924-5.534-7.76l-0.452-272.46c0 2.814 1.87 5.61 5.552 7.756h0.02z" fill="#C4C2C0" /><path d="M616.272 540.554c-7.524 4.332-7.562 11.362-0.12 15.674 7.484 4.352 19.576 4.332 27.098 0 7.48-4.332 7.54-11.32 0.058-15.674-7.444-4.334-19.554-4.334-27.036 0z m142.336-192.946L356.628 124.376l160.256 48.858 401.98 223.23-160.256-48.856z" fill="#E9E8E6" /><path d="M758.608 347.608L356.628 124.376 464.936 157.4l401.978 223.232-108.306-33.024z" fill="#C4C2C0" /><path d="M590.18 585.864L197.18 357.828l159.448-233.472 401.98 223.232-168.428 238.276z" fill="#E9E8E6" /><path d="M590.18 585.866L197.18 357.828l124.592-182.408 400.976 222.916-132.568 187.53z" fill="#C4C2C0" /><path d="M590.18 585.866L197.18 357.828l67.8-100.232 400.168 222.228-74.968 106.04z" fill="#E9E8E6" /><path d="M758.606 347.608l160.256 48.858-328.664 189.4 168.408-238.258z" fill="#D6D4D2" /><path d="M670.82 500.814l-22.962 32.492 229.18-132.076-21.86-6.656-184.36 106.24z" fill="#FFFFFF" /><path d="M765.302 367.164l-94.484 133.65 184.38-106.24-89.896-27.41z" fill="#C4C2C0" /><path d="M306.806 641.2l-0.256 87.376-5.906 3.426-92.36-53.286 0.258-87.376 5.908-3.426 92.356 53.288zM81.23 512.71l89.088 51.456-0.236 84.284-5.71 3.268-89.068-51.416 0.236-84.282 5.69-3.31z" fill="#434240" /><path d="M210 676.824l6.498-3.78 0.216-80.936-6.5 3.76-0.216 80.956z" fill="#C4C2C0" /><path d="M298.34 727.828l6.496-3.78-88.36-51.004-6.478 3.76 88.34 51.024z" fill="#FFFFFF" /><path d="M304.836 739.072l6.5-3.76 0.276-95.922-6.5 3.76-0.276 95.922z" fill="#C4C2C0" /><path d="M305.112 643.15l6.5-3.76-101.396-58.546-6.5 3.78 101.396 58.526z" fill="#FFFFFF" /><path d="M304.836 739.072l-101.376-58.546 0.276-95.9 101.376 58.524-0.276 95.922zM210 676.804l88.36 51.004 0.216-80.936-88.34-51.002-0.236 80.934z" fill="#D6D4D2" /><path d="M75.264 599.06l6.5-3.76 0.216-80.936-6.5 3.76-0.216 80.936z" fill="#C4C2C0" /><path d="M163.624 650.062l6.48-3.74-88.38-51.024-6.48 3.76 88.38 51.004z" fill="#FFFFFF" /><path d="M170.12 661.326l6.48-3.76 0.276-95.92-6.5 3.76-0.254 95.92z" fill="#C4C2C0" /><path d="M170.378 565.406l6.5-3.76L75.48 503.1l-6.498 3.78 101.396 58.526z" fill="#FFFFFF" /><path d="M170.12 661.326l-101.394-58.524 0.276-95.922 101.376 58.526-0.256 95.92zM75.266 599.06l88.36 51.002 0.216-80.934-88.34-51.004-0.236 80.936z" fill="#D6D4D2" /><path d="M497.9 574.6l-89.088 51.458 0.256 84.282 5.692 3.27 89.088-51.416-0.236-84.284-5.712-3.308z" fill="#434240" /><path d="M503.868 660.952l-6.48-3.76-0.236-80.936 6.5 3.78 0.216 80.916z" fill="#C4C2C0" /><path d="M415.508 711.976l-6.46-3.78 88.34-51.004 6.5 3.76-88.38 51.024z" fill="#FFFFFF" /><path d="M409.01 723.22l-6.46-3.76-0.276-95.904 6.5 3.742 0.236 95.92z" fill="#C4C2C0" /><path d="M408.754 627.32l-6.5-3.782 101.416-58.526 6.48 3.76-101.396 58.546z" fill="#FFFFFF" /><path d="M408.754 627.32l101.394-58.548 0.276 95.902-101.414 58.546-0.256-95.9z m95.114 33.632l-0.218-80.934-88.36 51.002 0.238 80.936 88.34-51.004z" fill="#D6D4D2" /><path d="M497.9 710.3l-89.088 51.458 0.256 84.282 5.692 3.27 89.088-51.398-0.236-84.282-5.712-3.328z" fill="#434240" /><path d="M503.868 796.672l-6.48-3.78-0.236-80.936 6.5 3.78 0.216 80.936z" fill="#C4C2C0" /><path d="M415.508 847.674l-6.46-3.76 88.34-51.004 6.5 3.742-88.38 51.022z" fill="#FFFFFF" /><path d="M409.01 858.94l-6.46-3.78-0.276-95.904 6.5 3.742 0.236 95.94z" fill="#C4C2C0" /><path d="M408.754 763.018l-6.5-3.76 101.416-58.546 6.48 3.76-101.396 58.546z" fill="#FFFFFF" /><path d="M408.754 763.018l101.394-58.546 0.276 95.92-101.414 58.546-0.256-95.92z m95.114 33.654l-0.218-80.936-88.36 51.004 0.238 80.934 88.34-51.002z" fill="#D6D4D2" /><path d="M306.808 781.252l-0.256 87.374-5.908 3.428-92.36-53.288 0.258-87.374 5.908-3.426 92.358 53.286zM81.23 652.74l89.108 51.456-0.236 84.284-5.71 3.268-89.068-51.396 0.236-84.284 5.67-3.328z" fill="#434240" /><path d="M210 816.836l6.498-3.74 0.216-80.936-6.5 3.76-0.216 80.916z" fill="#C4C2C0" /><path d="M298.34 867.86l6.496-3.76-88.36-51.004-6.478 3.74 88.34 51.024z" fill="#FFFFFF" /><path d="M304.836 879.124l6.5-3.78 0.276-95.902-6.5 3.76-0.276 95.92z" fill="#C4C2C0" /><path d="M305.112 783.202l6.5-3.76-101.396-58.546-6.5 3.78 101.396 58.526z" fill="#FFFFFF" /><path d="M304.836 879.124l-101.376-58.546 0.276-95.9 101.376 58.524-0.276 95.92zM210 816.856l88.36 51.004 0.216-80.936-88.34-51.002-0.236 80.934z" fill="#D6D4D2" /><path d="M75.264 739.112l6.5-3.76 0.216-80.938-6.5 3.762-0.216 80.936z" fill="#C4C2C0" /><path d="M163.624 790.114l6.48-3.76-88.36-51.004-6.48 3.76 88.36 51.004z" fill="#FFFFFF" /><path d="M170.12 801.38l6.48-3.762 0.276-95.922-6.5 3.76-0.254 95.922z" fill="#C4C2C0" /><path d="M170.378 705.458l6.5-3.762-101.398-58.546-6.498 3.78L170.38 705.46z" fill="#FFFFFF" /><path d="M170.12 801.38l-101.394-58.546 0.276-95.902 101.376 58.526-0.256 95.92z m-94.856-62.268l88.36 51.002 0.216-80.934-88.34-51.004-0.236 80.936z" fill="#D6D4D2" /><path d="M457.06 361.61c-24.616 8.034-42.832 28.554-50.1 50.372-1.534 3.84-6.42 3.84-7.974 0a77.786 77.786 0 0 0-50.118-50.372c-3.84-1.024-3.84-6.164 0-7.464 23.77-8.27 41.946-25.56 50.118-50.116 1.556-4.352 6.44-4.352 7.976 0a80.206 80.206 0 0 0 50.116 50.116c3.84 1.3 3.84 6.44 0 7.464h-0.02z" fill="#FFFFFF" /></svg>