<?xml version="1.0" standalone="no"?><!DOCTYPE svg PUBLIC "-//W3C//DTD SVG 1.1//EN" "http://www.w3.org/Graphics/SVG/1.1/DTD/svg11.dtd"><svg class="icon" width="200px" height="200.00px" viewBox="0 0 1024 1024" version="1.1" xmlns="http://www.w3.org/2000/svg"><path d="M112.68 719.596l0.08 62.346 347.844 202.674-0.06-62.878L112.68 719.6z" fill="#D6D4D2" /><path d="M190.68 827.352l269.922 157.264-0.058-62.88L190.68 764.93v62.424z" fill="#C4C2C0" /><path d="M319.31 902.3l141.294 82.316-0.06-62.88-141.234-82.056v62.62z" fill="#D6D4D2" /><path d="M460.544 921.738l0.06 62.878L911.32 724.4l-0.078-62.88L460.544 921.74z" fill="#C4C2C0" /><path d="M596.36 906.24l314.96-181.84-0.08-62.876-314.88 181.8v62.916z" fill="#B2B0AF" /><path d="M733.618 826.998l177.702-102.596-0.08-62.88-177.622 102.56v62.916z" fill="#C4C2C0" /><path d="M112.68 719.596L460.544 921.74 911.24 661.524l-347.844-202.14-450.72 260.212z" fill="#E9E8E6" /><path d="M850.452 230.834l-0.65 231.996v4.332l-0.59 197.71L460.84 890.546l0.59-199.168v-4.372l0.748-230.54 388.274-225.632z" fill="#FFD651" /><path d="M462.18 456.468l-0.73 230.4v4.37l-0.592 199.326-279.02-161.16 0.592-199.308v-4.312l0.728-230.4 279.02 161.084z" fill="#EFC348" /><path d="M850.588 230.676L462.06 456.448 183.12 295.542 571.33 69.75l279.256 160.926z" fill="#F1C40F" /><path d="M853.7 220.318L542.368 39.384l42.654 24.064 311.334 180.932-42.652-24.062z" fill="#30B265" /><path d="M450.994 501.524L139.658 320.59l42.34-73.156 311.354 180.932-42.36 73.158z" fill="#3DB542" /><path d="M493.352 428.366L182.016 247.434 542.366 39.384 853.7 220.32 493.352 428.366z" fill="#81D672" /><path d="M493.352 428.366L182.016 247.434l285.874-165.06 311.334 180.932-285.872 165.06z" fill="#6DCB60" /><path d="M493.352 428.368L182.016 247.434l211.436-122.092 311.336 180.952-211.436 122.074z" fill="#81D672" /><path d="M493.352 428.368L182.016 247.434l136.98-79.084 311.336 180.932-136.98 79.086z" fill="#6DCB60" /><path d="M853.7 220.318l42.656 24.064-11.028 19.14-38.006-21.66-347.472 200.624-37.75 65.38-11.106-6.322 42.358-73.16L853.7 220.32z" fill="#2C9A2C" /><path d="M811.64 352.65l13.29-7.64v84.34l-13.292-5.236v-71.464z" fill="#EFC348" /><path d="M811.638 352.65v71.464l-60.966 35.21-0.296-71.484 61.26-35.19z m-255.37 147.456v71.464l-61.262 35.19v-71.444l61.262-35.21z" fill="#434240" /><path d="M750.67 459.324l60.968-35.21 13.292 5.238-74.14 42.85-0.12-12.88z" fill="#FFE2A9" /><path d="M683.954 426.378v71.464l-61.264 35.19v-71.444l61.264-35.21z" fill="#434240" /><path d="M683.954 426.378l13.292-7.64v84.34l-13.292-5.236v-71.464z" fill="#EFC348" /><path d="M683.954 497.82l13.292 5.26-74.556 42.85v-12.9l61.264-35.208z" fill="#FFE2A9" /><path d="M556.268 500.106l13.292-7.64v84.34l-13.292-5.236v-71.464z" fill="#EFC348" /><path d="M556.268 571.57l13.292 5.238-74.554 42.85v-12.9l61.262-35.188z" fill="#FFE2A9" /><path d="M347.668 500.106v71.464l61.242 35.19v-71.444l-61.242-35.21z m-127.704-73.728v71.464l61.28 35.19v-71.444l-61.28-35.21z" fill="#434240" /><path d="M219.964 426.378l-13.274-7.64v84.34l13.292-5.236-0.02-71.464z" fill="#FFD651" /><path d="M219.964 497.82l-13.274 5.26 74.556 42.85v-12.9l-61.282-35.208z" fill="#FFE2A9" /><path d="M347.668 500.106l-13.292-7.64v84.34l13.292-5.236v-71.464z" fill="#FFD651" /><path d="M347.668 571.57l-13.292 5.238 74.554 42.85v-12.9l-61.262-35.188z" fill="#FFE2A9" /><path d="M347.668 696.182v71.464l61.242 35.21v-71.484l-61.242-35.19z m-127.704-73.708v71.444l61.28 35.21v-71.484l-61.28-35.17z" fill="#434240" /><path d="M219.964 622.474l-13.274-7.64v84.32l13.292-5.236-0.02-71.444z" fill="#FFD651" /><path d="M219.964 693.918l-13.274 5.238 74.556 42.85v-12.88l-61.282-35.208z" fill="#FFE2A9" /><path d="M347.668 696.182l-13.292-7.62v84.32l13.292-5.236V696.18z" fill="#FFD651" /><path d="M347.668 767.646l-13.292 5.238 74.554 42.85v-12.88l-61.262-35.208z" fill="#FFE2A9" /><path d="M811.64 548.942l13.29-7.62v84.322l-13.292-5.238v-71.464z" fill="#EFC348" /><path d="M811.638 548.942v71.464l-60.966 35.23-0.296-71.484 61.26-35.21zM556.268 696.4v71.464l-61.262 35.21v-71.484l61.262-35.19z" fill="#434240" /><path d="M750.67 655.636l60.968-35.25 13.292 5.26-74.14 42.848-0.12-12.86z" fill="#FFE2A9" /><path d="M683.954 622.67l-61.264 35.21v54.252l61.264 35.604v-125.066z" fill="#00649B" /><path d="M622.69 712.132v71.484l61.264-35.682v-0.198l-61.264-35.604z" fill="#0074D1" /><path d="M683.954 622.67l13.292-7.62v138.12l-13.292-5.236v-125.264z" fill="#EFC348" /><path d="M683.954 747.914l13.292 5.258-74.556 43.322v-12.878l61.264-35.702z" fill="#E9E8E6" /><path d="M556.268 696.4l13.292-7.622v84.322l-13.292-5.238v-71.464z" fill="#EFC348" /><path d="M556.268 767.862l13.292 5.24-74.554 42.848v-12.878l61.262-35.21z" fill="#FFE2A9" /><path d="M849.8 462.828v21.564L461.452 708.628v-21.62L849.8 462.826z" fill="#EFC348" /><path d="M461.45 686.868v21.62l-279-161.12v-21.584l279 161.084z" fill="#DDB040" /><path d="M406.332 337.506a68.072 68.072 0 0 0-27.748 17.33c-7.856 8.094-13.862 17.566-17.328 27.962-1.38 3.486-5.77 3.486-7.168 0a69.966 69.966 0 0 0-45.076-45.292c-3.466-0.926-3.466-5.552 0-6.694a75.854 75.854 0 0 0 28.2-17.33c7.404-7.64 13.41-17.35 16.876-27.766 1.378-3.92 5.788-3.92 7.168 0 3.466 10.416 9.472 20.126 17.328 27.766 7.64 7.838 17.114 13.626 27.748 17.33 3.464 1.14 3.464 5.768 0 6.694z" fill="#FFFFFF" /></svg>