<?xml version="1.0" standalone="no"?><!DOCTYPE svg PUBLIC "-//W3C//DTD SVG 1.1//EN" "http://www.w3.org/Graphics/SVG/1.1/DTD/svg11.dtd"><svg class="icon" width="200px" height="200.00px" viewBox="0 0 1024 1024" version="1.1" xmlns="http://www.w3.org/2000/svg"><path d="M39.384 591.616l0.08 66.816 440.082 255.744-0.078-66.816L39.384 591.616z" fill="#6DCB60" /><path d="M169.55 734.03l309.996 180.146-0.078-66.816-309.898-180.106-0.02 66.776z" fill="#3DB542" /><path d="M339.516 832.808l140.012 81.368-0.06-66.816-139.952-81.33v66.778z" fill="#6DCB60" /><path d="M479.468 847.36l0.08 66.816 505.068-291.604-0.08-66.816L479.468 847.36z" fill="#3DB542" /><path d="M712.428 779.716l272.188-157.144-0.08-66.816-272.108 157.106v66.854z" fill="#6DCB60" /><path d="M881.664 682.024l102.952-59.452-0.08-66.816-102.872 59.392v66.876z" fill="#3DB542" /><path d="M39.384 591.616L479.468 847.36l505.068-291.604-440.084-255.744L39.384 591.616z" fill="#81D672" /><path d="M324.43 245.11l0.612 219.844 329.648 191.568-0.63-219.846-329.63-191.566z" fill="#D6D4D2" /><path d="M324.43 245.11l329.63 191.566 211.36-122.032-329.632-191.568-211.358 122.034z" fill="#6D6D6D" /><path d="M654.06 436.676l0.63 219.846 211.36-122.034-0.632-219.844-46.258-21.052-165.1 143.084z" fill="#E9E8E6" /><path d="M762.15 249.364L517.06 110.258l-192.63 134.852L654.06 436.68l108.09-187.314z" fill="#0074D1" /><path d="M517.06 355.348l-0.61 219.844-210 122.034 0.632-219.846 209.98-122.032z" fill="#E9E8E6" /><path d="M517.06 355.348L307.082 477.38 95.724 355.348l209.98-122.034 211.356 122.034z" fill="#6D6D6D" /><path d="M307.08 477.38l-0.628 219.846-211.34-122.034 0.632-217.402 78.966-41.61 132.372 161.2z" fill="#D6D4D2" /><path d="M201.63 294.144l315.018-184.32 0.414 245.524-209.98 122.032-105.452-183.236z" fill="#006CB5" /><path d="M173.884 310.154l28.928-16.54 104.014 183.766-24.024 13.884-108.92-181.11z" fill="#006CB5" /><path d="M173.884 310.154l108.916 181.11-6.104 7.522-107.342-176.03-99.19 58.33-0.828-9.788 104.548-61.144z" fill="#00649B" /><path d="M266.536 268.484l108.7 152.34-0.314-111.616-108.386-40.724z" fill="#D6D4D2" /><path d="M374.92 309.208l0.316 111.616 89.246-51.514-0.314-111.616-26.684-19.772-62.562 71.286z" fill="#E9E8E6" /><path d="M435.516 231.306L330.1 165.71l-63.566 102.794 105.432 65.576 63.548-102.774z" fill="#00649B" /><path d="M435.514 231.306l-63.546 102.794 4.47 2.736 58.8-95.132 55.316 33.772 4.728-7.68-59.768-36.49z" fill="#005E87" /><path d="M915.614 568.162l-25.088 14.494-24.872-14.494 25.03-14.454 24.93 14.454z" fill="#69B769" /><path d="M865.87 554.102l0.02 8.014 24.892 14.474-0.02-8.014-24.892-14.474z" fill="#7E8A8C" /><path d="M890.76 568.576l0.02 8.014 25.05-14.474-0.02-8.014-25.048 14.474z" fill="#8D9799" /><path d="M865.87 554.102l24.892 14.474 25.048-14.474-24.89-14.454-25.05 14.454z" fill="#A0A8AA" /><path d="M870.656 501.622l0.708 51.79 19.28 11.226-0.71-51.83-19.278-11.186z" fill="#7E8A8C" /><path d="M889.934 512.808l0.71 51.83 19.396-11.206-0.708-51.81-19.398 11.186z" fill="#8D9799" /><path d="M870.656 501.622l19.28 11.186 19.396-11.186-19.28-11.224-19.396 11.224z" fill="#A0A8AA" /><path d="M878.868 331.382l0.394 170.082 10.89 6.32-0.394-170.08-10.89-6.32z" fill="#7E8A8C" /><path d="M889.758 337.704l0.394 170.08 10.968-6.3-0.394-163.78h-10.968z" fill="#8D9799" /><path d="M878.868 331.382l10.89 6.3h10.948l-10.87-6.3h-10.968z" fill="#929393" /><path d="M675.74 656.344l0.04 8.016 24.872 14.454 25.048-14.454v-8.016l-25.048 14.454-24.91-14.454z" fill="#6D797A" /><path d="M675.74 656.344l24.892 14.454 25.05-14.454-24.892-14.474-25.048 14.474z" fill="#A0A8AA" /><path d="M680.526 603.844l0.71 51.812 19.28 11.204 19.396-11.204-0.71-51.812-19.396 11.206-19.28-11.206z" fill="#6D797A" /><path d="M680.526 603.844l19.3 11.206 19.376-11.224-19.28-11.186-19.396 11.204z" fill="#A0A8AA" /><path d="M688.76 433.604l0.392 170.084 10.89 6.34-0.394-170.1-10.89-6.324z" fill="#6D797A" /><path d="M699.628 439.926l0.394 170.102 10.968-6.34-0.394-163.76h-10.968z" fill="#6D797A" /><path d="M688.76 433.604l10.868 6.322h10.968l-10.888-6.32h-10.95z" fill="#929393" /><path d="M761.7 382.424l0.156 45.648 3.072 1.772 48.266-27.846-0.138-45.646-3.072-1.792-48.286 27.864z" fill="#434240" /><path d="M813.214 401.33l-3.526-2.03-0.118-43.854 3.506 2.048 0.138 43.836z" fill="#C4C2C0" /><path d="M765.36 428.958l-3.524-2.028 47.852-27.63 3.526 2.03-47.852 27.628z" fill="#FFFFFF" /><path d="M761.836 435.062l-3.504-2.048-0.16-51.948 3.506 2.048 0.16 51.948z" fill="#B2B0AF" /><path d="M761.7 383.114l-3.526-2.048 54.92-31.704 3.506 2.028-54.9 31.724z" fill="#FFFFFF" /><path d="M761.7 383.114l54.9-31.704 0.158 51.948-54.94 31.704-0.12-51.948z m51.514 18.216l-0.14-43.836-47.85 27.628 0.138 43.836 47.852-27.628z" fill="#C4C2C0" /><path d="M821.562 286.542l-59.41-37.18-111.578 185.306 59.412 37.18 111.576-185.306z" fill="#0074D1" /><path d="M821.564 286.542l-111.578 185.306 7.208 5.71 104.684-175.104 99.78 55.67 5.1-10.536-105.194-61.046z" fill="#00649B" /><path d="M840.644 421.514l0.394 122.152-103.778 59.666-0.394-116.48 103.78-65.34z" fill="#4F4D4D" /><path d="M841.04 543.666l4.96 2.678-108.74 62.522v-5.514l103.78-59.686z" fill="#E9E8E6" /><path d="M840.644 421.514l4.944-3.112 0.414 127.94-4.964-2.676-0.394-122.152z" fill="#D6D4D2" /><path d="M439.532 588.406l-64.296 38.222-0.236-9.924 56.734-32.846 7.8 4.548z" fill="#E8E8E8" /><path d="M384.512 661.66l91.864-54.132 0.04-13.904-91.864 54.134-0.04 13.904z" fill="#E9E8E6" /><path d="M384.552 647.76l91.864-54.136-22.94-13.232-91.886 54.114 22.96 13.252z" fill="#FFFFFF" /><path d="M407.492 691.908l91.866-52.598 0.04-17.526-91.886 52.186-0.02 17.94z" fill="#E9E8E6" /><path d="M407.512 673.99l91.884-52.226-23.02-14.236-91.864 54.114 23 12.348z" fill="#FFFFFF" /><path d="M361.59 634.506l-0.1 30.858 46.002 26.544 0.02-17.92-23-12.346 0.04-13.884-22.96-13.252z" fill="#D6D4D2" /><path d="M262.538 495.026l-0.158 51.652-3.486 2.028-54.606-31.508 0.138-51.652 3.506-2.028 54.606 31.508z m-139.6-76.644l47.164 27.236-0.138 44.602-3.012 1.734-47.144-27.216 0.12-44.602 3.012-1.754z" fill="#434240" /><path d="M204.268 516.43l3.98-2.304 0.136-49.584-3.978 2.304-0.138 49.584z" fill="#C4C2C0" /><path d="M258.422 547.702l3.96-2.304-54.136-31.272-3.978 2.304 54.154 31.272z" fill="#FFFFFF" /><path d="M262.4 554.594l3.978-2.304 0.158-58.78-3.98 2.302-0.156 58.782z" fill="#B2B0AF" /><path d="M262.558 495.812l3.978-2.304-62.13-35.88-3.978 2.326 62.13 35.86z" fill="#FFFFFF" /><path d="M262.4 554.594l-62.13-35.88 0.16-58.76 62.128 35.86-0.158 58.78z m-58.132-38.164l54.154 31.272 0.138-49.604-54.154-31.252-0.138 49.584z m-88.458-50.924l3.98-2.324 0.136-49.584-3.978 2.304-0.138 49.604z" fill="#C4C2C0" /><path d="M169.944 496.76l3.98-2.306-54.156-31.272-3.958 2.324 54.134 31.252z" fill="#FFFFFF" /><path d="M173.942 503.65l3.96-2.304 0.176-58.78-3.98 2.322-0.156 58.762z" fill="#B2B0AF" /><path d="M174.1 444.888l3.978-2.324-62.13-35.86-3.978 2.306 62.13 35.88z" fill="#FFFFFF" /><path d="M173.942 503.65l-62.148-35.86 0.176-58.78 62.13 35.88-0.158 58.76z m-58.152-38.124l54.154 31.252 0.14-49.586-54.156-31.27-0.138 49.604z" fill="#C4C2C0" /><path d="M262.538 582.774l-0.158 51.654-3.486 2.048-54.606-31.508 0.138-51.674 3.506-2.028 54.606 31.508z m-139.6-76.642l47.164 27.234-0.138 44.604-3.012 1.732-47.144-27.214 0.12-44.604 3.012-1.752z" fill="#434240" /><path d="M204.268 604.2l3.98-2.324 0.136-49.586-3.978 2.304-0.138 49.606z" fill="#C4C2C0" /><path d="M258.422 635.452l3.96-2.304-54.136-31.272-3.978 2.324 54.154 31.252z" fill="#FFFFFF" /><path d="M262.4 642.364l3.978-2.324 0.158-58.782-3.98 2.304-0.156 58.8z" fill="#B2B0AF" /><path d="M262.558 583.56l3.978-2.302-62.13-35.86-3.978 2.304 62.13 35.86z" fill="#FFFFFF" /><path d="M262.4 642.364l-62.13-35.88 0.16-58.78 62.128 35.858-0.158 58.8zM204.268 604.2l54.154 31.252 0.138-49.606-54.154-31.252-0.138 49.606z m-88.458-50.944l3.98-2.304 0.136-49.606-3.978 2.304-0.138 49.606z" fill="#C4C2C0" /><path d="M169.944 584.508l3.98-2.304-54.156-31.252-3.958 2.304 54.134 31.252z" fill="#FFFFFF" /><path d="M173.942 591.42l3.96-2.324 0.176-58.782-3.98 2.324-0.156 58.78z" fill="#B2B0AF" /><path d="M174.1 532.638l3.978-2.304-62.13-35.88-3.978 2.304 62.13 35.88z" fill="#FFFFFF" /><path d="M173.942 591.42l-62.148-35.9 0.176-58.78 62.13 35.878-0.158 58.8z m-58.152-38.164l54.154 31.252 0.14-49.586-54.156-31.272-0.138 49.606z" fill="#C4C2C0" /><path d="M397.646 324.292l0.14 45.668 3.09 1.772 48.246-27.846-0.118-45.646-3.092-1.792-48.266 27.844z" fill="#434240" /><path d="M449.142 343.236l-3.506-2.066-0.136-43.836 3.524 2.048 0.12 43.854z" fill="#C4C2C0" /><path d="M401.29 370.846l-3.526-2.048 47.854-27.628 3.524 2.048-47.852 27.628z" fill="#FFFFFF" /><path d="M397.784 376.95l-3.544-2.048-0.138-51.948 3.526 2.028 0.156 51.968z" fill="#B2B0AF" /><path d="M397.628 324.982l-3.526-2.028 54.922-31.704 3.506 2.028-54.902 31.704z" fill="#FFFFFF" /><path d="M397.628 324.982l54.9-31.704 0.16 51.968-54.924 31.704-0.136-51.968z m51.514 18.236l-0.118-43.836-47.852 27.628 0.118 43.836 47.852-27.628z" fill="#C4C2C0" /><path d="M617.748 458.082l-0.178 135.13-4.036 2.362-63.114-36.43 0.176-135.13 4.038-2.362 63.114 36.43z" fill="#434240" /><path d="M550.4 558.276l4.608-2.678 0.158-132.764-4.588 2.678-0.178 132.764z" fill="#C4C2C0" /><path d="M613 594.392l4.59-2.678-62.582-36.116-4.588 2.66 62.58 36.134z" fill="#FFFFFF" /><path d="M617.59 602.368l4.608-2.68 0.198-143.36-4.608 2.66-0.198 143.38z" fill="#B2B0AF" /><path d="M617.786 458.988l4.59-2.66-71.82-41.47-4.586 2.678 71.816 41.452z" fill="#FFFFFF" /><path d="M617.59 602.368l-71.818-41.472 0.198-143.36 71.818 41.452-0.198 143.38z m-67.17-44.11l62.58 36.134 0.16-132.746-62.582-36.134-0.16 132.746z" fill="#C4C2C0" /><path d="M841.02 543.686l-103.78 59.666-0.394-116.52 103.78-65.338 0.394 122.192z" fill="#7E8A8C" /><path d="M453.71 590.69l-7.68-4.45-0.274-132.076 7.68 4.45 0.274 132.076z m-84.282 48.66l-7.68-4.45-0.296-142.2 7.66 4.452 0.316 142.2z" fill="#21201F" /><path d="M369.112 497.152l-7.68-4.45 93.106-53.76 7.66 4.45-93.086 53.76z" fill="#434240" /><path d="M462.18 443.392l0.334 142.218-8.804 5.08-0.294-132.076-75.48 43.58 0.294 132.076-8.802 5.08-0.316-142.198 93.066-53.76z" fill="#383736" /><path d="M446.05 586.24l-67.84 39.148-0.276-123.214 67.82-39.148 0.296 123.214z" fill="#434240" /><path d="M385.694 506.664l52.34-30.208 0.258 105.314-52.342 30.208-0.256-105.314z" fill="#B2B0AF" /><path d="M397.49 539.57c4.252-2.442 7.68-0.474 7.7 4.39 0.02 4.864-3.408 10.792-7.64 13.254-4.236 2.46-7.68 0.492-7.68-4.392-0.02-4.864 3.386-10.792 7.62-13.234v-0.02z" fill="#434240" /><path d="M650.34 268.268a68.078 68.078 0 0 0-27.748 17.33c-7.858 8.094-13.864 17.566-17.33 27.962-1.378 3.486-5.77 3.486-7.168 0a69.966 69.966 0 0 0-45.074-45.292c-3.466-0.926-3.466-5.552 0-6.696a75.854 75.854 0 0 0 28.2-17.328c7.402-7.64 13.408-17.35 16.874-27.766 1.38-3.92 5.79-3.92 7.168 0 3.466 10.416 9.472 20.126 17.33 27.766 7.64 7.838 17.132 13.626 27.746 17.328 3.466 1.144 3.466 5.77 0 6.696z" fill="#FFFFFF" /></svg>