<?xml version="1.0" standalone="no"?><!DOCTYPE svg PUBLIC "-//W3C//DTD SVG 1.1//EN" "http://www.w3.org/Graphics/SVG/1.1/DTD/svg11.dtd"><svg class="icon" width="200px" height="200.00px" viewBox="0 0 1024 1024" version="1.1" xmlns="http://www.w3.org/2000/svg"><path d="M486.834 906.832L947 639.41l-0.078 24.044-460.15 267.42 0.06-24.042z" fill="#C4C2C0" /><path d="M946.964 639.41l-158.68 92.238-81.174 47.144-220.238 128.04L39.522 648.528l460.21-267.422 447.232 258.304z" fill="#E9E8E6" /><path d="M524.446 952.636l460.168-267.422-0.058 23.966L524.386 976.6l0.06-23.964z" fill="#C4C2C0" /><path d="M486.774 930.876l460.15-267.422 37.692 21.76-460.17 267.42-37.672-21.76z" fill="#E9E8E6" /><path d="M486.832 906.83l-0.058 24.044 37.67 21.76-0.058 23.946-485-280.024 0.136-47.99 447.31 258.264z" fill="#D6D4D2" /><path d="M807.462 364.544l-0.768 271.556L503 812.584l0.768-271.558 303.694-176.482z" fill="#C4C2C0" /><path d="M503.768 541.046l-0.788 271.536-329.196-190.108 0.768-271.538 329.216 190.11z" fill="#B2B0AF" /><path d="M807.462 364.544l-303.694 176.5-329.236-190.088 303.714-176.482 329.216 190.07z" fill="#CBCFD0" /><path d="M186.172 641.418l-0.06 17.172-48.226 28.02 0.08-17.17 48.206-28.022z" fill="#C4C2C0" /><path d="M137.964 669.44l-0.08 17.172-48.362-27.924 0.06-17.172 48.382 27.924z" fill="#D6D4D2" /><path d="M186.172 641.418L137.964 669.44 89.58 641.516l48.226-28.02 48.366 27.922z" fill="#FFFFFF" /><path d="M161.418 329.294l-1.536 314.29-22.726 13.194 1.536-314.29 22.726-13.194z" fill="#C4C2C0" /><path d="M138.692 342.508l-1.536 314.27-22.86-13.194 1.514-314.29 22.882 13.214z" fill="#D6D4D2" /><path d="M161.418 329.294l-22.726 13.194-22.88-13.194 22.724-13.194 22.88 13.194z" fill="#ECF0F1" /><path d="M332.348 725.82l-0.06 17.17-48.226 28.022 0.08-17.17 48.206-28.022z" fill="#C4C2C0" /><path d="M284.14 753.84l-0.08 17.172-48.362-27.922 0.06-17.172 48.382 27.924z" fill="#D6D4D2" /><path d="M332.348 725.82l-48.208 28.02-48.384-27.922 48.226-28.022 48.366 27.924z" fill="#FFFFFF" /><path d="M307.594 413.696l-1.536 314.27-22.726 13.194 1.536-314.27 22.726-13.194z" fill="#C4C2C0" /><path d="M284.868 426.89l-1.536 314.288-22.86-13.212 1.514-314.29 22.882 13.214z" fill="#D6D4D2" /><path d="M307.594 413.696l-22.726 13.194-22.88-13.194 22.724-13.214 22.88 13.214z" fill="#ECF0F1" /><path d="M478.524 810.22l-0.06 17.172-48.226 28.022 0.08-17.172 48.206-28.02z" fill="#C4C2C0" /><path d="M430.316 838.242l-0.08 17.172-48.362-27.944 0.06-17.17 48.382 27.942z" fill="#D6D4D2" /><path d="M478.524 810.22l-48.208 28.022-48.384-27.942 48.226-28.024 48.366 27.944z" fill="#FFFFFF" /><path d="M453.77 498.078l-1.536 314.29-22.726 13.194 1.536-314.27 22.726-13.214z" fill="#C4C2C0" /><path d="M431.044 511.292l-1.536 314.288-22.86-13.232 1.514-314.27 22.882 13.214z" fill="#D6D4D2" /><path d="M453.77 498.078l-22.726 13.214-22.88-13.194 22.724-13.214 22.88 13.194z" fill="#ECF0F1" /><path d="M892.888 641.38l-0.08 17.15-48.204 28.022 0.058-17.172 48.226-28z" fill="#C4C2C0" /><path d="M844.662 669.38l-0.06 17.172-48.382-27.924 0.078-17.17 48.364 27.924z" fill="#D6D4D2" /><path d="M892.888 641.38l-48.226 28-48.364-27.922 48.206-28.022 48.384 27.942z" fill="#FFFFFF" /><path d="M868.116 357.966l-1.516 285.54-22.726 13.192 1.516-285.538 22.726-13.194z" fill="#B2B0AF" /><path d="M845.39 371.18l-1.516 285.54-22.882-13.216 1.516-285.538 22.882 13.214z" fill="#D6D4D2" /><path d="M868.116 357.966l-22.726 13.194-22.88-13.194 22.742-13.194 22.864 13.194z" fill="#ECF0F1" /><path d="M642.954 787.18l-0.08 17.172-48.226 28.022 0.08-17.172 48.226-28.02z" fill="#C4C2C0" /><path d="M594.708 815.202l-0.06 17.172-48.364-27.944 0.06-17.17 48.364 27.942z" fill="#D6D4D2" /><path d="M642.954 787.18l-48.246 28.022-48.364-27.942 48.226-28.024 48.384 27.944z" fill="#FFFFFF" /><path d="M618.18 503.768l-1.536 285.54-22.724 13.212 1.536-285.538 22.724-13.214z" fill="#B2B0AF" /><path d="M595.456 516.982l-1.536 285.54-22.862-13.196 1.516-285.538 22.882 13.194z" fill="#D6D4D2" /><path d="M618.18 503.768l-22.724 13.214-22.882-13.194 22.724-13.214 22.882 13.194z" fill="#ECF0F1" /><path d="M687.3 289.024L271.556 47.4l208.148 48.896L895.468 337.92 687.3 289.024z" fill="#DD4A4A" /><path d="M687.3 289.024L271.556 47.4l120.164 28.22L807.46 317.242l-120.16-28.22z" fill="#F25A5A" /><path d="M480.06 593.802L64.316 352.178l-0.04-16.05L480.02 577.752l0.04 16.05z" fill="#CC4848" /><path d="M480.02 577.734L64.276 336.148 271.556 47.42l415.746 241.604L480.02 577.734z" fill="#DD4A4A" /><path d="M480.02 577.732L64.276 336.148l165.06-229.908L645.08 347.844l-165.06 229.888z" fill="#CC4848" /><path d="M480.02 577.734L64.276 336.148l122.86-171.126L602.88 406.646l-122.86 171.088z" fill="#DD4A4A" /><path d="M480.02 577.732L64.276 336.148l38.42-53.524L518.44 524.248l-38.42 53.484z" fill="#CC4848" /><path d="M687.3 289.024l208.148 48.856 0.12 16.01L480.06 593.802l-0.04-16.07 207.28-288.708z" fill="#C44141" /><path d="M815.142 347.826l-231.58 133.77-24.774 34.42 281.284-162.342-24.93-5.848z" fill="#F25A5A" /><path d="M699.136 320.532l-115.574 161.064 231.58-133.77-116.006-27.294z" fill="#FFFFFF" /><path d="M669.756 404.796c0.944 0.688 1.398 1.968 1.416 3.8 0 2.048-0.59 4.174-1.81 6.46a18.43 18.43 0 0 1-7.346 6.97l-11.126 6.42-0.08-29.224 9.906-5.71a14.432 14.432 0 0 1 4.45-1.852c1.24-0.256 2.166-0.176 2.778 0.296 1.18 0.826 1.772 2.186 1.772 4.096a10.84 10.84 0 0 1-1.872 6.184l-0.964 1.3-0.886 0.984c1.556-0.512 2.816-0.434 3.76 0.276z m-4.234 9.766a6.184 6.184 0 0 0 1.26-3.958c0-2.6-1.852-2.836-5.456-0.748l-6.182 3.564v7.996l6.754-3.88a12.764 12.764 0 0 0 3.624-2.974z m-10.438-13.272l0.04 7.58 5.454-3.15c3.112-1.772 4.668-3.9 4.668-6.32 0-1.42-0.394-2.206-1.142-2.364-0.768-0.196-1.93 0.178-3.486 1.064l-5.534 3.19z m33.38-23.808l11.262 22.764-4.568 2.64-2.56-5.18-12.74 7.364-2.52 8.114-4.59 2.64 11.126-35.704 4.588-2.64z m-6.894 22.036l9.256-5.356-4.628-9.374-4.628 14.73z m44.998-44.032l0.08 29.222-4.668 2.7-14.474-13 0.06 21.308-4.274 2.482-0.1-29.224 4.294-2.48 14.828 13.292-0.06-21.82 4.314-2.48z m28.436-16.424l-10.2 18.708 10.416 10.436-5.08 2.934-8.488-7.916-3.702 6.756 0.02 8.19-4.294 2.462-0.08-29.222 4.294-2.462 0.04 14.256 11.62-20.992 5.454-3.15z" fill="#434240" /><path d="M645.396 730.742l0.04 19.456 124.356-71.956v-0.04l-0.374-187.628-16.818 9.71 0.316 168.21-107.52 62.248z" fill="#E9E8E6" /><path d="M752.936 668.514l-107.54 62.228-0.394-168.252 107.6-62.226 0.334 168.25z" fill="#0074D1" /><path d="M500.736 410.92a48.728 48.728 0 0 0-19.594 11.972c-5.356 5.356-9.452 11.992-11.972 19.456-0.71 2.402-3.94 2.402-4.806 0a48.876 48.876 0 0 0-31.428-31.428c-2.54-0.848-2.54-4.096 0-4.924 7.482-2.402 14.1-6.636 19.456-11.992 5.356-5.356 9.59-11.974 11.972-19.456 0.848-2.384 4.096-2.384 4.806 0 2.54 7.482 6.616 14.1 11.972 19.456 5.514 5.356 12.13 9.59 19.594 11.972a2.6 2.6 0 0 1 0 4.944z" fill="#FFFFFF" /></svg>