<?xml version="1.0" standalone="no"?><!DOCTYPE svg PUBLIC "-//W3C//DTD SVG 1.1//EN" "http://www.w3.org/Graphics/SVG/1.1/DTD/svg11.dtd"><svg class="icon" width="200px" height="200.00px" viewBox="0 0 1024 1024" version="1.1" xmlns="http://www.w3.org/2000/svg"><path d="M974.356 266.26l-0.394 236.84v31.508l-252.2 146.588v-1.004l0.1-31.428 0.392-236.032 252.102-146.472z" fill="#FFD651" /><path d="M527.832 292.53l252.12-146.532-14.906-0.59-252.14 146.51 14.926 0.612z" fill="#EF4E77" /><path d="M617.728 296.232l252.14-146.512L779.952 146l-252.12 146.51 89.896 3.72z" fill="#EF4E77" /><path d="M682.93 368.934l252.14-146.51-65.202-72.724-252.14 146.532 65.2 72.702z" fill="#EF4E77" /><path d="M512.452 560.286l209.33 120.91 0.452-268.406-39.304-43.874-65.22-72.704-89.898-3.682-14.886-0.592-0.474 268.348z" fill="#F25A5A" /><path d="M722.236 412.77l252.14-146.51-39.308-43.856-252.12 146.532 39.288 43.834z" fill="#EF4E77" /><path d="M617.748 287.036l-115.024-4.708 3.034 9.296 22.054 0.906 89.916 3.7 65.22 72.706 46.434 51.79 3.092-5.75-114.726-127.94z" fill="#B2B0AF" /><path d="M729.404 420.726l252.12-146.51 3.092-5.77-252.14 146.53-3.072 5.75z" fill="#005E87" /><path d="M502.744 282.328l115.004 4.708 252.14-146.512-115.044-4.726-252.1 146.53z" fill="#0074D1" /><path d="M617.748 287.036l114.746 127.94 252.12-146.51-114.726-127.94-252.14 146.51z" fill="#3F9AE0" /><path d="M722.944 224.946l-1.16 456.172-211.22 122.76 1.16-456.17 211.22-122.762z" fill="#E9E8E6" /><path d="M511.726 347.708l-1.182 456.172L270 664.99l1.16-456.172 240.564 138.89z" fill="#DDB040" /><path d="M722.944 224.946l-211.22 122.76-240.56-138.888 211.22-122.762 240.56 138.89z m16.266-2.52l-0.12 40.564-226.42 131.586 0.098-40.566 226.44-131.586z" fill="#E9E8E6" /><path d="M512.786 354.008l-0.118 40.566L254.8 245.7l0.12-40.566 257.868 148.874z" fill="#0074D1" /><path d="M302.73 232.764v40.604l209.94 121.206 0.098-40.566-210.04-121.244z" fill="#006CB5" /><path d="M365.49 268.996v40.606l147.18 84.972 0.098-40.566-147.28-85.012z" fill="#00649B" /><path d="M444.456 314.564v40.626l68.214 39.384 0.098-40.566-68.312-39.444z" fill="#005E87" /><path d="M739.208 222.424l-226.44 131.584-257.852-148.874L481.34 73.55l257.87 148.874z" fill="#3F9AE0" /><path d="M712.506 245.366l-28.296-16.442-0.178-56.714 28.318 16.462 0.156 56.694z" fill="#DDB040" /><path d="M712.35 188.652l-28.318-16.422 51.87-29.934L764.2 158.72l-51.85 29.932z m-122.664 127.626l-28.298-16.442 122.82-70.894 28.3 16.444-122.82 70.892z m-51.948-26.8l-28.298-16.444 51.79-29.912 28.3 16.442-51.792 29.914z" fill="#FFD651" /><path d="M538.94 820.144v0.2l-28.3-16.466v-0.098l-1.2-530.786 28.298 16.464 1.102 499.16 0.1 31.526z" fill="#DDB040" /><path d="M973.962 503.1v31.506l-252.2 145.586 0.1-31.428 252.1-145.664z" fill="#F25A5A" /><path d="M867.94 564.36v31.45l106.02-61.184V503.1l-106.02 61.26z" fill="#CC4848" /><path d="M765.44 689.526v0.098L538.94 820.34v-0.1l-0.1-31.426-1.102-499.36 51.79-29.932 0.12 56.734 122.88-70.892-0.2-56.714L764.24 158.74l1.104 499.358 0.098 31.428z" fill="#EFC348" /><path d="M511.036 535.512l-0.394 237.746-0.1 30.62-218.978 127.292-33.122 19.28v-0.1l0.1-31.428 0.392-236.92 252.1-146.49z" fill="#FFD651" /><path d="M64.492 561.762l252.14-146.51-14.926-0.61-252.14 146.51 14.926 0.61z m89.896 3.722l252.14-146.53-89.894-3.702-252.14 146.51 89.894 3.722z" fill="#EF4E77" /><path d="M219.608 638.188l252.14-146.53-65.22-72.704-252.14 146.51 65.22 72.724z" fill="#EF4E77" /><path d="M258.954 682.004l-0.394 237.016-0.118 31.31v0.12l-138.24-79.912-71.09-41.06 0.12-31.31 0.392-237.056 14.868 0.71 89.836 3.622 65.26 72.666 39.366 43.894z" fill="#EFC348" /><path d="M258.894 682.024l252.14-146.512-39.286-43.854-252.14 146.51 39.286 43.856z" fill="#EF4E77" /><path d="M154.428 556.268l-115.044-4.686 3.034 9.274 22.054 0.906 89.916 3.722 65.22 72.704 46.454 51.792 3.072-5.752-114.706-127.96z" fill="#00649B" /><path d="M266.044 689.98l252.14-146.532 3.092-5.75-252.14 146.512-3.092 5.77z" fill="#005E87" /><path d="M39.384 551.58l115.044 4.688 252.12-146.51-115.024-4.726-252.14 146.55z" fill="#0074D1" /><path d="M154.428 556.268l114.726 127.94 252.12-146.51-114.726-127.92-252.12 146.49z" fill="#3F9AE0" /><path d="M510.62 773.258l-0.08 30.62-218.976 127.292-33.122 19.18 0.1-31.428 252.08-145.664z" fill="#F25A5A" /><path d="M324.686 880.72v31.21l185.856-108.05 0.1-30.622-185.956 107.46z" fill="#CC4848" /><path d="M447.88 809.512v30.78l62.662-36.432 0.1-30.602-62.76 36.254z" fill="#F25A5A" /><path d="M258.56 919.04l-0.118 31.31-138.24-79.812-71.09-41.06 0.12-31.31L258.56 919.04z" fill="#DD4A4A" /><path d="M131.544 845.686v31.39l126.898 73.254 0.1-31.31-126.998-73.334z" fill="#CC4848" /><path d="M190.72 879.852v31.39l67.74 39.108 0.08-31.31-67.82-39.188z" fill="#DD4A4A" /><path d="M765.44 689.526l-226.5 130.718-0.1-31.43 226.5-130.716 0.1 31.428z" fill="#F25A5A" /><path d="M538.94 820.146l-28.3-16.366 0.1-31.428 28.1 16.266 0.1 31.528z" fill="#DD4A4A" /><path d="M206.926 689.21l-0.394 143.756-6.656 3.82-98.716-57.01 0.374-143.812 6.656-3.86 98.736 57.106z" fill="#434240" /><path d="M104.546 778.83l7.07-4.134 42.18 24.36-7.088 4.134-42.16-24.36z" fill="#FFFFFF" /><path d="M104.822 680.054l7.09-4.116-0.296 98.778-7.09 4.114 0.296-98.776z" fill="#E9E8E6" /><path d="M153.836 807.286l7.07-4.116 42.24 24.38-7.09 4.134-42.22-24.398z" fill="#FFFFFF" /><path d="M104.92 641.32l7.09-4.136-0.1 30.524-7.068 4.096 0.08-30.484z m49.192 67.21l7.09-4.136-0.296 98.776-7.09 4.116 0.296-98.756z" fill="#E9E8E6" /><path d="M104.84 671.804l7.092-4.116 42.16 24.36-7.088 4.114-42.162-24.36z" fill="#FFFFFF" /><path d="M154.21 669.774l7.09-4.114-0.1 30.482-7.068 4.136 0.08-30.504z" fill="#E9E8E6" /><path d="M154.132 700.26l7.088-4.118 42.22 24.4-7.068 4.116-42.24-24.4z m-56.3-71.228l7.088-4.116 105.748 61.046-7.07 4.136-105.766-61.066z" fill="#FFFFFF" /><path d="M97.832 629.032l105.766 61.046-0.432 153.954-105.748-61.066 0.414-153.934z m98.244 202.634l0.276-98.758-42.24-24.4-0.276 98.78 42.24 24.378z m-49.368-28.496l0.296-98.756-42.18-24.36-0.278 98.776 42.16 24.34z m49.664-78.494l0.08-30.502-42.24-24.38-0.08 30.484 42.24 24.4zM147.02 696.182l0.08-30.504-42.18-24.34-0.08 30.484 42.18 24.36z" fill="#C4C2C0" /><path d="M203.6 690.098l7.088-4.136-0.452 153.954-7.09 4.116 0.452-153.934z" fill="#E9E8E6" /><path d="M331.854 697.72l0.394 143.752 6.636 3.84 98.74-57.01-0.376-143.832-6.656-3.84-98.738 57.088z" fill="#434240" /><path d="M434.236 787.338l-7.07-4.116-42.18 24.36 7.088 4.116 42.16-24.36z" fill="#FFFFFF" /><path d="M433.96 688.56l-7.09-4.114 0.296 98.776 7.088 4.116-0.294-98.776z" fill="#E9E8E6" /><path d="M384.946 815.794l-7.09-4.116-42.22 24.4 7.088 4.114 42.22-24.4z" fill="#FFFFFF" /><path d="M433.84 649.826l-7.068-4.116 0.098 30.504 7.07 4.096-0.1-30.484z m-49.17 67.19l-7.09-4.096 0.296 98.758 7.088 4.134-0.294-98.796z" fill="#E9E8E6" /><path d="M433.94 680.31l-7.09-4.096-42.16 24.34 7.088 4.116 42.16-24.36z" fill="#FFFFFF" /><path d="M384.552 678.28l-7.07-4.114 0.08 30.504 7.088 4.116-0.1-30.504z" fill="#E9E8E6" /><path d="M384.65 708.786l-7.09-4.136-42.24 24.42 7.09 4.094 42.24-24.38z m56.3-71.248l-7.088-4.116-105.748 61.066 7.068 4.116 105.768-61.066z" fill="#FFFFFF" /><path d="M441.384 791.474l-105.748 61.064-0.454-153.934 105.748-61.046 0.454 153.916z m-98.66 48.72l42.22-24.4-0.274-98.778-42.24 24.4 0.294 98.776z m49.35-28.496l42.16-24.36-0.274-98.776-42.18 24.36 0.294 98.776z m-49.664-78.534l42.24-24.38-0.1-30.502-42.24 24.4 0.1 30.482z m49.348-28.494l42.18-24.36-0.116-30.464-42.16 24.36 0.096 30.464z" fill="#C4C2C0" /><path d="M335.164 698.604l-7.05-4.116 0.432 153.936 7.09 4.116-0.472-153.936z" fill="#E9E8E6" /><path d="M809.256 420.096l0.394 143.734 6.636 3.84 98.736-57.01-0.374-143.832-6.656-3.84-98.736 57.108z" fill="#434240" /><path d="M911.636 509.696l-7.07-4.096-42.18 24.34 7.088 4.116 42.16-24.36z" fill="#FFFFFF" /><path d="M911.36 410.94l-7.09-4.116 0.296 98.776 7.09 4.096-0.296-98.756z" fill="#E9E8E6" /><path d="M862.346 538.172l-7.07-4.136-42.24 24.418 7.09 4.096 42.22-24.38z" fill="#FFFFFF" /><path d="M911.26 372.184l-7.088-4.096 0.1 30.484 7.068 4.116-0.08-30.504z m-49.19 67.21l-7.09-4.116 0.296 98.778 7.09 4.116-0.296-98.778z" fill="#E9E8E6" /><path d="M911.34 402.688l-7.088-4.116-42.162 24.36 7.09 4.096 42.16-24.34z" fill="#FFFFFF" /><path d="M861.952 400.66l-7.07-4.136 0.1 30.524 7.068 4.096-0.098-30.484z" fill="#E9E8E6" /><path d="M862.05 431.144l-7.088-4.116-42.22 24.4 7.068 4.114 42.24-24.4z m56.3-71.228l-7.088-4.136-105.748 61.086 7.07 4.116 105.766-61.066z" fill="#FFFFFF" /><path d="M918.784 513.852l-105.748 61.044-0.452-153.914 105.746-61.066 0.454 153.936z m-98.66 48.7l42.22-24.38-0.274-98.778-42.24 24.38 0.296 98.776z m49.35-28.496l42.16-24.36-0.274-98.756-42.18 24.34 0.294 98.776z m-49.664-78.514l42.24-24.4-0.098-30.482-42.24 24.38 0.1 30.502z m49.35-28.514l42.18-24.34-0.08-30.504-42.18 24.36 0.08 30.484z" fill="#C4C2C0" /><path d="M812.584 420.982l-7.09-4.136 0.454 153.956 7.088 4.114-0.452-153.934z" fill="#E9E8E6" /><path d="M595.534 770.62l0.1 16.896 79.28 46.08-0.118-16.896-79.26-46.08z" fill="#C4C2C0" /><path d="M619.166 801.18l55.728 32.396-0.098-16.876-55.63-32.336v16.818z" fill="#B2B0AF" /><path d="M653.116 820.914l21.8 12.66-0.12-16.874-21.68-12.604v16.818z" fill="#C4C2C0" /><path d="M674.796 816.7l0.12 16.876 126.876-73.452-0.12-16.896-126.876 73.472z" fill="#B2B0AF" /><path d="M699.746 819.24l102.046-59.136-0.12-16.876-101.926 59.076v16.936z" fill="#C4C2C0" /><path d="M766.82 780.308l34.972-20.204-0.12-16.876-34.854 20.124v16.956z" fill="#B2B0AF" /><path d="M595.534 770.62l79.262 46.08 126.88-73.454-79.264-46.08-126.878 73.454z" fill="#E9E8E6" /><path d="M604.476 751.064l0.098 14.336 67.348 39.15-0.1-14.336-67.346-39.15z" fill="#C4C2C0" /><path d="M624.72 777.118l47.2 27.432-0.098-14.336-47.104-27.374v14.278z" fill="#B2B0AF" /><path d="M651.854 792.892l20.086 11.656-0.118-14.336-19.968-11.618v14.298z" fill="#C4C2C0" /><path d="M671.822 790.212l0.1 14.336 112.442-65.12-0.1-14.358-112.44 65.142z" fill="#B2B0AF" /><path d="M694.666 791.434l89.7-52.008-0.1-14.356-89.6 51.95v14.414z" fill="#C4C2C0" /><path d="M756.894 755.28l27.47-15.854-0.098-14.356-27.372 15.814v14.394z" fill="#B2B0AF" /><path d="M604.476 751.064l67.346 39.148 112.444-65.14-67.348-39.13-112.442 65.122z" fill="#E9E8E6" /><path d="M701.756 559.222v117.958l15.162 8.762V550.46l-15.162 8.762z" fill="#CEA03A" /><path d="M604.04 733.578l0.06 17.486 112.82-65.12-15.164-8.764-97.714 56.398z" fill="#E9E8E6" /><path d="M701.756 559.222v117.958l-21.092 12.188-4.134 2.364-42.536 24.576-4.136 2.362-25.796 14.928-0.198-75.954-0.02-4.726-0.078-37.12 26.092-15.064 4.136-2.384 42.536-24.556 4.134-2.362 21.092-12.21z" fill="#FFFFFF" /><path d="M701.756 596.36v4.768l-21.092 12.188v76.052l-4.134 2.364V615.68l-42.536 24.556v76.072l-4.136 2.362V642.64l-25.994 15.006-0.02-4.726 26.014-15.044v-37.14l4.136-2.384v37.16l42.536-24.576v-37.14l4.134-2.362v37.12l21.092-12.19z" fill="#E9E8E6" /><path d="M708.372 322.264c-13.136-7.64-31.292-6.556-51.34 5.002-39.776 22.98-71.954 78.73-71.836 124.456 0.08 22.744 8.114 38.774 21.032 46.276l-11.402-6.46c-12.92-7.52-20.952-23.492-21.032-46.276-0.118-45.744 32.04-101.474 71.838-124.454 20.046-11.56 38.202-12.644 51.338-5.022l11.4 6.48z" fill="#E74C3C" /><path d="M657.054 327.286c39.818-23 72.212-4.548 72.33 41.196 0.138 45.804-32.04 101.494-71.878 124.496-39.778 22.98-72.172 4.548-72.31-41.236-0.118-45.766 32.06-101.494 71.858-124.456z" fill="#CC4444" /><path d="M718.454 374.784c0.12 38.834-27.194 86.114-60.968 105.63-33.772 19.494-61.242 3.82-61.32-35.014-0.14-38.794 27.174-86.074 60.908-105.55 33.792-19.516 61.242-3.9 61.38 34.934z" fill="#FFFFFF" /><path d="M683.972 391.03c1.22-0.69 2.166-0.118 2.166 1.2 0 1.38-0.944 2.994-2.146 3.704l-19.77 11.42 0.06-1.416c0-0.43-0.034-0.858-0.1-1.28a6.024 6.024 0 0 0-0.59-1.852l20.38-11.776z" fill="#383736" /><path d="M664.38 407.276h0.04a15.952 15.952 0 0 1-7.13 11.068c-3.94 2.304-7.188 0.492-7.188-4.096 0-4.57 3.19-10.102 7.148-12.368 3.546-2.028 6.46-0.866 7.13 2.64 0.04 0.412 0.078 0.826 0.078 1.28 0 0.492-0.04 0.984-0.08 1.476z m-7.248-60.79c1.18-0.67 2.108-0.138 2.128 1.22v7.288a4.726 4.726 0 0 1-2.108 3.7c-1.18 0.67-2.126 0.1-2.126-1.26l-0.04-7.286c0-1.34 0.946-2.972 2.126-3.66h0.02z m0.316 115.062c1.18-0.688 2.126-0.138 2.126 1.22l0.02 7.288c0 1.378-0.946 3.012-2.108 3.68-1.16 0.672-2.146 0.14-2.146-1.2v-7.306c-0.02-1.378 0.926-2.992 2.108-3.68z m-37.928-75.4c0.552-0.316 1.102-0.396 1.516-0.18l4.51 2.56c0.826 0.514 0.826 2.068 0 3.486-0.362 0.64-0.876 1.182-1.496 1.576-0.592 0.334-1.104 0.394-1.518 0.178l-4.508-2.56c-0.848-0.492-0.848-2.028 0-3.486 0.356-0.644 0.87-1.186 1.496-1.576z m71.03 40.466c0.552-0.314 1.102-0.394 1.516-0.158l4.51 2.58c0.846 0.454 0.846 2.028 0 3.446-0.394 0.748-0.984 1.3-1.516 1.616-0.532 0.314-1.104 0.394-1.496 0.138l-4.51-2.56c-0.828-0.474-0.828-2.03 0-3.486 0.36-0.642 0.874-1.184 1.496-1.576z m-80.168 8.114c1.182-0.67 2.148-0.14 2.148 1.22 0 1.36-0.946 3.032-2.128 3.702l-6.32 3.664c-1.22 0.688-2.166 0.118-2.166-1.24 0-1.36 0.964-2.994 2.146-3.684l6.32-3.662z m100.136-57.818c1.18-0.668 2.166-0.138 2.166 1.22 0 1.36-0.984 3.034-2.146 3.724l-6.34 3.642c-1.182 0.69-2.168 0.14-2.168-1.22a4.726 4.726 0 0 1 2.166-3.702l6.322-3.664z m-86.272 88.006c0.532-0.316 1.084-0.394 1.516-0.158 0.828 0.472 0.828 2.028 0 3.446l-4.47 7.76c-0.36 0.652-0.88 1.2-1.516 1.594-0.552 0.334-1.102 0.394-1.496 0.138-0.868-0.452-0.868-2.008-0.02-3.446l4.47-7.74c0.352-0.652 0.868-1.2 1.496-1.594h0.02z m70.578-122.25c0.55-0.316 1.082-0.394 1.496-0.158 0.846 0.472 0.866 2.008 0 3.466l-4.45 7.76a4.37 4.37 0 0 1-1.516 1.574c-0.532 0.316-1.104 0.394-1.518 0.158-0.826-0.492-0.826-2.028 0-3.466l4.472-7.74c0.362-0.65 0.884-1.2 1.516-1.594z" fill="#383736" /><path d="M657.192 369.388c1.18-0.688 2.126-0.138 2.126 1.22l0.08 30.484a6.694 6.694 0 0 0-2.168 0.828 11.67 11.67 0 0 0-2.086 1.596l-0.08-30.464c0-1.36 0.906-2.954 2.128-3.664z" fill="#383736" /><path d="M573.794 445.106c0.08 22.764 8.114 38.754 21.032 46.276l11.42 6.46c-12.936-7.504-20.97-23.534-21.07-46.278 0-3.012 0.158-6.104 0.434-9.196l-11.42-6.46a104.22 104.22 0 0 0-0.396 9.198z" fill="#FC7E7E" /><path d="M651.716 317.48c-2.008 0.984-4.016 1.968-6.084 3.15-37.16 21.464-67.662 71.484-71.424 115.28l11.4 6.458c3.764-43.776 34.266-93.794 71.426-115.26 2.068-1.18 4.076-2.166 6.104-3.15l-11.42-6.48z" fill="#DD4A4A" /><path d="M708.372 322.088l-11.42-6.46c-11.778-6.852-27.63-6.616-45.236 1.852l11.422 6.48c17.606-8.47 33.438-8.726 45.234-1.872z" fill="#FC7E7E" /><path d="M657.054 327.09c39.818-22.98 72.212-4.53 72.33 41.234 0.138 45.786-32.04 101.496-71.878 124.496-39.778 22.96-72.172 4.528-72.31-41.256-0.118-45.744 32.06-101.474 71.858-124.456v-0.02z" fill="#C44141" /><path d="M718.454 374.626c0.12 38.834-27.194 86.096-60.968 105.63-33.772 19.476-61.242 3.8-61.32-35.032-0.14-38.794 27.174-86.056 60.908-105.552 33.792-19.494 61.242-3.88 61.38 34.954z" fill="#FFFFFF" /><path d="M683.972 390.892c1.22-0.708 2.166-0.138 2.166 1.18 0 1.38-0.944 2.996-2.146 3.684l-19.77 11.42 0.06-1.416c0-0.428-0.034-0.856-0.1-1.28a6.026 6.026 0 0 0-0.59-1.832l20.38-11.756z" fill="#383736" /><path d="M664.38 407.12h0.04a15.952 15.952 0 0 1-7.13 11.046c-3.94 2.324-7.188 0.492-7.188-4.076s3.19-10.102 7.148-12.366c3.546-2.03 6.46-0.868 7.13 2.638 0.04 0.394 0.078 0.828 0.078 1.28 0 0.492-0.04 0.984-0.08 1.476z m-7.248-60.792c1.18-0.688 2.108-0.138 2.128 1.22v7.288a4.726 4.726 0 0 1-2.108 3.682c-1.18 0.69-2.126 0.12-2.126-1.24l-0.04-7.286c0-1.34 0.946-2.994 2.126-3.664h0.02z m0.316 115.062c1.18-0.688 2.126-0.138 2.126 1.202l0.02 7.326c0 1.34-0.946 2.992-2.108 3.662-1.16 0.67-2.146 0.14-2.146-1.22v-7.286c-0.02-1.38 0.926-3.014 2.108-3.684z m-37.928-75.42c0.552-0.316 1.102-0.394 1.516-0.16l4.51 2.56c0.826 0.494 0.826 2.07 0 3.488-0.362 0.64-0.876 1.18-1.496 1.574-0.592 0.316-1.104 0.394-1.518 0.158l-4.508-2.56c-0.848-0.492-0.848-2.008 0-3.486 0.356-0.644 0.87-1.186 1.496-1.574z m71.03 40.486c0.552-0.314 1.102-0.394 1.516-0.176l4.51 2.6c0.846 0.452 0.846 2.008 0 3.444-0.394 0.75-0.984 1.3-1.516 1.616-0.532 0.314-1.104 0.394-1.496 0.138l-4.51-2.56c-0.828-0.474-0.828-2.048 0-3.486 0.36-0.642 0.874-1.184 1.496-1.576z m-80.168 8.114c1.182-0.69 2.148-0.138 2.148 1.22 0 1.36-0.946 3.014-2.128 3.702l-6.32 3.664c-1.22 0.688-2.166 0.118-2.166-1.24 0-1.36 0.964-3.014 2.146-3.684l6.32-3.662z m100.136-57.816c1.18-0.67 2.166-0.14 2.166 1.2 0 1.34-0.984 3.052-2.146 3.742l-6.34 3.644c-1.182 0.668-2.168 0.118-2.168-1.24a4.726 4.726 0 0 1 2.166-3.684l6.322-3.662z m-86.272 87.984c0.532-0.314 1.084-0.394 1.516-0.138 0.828 0.474 0.828 2.028 0 3.446l-4.47 7.74c-0.356 0.66-0.88 1.216-1.516 1.614-0.552 0.336-1.102 0.394-1.496 0.14-0.868-0.454-0.868-2.01-0.02-3.448l4.47-7.74c0.35-0.66 0.866-1.216 1.496-1.614h0.02z m70.578-122.23c0.55-0.314 1.082-0.394 1.496-0.176 0.846 0.492 0.866 2.028 0 3.484l-4.45 7.74a4.37 4.37 0 0 1-1.516 1.576c-0.532 0.334-1.104 0.412-1.518 0.196-0.826-0.512-0.826-2.048 0-3.486l4.472-7.76c0.366-0.64 0.886-1.184 1.516-1.574z" fill="#383736" /><path d="M657.192 369.23c1.18-0.688 2.126-0.156 2.126 1.202l0.08 30.504a6.694 6.694 0 0 0-2.168 0.826 11.68 11.68 0 0 0-2.086 1.596l-0.08-30.464c0-1.36 0.906-2.974 2.128-3.682v0.02z" fill="#383736" /><path d="M565.66 399.044a50.21 50.21 0 0 0-20.46 12.8c-5.788 5.948-10.22 12.94-12.78 20.62-1.024 2.56-4.252 2.56-5.276 0a51.594 51.594 0 0 0-33.22-33.42c-2.56-0.668-2.56-4.076 0-4.922a55.924 55.924 0 0 0 20.774-12.8 54.624 54.624 0 0 0 12.446-20.44c1.024-2.896 4.252-2.896 5.276 0 2.56 7.68 6.992 14.828 12.8 20.44 5.614 5.81 12.604 10.062 20.44 12.8 2.56 0.846 2.56 4.254 0 4.922z" fill="#FFFFFF" /></svg>