<?xml version="1.0" standalone="no"?><!DOCTYPE svg PUBLIC "-//W3C//DTD SVG 1.1//EN" "http://www.w3.org/Graphics/SVG/1.1/DTD/svg11.dtd"><svg class="icon" width="200px" height="200.00px" viewBox="0 0 1024 1024" version="1.1" xmlns="http://www.w3.org/2000/svg"><path d="M39.384 675.486v61.36l380.002 220.83v-61.36l-380-220.83z" fill="#7E8A8C" /><path d="M117.15 720.68v61.36l302.258 175.656v-61.38L117.148 720.68z" fill="#6D797A" /><path d="M221.874 781.528v61.36l197.514 114.808v-61.38l-197.514-114.788z" fill="#7E8A8C" /><path d="M321.516 839.444v61.36l97.872 56.872v-61.36l-97.872-56.872z" fill="#6D797A" /><path d="M419.388 896.316v61.36l565.228-326.32v-61.362l-565.228 326.32z" fill="#7E8A8C" /><path d="M589.194 798.286v61.36l395.42-228.29v-61.362l-395.42 228.292z" fill="#6D797A" /><path d="M762.664 698.132v61.36l221.952-128.136v-61.362l-221.952 128.138z" fill="#7E8A8C" /><path d="M39.384 675.486l380.002 220.828 565.228-326.32-380-220.83L39.382 675.486z" fill="#8D9799" /><path d="M106.634 652.012v31.036l287.192 166.912v-31.056L106.634 652.012z" fill="#D6D4D2" /><path d="M393.826 818.904v31.056l481.004-277.72v-31.056l-481.004 277.72z" fill="#C4C2C0" /><path d="M106.634 652.012l287.192 166.892 481.004-277.72-287.192-166.892-481.004 277.72z" fill="#E9E8E6" /><path d="M114.924 333.804l0.984 311.612 276.64 160.768-1.006-311.612-276.618-160.768z" fill="#D6D4D2" /><path d="M391.542 494.572l1.004 311.612 463.32-267.5-1.024-311.612-463.3 267.5z" fill="#C4C2C0" /><path d="M114.924 333.804l276.62 160.768 463.3-267.52-276.62-160.728-463.3 267.48z" fill="#E9E8E6" /><path d="M578.186 89.856V120.32l209.724 121.896 26.308-15.202-236.032-137.158z" fill="#D6D4D2" /><path d="M155.55 333.864l26.308 15.3L578.166 120.32V89.836L155.55 333.864z" fill="#C4C2C0" /><path d="M787.908 242.216L578.188 120.32 181.856 349.144l209.724 121.896 396.326-228.824z" fill="#FFFFFF" /><path d="M806.99 363.716l-1.654 0.946v-1.91l1.654 0.964z" fill="#D6D4D2" /><path d="M633.816 593.684l-1.574-0.906 1.554-0.926 0.02 1.832z" fill="#FFFFFF" /><path d="M633.816 593.684l-1.574-0.906 1.554-0.926 0.02 1.832z" fill="#D6D4D2" /><path d="M806.99 363.716l-1.654 0.946v-1.91l1.654 0.964z" fill="#FFFFFF" /><path d="M823.394 354.264l-9.846-5.71-189.952 110.474 0.434 147.988 9.846 5.71 189.912-110.494-0.394-147.968z m-18.058 8.488l1.674 0.984-1.674 0.926v-1.91z m-173.094 230.006l1.554-0.906v1.832l-1.554-0.926z" fill="#0074D1" /><path d="M823.788 498.334l-10.594-6.164-0.394-139.284 10.594 6.164 0.394 139.284z" fill="#D6D4D2" /><path d="M634.624 608.374l-10.614-6.164 189.184-110.04 10.594 6.164-189.164 110.04z" fill="#FFFFFF" /><path d="M625.762 623.734l-10.614-6.164-0.452-159.704 10.634 6.144 0.432 159.724z" fill="#D6D4D2" /><path d="M625.31 464.01l-10.614-6.164 206.966-120.32 10.594 6.184-206.946 120.3z" fill="#FFFFFF" /><path d="M625.31 464.01l206.966-120.32 0.434 159.744-206.948 120.3-0.452-159.724z m198.498 34.324l-0.394-139.284-189.184 110.04 0.394 139.284 189.184-110.04z" fill="#E9E8E6" /><path d="M572.83 763.274l-14.376-8.348-0.532-247.612 14.376 8.33 0.532 247.63z m-132.57 76.524l-14.374-8.348-0.572-266.576 14.356 8.35 0.59 266.574z" fill="#21201F" /><path d="M439.67 573.224l-14.356-8.35 149.072-86.056 14.374 8.33-149.09 86.076z" fill="#434240" /><path d="M588.74 487.148l0.592 266.574-16.502 9.532-0.552-247.61-116.046 67.012 0.532 247.61-16.504 9.532-0.59-266.574 149.07-86.076z" fill="#383736" /><path d="M558.474 754.906l-101.73 58.72-0.532-230.99 101.71-58.682 0.552 230.952z" fill="#434240" /><path d="M470.784 591.044l72.664-41.944 0.474 197.416-72.686 41.944-0.452-197.416z" fill="#B2B0AF" /><path d="M422.932 476.534l-11.264-6.538-0.256-88.064 11.264 6.54 0.256 88.062z" fill="#DD4A4A" /><path d="M422.676 388.47l-11.264-6.538L770.128 174.828l11.244 6.558-358.696 207.084z" fill="#F25A5A" /><path d="M781.372 181.366l0.256 88.064-358.696 207.124-0.256-88.064L781.372 181.366z" fill="#CC4848" /><path d="M472.792 391.364c1.142 1.34 1.694 3.388 1.714 6.086 0 2.698-0.552 5.336-1.674 8.014a24.962 24.962 0 0 1-4.786 7.346 30.366 30.366 0 0 1-7.324 5.848l-6.42 3.704 0.04 10.08-7.366 4.256-0.12-36.59 13.786-7.936a17.328 17.328 0 0 1 7.346-2.62c2.088-0.118 3.682 0.474 4.804 1.812z m-7.444 16.07a10.16 10.16 0 0 0 1.694-5.692c0-2.028-0.59-3.288-1.732-3.74-1.162-0.394-2.856 0-5.06 1.3l-5.988 3.444 0.02 12.722 6.006-3.466a14.612 14.612 0 0 0 5.06-4.568z m45.372-35.564c1.516 2.008 2.284 4.784 2.304 8.368 0 3.584-0.748 7.268-2.244 11.028-1.498 3.702-3.604 7.168-6.224 10.34a33.48 33.48 0 0 1-8.9 7.6 17.056 17.056 0 0 1-8.94 2.698 7.916 7.916 0 0 1-6.244-3.15c-1.496-2.03-2.264-4.826-2.264-8.41 0-3.584 0.728-7.246 2.206-10.988a38.1 38.1 0 0 1 6.202-10.358c2.66-3.19 5.632-5.71 8.94-7.62 3.31-1.912 6.264-2.798 8.92-2.68 2.62 0.1 4.728 1.144 6.244 3.152v0.02z m-6.44 19.494a19.004 19.004 0 0 0 1.28-6.812 9.256 9.256 0 0 0-1.32-5.318 4.548 4.548 0 0 0-3.582-2.086 8.86 8.86 0 0 0-5.08 1.436 18.312 18.312 0 0 0-5.082 4.432 22.004 22.004 0 0 0-3.584 6.222 19.12 19.12 0 0 0-1.26 6.794c-0.09 1.86 0.362 3.708 1.3 5.316 0.866 1.28 2.068 1.99 3.604 2.108a9.158 9.158 0 0 0 5.08-1.476 18.532 18.532 0 0 0 5.08-4.392 23.01 23.01 0 0 0 3.564-6.224z m25.778-39.896a26.664 26.664 0 0 1 5.946-2.6 12.306 12.306 0 0 1 5.12-0.55l-2.264 7.74a15.224 15.224 0 0 0-8.84 2.224c-2.05 1.18-3.586 2.44-4.55 3.78-0.966 1.34-1.478 2.64-1.478 3.9 0 1.26 0.592 1.832 1.714 1.772 1.142-0.02 2.874-0.414 5.2-1.18 2.42-0.71 4.41-1.202 5.966-1.44a5.26 5.26 0 0 1 3.998 0.828c1.1 0.788 1.654 2.402 1.654 4.844a16.404 16.404 0 0 1-1.478 6.578c-1.024 2.324-2.56 4.568-4.568 6.774a31.862 31.862 0 0 1-14.71 8.822 11.108 11.108 0 0 1-5.672 0.196l2.5-7.818c1.38 0.376 2.994 0.356 4.866-0.04a18.602 18.602 0 0 0 5.632-2.204 15.5 15.5 0 0 0 4.646-3.76 6.104 6.104 0 0 0 1.478-3.684c0-0.866-0.316-1.438-0.886-1.674a4.334 4.334 0 0 0-2.286-0.08c-0.924 0.2-2.166 0.534-3.74 1.026-1.954 0.622-3.948 1.108-5.968 1.456a5.12 5.12 0 0 1-3.978-0.904c-1.12-0.808-1.672-2.442-1.692-4.864 0-2.128 0.492-4.352 1.496-6.676 0.984-2.284 2.5-4.51 4.51-6.696 2.028-2.186 4.49-4.096 7.384-5.77z m41.138-23.12v6.894l-10.162 5.868 0.08 29.676-7.366 4.254-0.08-29.676-10.18 5.868-0.02-6.892 27.728-15.99z m47.38-18.766c1.534 2.01 2.302 4.806 2.302 8.39 0 3.584-0.728 7.246-2.244 11.008a38.266 38.266 0 0 1-6.222 10.358c-2.6 3.15-5.594 5.71-8.902 7.6a16.934 16.934 0 0 1-8.92 2.7 7.78 7.78 0 0 1-6.242-3.172c-1.518-2.008-2.286-4.804-2.286-8.388 0-3.604 0.73-7.248 2.226-11.008a37.2 37.2 0 0 1 15.124-17.96c3.308-1.91 6.3-2.816 8.92-2.678 2.64 0.1 4.726 1.142 6.242 3.15z m-6.44 19.496a19.004 19.004 0 0 0 1.28-6.814 9.254 9.254 0 0 0-1.32-5.296 4.588 4.588 0 0 0-3.544-2.108c-1.816-0.04-3.6 0.466-5.12 1.458a18.426 18.426 0 0 0-5.08 4.43 21.614 21.614 0 0 0-3.546 6.222 18.784 18.784 0 0 0-1.3 6.794c0 2.246 0.454 4.02 1.32 5.318 0.886 1.26 2.068 1.968 3.584 2.106 1.8 0.016 3.568-0.498 5.08-1.476a18.784 18.784 0 0 0 5.12-4.412c1.478-1.87 2.68-3.938 3.526-6.22z m38.3-46.494v6.794l-16.68 9.65 0.02 9.648 14.732-8.506 0.02 6.794-14.73 8.506 0.04 13.332-7.366 4.254-0.1-36.568 24.066-13.904z m29.048-16.758v6.774l-16.68 9.65 0.02 9.648 14.73-8.486 0.02 6.774-14.73 8.506 0.038 13.332-7.364 4.254-0.1-36.568 24.066-13.884z m12.346-7.148l0.098 36.588-7.364 4.254-0.1-36.588 7.366-4.254z m22.804-13.784a17.852 17.852 0 0 1 7.484-2.64 7.682 7.682 0 0 1 5.632 1.556l-4.728 7.76c-2.146-1.636-4.804-1.536-7.994 0.314a19.22 19.22 0 0 0-5.28 4.53 21.57 21.57 0 0 0-3.582 6.26 18.84 18.84 0 0 0-1.28 6.796c0 2.244 0.434 4.016 1.32 5.316 0.846 1.28 2.048 1.97 3.604 2.068a9.812 9.812 0 0 0 5.278-1.576c3.19-1.83 5.848-4.824 7.994-8.94l4.726 2.284a34.096 34.096 0 0 1-5.612 8.114 32.504 32.504 0 0 1-7.484 6.006 16.478 16.478 0 0 1-8.802 2.64 7.758 7.758 0 0 1-6.202-3.152c-1.52-2.028-2.266-4.844-2.286-8.468-0.02-3.622 0.73-7.286 2.226-11.028a37.764 37.764 0 0 1 6.164-10.318 32.868 32.868 0 0 1 8.82-7.522z m42.1-23.67v6.774l-16.696 9.648 0.018 7.936 14.77-8.526 0.02 6.578-14.77 8.526 0.02 8.468 17.33-9.984v6.814l-24.616 14.216-0.12-36.588 24.046-13.862z" fill="#FFFFFF" /><path d="M245.622 504.674l26.88-15.616-0.196 72.626-26.88 15.616 0.196-72.626z" fill="#C4C2C0" /><path d="M149.524 449.18l26.86-15.614 96.1 55.492-26.86 15.616-96.1-55.492z" fill="#FFFFFF" /><path d="M245.622 504.674l-0.196 72.626-96.1-55.494 0.198-72.624 96.1 55.492z" fill="#E9E8E6" /><path d="M231.542 534.45c-0.02 11.56-8.212 16.246-18.274 10.396-10.082-5.808-18.176-19.868-18.136-31.448 0.04-11.54 8.192-16.186 18.254-10.378 10.062 5.79 18.196 19.87 18.156 31.41v0.02z" fill="#434240" /><path d="M213.346 517.316c3.19 1.832 5.77 6.302 5.77 9.966-0.02 3.662-2.62 5.12-5.808 3.288-3.192-1.852-5.752-6.3-5.752-9.964 0-3.664 2.6-5.14 5.79-3.308v0.02z" fill="#E9E8E6" /><path d="M475.766 677.632c0 4.982 3.544 6.99 7.858 4.49a17.172 17.172 0 0 0 7.778-13.51c0-4.96-3.506-6.97-7.838-4.47a17.172 17.172 0 0 0-7.798 13.49z" fill="#434240" /><path d="M611.17 785.486L495.3 852.52l-38.536-22.252 115.888-67.014 38.52 22.232z" fill="#FFD651" /><path d="M572.652 763.274l-115.888 66.994-0.02-16.64 101.73-58.724 14.18 8.37z" fill="#FFD651" /></svg>