<?xml version="1.0" standalone="no"?><!DOCTYPE svg PUBLIC "-//W3C//DTD SVG 1.1//EN" "http://www.w3.org/Graphics/SVG/1.1/DTD/svg11.dtd"><svg class="icon" width="200px" height="200.00px" viewBox="0 0 1024 1024" version="1.1" xmlns="http://www.w3.org/2000/svg"><path d="M984.536 452.194l-0.098 63.094-182.804 106.24 0.08-63.094 182.822-106.24zM801.712 558.434l-0.078 63.094L353.24 883.022l0.1-63.094 448.372-261.494z" fill="#3DB542" /><path d="M509.756 728.694v63.034l291.88-170.2 0.078-63.094-291.96 170.26z" fill="#6DCB60" /><path d="M661.032 640.472v63.056l140.602-82 0.08-63.094-140.682 82.04z" fill="#2C9A2C" /><path d="M353.34 819.928l-0.1 63.094-313.856-181.208 0.1-63.094 313.854 181.208z" fill="#6DCB60" /><path d="M146.728 700.652v63.134L353.24 883.02l0.098-63.094-206.612-119.276z" fill="#3DB542" /><path d="M261.16 766.7v63.154l92.08 53.168 0.1-63.094-92.18-53.228z" fill="#2C9A2C" /><path d="M984.616 452.136l-182.942 106.32-265.412 155.174-182.942 106.32-313.856-181.172L670.72 270.966l313.896 181.17z" fill="#81D672" /><path d="M581.514 240.64l0.65 179.594 179.24 104.172-0.65-179.594-179.24-104.172z" fill="#D4D6D6" /><path d="M760.754 344.812l0.65 179.594 158.72-91.628-0.65-179.594-158.72 91.628z" fill="#E9E8E6" /><path d="M769.732 352.532l0.04 23.354 163.486-94.384-0.04-23.356-163.486 94.386z" fill="#CC4848" /><path d="M568.064 235.342l0.04 23.356 201.648 117.188-0.02-23.354-201.668-117.19z" fill="#DD4A4A" /><path d="M933.2 258.126l-163.526 94.486-201.492-117.368 163.308-94.266L933.2 258.126z" fill="#F25A5A" /><path d="M283.766 317.262l0.71 253.874 197.376 114.688-0.73-253.854-197.356-114.708z" fill="#D6D4D2" /><path d="M884.164 269.016l-152.694-88.674-114.294 65.97 152.518 88.852 114.47-66.148z" fill="#434240" /><path d="M481.122 431.97l0.73 253.854 279.53-161.378-0.728-253.874-279.532 161.4z" fill="#E9E8E6" /><path d="M272.62 310.036l-0.296 23.768 207.556 120.4-0.038-23.672-207.22-120.496z" fill="#DD4A4A" /><path d="M122.25 481.476l0.65 179.594 200.25 116.382-0.648-179.614-200.252-116.36z" fill="#D6D4D2" /><path d="M322.5 597.84l0.65 179.592 158.72-91.628-0.65-179.594-158.72 91.628z" fill="#E9E8E6" /><path d="M331.48 605.56l0.02 23.354 163.506-94.406-0.04-23.336-163.486 94.386z" fill="#CC4848" /><path d="M108.8 476.16l0.04 23.354 222.66 129.38-0.02-23.336L108.8 476.16z" fill="#DD4A4A" /><path d="M495.044 511.172L331.52 605.46 108.88 476.22l163.524-94.484 222.64 129.436z" fill="#F25A5A" /><path d="M598.292 235.324l18.884 10.988 114.294-65.97V158.424l-133.18 76.9z" fill="#CC4848" /><path d="M731.47 158.424v21.92l152.694 88.672 18.906-10.928-171.6-99.664z" fill="#DD4A4A" /><path d="M139.086 476.22l18.906 10.988 114.412-66.088v-21.918L139.086 476.22z" fill="#CC4848" /><path d="M272.404 399.202v21.918l173.508 100.962 18.924-10.91-192.432-111.97z" fill="#DD4A4A" /><path d="M445.914 522.082l-173.51-100.962-114.412 66.088 173.528 100.766 114.394-65.892z" fill="#434240" /><path d="M698.172 379.136c0.04 16.7-11.304 37.1-26.388 47.498a741.712 741.712 0 0 1-50.156 31.744 643.374 643.374 0 0 1-50.138 26.152c-7.444 3.484-14 3.484-18.746 0.57l-2.088-1.22c-5.04-2.916-8.094-9.04-8.094-17.646-0.06-17.76 12.506-39.52 28.022-48.48 2.7-1.538 5.376-2.64 7.936-3.29a155.936 155.936 0 0 0 40.566-16.798 236.502 236.502 0 0 0 40.548-30.03c2.638-2.364 5.296-4.372 7.954-5.908 6.066-3.486 12.014-4.648 17.016-3.21a13.692 13.692 0 0 1 3.11 1.32l1.772 1.062 0.592 0.336c5.18 2.992 8.074 9.334 8.074 17.9h0.02z" fill="#FFD651" /><path d="M686 362.752l2.384 1.38c4.726 2.756 7.364 8.544 7.404 16.402 0.04 15.26-10.378 33.95-24.24 43.52l-2.384-1.398c13.864-9.55 24.28-28.26 24.22-43.52 0-7.858-2.656-13.646-7.382-16.384z" fill="#3F9AE0" /><path d="M554.732 482.344l-2.362-1.38c4.332 2.5 10.24 2.442 16.974-0.688 16.56-7.72 33.24-16.424 49.92-26.054a744.796 744.796 0 0 0 49.9-31.566l2.364 1.38a736.98 736.98 0 0 1-49.88 31.586 641.312 641.312 0 0 1-49.92 26.032c-6.716 3.15-12.664 3.19-16.976 0.69h-0.02z" fill="#3498DB" /><path d="M681.944 356.096a13.702 13.702 0 0 0-3.11-1.32c-5.022-1.436-10.95-0.276-17.014 3.23a46.672 46.672 0 0 0-7.956 5.888c-13.45 12.19-26.98 22.232-40.528 30.05a157.18 157.18 0 0 1-40.586 16.78c-2.56 0.628-5.238 1.752-7.916 3.288-15.518 8.96-28.1 30.72-28.06 48.48 0.02 8.608 3.09 14.732 8.112 17.646l8.152 5.12c-5.02-2.914-8.074-9.02-8.112-17.644-0.04-17.762 12.544-39.504 28.06-48.464 2.68-1.574 5.358-2.658 7.918-3.288a157.188 157.188 0 0 0 40.566-16.798 237.824 237.824 0 0 0 40.566-30.05c2.62-2.382 5.278-4.352 7.936-5.868 6.064-3.526 12.012-4.686 17.014-3.25a14.64 14.64 0 0 1 3.112 1.32l-8.154-5.12z" fill="#3F9AE0" /><path d="M686.986 359.896c7.09 2.048 11.166 9.06 11.186 19.24 0.058 16.7-11.304 37.12-26.388 47.518-16.62 11.44-33.38 22.054-50.138 31.704-16.758 9.65-33.496 18.432-50.136 26.19-15.104 7.032-26.526-0.236-26.584-16.934-0.04-17.762 12.544-39.504 28.06-48.464a30.46 30.46 0 0 1 7.918-3.308 157.19 157.19 0 0 0 40.566-16.778 237.852 237.852 0 0 0 40.566-30.05c2.62-2.382 5.278-4.352 7.936-5.868 6.066-3.526 12.012-4.686 17.014-3.25z m-15.44 64.14c13.864-9.552 24.28-28.24 24.222-43.52 0-9.316-3.74-15.716-10.24-17.586-4.568-1.32-9.984-0.238-15.556 2.954a42.734 42.734 0 0 0-7.286 5.394c-13.648 12.406-27.412 22.608-41.196 30.564-13.786 7.954-27.55 13.646-41.236 17.052-2.364 0.572-4.806 1.576-7.266 3.014-14.18 8.192-25.7 28.08-25.66 44.308 0.04 15.28 10.536 21.916 24.42 15.44 16.54-7.7 33.22-16.406 49.9-26.036 16.678-9.628 33.338-20.184 49.9-31.586z" fill="#006CB5" /><path d="M575.212 440.91c3.112-1.792 5.692-1.988 7.78-0.59l-2.148 3.94a5.122 5.122 0 0 0-2.698-0.592 7.028 7.028 0 0 0-2.992 1.082 14.12 14.12 0 0 0-5.06 5.18c-1.38 2.284-2.05 4.588-2.05 6.912s0.69 3.9 2.068 4.648c1.36 0.806 2.954 0.668 4.824-0.414a12.596 12.596 0 0 0 3.034-2.402c0.826-0.926 1.692-2.166 2.6-3.644l2.164 1.28c-2.086 3.92-4.666 6.736-7.68 8.468-3.032 1.752-5.514 2.068-7.482 1.004-2.01-1.102-3.014-3.348-3.034-6.774 0-3.388 0.986-6.814 2.994-10.26 2.048-3.486 4.588-6.064 7.68-7.838z m21.208-11.696l8.862 17.86-3.584 2.068-2.008-4.056-10.004 5.77-1.97 6.36-3.602 2.088 8.704-28.004 3.602-2.086z m-5.356 17.27l7.228-4.176-3.664-7.364-3.564 11.54z m23.1-28.06a12.284 12.284 0 0 1 3.8-1.5 6.2 6.2 0 0 1 3.27 0.14l-1.774 3.958a4.114 4.114 0 0 0-2.42-0.08 9.04 9.04 0 0 0-5.396 3.19c-0.6 0.752-0.932 1.68-0.946 2.64 0 0.926 0.334 1.438 0.946 1.576 0.648 0.136 1.968-0.1 4.016-0.69 2.068-0.65 3.604-0.728 4.648-0.316 1.024 0.434 1.576 1.636 1.576 3.664a10.75 10.75 0 0 1-1.97 5.986 14.964 14.964 0 0 1-5.18 4.884c-3.11 1.792-5.868 2.166-8.29 1.082l2.068-4.134a6.892 6.892 0 0 0 6.3-0.63c1.104-0.63 1.97-1.38 2.58-2.266 0.596-0.776 0.934-1.72 0.966-2.698 0-0.886-0.296-1.418-0.906-1.536a6.872 6.872 0 0 0-3.092 0.394c-1.094 0.36-2.212 0.636-3.348 0.828a4.04 4.04 0 0 1-2.028-0.158c-1.18-0.334-1.772-1.576-1.772-3.702 0-2.108 0.63-4.136 1.97-6.066a15.44 15.44 0 0 1 4.98-4.568z m15.202-8.234l0.06 22.942-3.368 1.95-0.08-22.94 3.388-1.952z m23.868-13.784l0.078 22.94-3.662 2.108-11.364-10.2 0.04 16.74-3.348 1.928-0.06-22.94 3.348-1.93 11.66 10.436-0.06-17.132 3.368-1.95z m22.252-9.984c2.028 1.084 3.072 3.288 3.072 6.696 0.02 3.348-0.986 6.794-3.014 10.22-1.988 3.426-4.49 5.986-7.444 7.68-2.992 1.732-5.474 2.068-7.5 0.946-2.03-1.084-3.034-3.348-3.054-6.716 0-3.406 0.984-6.774 2.994-10.2 2.028-3.466 4.488-6.006 7.482-7.72 2.954-1.714 5.474-2.048 7.484-0.906h-0.02z m-2.402 15.754a14.318 14.318 0 0 0 2.008-7.07c0-2.284-0.69-3.88-2.028-4.726-1.38-0.788-3.072-0.65-5.022 0.492a13.784 13.784 0 0 0-5.02 5.298 14.256 14.256 0 0 0-2.03 7.09c0 2.322 0.69 3.898 2.068 4.726 1.36 0.786 3.032 0.65 5.02-0.494a13.98 13.98 0 0 0 5.004-5.316z" fill="#434240" /><path d="M769.456 263.424L479.94 430.612l-207.32-120.576 289.516-167.188 207.32 120.576z" fill="#F25A5A" /><path d="M302.73 310.074l18.904 10.99L562.1 182.194v-21.9l-259.368 149.78z" fill="#CC4848" /><path d="M562.098 160.296v21.898l158.326 92.1 18.904-10.91-177.23-103.088z" fill="#DD4A4A" /><path d="M720.442 274.314l-158.326-92.12-240.5 138.87 158.364 92.1 240.462-138.85z" fill="#434240" /><path d="M479.842 430.534l0.04 23.67 289.574-167.188-0.018-23.67-289.596 167.188z" fill="#CC4848" /><path d="M738.284 544.256l-75.322 43.46v-122.032l74.87-43.224 0.452 121.796z m-124.77 72.31l-77.666 44.84-1.714-123.472 78.926-44.78 0.454 123.412z" fill="#434240" /><path d="M741.81 546.304l-3.526-2.048-0.354-96.61 3.544 2.068 0.336 96.59z m-0.376-103.424l-3.544-2.048-0.06-22.488 3.546 2.068 0.06 22.468z m-41.786 127.804l-3.544-2.068-0.356-96.612 3.546 2.068 0.354 96.612z" fill="#D6D4D2" /><path d="M705.18 463.812l-3.524-2.048 36.234-20.932 3.544 2.068-36.252 20.912z" fill="#E9E8E6" /><path d="M699.274 467.26l-3.544-2.068-0.08-22.49 3.546 2.048 0.078 22.51z" fill="#D6D4D2" /><path d="M663.02 488.172l-3.544-2.048 36.234-20.932 3.544 2.068-36.234 20.912z" fill="#E9E8E6" /><path d="M657.448 595.022l-9.452-5.514-0.474-132.706 9.452 5.514 0.474 132.706z" fill="#D6D4D2" /><path d="M656.994 462.296l-9.452-5.494 90.29-52.144 9.452 5.514-90.29 52.124z" fill="#FFFFFF" /><path d="M656.994 462.296l90.31-52.144 0.452 132.726-5.928 3.426-0.374-96.59-36.232 20.932 0.354 96.59-5.928 3.428-0.374-96.592-36.234 20.914 0.354 96.61-5.946 3.426-0.454-132.726z m42.26 4.962l-0.06-22.508-36.232 20.934 0.06 22.488 36.232-20.914z m42.18-24.36l-0.058-22.486-36.234 20.912 0.06 22.488 36.234-20.912z" fill="#C4C2C0" /><path d="M616.468 619.048l-3.544-2.048-0.356-96.592 3.546 2.048 0.354 96.592z m-0.374-103.404l-3.546-2.068-0.06-22.49 3.546 2.068 0.06 22.49z m-41.808 127.762l-3.544-2.048-0.354-96.61 3.544 2.068 0.354 96.59z" fill="#D6D4D2" /><path d="M579.86 536.576l-3.544-2.068 36.232-20.932 3.546 2.068-36.234 20.932z" fill="#E9E8E6" /><path d="M573.912 540.002l-3.544-2.068-0.06-22.488 3.546 2.048 0.06 22.508z" fill="#D6D4D2" /><path d="M537.66 560.916l-3.546-2.048 36.254-20.934 3.544 2.068-36.252 20.914z" fill="#E9E8E6" /><path d="M532.106 667.766l-9.452-5.514-0.474-132.706 9.454 5.514 0.472 132.706z" fill="#D6D4D2" /><path d="M531.652 535.04l-9.452-5.494 90.29-52.146 9.452 5.514-90.29 52.126z" fill="#FFFFFF" /><path d="M531.652 535.04l90.31-52.146 0.452 132.726-5.946 3.428-0.354-96.592-36.234 20.934 0.354 96.59-5.948 3.426-0.354-96.59-36.234 20.914 0.354 96.61-5.946 3.426-0.454-132.726z m42.26 4.962l-0.06-22.508-36.232 20.934 0.04 22.488L573.912 540z m42.18-24.36l-0.058-22.488-36.234 20.914 0.06 22.508 36.234-20.932z" fill="#C4C2C0" /><path d="M207.95 588.248l-0.274 92.554-5.24 3.052-54.152-31.25 0.294-92.554 5.24-3.034 54.132 31.232z" fill="#3F9AE0" /><path d="M152.694 602.132l5.77-3.348-0.138 49.586-5.77 3.348 0.14-49.586z" fill="#D6D4D2" /><path d="M152.556 651.716l5.77-3.346 45.096 26.052-5.75 3.348-45.116-26.054z" fill="#FFFFFF" /><path d="M152.812 566.45l5.75-3.348-0.06 27.312-5.788 3.348 0.1-27.312z" fill="#D6D4D2" /><path d="M152.714 593.782l5.79-3.348 45.094 26.034-5.77 3.348-45.114-26.034z" fill="#FFFFFF" /><path d="M205.194 588.328l5.77-3.348-0.276 101.966-5.79 3.348 0.296-101.966z" fill="#E9E8E6" /><path d="M145.566 553.906l5.77-3.348 59.628 34.42-5.77 3.35-59.628-34.422z" fill="#FFFFFF" /><path d="M145.566 553.906l59.628 34.42-0.296 101.988-59.628-34.442 0.296-101.966z m52.106 123.864l0.138-49.604-45.096-26.034-0.158 49.586 45.116 26.052z m0.156-57.954l0.08-27.334-45.096-26.032-0.1 27.332 45.116 26.034z" fill="#B2B0AF" /><path d="M296.212 639.016l-0.256 92.554-5.24 3.052-54.152-31.252 0.276-92.554 5.258-3.052 54.114 31.252z" fill="#3F9AE0" /><path d="M240.974 652.88l5.77-3.348-0.138 49.604-5.77 3.348 0.14-49.606z" fill="#D6D4D2" /><path d="M240.836 702.484l5.77-3.348 45.096 26.034-5.75 3.348-45.116-26.034z" fill="#FFFFFF" /><path d="M241.074 617.196l5.77-3.348-0.08 27.334-5.77 3.348 0.08-27.334z" fill="#D6D4D2" /><path d="M240.994 644.53l5.77-3.348 45.116 26.032-5.77 3.348-45.116-26.032z" fill="#FFFFFF" /><path d="M293.474 639.094l5.77-3.348-0.296 101.968-5.768 3.348 0.294-101.968z" fill="#E9E8E6" /><path d="M233.846 604.672l5.77-3.348 59.628 34.422-5.77 3.348-59.628-34.422z" fill="#FFFFFF" /><path d="M233.846 604.672l59.628 34.422-0.294 101.968-59.63-34.424 0.296-101.966z m52.106 123.864l0.138-49.604-45.096-26.054-0.158 49.606 45.116 26.052z m0.158-57.954l0.08-27.332-45.098-26.054-0.098 27.334 45.116 26.052z" fill="#B2B0AF" /><path d="M372.36 630.41l0.278 92.554 5.218 3.052 54.154-31.252-0.276-92.554-5.238-3.032-54.134 31.232z" fill="#3F9AE0" /><path d="M427.6 644.292l-5.772-3.346 0.14 49.584 5.768 3.348-0.138-49.586z" fill="#D6D4D2" /><path d="M427.736 693.898l-5.77-3.348-45.094 26.034 5.77 3.348 45.094-26.034z" fill="#FFFFFF" /><path d="M427.5 608.61l-5.77-3.348 0.08 27.314 5.77 3.348-0.08-27.314z" fill="#D6D4D2" /><path d="M427.58 635.944l-5.77-3.348-45.096 26.032 5.75 3.348 45.116-26.032z" fill="#FFFFFF" /><path d="M375.1 630.508l-5.77-3.348 0.294 101.948 5.77 3.348-0.294-101.948z" fill="#D6D4D2" /><path d="M434.748 596.086l-5.79-3.368-59.628 34.424 5.77 3.346 59.648-34.4z" fill="#FFFFFF" /><path d="M435.022 698.034l-59.628 34.44-0.294-101.966 59.648-34.44 0.274 101.966z m-52.38 21.898l45.094-26.034-0.138-49.606-45.094 26.054 0.138 49.586z m-0.178-57.956l45.096-26.032-0.06-27.334-45.096 26.054 0.06 27.312z" fill="#B2B0AF" /><path d="M810.614 380.988l0.276 92.552 5.238 3.054 54.134-31.252-0.276-92.554-5.238-3.032-54.134 31.232z" fill="#3F9AE0" /><path d="M865.87 394.87l-5.788-3.348 0.138 49.586 5.788 3.348-0.138-49.586z" fill="#D6D4D2" /><path d="M866.008 444.456l-5.788-3.348-45.096 26.052 5.77 3.348 45.114-26.052z" fill="#FFFFFF" /><path d="M865.752 359.188l-5.77-3.348 0.08 27.314 5.77 3.346-0.08-27.312z" fill="#D6D4D2" /><path d="M865.832 386.52l-5.77-3.348-45.096 26.034 5.75 3.348 45.116-26.034z" fill="#FFFFFF" /><path d="M813.352 381.086l-5.77-3.348 0.294 101.946 5.77 3.348-0.294-101.946z" fill="#D6D4D2" /><path d="M873 346.644l-5.77-3.348-59.648 34.422 5.77 3.348 59.648-34.422z" fill="#FFFFFF" /><path d="M873.294 448.61l-59.648 34.442-0.294-101.966 59.648-34.442 0.294 101.966z m-52.4 21.9l45.094-26.034-0.136-49.606-45.096 26.054 0.138 49.584z m-0.178-57.956l45.116-26.034-0.08-27.332-45.094 26.052 0.06 27.314z" fill="#B2B0AF" /><path d="M526.238 309.346l-0.06 21.524-69.336 40.31 0.06-21.544 69.336-40.29z" fill="#D6D4D2" /><path d="M456.9 349.636l-0.058 21.544-69.79-40.31 0.06-21.524 69.788 40.29z" fill="#E9E8E6" /><path d="M526.238 309.346l-69.338 40.29-69.788-40.29 69.316-40.31 69.81 40.31z" fill="#FFFFFF" /><path d="M457.327979 283.925874a3.328 1.93 0.17 1 0 0.011453-3.859983 3.328 1.93 0.17 1 0-0.011453 3.859983Z" fill="#434240" /><path d="M504.075985 310.901874a3.328 1.93 0.17 1 0 0.011453-3.859983 3.328 1.93 0.17 1 0-0.011453 3.859983Z" fill="#434240" /><path d="M456.707861 327.641427a31.488 18.236 0.17 1 0 0.108215-36.47184 31.488 18.236 0.17 1 0-0.108215 36.47184Z" fill="#434240" /><path d="M411.708 308.38c1.32 0.77 1.28 1.99 0 2.76-1.28 0.766-3.368 0.728-4.688-0.02-1.32-0.75-1.34-1.97-0.04-2.72a5.22 5.22 0 0 1 4.728 0v-0.02z m46.748 26.98c1.32 0.788 1.28 2.008 0 2.756-1.28 0.75-3.366 0.73-4.686-0.02-1.32-0.748-1.34-1.948-0.04-2.696a5.218 5.218 0 0 1 4.726-0.02v-0.02z" fill="#434240" /><path d="M467.24 298.102c2.362 1.38 1.654 3.74-1.516 4.49a12.072 12.072 0 0 0-4.53 1.91 7.288 7.288 0 0 0-2.324 2.284c0.844 0.226 1.614 0.676 2.226 1.3 2.64-0.236 5.828-0.196 8.388 0.492 2.974 0.512 5.514 1.872 7.266 3.506 1.498 1.438 0.552 3.288-2.048 3.958a7.484 7.484 0 0 1-5.336-0.532 3.19 3.19 0 0 1-1.044-0.906 7.68 7.68 0 0 0-3.308-2.64 14.768 14.768 0 0 0-3.94-1.338c-0.604 0.64-1.386 1.084-2.244 1.28 0.54 1.654 0.246 3.466-0.788 4.864-0.984 1.89-3.584 3.308-6.044 4.194a7.582 7.582 0 0 1-5.888-0.394c-2.402-1.378-1.634-3.76 1.516-4.488 1.654-0.394 3.348-1.006 4.53-1.91 0.94-0.574 1.734-1.356 2.322-2.286a4.352 4.352 0 0 1-2.204-1.3c-2.818 0.308-5.666 0.14-8.43-0.492a14.16 14.16 0 0 1-7.246-3.504c-1.496-1.42-0.59-3.27 2.048-3.98a7.484 7.484 0 0 1 5.318 0.554c0.452 0.256 0.786 0.55 1.042 0.904 0.848 1.182 1.99 2.068 3.328 2.64a14.768 14.768 0 0 0 3.94 1.36 4.784 4.784 0 0 1 2.204-1.3 5.316 5.316 0 0 1 0.828-4.866c0.984-1.89 3.564-3.308 6.046-4.194a7.62 7.62 0 0 1 5.906 0.394h-0.02z" fill="#FFFFFF" /><path d="M637.046 246.686l-0.08 21.542-69.316 40.292 0.04-21.544 69.356-40.29z" fill="#D6D4D2" /><path d="M567.69 286.976l-0.06 21.544-69.788-40.292 0.06-21.542 69.788 40.29z" fill="#E9E8E6" /><path d="M637.046 246.686l-69.356 40.29-69.79-40.29 69.336-40.29 69.81 40.29z" fill="#FFFFFF" /><path d="M568.135985 221.223874a3.328 1.93 0.17 1 0 0.011453-3.859983 3.328 1.93 0.17 1 0-0.011453 3.859983Z" fill="#434240" /><path d="M614.907979 248.263874a3.328 1.93 0.17 1 0 0.011453-3.859983 3.328 1.93 0.17 1 0-0.011453 3.859983Z" fill="#434240" /><path d="M567.515855 264.941427a31.488 18.236 0.17 1 0 0.108215-36.47184 31.488 18.236 0.17 1 0-0.108215 36.47184Z" fill="#434240" /><path d="M522.516 245.74c1.3 0.748 1.28 1.97-0.02 2.738s-3.348 0.728-4.668-0.02c-1.32-0.748-1.358-1.95-0.06-2.698a5.22 5.22 0 0 1 4.728-0.02h0.02z m46.73 27c1.32 0.746 1.3 1.968 0 2.716-1.3 0.748-3.348 0.748-4.668 0-1.32-0.748-1.36-1.97-0.06-2.718a5.22 5.22 0 0 1 4.728 0z" fill="#434240" /><path d="M578.028 235.46c2.364 1.38 1.654 3.742-1.516 4.49a12.07 12.07 0 0 0-4.53 1.91 7.286 7.286 0 0 0-2.322 2.286c0.84 0.22 1.61 0.66 2.224 1.28 2.64-0.238 5.83-0.198 8.41 0.492 2.952 0.532 5.512 1.87 7.246 3.504 1.496 1.44 0.552 3.29-2.048 3.98-1.78 0.476-3.674 0.28-5.318-0.552a3.19 3.19 0 0 1-1.042-0.906 7.68 7.68 0 0 0-3.328-2.62 14.77 14.77 0 0 0-3.94-1.36 4.47 4.47 0 0 1-2.224 1.3 5.376 5.376 0 0 1-0.808 4.846c-0.984 1.89-3.564 3.328-6.046 4.194a7.58 7.58 0 0 1-5.888-0.394c-2.402-1.38-1.634-3.74 1.516-4.49 1.674-0.394 3.348-0.984 4.53-1.91 0.94-0.572 1.736-1.354 2.324-2.284a4.352 4.352 0 0 1-2.206-1.28c-2.81 0.304-5.652 0.14-8.408-0.492a14.14 14.14 0 0 1-7.266-3.526c-1.478-1.418-0.592-3.268 2.048-3.958a7.484 7.484 0 0 1 5.336 0.552c0.432 0.236 0.788 0.552 1.044 0.886 0.826 1.2 1.968 2.068 3.308 2.64a14.77 14.77 0 0 0 3.938 1.358c0.606-0.62 1.368-1.06 2.206-1.28a5.316 5.316 0 0 1 0.846-4.864c0.986-1.89 3.546-3.328 6.026-4.194a7.62 7.62 0 0 1 5.908 0.392h-0.02zM510.326 441.6c-14.258 4.628-24.792 16.502-28.986 29.144-0.906 2.206-3.742 2.206-4.608 0a44.998 44.998 0 0 0-28.988-29.144c-2.244-0.59-2.244-3.584 0-4.332 13.746-4.766 24.24-14.77 28.988-28.968 0.886-2.54 3.7-2.54 4.608 0 4.194 12.584 14.276 23.868 28.986 28.988 2.226 0.728 2.226 3.702 0 4.312z" fill="#FFFFFF" /></svg>