<?xml version="1.0" standalone="no"?><!DOCTYPE svg PUBLIC "-//W3C//DTD SVG 1.1//EN" "http://www.w3.org/Graphics/SVG/1.1/DTD/svg11.dtd"><svg class="icon" width="200px" height="200.00px" viewBox="0 0 1024 1024" version="1.1" xmlns="http://www.w3.org/2000/svg"><path d="M39.384 421.12l0.986 327.168 288.02 167.384-0.986-327.168-288.02-167.384z" fill="#B6B9BA" /><path d="M40.29 721.152l0.08 27.136 288.02 167.384-0.08-27.136-288.02-167.384z" fill="#F25A5A" /><path d="M121.916 795.688l206.474 119.984-0.08-27.136-206.376-119.926-0.02 27.078z" fill="#DD4A4A" /><path d="M240.108 864.354l88.28 51.32-0.078-27.138-88.22-51.26 0.02 27.08z" fill="#F25A5A" /><path d="M327.404 588.504l0.984 327.168 583.9-337.132-0.988-327.168-583.896 337.132z" fill="#A2A4A5" /><path d="M328.31 888.516l0.08 27.156L912.284 578.54l-0.08-27.116-583.896 337.092z" fill="#DD4A4A" /><path d="M39.384 421.12l288.02 167.384L911.3 251.372 623.28 83.988 39.384 421.12z" fill="#CFD2D3" /><path d="M78.908 421.18l17.072 9.924L623.26 126.66v-19.75L78.91 421.18z" fill="#A2A4A5" /><path d="M623.26 106.89v19.79l231.446 134.5 17.072-9.848L623.26 106.89z" fill="#B6B9BA" /><path d="M854.704 261.18l-231.44-134.5L95.98 431.104l231.464 134.5 527.26-304.424z" fill="#434240" /><path d="M428.8 839.858l0.08 17.624 141.98 82.51-0.1-17.624-141.96-82.51z" fill="#D6D4D2" /><path d="M474.94 884.244l95.92 55.748-0.1-17.624-95.82-55.71v17.586z" fill="#C4C2C0" /><path d="M539.314 921.66l31.546 18.332-0.1-17.624-31.446-18.294v17.586z" fill="#D6D4D2" /><path d="M570.76 922.368l0.1 17.624 413.756-224.806-0.1-17.626-413.754 224.808z" fill="#C4C2C0" /><path d="M692.48 873.926l292.136-158.72-0.1-17.646-292.036 158.66v17.706z" fill="#B2B0AF" /><path d="M835.544 796.2l149.072-81.014-0.1-17.626-148.972 80.936v17.704z" fill="#C4C2C0" /><path d="M428.8 839.858l141.98 82.51L984.518 697.56l-141.98-82.51L428.8 839.858z" fill="#E9E8E6" /><path d="M619.894 592.74l77.116-44.526 0.196 138.732-3.25 1.97-73.846 39.994-0.216-136.172z" fill="#FFFFFF" /><path d="M691.004 559.26l-8.468 4.866 0.196 121.068 8.468 5.02-0.196-130.952z" fill="#C4C2C0" /><path d="M682.732 685.194l-0.176-121.068-55.79 32.196 0.04 56.95 55.906 31.902 0.02 0.02z" fill="#DDB040" /><path d="M682.712 685.194l-55.906-31.92 0.138 61.97 55.768-30.05z" fill="#FFD651" /><path d="M447.724 812.74l0.08 16.542 130.4 75.776-0.078-16.54-130.4-75.778z" fill="#D6D4D2" /><path d="M487.03 852.066l91.176 52.972-0.08-16.5-91.096-52.934v16.462z" fill="#C4C2C0" /><path d="M538.388 881.9l39.818 23.16-0.08-16.544-39.74-23.08v16.464z" fill="#D6D4D2" /><path d="M578.126 888.516l0.08 16.542 387.504-210.53-0.098-16.54-387.486 210.528z" fill="#C4C2C0" /><path d="M693.208 842.556l272.502-148.008-0.098-16.54-272.384 148.006-0.02 16.54z" fill="#B2B0AF" /><path d="M835.584 765.204l130.106-70.696-0.098-16.5-130.008 70.634v16.56z" fill="#C4C2C0" /><path d="M447.724 812.74l130.402 75.796 387.466-210.53-130.4-75.796L447.722 812.74z" fill="#E9E8E6" /><path d="M151.612 642.126l6.694-3.938-0.138 114.374-6.694 3.84-83.968-48.444 0.156-114.334c0.1-26.584 18.984-37.336 42.142-24.024 11.206 6.5 21.7 17.604 29.638 31.292 3.978 6.892 7.068 14.06 9.156 21.09a96.82 96.82 0 0 0-9.156-21.268c-7.936-13.666-18.432-24.774-29.638-31.232-11.658-6.696-22.232-7.346-29.872-2.914l6.694-3.86c7.68-4.47 18.196-3.86 29.854 2.856 11.224 6.498 21.7 17.604 29.636 31.27 7.898 13.726 12.21 28.338 12.21 41.236l-6.714 3.86v0.196z" fill="#434240" /><path d="M72.586 596.046l6.99-4.076-0.138 108.86-6.99 4.056 0.138-108.84z" fill="#C4C2C0" /><path d="M72.448 704.886l6.99-4.056 73.846 42.634-6.99 4.076-73.846-42.654z" fill="#FFFFFF" /><path d="M83.358 572.376l7.01-4.056c-6.636 3.84-10.752 12.032-10.792 23.65l-6.99 4.076c0.02-11.618 4.136-19.81 10.772-23.67z" fill="#C4C2C0" /><path d="M153.48 642.756l6.992-4.076-0.156 116.954-6.992 4.056 0.158-116.934z" fill="#E9E8E6" /><path d="M140.68 599.414l7.012-4.076c8.272 14.336 12.82 29.676 12.8 43.166l-7.01 4.076c0.04-13.49-4.51-28.83-12.8-43.166z" fill="#FFFFFF" /><path d="M78.376 563.614l6.99-4.058c8.014-4.646 19.082-4.016 31.292 3.034 11.736 6.774 22.764 18.412 31.034 32.748l-7.01 4.076c-8.272-14.336-19.3-25.994-31.036-32.748-12.208-7.05-23.276-7.68-31.27-3.052z" fill="#FFFFFF" /><path d="M140.68 599.572c8.292 14.356 12.84 29.676 12.8 43.184l-0.156 116.934-87.966-50.766 0.178-116.954c0.08-27.864 19.87-39.128 44.11-25.146 11.738 6.774 22.766 18.432 31.036 32.748z m5.614 147.968l0.138-108.86c0.02-11.342-3.78-24.2-10.732-36.234-6.972-12.05-16.226-21.82-26.074-27.51-20.36-11.756-36.98-2.284-37.04 21.11l-0.138 108.84 73.846 42.654z" fill="#D6D4D2" /><path d="M156.85 637.244l7.186-4.196-0.156 122.626-7.168 4.134-90.054-51.968 0.178-122.584c0.1-28.516 20.34-40.036 45.174-25.758 12.012 6.972 23.276 18.884 31.784 33.536 4.272 7.404 7.58 15.084 9.806 22.646a103.818 103.818 0 0 0-9.806-22.804c-8.508-14.67-19.772-26.584-31.784-33.516-12.504-7.188-23.828-7.876-32.02-3.13l7.168-4.136c8.232-4.786 19.516-4.136 32.02 3.072 12.012 6.952 23.276 18.864 31.784 33.536 8.466 14.71 13.074 30.366 13.074 44.208l-7.186 4.136v0.198z" fill="#434240" /><path d="M72.094 587.854l7.522-4.37-0.158 116.716-7.502 4.372 0.138-116.718z" fill="#C4C2C0" /><path d="M71.956 704.572l7.502-4.372 79.184 45.726-7.504 4.37-79.182-45.724z" fill="#FFFFFF" /><path d="M83.652 562.472l7.524-4.352c-7.11 4.134-11.54 12.898-11.56 25.364l-7.522 4.37c0.04-12.464 4.45-21.248 11.56-25.382z" fill="#C4C2C0" /><path d="M158.858 637.932l7.482-4.372-0.156 125.4-7.504 4.374 0.178-125.4z" fill="#E9E8E6" /><path d="M145.132 591.46l7.522-4.374c8.862 15.38 13.746 31.824 13.706 46.298l-7.502 4.372c0.04-14.474-4.844-30.918-13.726-46.298z" fill="#FFFFFF" /><path d="M78.316 553.08l7.504-4.374c8.584-4.98 20.46-4.292 33.536 3.27 12.602 7.266 24.418 19.75 33.28 35.11l-7.484 4.372c-8.88-15.36-20.716-27.864-33.3-35.13-13.096-7.542-24.97-8.232-33.536-3.25z" fill="#FFFFFF" /><path d="M145.132 591.636c8.88 15.38 13.766 31.822 13.726 46.296l-0.198 125.4-94.306-54.448 0.198-125.4c0.08-29.874 21.286-41.966 47.3-26.98 12.584 7.286 24.42 19.772 33.28 35.132z m6.006 158.66l0.158-116.736c0.02-12.15-4.056-25.934-11.52-38.852-7.464-12.92-17.388-23.394-27.964-29.5-21.82-12.602-39.64-2.46-39.72 22.646l-0.136 116.718 79.182 45.724z" fill="#D6D4D2" /><path d="M293.02 716.072l7.19-4.196-0.178 122.604-7.168 4.136-90.034-51.948 0.178-122.584c0.1-28.514 20.342-40.054 45.174-25.758 12.012 6.952 23.276 18.866 31.784 33.536 4.272 7.404 7.56 15.084 9.806 22.626a103.82 103.82 0 0 0-9.806-22.804c-8.508-14.67-19.772-26.584-31.784-33.496-12.504-7.208-23.828-7.876-32.04-3.15l7.168-4.136c8.232-4.766 19.536-4.136 32.02 3.072 12.012 6.972 23.296 18.886 31.784 33.536 8.468 14.71 13.096 30.386 13.096 44.23l-7.208 4.134 0.02 0.198z" fill="#434240" /><path d="M208.266 666.664l7.502-4.372-0.138 116.736-7.52 4.352 0.156-116.716z" fill="#C4C2C0" /><path d="M208.108 783.38l7.522-4.352 79.164 45.706-7.484 4.372-79.2-45.726z" fill="#FFFFFF" /><path d="M219.826 641.3l7.502-4.372c-7.09 4.136-11.52 12.9-11.56 25.364l-7.502 4.372c0.04-12.466 4.45-21.248 11.56-25.364z" fill="#C4C2C0" /><path d="M295.01 716.74l7.504-4.352-0.16 125.4-7.52 4.354 0.176-125.4z" fill="#E9E8E6" /><path d="M281.304 670.268l7.504-4.372c8.88 15.4 13.764 31.822 13.706 46.296l-7.484 4.372c0.02-14.474-4.844-30.918-13.726-46.296zM214.468 631.886l7.524-4.352c8.566-4.98 20.44-4.292 33.536 3.25 12.582 7.286 24.418 19.752 33.28 35.112l-7.504 4.372c-8.86-15.36-20.716-27.846-33.28-35.112-13.094-7.562-24.97-8.252-33.556-3.27z" fill="#FFFFFF" /><path d="M281.304 670.444c8.862 15.4 13.746 31.824 13.706 46.296l-0.176 125.4-94.308-54.448 0.178-125.4c0.08-29.874 21.308-41.964 47.3-26.96 12.604 7.288 24.42 19.752 33.28 35.112h0.02z m5.988 158.66l0.156-116.716c0.04-12.168-4.036-25.954-11.5-38.872s-17.388-23.394-27.962-29.5c-21.82-12.6-39.64-2.44-39.72 22.648l-0.158 116.716 79.184 45.726z" fill="#D6D4D2" /><path d="M373.8 701.48l-7.208-4.196 0.178 122.624 7.168 4.136 90.032-51.988-0.158-122.564c-0.118-28.514-20.36-40.054-45.194-25.758-12.012 6.952-23.276 18.866-31.782 33.536a105.986 105.986 0 0 0-9.808 22.626c2.206-7.62 5.514-15.32 9.808-22.804 8.506-14.67 19.77-26.584 31.782-33.496 12.506-7.208 23.828-7.876 32.04-3.15l-7.168-4.136c-8.232-4.766-19.534-4.116-32.02 3.092-12.012 6.952-23.276 18.864-31.782 33.536-8.468 14.69-13.096 30.366-13.096 44.208l7.208 4.136v0.198z" fill="#434240" /><path d="M458.536 652.072l-7.504-4.352 0.14 116.716 7.52 4.372-0.156-116.736z" fill="#C4C2C0" /><path d="M458.692 768.788l-7.52-4.352-79.164 45.726 7.482 4.352 79.202-45.726z" fill="#FFFFFF" /><path d="M446.976 626.708l-7.502-4.372c7.088 4.136 11.52 12.92 11.56 25.384l7.5 4.352c-0.038-12.466-4.45-21.228-11.558-25.364z" fill="#C4C2C0" /><path d="M371.79 702.168l-7.502-4.372 0.158 125.4 7.522 4.374-0.178-125.4z" fill="#E9E8E6" /><path d="M385.496 655.676l-7.502-4.352c-8.88 15.36-13.766 31.82-13.706 46.276l7.484 4.372c-0.02-14.474 4.844-30.918 13.724-46.278v-0.02z m66.836-38.36l-7.522-4.374c-8.566-4.98-20.44-4.292-33.536 3.25-12.584 7.286-24.42 19.752-33.28 35.132l7.502 4.352c8.862-15.36 20.716-27.846 33.28-35.112 13.096-7.562 24.97-8.252 33.556-3.25z" fill="#FFFFFF" /><path d="M418.796 620.74c25.994-15.004 47.222-2.914 47.3 26.98l0.18 125.38-94.328 54.47-0.158-125.4c-0.04-14.476 4.826-30.92 13.706-46.298 8.862-15.36 20.716-27.864 33.28-35.132h0.02z m-39.286 193.774l79.164-45.726-0.14-116.716c-0.078-25.088-17.9-35.25-39.718-22.646-10.574 6.104-20.48 16.58-27.964 29.5-7.482 12.916-11.54 26.72-11.5 38.87l0.16 116.718z" fill="#D6D4D2" /><path d="M809.806 412.908c8.448-14.218 19.456-25.776 31.212-32.552 12.486-7.186 23.828-7.876 32.02-3.13l-7.168-4.136c-8.23-4.784-19.514-4.134-32.02 3.072-8.664 5.002-16.914 12.624-24.024 21.958l-0.02 14.788z" fill="#434240" /><path d="M841.02 380.494c-11.758 6.814-22.766 18.374-31.214 32.592v159.92l76.544-44.17-0.156-122.584c-0.1-28.514-20.362-40.034-45.176-25.758z" fill="#434240" /><path d="M880.916 408.852l-7.504-4.372 0.16 116.716 7.5 4.372-0.156-116.716z" fill="#C4C2C0" /><path d="M809.806 566.706l71.268-41.158-7.504-4.332-63.764 36.786v8.704z" fill="#FFFFFF" /><path d="M869.356 383.468l-7.502-4.352c7.088 4.136 11.52 12.9 11.56 25.364l7.5 4.372c-0.018-12.466-4.448-21.248-11.558-25.384z" fill="#C4C2C0" /><path d="M867.21 369.704c-8.586-4.982-20.46-4.294-33.536 3.268-8.546 4.924-16.7 12.288-23.868 21.288v15.044c8.646-13.902 19.654-25.206 31.37-31.98 13.076-7.54 24.95-8.232 33.536-3.248l-7.502-4.372z" fill="#FFFFFF" /><path d="M809.806 422.262a97.1 97.1 0 0 1 3.446-6.558c7.444-12.918 17.39-23.394 27.964-29.5 21.82-12.6 39.64-2.46 39.7 22.648l0.158 116.716-71.268 41.156v8.664l78.848-45.508-0.176-125.4c-0.08-29.874-21.308-41.964-47.3-26.98-11.72 6.776-22.726 18.08-31.372 32v12.762z" fill="#D6D4D2" /><path d="M571.018 781.784l-0.04 13.668-44.918 26.112 0.04-13.668 44.918-26.112z" fill="#C4C2C0" /><path d="M526.1 807.896l-0.04 13.668-45.214-26.112 0.04-13.668 45.214 26.112z" fill="#D6D4D2" /><path d="M571.018 781.784l-44.92 26.112-45.212-26.112 44.9-26.092 45.232 26.092z" fill="#FFFFFF" /><path d="M637.834 744.764l-0.04 13.666-44.918 26.092 0.04-13.646 44.918-26.112z" fill="#C4C2C0" /><path d="M592.916 770.876l-0.04 13.646-45.232-26.112 0.04-13.646 45.232 26.112z" fill="#D6D4D2" /><path d="M637.834 744.764l-44.92 26.112-45.232-26.112 44.92-26.112 45.232 26.112z" fill="#FFFFFF" /><path d="M790.488 660.44l-0.04 13.668-44.916 26.092 0.04-13.648 44.916-26.112z" fill="#C4C2C0" /><path d="M745.55 686.552l-0.02 13.648-45.212-26.092 0.04-13.668 45.192 26.112z" fill="#D6D4D2" /><path d="M790.488 660.44l-44.918 26.112-45.214-26.112 44.9-26.112 45.232 26.112z" fill="#FFFFFF" /><path d="M859.018 624.168l-0.04 13.666-44.898 26.092 0.04-13.646 44.898-26.112z" fill="#C4C2C0" /><path d="M814.12 650.28l-0.04 13.646-45.234-26.112 0.04-13.646 45.234 26.112z" fill="#D6D4D2" /><path d="M859.018 624.168l-44.9 26.112-45.232-26.112 44.92-26.112 45.212 26.112z" fill="#FFFFFF" /><path d="M575.606 497.82l0.434 243.832c0 2.758 1.812 5.534 5.454 7.64 7.366 4.294 19.28 4.274 26.664 0 3.72-2.126 5.572-4.942 5.572-7.76l-0.432-243.808c0 2.816-1.852 5.612-5.574 7.758-7.384 4.274-19.3 4.274-26.664 0-3.622-2.108-5.454-4.884-5.454-7.66z" fill="#D6D4D2" /><path d="M581.06 505.48c3.27 1.892 7.424 2.896 11.68 3.114v243.79a25.986 25.986 0 0 1-11.226-3.092c-3.662-2.106-5.474-4.864-5.474-7.64l-0.434-243.83c0 2.776 1.832 5.552 5.454 7.66z" fill="#C4C2C0" /><path d="M581.18 490.044c-7.406 4.272-7.444 11.184-0.12 15.438 7.366 4.274 19.28 4.274 26.664 0 7.384-4.254 7.444-11.146 0.06-15.44-7.306-4.252-19.24-4.252-26.604 0z" fill="#E9E8E6" /><path d="M506.88 537.64l0.414 243.828c0 2.76 1.83 5.514 5.474 7.642 7.364 4.292 19.26 4.272 26.664 0 3.7-2.148 5.552-4.944 5.552-7.76l-0.432-243.81c0 2.798-1.852 5.614-5.554 7.76-7.404 4.254-19.3 4.272-26.664 0-3.642-2.128-5.454-4.884-5.474-7.66h0.02z" fill="#D6D4D2" /><path d="M512.334 545.28c3.25 1.91 7.406 2.914 11.66 3.132V792.2a25.986 25.986 0 0 1-11.226-3.092c-3.644-2.106-5.454-4.882-5.474-7.64l-0.434-243.83c0 2.776 1.832 5.532 5.474 7.66v-0.02z" fill="#C4C2C0" /><path d="M512.434 529.86c-7.386 4.274-7.424 11.186-0.1 15.44 7.366 4.272 19.26 4.254 26.664 0 7.366-4.254 7.424-11.146 0.06-15.44-7.326-4.252-19.24-4.252-26.624 0z" fill="#E9E8E6" /><path d="M792.458 398.494l0.434 222.248c0 2.756 1.81 5.514 5.454 7.64 7.364 4.294 19.28 4.274 26.664 0 3.7-2.146 5.572-4.942 5.552-7.76l-0.432-222.226c0 2.796-1.852 5.612-5.554 7.758-7.384 4.274-19.3 4.274-26.664 0-3.642-2.126-5.454-4.884-5.454-7.66z" fill="#D6D4D2" /><path d="M797.912 406.154c3.27 1.89 7.424 2.894 11.68 3.112v222.208a26.01 26.01 0 0 1-11.246-3.092c-3.644-2.108-5.454-4.884-5.454-7.64l-0.434-222.248c0 2.776 1.812 5.534 5.454 7.66z" fill="#C4C2C0" /><path d="M798.03 390.716c-7.404 4.272-7.442 11.184-0.118 15.438 7.366 4.274 19.28 4.274 26.664 0 7.364-4.254 7.444-11.146 0.06-15.44-7.326-4.252-19.24-4.252-26.606 0z" fill="#E9E8E6" /><path d="M728.26 434.748l0.434 222.246c0 2.756 1.832 5.514 5.454 7.64 7.386 4.294 19.28 4.274 26.664 0 3.722-2.146 5.574-4.94 5.574-7.758l-0.434-222.228c0 2.796-1.852 5.612-5.572 7.76-7.386 4.272-19.3 4.272-26.664 0-3.624-2.108-5.456-4.884-5.456-7.66z" fill="#D6D4D2" /><path d="M733.736 442.408c3.248 1.89 7.404 2.894 11.658 3.11v222.21a25.986 25.986 0 0 1-11.226-3.092c-3.642-2.108-5.474-4.884-5.474-7.64l-0.434-222.248c0 2.776 1.832 5.552 5.456 7.66h0.02z" fill="#C4C2C0" /><path d="M733.834 426.968c-7.404 4.274-7.424 11.186-0.12 15.44 7.386 4.272 19.28 4.272 26.666 0 7.384-4.254 7.442-11.146 0.078-15.44-7.326-4.252-19.26-4.252-26.624 0z" fill="#E9E8E6" /><path d="M689.8 354.66l-48.204-28.024 157.754 48.088 48.208 28.004-157.756-48.07z" fill="#C4C2C0" /><path d="M532.834 584.428l-48.206-28 156.968-229.812L689.8 354.64l-156.968 229.79z" fill="#FFFFFF" /><path d="M532.834 584.428l-48.206-28.002 121.048-177.192 48.188 28.002-121.03 177.192z" fill="#E9E8E6" /><path d="M532.834 584.428l-48.206-28.002 85.11-124.594 48.206 28.004-85.11 124.592z" fill="#C4C2C0" /><path d="M532.834 584.428l-48.206-28.002 49.192-72.014 48.206 28.02-49.192 71.996z" fill="#E9E8E6" /><path d="M689.8 354.66l157.756 48.068-314.72 181.7L689.8 354.66z" fill="#D6D4D2" /><path d="M720.502 385.576c3.23 3.78 5.12 9.392 5.12 16.6 0.196 19.908-13.942 43.816-30.976 53.78-8.468 4.922-16.168 5.494-21.82 2.46 5.594 6.58 15.282 7.444 26.232 1.124 17.014-9.964 31.152-33.872 30.956-53.8 0-10.042-3.664-17.034-9.512-20.164z" fill="#FFFFFF" /><path d="M694.646 455.956c17.034-9.964 31.154-33.872 30.976-53.78 0-7.208-1.89-12.82-5.12-16.6-5.632-3.014-13.272-2.48-21.622 2.42-17.388 9.966-31.154 34.05-31.154 53.78 0 7.268 1.872 12.88 5.1 16.64 5.652 3.034 13.352 2.444 21.82-2.46z" fill="#0074D1" /><path d="M261.278 542.168a48.79 48.79 0 0 0-19.574 11.974c-5.356 5.356-9.452 11.992-11.994 19.456-0.708 2.402-3.938 2.402-4.784 0a48.876 48.876 0 0 0-31.43-31.43c-2.56-0.846-2.56-4.076 0-4.922 7.464-2.402 14.08-6.636 19.438-11.994 5.356-5.356 9.59-11.972 11.992-19.456 0.846-2.38 4.076-2.38 4.784 0 2.54 7.484 6.638 14.1 11.994 19.456 5.494 5.358 12.11 9.592 19.574 11.994a2.6 2.6 0 0 1 0 4.922z" fill="#FFFFFF" /></svg>