<?xml version="1.0" standalone="no"?><!DOCTYPE svg PUBLIC "-//W3C//DTD SVG 1.1//EN" "http://www.w3.org/Graphics/SVG/1.1/DTD/svg11.dtd"><svg class="icon" width="200px" height="200.00px" viewBox="0 0 1024 1024" version="1.1" xmlns="http://www.w3.org/2000/svg"><path d="M707.132 692.262l-174.16-101.218-1.024-363.52 174.14 101.2 1.044 363.54z" fill="#888888" /><path d="M706.088 328.724l-174.14-101.22 222.268-128.334 174.16 101.22-222.288 128.334z" fill="#E9E8E6" /><path d="M928.394 200.37l1.024 363.56-222.286 128.334-1.044-363.54 222.306-128.354z" fill="#D6D4D2" /><path d="M947.396 196.136l-0.058 41.432-248.478 144.384 0.06-41.432 248.476-144.384z" fill="#CC4848" /><path d="M772.056 298.004v41.432l175.28-101.868 0.04-41.452-175.32 101.888z" fill="#C44141" /><path d="M875.64 237.804v41.432l71.698-41.668 0.04-41.452-71.74 41.688z" fill="#CC4848" /><path d="M698.92 340.52l-0.06 22.842-194.362-112.01 0.04-22.842 194.38 112.01z" fill="#DD4A4A" /><path d="M947.396 196.136L698.92 340.52l-194.384-112.01 248.46-144.424 194.4 112.05z" fill="#F25A5A" /><path d="M484.864 820.58l-174.16-101.2-1.534-541.598 174.158 101.22 1.536 541.576z" fill="#E9E8E6" /><path d="M705.576 150.646l1.556 541.62-222.268 128.332-1.536-541.618 222.248-128.334z" fill="#D6D4D2" /><path d="M483.328 278.98l-174.16-101.218 222.268-128.314 174.16 101.218-222.268 128.316zM261.554 585.376l-174.16-101.22L309.68 355.84l174.16 101.22-222.286 128.314z m1.024 363.56l-174.16-101.22-1.024-363.54 174.16 101.22 1.024 363.54z" fill="#E9E8E6" /><path d="M483.84 457.06l1.024 363.52-222.286 128.352-1.024-363.56L483.84 457.06z" fill="#D6D4D2" /><path d="M776.822 429.134l0.316 114.216 6.518 3.78 87.512-50.51-0.334-114.274-6.5-3.76-87.512 50.548z" fill="#3F9AE0" /><path d="M864.572 493.174l-6.814-3.958-74.122 42.792 6.814 3.958 74.12-42.792z" fill="#FFFFFF" /><path d="M864.296 393.728l-6.814-3.978 0.276 99.446 6.812 3.98-0.274-99.448z m-82.906 37.75l-6.812-3.958 0.354 119.61 6.814 3.96-0.356-119.612z" fill="#D6D4D2" /><path d="M873.04 378.584l-6.814-3.978-91.648 52.914 6.832 3.96 91.628-52.896z" fill="#FFFFFF" /><path d="M873.352 498.196l-91.606 52.894-0.336-119.612 91.628-52.894 0.314 119.612z m-82.902 37.77l74.12-42.792-0.276-99.446-74.12 42.792 0.276 99.446z m169.02 222.78l-0.04 28.316-339.97 197.552 0.06-28.316 339.948-197.554z" fill="#B2B0AF" /><path d="M737.87 887.512v28.3l221.54-128.75 0.06-28.318-221.6 128.768z" fill="#C4C2C0" /><path d="M843.166 826.328v28.28l116.262-67.546 0.04-28.318-116.302 67.584z" fill="#B2B0AF" /><path d="M619.52 956.298l-0.06 28.318-209.328-120.636 0.02-28.318L619.52 956.3z" fill="#C4C2C0" /><path d="M469.524 869.868v28.338l149.936 86.41 0.06-28.32-149.996-86.428z" fill="#B2B0AF" /><path d="M552.35 917.582v28.358l67.11 38.676 0.06-28.32-67.17-38.714z" fill="#C4C2C0" /><path d="M959.468 758.744L619.52 956.3 410.152 835.66l339.948-197.572 209.368 120.654z" fill="#E9E8E6" /><path d="M505.384 614.696l-0.394 239.656c0 2.56-1.714 5.12-5.08 7.088-6.814 3.94-17.842 3.94-24.696 0-3.446-1.988-5.16-4.608-5.16-7.206l0.396-239.656c0 2.62 1.732 5.218 5.16 7.206 6.852 3.94 17.88 3.96 24.712 0 3.348-1.968 5.06-4.528 5.06-7.088z" fill="#C4C2C0" /><path d="M500.322 621.784c-3.032 1.754-6.892 2.68-10.83 2.876v239.636c3.82-0.256 7.502-1.182 10.436-2.876 3.348-1.948 5.04-4.528 5.06-7.088l0.396-239.656c0 2.58-1.694 5.14-5.06 7.088v0.02z" fill="#B2B0AF" /><path d="M500.224 607.488c6.854 3.94 6.892 10.34 0.1 14.296-6.834 3.96-17.862 3.94-24.716 0-6.812-3.938-6.892-10.338-0.06-14.296 6.796-3.94 17.842-3.94 24.676 0z" fill="#E9E8E6" /><path d="M566.016 649.65l-0.394 239.636c0 2.56-1.694 5.12-5.06 7.09-6.834 3.958-17.86 3.938-24.714 0-3.428-1.97-5.16-4.59-5.14-7.188l0.394-239.656c0 2.6 1.712 5.198 5.16 7.186 6.832 3.96 17.86 3.98 24.694 0 3.366-1.968 5.06-4.528 5.06-7.088v0.02z" fill="#C4C2C0" /><path d="M560.956 656.74c-3.014 1.732-6.874 2.676-10.832 2.874v239.616c3.82-0.236 7.504-1.162 10.438-2.856 3.346-1.968 5.04-4.528 5.06-7.088l0.394-239.656c0 2.56-1.694 5.12-5.06 7.088v0.02z" fill="#B2B0AF" /><path d="M560.836 642.422c6.874 3.94 6.894 10.36 0.12 14.296-6.834 3.98-17.86 3.94-24.696 0-6.832-3.938-6.892-10.318-0.06-14.296 6.776-3.94 17.824-3.94 24.656 0h-0.02z" fill="#E9E8E6" /><path d="M626.648 684.584l-0.394 239.656c0 2.56-1.692 5.12-5.06 7.088-6.834 3.94-17.86 3.94-24.714 0-3.426-2.008-5.16-4.608-5.14-7.206l0.394-239.656c0 2.62 1.714 5.218 5.16 7.206 6.852 3.94 17.88 3.96 24.694 0 3.368-1.968 5.06-4.528 5.06-7.088z" fill="#C4C2C0" /><path d="M621.588 691.672c-3.014 1.754-6.872 2.68-10.812 2.876v239.656c3.8-0.256 7.484-1.182 10.418-2.876 3.348-1.968 5.06-4.528 5.06-7.088l0.394-239.656c0 2.58-1.692 5.14-5.06 7.088z" fill="#B2B0AF" /><path d="M621.49 677.356c6.852 3.96 6.892 10.36 0.098 14.316-6.814 3.96-17.84 3.94-24.694 0-6.834-3.938-6.892-10.338-0.06-14.316 6.774-3.94 17.822-3.94 24.656 0z" fill="#E9E8E6" /><path d="M802.876 520.782l-0.394 160.67c0 2.56-1.694 5.12-5.06 7.09-6.834 3.958-17.862 3.938-24.716 0-3.426-1.97-5.16-4.588-5.14-7.188l0.394-160.69c0 2.62 1.714 5.22 5.16 7.208 6.852 3.94 17.86 3.96 24.694 0 3.368-1.97 5.06-4.53 5.06-7.09z" fill="#D6D4D2" /><path d="M797.814 527.872c-3.012 1.752-6.872 2.68-10.83 2.876v160.648c3.82-0.236 7.52-1.16 10.436-2.854 3.348-1.97 5.04-4.53 5.06-7.09l0.396-160.688c0 2.58-1.694 5.14-5.06 7.088v0.02z" fill="#B2B0AF" /><path d="M797.716 513.576c6.852 3.938 6.892 10.338 0.1 14.296-6.836 3.96-17.844 3.94-24.696 0-6.834-3.94-6.892-10.34-0.06-14.296 6.776-3.94 17.822-3.94 24.656 0z" fill="#E9E8E6" /><path d="M863.508 555.716l-0.394 160.69c0 2.56-1.694 5.12-5.06 7.09-6.834 3.938-17.862 3.938-24.714 0-3.428-1.99-5.14-4.608-5.14-7.208l0.394-160.67c0 2.6 1.712 5.2 5.16 7.188 6.852 3.94 17.88 3.978 24.692 0 3.368-1.97 5.06-4.53 5.06-7.09z" fill="#C4C2C0" /><path d="M858.446 562.806c-3.012 1.772-6.872 2.68-10.81 2.894v160.65c3.8-0.256 7.482-1.18 10.416-2.874 3.368-1.95 5.06-4.53 5.06-7.09l0.396-160.67c0 2.56-1.694 5.12-5.06 7.09z" fill="#B2B0AF" /><path d="M858.348 548.51c6.854 3.938 6.892 10.358 0.1 14.296-6.814 3.978-17.842 3.94-24.696 0-6.832-3.94-6.892-10.32-0.06-14.296 6.776-3.94 17.824-3.94 24.656 0z" fill="#E9E8E6" /><path d="M924.16 590.67l-0.394 160.67c-0.02 2.56-1.714 5.12-5.08 7.09-6.814 3.958-17.84 3.938-24.694 0-3.446-1.99-5.16-4.588-5.16-7.188l0.394-160.69c0 2.62 1.732 5.22 5.16 7.188 6.852 3.96 17.88 3.98 24.712 0 3.348-1.95 5.042-4.51 5.062-7.088v0.02z" fill="#C4C2C0" /><path d="M919.1 597.74c-3.034 1.772-6.894 2.7-10.832 2.896v160.648c3.8-0.236 7.504-1.16 10.438-2.854 3.346-1.97 5.04-4.53 5.04-7.09l0.394-160.688c0 2.58-1.674 5.14-5.04 7.088z" fill="#B2B0AF" /><path d="M918.98 583.444c6.854 3.958 6.894 10.358 0.12 14.296-6.834 3.98-17.86 3.96-24.714 0-6.834-3.94-6.894-10.32-0.06-14.296 6.794-3.94 17.84-3.94 24.654 0z" fill="#E9E8E6" /><path d="M945.35 587.324l-0.04 14.198-307.062 178.45 0.04-14.216 307.06-178.432z" fill="#CC4848" /><path d="M638.286 765.756l-0.04 14.216-194.38-112.008 0.038-14.22 194.382 112.012z" fill="#DD4A4A" /><path d="M945.348 587.324l-307.06 178.432-194.384-112.01 307.062-178.432 194.382 112.01z" fill="#F25A5A" /><path d="M783.46 495.498l-180.186-104.704 205.134 117.524 124.06 72.074-149.01-84.894z" fill="#CC4848" /><path d="M635.47 751.852l-180.184-104.724 148.008-256.334 180.184 104.704-148.008 256.354z" fill="#DD4A4A" /><path d="M635.47 751.852l-180.184-104.724 110.828-191.94 180.184 104.704-110.828 191.96z" fill="#F25A5A" /><path d="M635.47 751.852l-180.184-104.724 73.65-127.566 180.184 104.704-73.65 127.586z" fill="#DD4A4A" /><path d="M635.47 751.852l-180.184-104.724 36.49-63.172 180.184 104.704-36.49 63.192z" fill="#C44141" /><path d="M783.46 495.498l149.01 84.914-297 171.42L783.46 495.5z m-276.03-44.74l-0.038 41.452-248.478 144.402 0.04-41.452 248.476-144.404z" fill="#CC4848" /><path d="M321.516 558.808v41.434l185.876-108.032 0.04-41.434-185.916 108.032z" fill="#C44141" /><path d="M406.764 509.262v41.434l100.628-58.486 0.04-41.434-100.668 58.486z" fill="#CC4848" /><path d="M258.954 595.16l-0.04 41.454-194.362-112.01 0.02-41.454 194.38 112.01z" fill="#DD4A4A" /><path d="M120.084 515.15v41.454l138.83 80.008 0.04-41.452-138.87-80.01z" fill="#CC4848" /><path d="M197.514 559.774v41.472l61.4 35.366 0.04-41.452-61.44-35.386z" fill="#C44141" /><path d="M507.43 450.756L258.954 595.18l-194.364-112.01 248.46-144.384 194.38 111.97z" fill="#F25A5A" /><path d="M720.384 148.56l-0.04 40.86-242.176 140.74 0.04-40.86 242.176-140.74z" fill="#CC4848" /><path d="M555.954 244.126v40.84l164.39-95.546 0.04-40.86-164.43 95.566z" fill="#C44141" /><path d="M675.486 174.67v40.822l44.86-26.052 0.038-40.86-44.9 26.09z" fill="#CC4848" /><path d="M478.208 289.28l-0.04 40.88-189.44-109.172 0.02-40.862 189.46 109.154z" fill="#DD4A4A" /><path d="M720.384 148.56l-242.176 140.74-189.44-109.174 242.136-140.74 189.48 109.172z" fill="#F25A5A" /><path d="M220.338 700.908L220 815.124l-6.498 3.78-87.532-50.51 0.334-114.254 6.52-3.78 87.512 50.548z" fill="#3F9AE0" /><path d="M132.568 764.948l6.814-3.94 74.122 42.772-6.814 3.96-74.12-42.792z" fill="#FFFFFF" /><path d="M132.864 665.5l6.814-3.956-0.296 99.446-6.814 3.958 0.296-99.446z m82.884 37.752l6.814-3.94-0.334 119.592-6.834 3.96 0.354-119.612z" fill="#C4C2C0" /><path d="M124.12 650.36l6.814-3.96 91.628 52.894-6.812 3.958-91.63-52.894z" fill="#FFFFFF" /><path d="M124.12 650.36l91.628 52.892-0.354 119.61-91.628-52.892 0.354-119.612z m82.57 157.38l0.276-99.448-74.12-42.79-0.278 99.446 74.122 42.792z" fill="#B2B0AF" /><path d="M306.078 700.908l0.334 114.216 6.5 3.78 87.512-50.51-0.336-114.254-6.498-3.78-87.512 50.548z" fill="#3F9AE0" /><path d="M393.846 764.948l-6.834-3.94-74.12 42.772 6.812 3.96 74.142-42.792z" fill="#FFFFFF" /><path d="M393.55 665.5l-6.812-3.956 0.274 99.446 6.814 3.958-0.276-99.446z m-82.884 37.752l-6.814-3.94 0.336 119.592 6.812 3.96-0.334-119.612z" fill="#D6D4D2" /><path d="M402.294 650.36l-6.814-3.96-91.628 52.894 6.814 3.958 91.628-52.894z" fill="#FFFFFF" /><path d="M402.63 769.97L311 822.86l-0.334-119.61 91.628-52.894 0.336 119.612z m-82.906 37.77l74.102-42.792-0.276-99.446-74.12 42.79 0.294 99.448z" fill="#B2B0AF" /><path d="M478.168 289.122l-0.04 40.33-189.144-108.996 0.04-40.33 189.144 108.996z" fill="#DD4A4A" /><path d="M343.04 211.26v40.348l135.09 77.844 0.04-40.33-135.13-77.862z" fill="#CC4848" /><path d="M418.402 254.68v40.35l59.728 34.422 0.04-40.33-59.768-34.44z" fill="#C44141" /><path d="M633.108 313.7c0.196 21.66-15.164 47.654-33.674 58.484-18.708 10.832-34.068 2.364-34.068-19.298 0-21.464 14.966-47.656 33.87-58.486 18.512-10.83 33.872-2.166 33.872 19.3z" fill="#434240" /><path d="M691.988 558.276a3.604 3.604 0 0 1 0 6.912 70.558 70.558 0 0 0-45.136 45.136 3.604 3.604 0 0 1-6.93 0 70.636 70.636 0 0 0-45.136-45.136 3.604 3.604 0 0 1 0-6.93 70.538 70.538 0 0 0 45.136-45.136 3.604 3.604 0 0 1 6.93 0 70.538 70.538 0 0 0 45.156 45.136l-0.02 0.02z" fill="#FFFFFF" /></svg>