<?xml version="1.0" standalone="no"?><!DOCTYPE svg PUBLIC "-//W3C//DTD SVG 1.1//EN" "http://www.w3.org/Graphics/SVG/1.1/DTD/svg11.dtd"><svg class="icon" width="200px" height="200.00px" viewBox="0 0 1024 1024" version="1.1" xmlns="http://www.w3.org/2000/svg"><path d="M89.206 752.956l-1.34 43.42-0.63-79.44 1.34-78.452 0.63 114.472z" fill="#3DB542" /><path d="M936.764 752.936l-1.36 43.44-323.9 188.24 1.34-43.44 323.92-188.24z" fill="#2C9A2C" /><path d="M415.252 941.174l-1.36 43.44-326.024-188.238 1.358-43.42 326.026 188.218z" fill="#6DCB60" /><path d="M612.844 941.174l-1.34 43.44h-197.612l1.36-43.44h197.592z" fill="#3DB542" /><path d="M936.764 752.954l-323.94 188.2h-197.612l-326.006-188.2-0.63-114.432 323.9-188.258h197.632l326.044 188.2 0.612 114.49z" fill="#81D672" /><path d="M162.304 434.984l-1.102 300.8c0.786-539.826 0.512-353.636 0.59-393.906l0.512 93.106z" fill="#C4C2C0" /><path d="M851.79 434.984l-1.1 300.78-263.486 153.148 1.084-300.8 263.502-153.128z" fill="#B2B0AF" /><path d="M427.52 588.11l-1.082 300.8L161.2 735.786l1.102-300.8 265.216 153.126z" fill="#D6D4D2" /><path d="M588.288 588.11l-1.102 300.8h-160.75l1.084-300.8h160.768z" fill="#C4C2C0" /><path d="M851.81 435.002l-263.56 153.088H427.52L162.264 434.982l-0.492-93.084 263.484-153.148h160.786L851.3 341.84l0.512 93.164z" fill="#E9E8E6" /><path d="M580.116 238.71l249.088 143.774 0.218 39.876 0.156-0.078-0.374-67.604-249.108-143.774H431.22L183.986 354.6l0.156 27.726 247.08-143.616h148.894z" fill="#D6D4D2" /><path d="M433.466 565.94h148.816l247.14-143.56-0.22-39.896-249.106-143.774h-148.874l-247.08 143.616 0.218 39.838 249.106 143.774z" fill="#F25A5A" /><path d="M543.272 666.546v60.06h-71.82v-60.06c0-7.406 2.502-14.612 7.288-20.244q11.854-14 28.612-19.3 16.76 5.3 28.634 19.3c4.784 5.632 7.286 12.84 7.286 20.244z" fill="#6D797A" /><path d="M471.454 696.556h71.818v30.05h-71.82v-30.05z" fill="#FFFFFF" /><path d="M543.272 803.19v60.06h-71.82v-60.06c0-7.404 2.502-14.612 7.288-20.244q11.854-14 28.612-19.298 16.76 5.298 28.634 19.3c4.784 5.63 7.286 12.838 7.286 20.242z" fill="#6D797A" /><path d="M471.454 833.2h71.818v30.052h-71.82V833.2z" fill="#FFFFFF" /><path d="M663 867.78l-19.732-11.46-0.748-341.504 19.712 11.46 0.768 341.504z" fill="#D6D4D2" /><path d="M662.252 526.276l-19.732-11.46 170.752-98.58 19.732 11.46-170.752 98.58z" fill="#E9E8E6" /><path d="M833.772 769.18l-20.204 11.66-130.894 75.578-19.694 11.384-0.728-341.506 170.752-98.62 0.768 341.506z" fill="#C4C2C0" /><path d="M682.398 705.084l0.236 151.334 130.894-75.58v-0.058L682.4 705.084z" fill="#CFD2D3" /><path d="M813.292 575.212c-0.158-39.188-32.374-51.338-65.694-45.016-24.752 23.434-65.32 76.68-65.24 120.596l0.08 54.29 131.13 75.698-0.276-205.568z" fill="#909293" /><path d="M351.606 867.78l19.712-11.46 0.768-341.504-19.732 11.46-0.748 341.504z" fill="#C4C2C0" /><path d="M352.354 526.276l19.732-11.46-170.772-98.58-19.712 11.46 170.752 98.58z" fill="#E9E8E6" /><path d="M180.834 769.18l20.186 11.66 130.894 75.578 19.692 11.384 0.748-341.506-170.772-98.62-0.748 341.506z" fill="#B2B0AF" /><path d="M332.15 705.084l-0.236 151.334-130.894-75.58v-0.058l131.13-75.696z" fill="#CFD2D3" /><path d="M201.314 575.212c0.14-39.188 32.354-51.338 65.694-45.016 24.754 23.434 65.3 76.68 65.22 120.596l-0.078 54.29-131.13 75.698 0.294-205.568z" fill="#909293" /><path d="M643.034 379.884v36.766c0 22.134-14.494 44.19-43.52 61.046-50.806 29.56-129.498 33.32-187.67 11.304a166.54 166.54 0 0 1-24.024-11.284c-29.48-17.014-44.228-39.346-44.228-61.638v-36.214c-0.012-74.5 54.776-137.666 128.532-148.184l0.04-0.02A149.128 149.128 0 0 1 599.176 274a149.128 149.128 0 0 1 43.856 105.864v0.02z" fill="#EFC348" /><path d="M411.844 489a166.54 166.54 0 0 1-24.024-11.284c-29.48-17.014-44.228-39.346-44.228-61.638v-36.214c-0.012-74.5 54.776-137.666 128.53-148.184-2.362 2.364-90.504 90.92-60.278 257.3v0.02z m162.956 0c8.506-3.23 16.54-6.992 24.024-11.284 29.48-17.014 44.21-39.346 44.21-61.638v-36.214c0.012-74.494-54.766-137.656-128.514-148.184 2.364 2.364 90.508 90.92 60.26 257.3l0.02 0.02z" fill="#DDB040" /><path d="M656.208 335.99l-0.14 43.64c-0.06 24.24-16.008 48.46-47.852 66.972-64.1 37.238-168.31 37.258-232.84 0-32.434-18.708-48.64-43.324-48.582-67.88l0.138-43.638c-0.08 24.556 16.128 49.152 48.56 67.88 64.532 37.258 168.764 37.238 232.844 0 31.84-18.512 47.792-42.732 47.852-66.974h0.02z" fill="#FFD651" /><path d="M608.334 402.964c-58.268 33.87-149.72 36.942-214.35 9.216v43.696c64.63 27.668 156.002 24.576 214.212-9.254 31.864-18.512 47.814-42.732 47.872-66.994l0.138-43.638c-0.078 24.24-16.028 48.462-47.872 66.974z" fill="#FFD651" /><path d="M608.334 402.964c-22.37 12.996-49.624 21.444-78.354 25.364v43.618c28.69-3.94 55.906-12.366 78.216-25.344 31.864-18.51 47.814-42.732 47.872-66.974l0.14-43.638c-0.08 24.24-16.03 48.462-47.874 66.974z" fill="#FFD651" /><path d="M608.866 402.628v43.58c31.41-18.472 47.144-42.496 47.202-66.58l0.14-43.638c-0.08 24.104-15.854 48.188-47.34 66.64z" fill="#FFD651" /><path d="M607.586 268.092c64.532 37.256 64.846 97.614 0.748 134.892-64.078 37.218-168.31 37.218-232.84 0-64.474-37.24-64.788-97.636-0.73-134.874 64.1-37.238 168.37-37.238 232.822-0.02z" fill="#CEA03A" /><path d="M643.034 289.34v36.744c0 22.134-14.494 44.19-43.52 61.066-50.806 29.54-129.498 33.32-187.67 11.284a166.326 166.326 0 0 1-24.024-11.284c-29.48-17.014-44.228-39.346-44.228-61.636V289.32c0-74.494 54.784-137.648 128.532-148.166l0.04-0.04a149.128 149.128 0 0 1 127.014 42.34 149.13 149.13 0 0 1 43.856 105.886z" fill="#EFC348" /><path d="M411.844 398.434a166.326 166.326 0 0 1-24.024-11.284c-29.48-17.014-44.228-39.344-44.228-61.636V289.32c-0.002-74.494 54.784-137.648 128.53-148.166-2.362 2.344-90.504 90.92-60.278 257.28z" fill="#DDB040" /><path d="M574.8 398.434c8.506-3.21 16.54-6.972 24.024-11.284 29.48-17.014 44.208-39.344 44.208-61.636V289.32c0.004-74.488-54.772-137.64-128.512-148.166 2.364 2.344 90.506 90.92 60.26 257.28h0.02z" fill="#FFD651" /><path d="M505.916 149.11l-0.12 6.558c0 2.126-1.378 4.234-4.174 5.848-5.572 3.25-14.67 3.25-20.282 0-2.856-1.634-4.254-3.78-4.254-5.908l0.118-6.576c0 2.126 1.398 4.272 4.234 5.908 5.632 3.248 14.71 3.248 20.282 0 2.796-1.616 4.196-3.722 4.196-5.83z" fill="#D6D4D2" /><path d="M501.68 143.182c5.634 3.25 5.652 8.508 0.06 11.758-5.592 3.248-14.67 3.248-20.282 0-5.652-3.25-5.672-8.508-0.1-11.758 5.594-3.248 14.692-3.248 20.324 0z" fill="#E9E8E6" /><path d="M502.488 101.888l-0.078 45.922c0 1.616-1.064 3.23-3.19 4.45a17.054 17.054 0 0 1-15.48 0c-2.164-1.24-3.248-2.874-3.228-4.528l0.08-45.904c0 1.616 1.08 3.27 3.228 4.51 4.294 2.48 11.224 2.48 15.5 0 2.106-1.24 3.168-2.836 3.168-4.45z" fill="#D6D4D2" /><path d="M499.26 97.36c4.292 2.48 4.332 6.498 0.06 8.98a17.052 17.052 0 0 1-15.5 0c-4.292-2.482-4.312-6.5-0.04-8.98a17.054 17.054 0 0 1 15.48 0z m-4.314-9.828l-4.036-2.362c5.592 3.268 13.332 2.816 21.898-2.128 3.82-2.206 7.444-5.12 10.81-8.468l4.038 2.344c-3.348 3.348-6.992 6.262-10.832 8.468-8.546 4.922-16.284 5.396-21.878 2.166v-0.02z" fill="#E9E8E6" /><path d="M512.828 48.936l-4.038-2.344 8.114-3.328 4.036 2.364-8.112 3.308z" fill="#C4C2C0" /><path d="M501.996 72.468l-4.036-2.364 1.36-10.08 4.036 2.36-1.36 10.084z m3.564-19.32l-4.036-2.36 3.604-10.536 4.036 2.362-3.604 10.536z" fill="#D6D4D2" /><path d="M509.164 42.594l3.664 6.34 8.112-3.326-5.848 9.984 1.418 8.486-7.286-0.196-7.228 8.586 1.36-10.102-5.908-3.21 8.112-6.006 3.604-10.556z" fill="#E9E8E6" /><path d="M497.468 59.156l-4.038-2.344 8.094-6.006 4.036 2.344-8.092 6.006z" fill="#C4C2C0" /><path d="M481.732 106.18l-4.036-2.342c-5.514-3.21-8.96-10.044-8.98-19.772-0.04-15.162 8.232-32.906 19.89-44.68l4.036 2.36c-11.658 11.758-19.928 29.5-19.888 44.664 0.02 9.728 3.446 16.56 8.98 19.772z" fill="#D6D4D2" /><path d="M492.642 41.748c-4.214 8.488-6.714 17.664-6.694 26.014 0.06 19.554 13.882 27.45 30.896 17.624 3.82-2.206 7.444-5.12 10.812-8.468-5.632 11.324-14.278 21.524-24.006 27.136-16.994 9.808-30.838 1.91-30.916-17.644-0.02-15.164 8.27-32.886 19.888-44.682l0.02 0.02z" fill="#E9E8E6" /><path d="M513.87 273.014c-20.952 6.834-36.45 24.32-42.652 42.89-1.3 3.268-5.456 3.268-6.774 0a66.226 66.226 0 0 0-42.654-42.89c-3.29-0.866-3.29-5.238 0-6.34 20.224-7.03 35.682-21.76 42.654-42.654 1.32-3.722 5.474-3.722 6.774 0a68.274 68.274 0 0 0 42.652 42.654c3.29 1.102 3.29 5.474 0 6.34z" fill="#FFFFFF" /></svg>