<?xml version="1.0" standalone="no"?><!DOCTYPE svg PUBLIC "-//W3C//DTD SVG 1.1//EN" "http://www.w3.org/Graphics/SVG/1.1/DTD/svg11.dtd"><svg class="icon" width="200px" height="200.00px" viewBox="0 0 1024 1024" version="1.1" xmlns="http://www.w3.org/2000/svg"><path d="M982.686 321.458l-0.906 315.372-588.13 341.78 0.886-315.352 588.15-341.8z" fill="#C4C2C0" /><path d="M981.878 603.058l-0.1 33.772-588.128 341.78 0.098-33.752 588.13-341.8z" fill="#DD4A4A" /><path d="M394.534 663.238l-0.886 315.372L41.314 775.188l0.906-315.352 352.314 203.4z" fill="#D6D4D2" /><path d="M393.748 944.838l-0.1 33.772L41.314 775.188l0.1-33.752 352.334 203.4z" fill="#F25A5A" /><path d="M982.686 321.458l-588.15 341.8L42.22 459.816l588.13-341.76 352.336 203.4z" fill="#E9E8E6" /><path d="M83.378 459.776l27.982 16.148L630.39 174.336V141.884L83.378 459.776z" fill="#C4C2C0" /><path d="M630.39 141.884v32.432l283.136 163.466 27.982-16.266-311.118-179.632z" fill="#D6D4D2" /><path d="M913.526 337.782L630.39 174.316 111.36 475.944l283.136 163.446 519.03-301.608z" fill="#FFFFFF" /><path d="M946.274 569.758l-0.196-75.146c-1.498-35.466-11.738-65.516-30.64-85.72 27.174 19.22 41.668 54.152 43.46 96.944l0.196 75.146-12.82-11.224z" fill="#E9E8E6" /><path d="M859.432 619.914l86.842-50.156 12.84 11.224-99.644 57.52-0.04-18.588z" fill="#FFFFFF" /><path d="M908.74 404.58c2.324 1.318 4.53 2.794 6.696 4.33 18.904 20.186 29.144 50.216 30.62 85.7l0.22 75.148-86.844 50.156-0.16-56.556c1.696-48.306 18.16-104.546 49.47-158.78z" fill="#434240" /><path d="M955.374 541.34l-0.906 315.374-220.082 127.9 0.886-315.372 220.1-127.9z" fill="#C4C2C0" /><path d="M954.566 822.94l-0.1 33.774-220.08 127.9 0.078-33.772 220.1-127.9z" fill="#DD4A4A" /><path d="M735.272 669.244l-0.886 315.372-176.11-101.672 0.888-315.372 176.108 101.672z" fill="#D6D4D2" /><path d="M734.464 950.844l-0.08 33.772-176.108-101.672 0.1-33.772 176.088 101.672z" fill="#F25A5A" /><path d="M955.374 541.34l-220.102 127.902-176.108-101.67 220.1-127.9 176.11 101.67z" fill="#DCDCDC" /><path d="M88.104 718.258l0.216-75.146c1.496-35.466 11.716-65.516 30.62-85.7-27.154 19.2-41.648 54.132-43.44 96.924l-0.216 75.166 12.82-11.244z" fill="#E9E8E6" /><path d="M174.966 768.394l-86.842-50.136-12.84 11.224 99.642 57.54 0.04-18.628z" fill="#FFFFFF" /><path d="M125.636 553.08a88.29 88.29 0 0 0-6.694 4.33c-18.906 20.186-29.146 50.216-30.622 85.7l-0.196 75.148 86.842 50.156 0.158-56.556c-1.694-48.306-18.176-104.548-49.468-158.78h-0.02z" fill="#434240" /><path d="M247.828 811.086l0.196-75.146c1.498-35.464 11.738-65.516 30.64-85.72-27.174 19.22-41.668 54.154-43.46 96.946l-0.196 75.146 12.82-11.226z" fill="#E9E8E6" /><path d="M334.67 861.244l-86.842-50.158-12.84 11.226 99.644 57.52 0.04-18.588z" fill="#FFFFFF" /><path d="M285.36 644.982a79.072 79.072 0 0 0-6.694 4.312c-18.904 20.206-29.144 50.236-30.62 85.72l-0.22 75.148 86.844 50.136 0.16-56.536c-1.696-48.326-18.158-104.566-49.468-158.78z" fill="#434240" /><path d="M518.696 816.64l-0.198-75.166c-1.496-35.466-11.736-65.516-30.64-85.72 27.174 19.22 41.668 54.154 43.46 96.946l0.216 75.144-12.84-11.204z" fill="#E9E8E6" /><path d="M431.852 866.756l86.844-50.136 12.84 11.224-99.644 57.522-0.04-18.61z" fill="#FFFFFF" /><path d="M481.162 651.42c2.324 1.34 4.53 2.818 6.696 4.334 18.904 20.204 29.144 50.254 30.64 85.72l0.198 75.146-86.844 50.138-0.158-56.518c1.694-48.324 18.176-104.566 49.468-158.8v-0.02z" fill="#434240" /><path d="M908.642 861.36l-0.256-91.252c-1.812-43.068-14.238-79.558-37.18-104.094 32.966 23.334 50.59 65.752 52.776 117.74l0.256 91.254-15.596-13.646z" fill="#E9E8E6" /><path d="M803.17 922.25l105.472-60.888 15.596 13.646-120.988 69.848-0.08-22.606z" fill="#FFFFFF" /><path d="M863.054 660.776a106.3 106.3 0 0 1 8.154 5.238c22.94 24.536 35.366 61.026 37.18 104.094l0.254 91.254-105.472 60.888-0.196-68.648c2.068-58.682 22.054-126.976 60.08-192.826z" fill="#434240" /><path d="M657.526 376.596v36.43c0 21.898-14.376 43.756-43.106 60.456-50.334 29.26-128.256 32.984-185.896 11.186a164.682 164.682 0 0 1-23.768-11.186c-29.204-16.836-43.796-38.952-43.796-61.046v-35.84c-0.006-73.772 54.24-136.32 127.272-146.748l0.04-0.02a149.072 149.072 0 0 1 20.972-1.476 147.688 147.688 0 0 1 104.84 43.42 147.686 147.686 0 0 1 43.422 104.824h0.02z" fill="#3DB542" /><path d="M428.544 484.666a164.66 164.66 0 0 1-23.788-11.184c-29.204-16.838-43.796-38.952-43.796-61.046v-35.84c-0.004-73.78 54.252-136.328 127.292-146.748-2.364 2.324-89.64 90.034-59.708 254.82z" fill="#2C9A2C" /><path d="M589.922 484.666a164.66 164.66 0 0 0 23.788-11.184c29.204-16.838 43.796-38.952 43.796-61.046v-35.84c0.004-73.78-54.252-136.328-127.29-146.748 2.362 2.324 89.64 90.034 59.706 254.82z" fill="#6DCB60" /><path d="M670.544 333.116l-0.12 43.224c-0.08 24.024-15.872 48.01-47.42 66.344-63.446 36.882-166.674 36.902-230.596 0-32.098-18.552-48.166-42.91-48.088-67.23l0.12-43.226c-0.06 24.32 15.988 48.68 48.106 67.23 63.902 36.904 167.13 36.884 230.598 0 31.528-18.314 47.34-42.32 47.4-66.342z" fill="#6DCB60" /><path d="M623.144 399.46c-57.7 33.534-148.284 36.586-212.284 9.116v43.284c64 27.392 154.486 24.34 212.146-9.176 31.546-18.334 47.34-42.32 47.42-66.344l0.116-43.224c-0.058 24.024-15.872 48.008-47.398 66.362v-0.02z" fill="#6DCB60" /><path d="M623.144 399.46c-22.154 12.878-49.132 21.226-77.588 25.126v43.204c28.396-3.9 55.336-12.268 77.45-25.106 31.546-18.334 47.34-42.32 47.42-66.344l0.116-43.224c-0.06 24.024-15.872 48.008-47.4 66.362v-0.02z" fill="#6DCB60" /><path d="M623.656 399.144v43.126c31.114-18.274 46.69-42.082 46.768-65.93l0.12-43.224c-0.06 23.886-15.696 47.734-46.868 66.028h-0.02z" fill="#6DCB60" /><path d="M622.416 265.886c63.9 36.884 64.196 96.688 0.728 133.572-63.468 36.884-166.696 36.904-230.598 0-63.842-36.864-64.196-96.67-0.728-133.552 63.488-36.884 166.734-36.884 230.598-0.02z" fill="#81D672" /><path d="M657.526 286.918v36.43c0 21.898-14.376 43.736-43.106 60.456-50.334 29.26-128.256 32.984-185.896 11.166a164.848 164.848 0 0 1-23.768-11.166c-29.204-16.84-43.796-38.952-43.796-61.046v-35.84c-0.006-73.772 54.24-136.32 127.272-146.748l0.04-0.04a149.07 149.07 0 0 1 20.972-1.476 147.688 147.688 0 0 1 104.84 43.44 147.688 147.688 0 0 1 43.422 104.824h0.02z" fill="#3DB542" /><path d="M428.544 394.968a164.828 164.828 0 0 1-23.788-11.164c-29.204-16.84-43.796-38.952-43.796-61.048v-35.84c-0.004-73.778 54.252-136.326 127.292-146.746-2.364 2.324-89.64 90.034-59.708 254.818v-0.02z" fill="#2C9A2C" /><path d="M589.922 394.968a164.818 164.818 0 0 0 23.788-11.164c29.204-16.84 43.796-38.952 43.796-61.048v-35.84c0.004-73.778-54.252-136.326-127.29-146.746 2.362 2.324 89.64 90.034 59.706 254.818v-0.02z" fill="#6DCB60" /><path d="M521.708 148.046l-0.118 6.5c0 2.106-1.38 4.194-4.136 5.788-5.514 3.21-14.532 3.23-20.086 0-2.816-1.614-4.214-3.74-4.214-5.868l0.12-6.498c0 2.126 1.378 4.254 4.194 5.868 5.572 3.21 14.572 3.21 20.086 0 2.756-1.594 4.134-3.7 4.154-5.79z" fill="#D6D4D2" /><path d="M517.514 142.18c5.572 3.228 5.592 8.426 0.06 11.656-5.534 3.21-14.534 3.21-20.106 0-5.574-3.23-5.614-8.428-0.08-11.658 5.554-3.21 14.552-3.21 20.126 0z" fill="#E9E8E6" /><path d="M518.32 101.278l-0.078 45.488c0 1.576-1.062 3.19-3.15 4.412a16.896 16.896 0 0 1-15.36 0c-2.128-1.24-3.19-2.856-3.19-4.47l0.08-45.49c0 1.616 1.06 3.23 3.208 4.47a16.896 16.896 0 0 0 15.34 0c2.088-1.22 3.152-2.816 3.152-4.41z" fill="#D6D4D2" /><path d="M515.112 96.808c4.252 2.46 4.272 6.44 0.06 8.88a16.896 16.896 0 0 1-15.34 0c-4.256-2.46-4.276-6.42-0.06-8.86a16.896 16.896 0 0 1 15.36 0l-0.02-0.02z m-4.294-9.748l-3.978-2.304c5.534 3.21 13.214 2.756 21.68-2.128 3.782-2.184 7.386-5.06 10.714-8.408l3.998 2.324c-3.328 3.348-6.932 6.222-10.712 8.408-8.468 4.884-16.148 5.338-21.68 2.128l-0.02-0.02z" fill="#E9E8E6" /><path d="M528.54 48.836l-3.976-2.304 8.014-3.308 3.998 2.324-8.034 3.288z" fill="#C4C2C0" /><path d="M517.81 72.132l-4-2.322 1.36-9.984 3.998 2.322-1.36 9.984z m3.544-19.12l-3.998-2.324 3.584-10.436 3.998 2.322-3.584 10.438z" fill="#D6D4D2" /><path d="M524.938 42.574l3.624 6.282 8.014-3.308-5.79 9.886 1.4 8.408-7.19-0.196-7.186 8.486 1.358-9.984-5.828-3.17 8.014-5.966 3.584-10.438z" fill="#E9E8E6" /><path d="M513.34 58.98l-4-2.326 8.016-5.966 3.998 2.324-8.014 5.966z" fill="#C4C2C0" /><path d="M497.762 105.55l-3.998-2.322c-5.474-3.19-8.86-9.966-8.9-19.594-0.04-15.006 8.152-32.592 19.692-44.25l3.998 2.324c-11.54 11.66-19.732 29.244-19.692 44.25 0.02 9.628 3.426 16.402 8.9 19.592z" fill="#D6D4D2" /><path d="M508.554 41.708c-4.156 8.428-6.636 17.506-6.616 25.798 0.06 19.356 13.744 27.174 30.58 17.446 3.782-2.186 7.386-5.06 10.714-8.408-5.574 11.224-14.14 21.326-23.768 26.88-16.838 9.728-30.544 1.91-30.602-17.468-0.04-15.004 8.152-32.59 19.692-44.248z" fill="#E9E8E6" /></svg>