<?xml version="1.0" standalone="no"?><!DOCTYPE svg PUBLIC "-//W3C//DTD SVG 1.1//EN" "http://www.w3.org/Graphics/SVG/1.1/DTD/svg11.dtd"><svg class="icon" width="200px" height="200.00px" viewBox="0 0 1024 1024" version="1.1" xmlns="http://www.w3.org/2000/svg"><path d="M853.582 561.82L470.292 339.08l-15.774-16.324 383.292 222.76 15.772 16.304z" fill="#204D70" /><path d="M570.072 975.34L186.78 752.6l-0.65-274.864 383.292 222.72 0.648 274.884z" fill="#D6D4D2" /><path d="M837.808 545.516L454.5 322.756l-134.794-139.264 383.31 222.76 134.794 139.264z" fill="#204D70" /><path d="M569.424 700.454L186.132 477.734l133.592-294.24 383.292 222.76-133.592 294.2z" fill="#A3A2A0" /><path d="M703.016 406.252l134.792 139.264 0.65 274.866-268.366 154.98-0.65-274.868 133.574-294.24z" fill="#E9E8E6" /><path d="M537.56 731.038L154.272 508.318l165.336-364.17 383.292 222.72-165.336 364.17z" fill="#3F9AE0" /><path d="M537.56 731.038L154.272 508.318l121.58-267.776 383.292 222.72-121.58 267.776z" fill="#0074D1" /><path d="M537.56 731.038L154.272 508.318l93.34-205.588 383.292 222.74-93.34 205.568z" fill="#0074D1" /><path d="M537.56 731.036L154.272 508.316l57.344-126.286 383.292 222.72-57.344 126.286z" fill="#3F9AE0" /><path d="M702.898 366.908l166.832 172.366-16.148 22.548-15.774-16.306-134.792-139.284-149.268 328.686-16.188-3.88 165.338-364.13z" fill="#006CB5" /><path d="M745.55 546.186c0.06 24.556-17.27 54.586-38.656 66.954-10.752 6.184-20.5 6.754-27.568 2.66a10.13 10.13 0 0 0-0.512-0.298l-5.16-3.012c-6.97-4.038-11.304-12.642-11.342-24.852-0.06-24.556 17.27-54.586 38.636-66.934 10.772-6.204 20.54-6.774 27.588-2.68l5.712 3.31a7.376 7.376 0 0 0-0.552-0.296c7.286 3.94 11.816 12.624 11.854 25.148z" fill="#434240" /><path d="M711.896 610.5l-6.95-4.036c17.82-12.604 31.94-37.08 33.91-58.684l6.95 4.038c-1.968 21.602-16.088 46.08-33.91 58.682z" fill="#FFFFFF" /><path d="M703.154 615.56l-6.952-4.054-0.1-39.05 6.952 4.036 0.1 39.07z m24.654-97.712l6.952 4.038c5.966 3.466 9.984 10.28 11.028 19.85l-6.972-4.038c-1.024-9.57-5.04-16.384-11.028-19.85h0.02z" fill="#D6D4D2" /><path d="M680.054 615.976l-6.952-4.038c6.066 3.526 14.12 3.584 23.1-0.432l6.952 4.056c-8.98 3.998-17.034 3.94-23.1 0.414z m31.704-54.588l-6.95-4.056 34.008-19.634 6.952 4.038-34.01 19.652z m-42.752 24.674l-6.95-4.036 34.008-19.634 6.952 4.038-34.01 19.632z" fill="#FFFFFF" /><path d="M703.016 566.43l-6.952-4.038-0.1-39.068 6.952 4.036 0.1 39.07z" fill="#D6D4D2" /><path d="M734.01 507.176l6.952 4.036c-8.624-5-20.56-4.332-33.712 3.288l-6.952-4.056c13.154-7.58 25.088-8.27 33.712-3.268z" fill="#FFFFFF" /><path d="M673.87 626.668l-6.95-4.056c-8.508-4.924-13.786-15.44-13.844-30.366-0.08-30.03 21.09-66.718 47.222-81.8l6.952 4.054c-26.112 15.066-47.3 51.752-47.222 81.784 0.04 14.926 5.316 25.422 13.842 30.384z" fill="#D6D4D2" /><path d="M707.25 514.5c26.13-15.104 47.458-2.952 47.556 27.078 0.1 30.03-21.11 66.718-47.26 81.8-26.114 15.086-47.42 2.956-47.52-27.094-0.078-30.032 21.112-66.72 47.224-81.784z m-4.234 51.93l-0.1-39.07c-17.82 12.604-31.92 37.08-33.91 58.702l34.01-19.632z m8.644-44.112l0.1 39.07 34.008-19.652c-2.068-19.3-16.286-27.372-34.108-19.418z m0.236 88.182c17.822-12.602 31.94-37.08 33.91-58.682l-34.008 19.634 0.1 39.048z m-8.742 5.06l-0.1-39.068-34.008 19.634c2.068 19.298 16.286 27.392 34.108 19.436z" fill="#C4C2C0" /><path d="M230.636 702.346l0.14-49.212c0.982-23.236 7.68-42.89 20.044-56.122-17.78 12.602-27.272 35.446-28.454 63.488l-0.14 49.192 8.41-7.346z" fill="#E9E8E6" /><path d="M287.508 735.172l-56.872-32.826-8.408 7.346 65.24 37.67 0.04-12.19z" fill="#FFFFFF" /><path d="M255.212 594.196c-1.508 0.872-2.974 1.82-4.392 2.836-12.386 13.212-19.08 32.886-20.046 56.122l-0.138 49.192 56.852 32.826 0.12-37.02c-1.124-31.626-11.896-68.452-32.396-103.976v0.02z" fill="#434240" /><path d="M348.456 770.364l0.138-49.192c0.984-23.238 7.68-42.91 20.046-56.124-17.782 12.584-27.274 35.446-28.456 63.468l-0.138 49.212 8.41-7.364z" fill="#E9E8E6" /><path d="M405.308 803.19l-56.852-32.826-8.41 7.364 65.24 37.652 0.02-12.19z" fill="#FFFFFF" /><path d="M373.032 662.212c-1.51 0.874-2.976 1.82-4.392 2.836-12.366 13.214-19.08 32.886-20.046 56.124l-0.14 49.192 56.852 32.826 0.12-37.02c-1.124-31.628-11.896-68.452-32.394-103.958z" fill="#434240" /><path d="M466.274 838.4l0.14-49.212c0.982-23.236 7.68-42.888 20.046-56.122-17.784 12.584-27.274 35.446-28.456 63.468l-0.14 49.212 8.41-7.346z" fill="#E9E8E6" /><path d="M523.146 871.226L466.274 838.4l-8.408 7.346 65.24 37.65 0.04-12.17z" fill="#FFFFFF" /><path d="M490.85 730.25c-1.508 0.866-2.974 1.806-4.39 2.816-12.368 13.232-19.064 32.886-20.048 56.122l-0.138 49.212 56.872 32.828 0.1-37.022c-1.104-31.646-11.896-68.45-32.396-103.976v0.02z" fill="#434240" /><path d="M562.058 938.634l8.014-4.668-0.06 41.354-8.014 4.648 0.06-41.334z" fill="#7E8A8C" /><path d="M178.668 717.292l8.016-4.666 383.388 221.34-8.014 4.668-383.39-221.34z" fill="#A0A8AA" /><path d="M562.058 938.634l-0.06 41.334-383.408-221.34 0.08-41.356 383.388 221.362z m220.12-117.86l-8.034-4.666 0.06 41.334 8.014 4.648-0.04-41.314z" fill="#8D9799" /><path d="M846.376 783.676l-8.016-4.648-64.216 37.08 8.014 4.648 64.218-37.08z" fill="#A0A8AA" /><path d="M782.178 820.776l0.04 41.314 64.216-37.08-0.058-41.334-64.198 37.1zM569.934 943.28l-8.014-4.648 0.08 41.314 8.014 4.668-0.08-41.334z" fill="#8D9799" /><path d="M674.66 882.826l-8.036-4.648-104.704 60.456 8.014 4.648 104.724-60.456z" fill="#A0A8AA" /><path d="M569.934 943.28l0.08 41.336 104.684-60.456-0.06-41.334-104.704 60.456z" fill="#8D9799" /><path d="M774.656 857.206l-0.196-76.622c-1.97-46.474-18.826-83.732-50.492-101.81-23.868 41.354-39.108 83.85-45.844 123.156l96.14 55.532 0.392-0.256z" fill="#CC4848" /><path d="M678.124 801.93a273.392 273.392 0 0 0-3.86 36.49l0.198 76.642 99.8-57.62-96.138-55.512z" fill="#F25A5A" /><path d="M778.594 878.1l-11.972-6.952-0.218-80.246 11.974 6.952 0.216 80.246zM672.08 939.6l-11.992-6.952-0.196-80.6 11.952 6.95 0.236 80.6z" fill="#D6D4D2" /><path d="M778.378 797.854l-11.972-6.952c-2.068-48.05-19.36-84.48-48.838-103.188l11.972 6.952c29.48 18.708 46.77 55.14 48.838 103.188z" fill="#FFFFFF" /><path d="M671.842 859l-11.972-6.954c1.91-55.08 21.188-116.952 54.252-174.236l11.972 6.95c-33.062 57.306-52.34 119.18-54.252 174.24z" fill="#FFFFFF" /><path d="M729.5 678.872l-11.972-6.95 3.428 1.93 11.972 6.97-3.426-1.95z" fill="#E9E8E6" /><path d="M726.094 684.76l-11.972-6.95 3.406-5.908 11.974 6.97-3.408 5.888z" fill="#FFFFFF" /><path d="M729.5 678.872l3.428 1.95c33.28 19.004 52.854 58.466 55.1 111.104l0.216 80.6-9.65 5.574-0.216-80.246c-2.068-48.05-19.358-84.48-48.838-103.188-29.26 52.58-46.276 108.86-48.048 159.114l0.216 80.264-9.648 5.554-0.198-80.6c1.89-55.06 21.17-116.932 54.232-174.238l3.408-5.888z" fill="#B2B0AF" /><path d="M639.468 215.02l-0.452 114.668-31.646-18.332-41.728 69.12 0.472-122.84 73.354-42.616z" fill="#D6D4D2" /><path d="M566.114 257.634l-0.472 122.82-73.826-42.612 0.472-122.82 73.826 42.612z" fill="#E9E8E6" /><path d="M639.468 215.02l-73.354 42.614-73.806-42.594 73.354-42.634 73.806 42.614z" fill="#E9E8E6" /><path d="M565.938 114.628l83.83 114.432-83.988 48.82 0.158-148.62v-14.632z" fill="#0074D1" /><path d="M565.938 129.26l-0.16 148.62-84.518-48.82 84.678-114.412v14.612z" fill="#3F9AE0" /><path d="M563.516 144.148l-7.208-4.176-0.178-58.624 7.228 4.196 0.158 58.604z" fill="#DDB040" /><path d="M575.41 64.67l-7.208-4.194 13.49-7.78 7.206 4.196-13.488 7.778z" fill="#CEA03A" /><path d="M549.888 93.302l-7.208-4.174-0.04-13.904 7.208 4.196 0.04 13.882z" fill="#DDB040" /><path d="M549.848 79.42l-7.206-4.196 13.45-7.76 7.226 4.196-13.47 7.76z" fill="#CEA03A" /><path d="M563.32 71.66l-7.228-4.194-0.06-21.09 7.228 4.194 0.06 21.09z" fill="#DDB040" /><path d="M563.26 50.57l-7.228-4.194 12.11-6.992 7.208 4.196-12.09 6.99z" fill="#FFD651" /><path d="M575.35 43.58l0.06 21.07 13.488-7.76 0.04 13.884-13.49 7.78 0.178 58.622-12.11 6.992-0.16-58.624-13.468 7.758-0.04-13.882 13.47-7.76-0.06-21.09 12.092-6.99z" fill="#EFC348" /><path d="M432.76 403.968a2.974 2.974 0 0 1 0 5.73 58.486 58.486 0 0 0-37.3 37.298 2.974 2.974 0 0 1-5.73 0 58.368 58.368 0 0 0-37.296-37.298 2.974 2.974 0 0 1 0-5.71 58.486 58.486 0 0 0 37.276-37.318 2.974 2.974 0 0 1 5.732 0 58.486 58.486 0 0 0 37.316 37.298z" fill="#FFFFFF" /></svg>